<?xml version="1.0" encoding="UTF-8" standalone="no"?>
<!-- Created with Bouml (http://bouml.free.fr/) -->
<!DOCTYPE svg PUBLIC "-//W3C//DTD SVG 1.1//EN" "http://www.w3.org/Graphics/SVG/1.1/DTD/svg11.dtd">
<svg width="622" height="808" version="1.1" xmlns="http://www.w3.org/2000/svg">
<g>
	<rect fill="none" stroke="black" stroke-opacity="1" x="324" y="675" width="80" height="48" rx="10" />
</g>
	<text font-family="MS Shell Dlg 2" font-size="6" fill="#000000" xml:space="preserve" text-anchor="middle" x="364" y="699">Dodavanje</text>
	<text font-family="MS Shell Dlg 2" font-size="6" fill="#000000" xml:space="preserve" text-anchor="middle" x="364" y="710">clana</text>
<g>
	<rect fill="none" stroke="black" stroke-opacity="1" x="429" y="156" width="80" height="48" rx="10" />
</g>
	<text font-family="MS Shell Dlg 2" font-size="6" fill="#000000" xml:space="preserve" text-anchor="middle" x="469" y="186">Pretraga knjige</text>
<g>
	<rect fill="none" stroke="black" stroke-opacity="1" x="428" y="233" width="80" height="48" rx="10" />
</g>
	<text font-family="MS Shell Dlg 2" font-size="6" fill="#000000" xml:space="preserve" text-anchor="middle" x="468" y="252">Provera da li</text>
	<text font-family="MS Shell Dlg 2" font-size="6" fill="#000000" xml:space="preserve" text-anchor="middle" x="468" y="263">knjiga postoji u</text>
	<text font-family="MS Shell Dlg 2" font-size="6" fill="#000000" xml:space="preserve" text-anchor="middle" x="468" y="274">sistemu</text>
<g>
	<rect fill="none" stroke="black" stroke-opacity="1" x="530" y="485" width="80" height="48" rx="10" />
</g>
	<text font-family="MS Shell Dlg 2" font-size="6" fill="#000000" xml:space="preserve" text-anchor="middle" x="570" y="509">Provera da li je</text>
	<text font-family="MS Shell Dlg 2" font-size="6" fill="#000000" xml:space="preserve" text-anchor="middle" x="570" y="520">na stanju</text>
<g>
	<rect fill="none" stroke="black" stroke-opacity="1" x="75" y="353" width="80" height="48" rx="10" />
</g>
	<text font-family="MS Shell Dlg 2" font-size="6" fill="#000000" xml:space="preserve" text-anchor="middle" x="115" y="377">Odabir</text>
	<text font-family="MS Shell Dlg 2" font-size="6" fill="#000000" xml:space="preserve" text-anchor="middle" x="115" y="388">rezervacije</text>
<g>
	<rect fill="none" stroke="black" stroke-opacity="1" x="206" y="484" width="80" height="48" rx="10" />
</g>
	<text font-family="MS Shell Dlg 2" font-size="6" fill="#000000" xml:space="preserve" text-anchor="middle" x="246" y="508">Provera da li</text>
	<text font-family="MS Shell Dlg 2" font-size="6" fill="#000000" xml:space="preserve" text-anchor="middle" x="246" y="519">clan postoji</text>
<g>
	<rect fill="none" stroke="black" stroke-opacity="1" x="99" y="629" width="80" height="56" rx="10" />
</g>
	<text font-family="MS Shell Dlg 2" font-size="6" fill="#000000" xml:space="preserve" text-anchor="middle" x="139" y="647">Provera da li</text>
	<text font-family="MS Shell Dlg 2" font-size="6" fill="#000000" xml:space="preserve" text-anchor="middle" x="139" y="658">clan</text>
	<text font-family="MS Shell Dlg 2" font-size="6" fill="#000000" xml:space="preserve" text-anchor="middle" x="139" y="669">zadovoljava</text>
	<text font-family="MS Shell Dlg 2" font-size="6" fill="#000000" xml:space="preserve" text-anchor="middle" x="139" y="680">uslove</text>
<polygon fill="white" stroke="black" stroke-opacity="1" points ="464,314 470,303 476,314 470,325" />
<polygon fill="white" stroke="black" stroke-opacity="1" points ="459,128 465,117 471,128 465,139" />
	<ellipse fill="black" stroke="none" cx="297" cy="8" rx="5.5" ry="5.5" />
<g>
	<rect fill="none" stroke="black" stroke-opacity="1" x="145" y="148" width="80" height="48" rx="10" />
</g>
	<text font-family="MS Shell Dlg 2" font-size="6" fill="#000000" xml:space="preserve" text-anchor="middle" x="185" y="167">Prikaz</text>
	<text font-family="MS Shell Dlg 2" font-size="6" fill="#000000" xml:space="preserve" text-anchor="middle" x="185" y="178">rezervisanih</text>
	<text font-family="MS Shell Dlg 2" font-size="6" fill="#000000" xml:space="preserve" text-anchor="middle" x="185" y="189">knjiga</text>
<g>
	<rect fill="none" stroke="black" stroke-opacity="1" x="48" y="748" width="80" height="48" rx="10" />
</g>
	<text font-family="MS Shell Dlg 2" font-size="6" fill="#000000" xml:space="preserve" text-anchor="middle" x="88" y="772">Izdavanje</text>
	<text font-family="MS Shell Dlg 2" font-size="6" fill="#000000" xml:space="preserve" text-anchor="middle" x="88" y="783">knjige</text>
<g>
	<rect fill="none" stroke="black" stroke-opacity="1" x="530" y="411" width="80" height="48" rx="10" />
</g>
	<text font-family="MS Shell Dlg 2" font-size="6" fill="#000000" xml:space="preserve" text-anchor="middle" x="570" y="435">Prikaz detalja</text>
	<text font-family="MS Shell Dlg 2" font-size="6" fill="#000000" xml:space="preserve" text-anchor="middle" x="570" y="446">knjige</text>
<g>
	<rect fill="none" stroke="black" stroke-opacity="1" x="262" y="616" width="80" height="48" rx="10" />
</g>
	<text font-family="MS Shell Dlg 2" font-size="6" fill="#000000" xml:space="preserve" text-anchor="middle" x="302" y="640">Provera da li</text>
	<text font-family="MS Shell Dlg 2" font-size="6" fill="#000000" xml:space="preserve" text-anchor="middle" x="302" y="651">zeli da se uclani</text>
<g>
	<rect fill="none" stroke="black" stroke-opacity="1" x="327" y="346" width="80" height="48" rx="10" />
</g>
	<text font-family="MS Shell Dlg 2" font-size="6" fill="#000000" xml:space="preserve" text-anchor="middle" x="367" y="365">Provera da li</text>
	<text font-family="MS Shell Dlg 2" font-size="6" fill="#000000" xml:space="preserve" text-anchor="middle" x="367" y="376">hoce drugu</text>
	<text font-family="MS Shell Dlg 2" font-size="6" fill="#000000" xml:space="preserve" text-anchor="middle" x="367" y="387">knjigu</text>
<g>
	<rect fill="none" stroke="black" stroke-opacity="1" x="205" y="401" width="80" height="48" rx="10" />
</g>
	<text font-family="MS Shell Dlg 2" font-size="6" fill="#000000" xml:space="preserve" text-anchor="middle" x="245" y="431">Pretraga clana</text>
<g>
	<rect fill="none" stroke="black" stroke-opacity="1" x="530" y="336" width="80" height="48" rx="10" />
</g>
	<text font-family="MS Shell Dlg 2" font-size="6" fill="#000000" xml:space="preserve" text-anchor="middle" x="570" y="366">Odabir knjige</text>
<g>
	<rect fill="none" stroke="black" stroke-opacity="1" x="258" y="37" width="80" height="48" rx="10" />
</g>
	<text font-family="MS Shell Dlg 2" font-size="6" fill="#000000" xml:space="preserve" text-anchor="middle" x="298" y="56">Provera da li</text>
	<text font-family="MS Shell Dlg 2" font-size="6" fill="#000000" xml:space="preserve" text-anchor="middle" x="298" y="67">clan ima</text>
	<text font-family="MS Shell Dlg 2" font-size="6" fill="#000000" xml:space="preserve" text-anchor="middle" x="298" y="78">rezervaciju</text>
<g>
	<rect fill="none" stroke="black" stroke-opacity="1" x="145" y="231" width="80" height="62" rx="10" />
</g>
	<text font-family="MS Shell Dlg 2" font-size="6" fill="#000000" xml:space="preserve" text-anchor="middle" x="185" y="251">Provera da li</text>
	<text font-family="MS Shell Dlg 2" font-size="6" fill="#000000" xml:space="preserve" text-anchor="middle" x="185" y="262">postoji</text>
	<text font-family="MS Shell Dlg 2" font-size="6" fill="#000000" xml:space="preserve" text-anchor="middle" x="185" y="273">rezervacija na</text>
	<text font-family="MS Shell Dlg 2" font-size="6" fill="#000000" xml:space="preserve" text-anchor="middle" x="185" y="284">ime tog clana</text>
<polygon fill="white" stroke="black" stroke-opacity="1" points ="467,548 473,537 479,548 473,559" />
<polygon fill="white" stroke="black" stroke-opacity="1" points ="292,122 298,111 304,122 298,133" />
<polygon fill="white" stroke="black" stroke-opacity="1" points ="178,327 184,316 190,327 184,338" />
<polygon fill="white" stroke="black" stroke-opacity="1" points ="362,306 368,295 374,306 368,317" />
<g>
	<ellipse fill="white" stroke="black" stroke-width="1" stroke-opacity="1" cx="217" cy="773" rx="7.5" ry="7.5" />
	<ellipse fill="black" cx="217" cy="773" rx="4.5" ry="4.5" />
</g>
<g>
	<ellipse fill="white" stroke="black" stroke-width="1" stroke-opacity="1" cx="427" cy="305" rx="7.5" ry="7.5" />
	<ellipse fill="black" cx="427" cy="305" rx="4.5" ry="4.5" />
</g>
<polygon fill="white" stroke="black" stroke-opacity="1" points ="241,580 247,569 253,580 247,591" />
<polygon fill="white" stroke="black" stroke-opacity="1" points ="133,712 139,701 145,712 139,723" />
<g>
	<line stroke="black" stroke-opacity="1" x1="466" y1="155" x2="471" y2="148" />
	<line stroke="black" stroke-opacity="1" x1="466" y1="155" x2="459" y2="149" />
	<line stroke="black" stroke-opacity="1" x1="465" y1="140" x2="466" y2="155" />
</g>
<g>
	<line stroke="black" stroke-opacity="1" x1="468" y1="232" x2="474" y2="226" />
	<line stroke="black" stroke-opacity="1" x1="468" y1="232" x2="462" y2="226" />
	<line stroke="black" stroke-opacity="1" x1="468" y1="204" x2="468" y2="232" />
</g>
<g>
	<line stroke="black" stroke-opacity="1" x1="478" y1="313" x2="570" y2="312" />
</g>
<g>
	<line stroke="black" stroke-opacity="1" x1="472" y1="535" x2="471" y2="384" />
</g>
<g>
	<line stroke="black" stroke-opacity="1" x1="571" y1="533" x2="572" y2="549" />
</g>
<g>
	<line stroke="black" stroke-opacity="1" x1="570" y1="484" x2="576" y2="478" />
	<line stroke="black" stroke-opacity="1" x1="570" y1="484" x2="564" y2="478" />
	<line stroke="black" stroke-opacity="1" x1="570" y1="459" x2="570" y2="484" />
</g>
<g>
	<line stroke="black" stroke-opacity="1" x1="570" y1="410" x2="576" y2="404" />
	<line stroke="black" stroke-opacity="1" x1="570" y1="410" x2="564" y2="404" />
	<line stroke="black" stroke-opacity="1" x1="570" y1="384" x2="570" y2="410" />
</g>
<g>
	<line stroke="black" stroke-opacity="1" x1="469" y1="301" x2="474" y2="294" />
	<line stroke="black" stroke-opacity="1" x1="469" y1="301" x2="462" y2="295" />
	<line stroke="black" stroke-opacity="1" x1="468" y1="281" x2="469" y2="301" />
</g>
<g>
	<line stroke="black" stroke-opacity="1" x1="471" y1="326" x2="471" y2="365" />
</g>
<g>
	<line stroke="black" stroke-opacity="1" x1="456" y1="122" x2="450" y2="116" />
	<line stroke="black" stroke-opacity="1" x1="456" y1="122" x2="450" y2="128" />
	<line stroke="black" stroke-opacity="1" x1="306" y1="122" x2="456" y2="122" />
</g>
<g>
	<line stroke="black" stroke-opacity="1" x1="184" y1="314" x2="190" y2="308" />
	<line stroke="black" stroke-opacity="1" x1="184" y1="314" x2="178" y2="308" />
	<line stroke="black" stroke-opacity="1" x1="184" y1="293" x2="184" y2="314" />
</g>
<g>
	<line stroke="black" stroke-opacity="1" x1="289" y1="121" x2="185" y2="120" />
</g>
<g>
	<line stroke="black" stroke-opacity="1" x1="175" y1="326" x2="113" y2="325" />
</g>
<g>
	<line stroke="black" stroke-opacity="1" x1="192" y1="326" x2="335" y2="325" />
</g>
<g>
	<line stroke="black" stroke-opacity="1" x1="185" y1="230" x2="191" y2="224" />
	<line stroke="black" stroke-opacity="1" x1="185" y1="230" x2="179" y2="224" />
	<line stroke="black" stroke-opacity="1" x1="185" y1="196" x2="185" y2="230" />
</g>
<g>
	<line stroke="black" stroke-opacity="1" x1="297" y1="36" x2="303" y2="30" />
	<line stroke="black" stroke-opacity="1" x1="297" y1="36" x2="291" y2="30" />
	<line stroke="black" stroke-opacity="1" x1="297" y1="15" x2="297" y2="36" />
</g>
<g>
	<line stroke="black" stroke-opacity="1" x1="298" y1="109" x2="304" y2="103" />
	<line stroke="black" stroke-opacity="1" x1="298" y1="109" x2="292" y2="103" />
	<line stroke="black" stroke-opacity="1" x1="298" y1="85" x2="298" y2="109" />
</g>
<g>
	<line stroke="black" stroke-opacity="1" x1="367" y1="318" x2="361" y2="324" />
	<line stroke="black" stroke-opacity="1" x1="367" y1="318" x2="373" y2="324" />
	<line stroke="black" stroke-opacity="1" x1="367" y1="345" x2="367" y2="318" />
</g>
<g>
	<line stroke="black" stroke-opacity="1" x1="130" y1="712" x2="88" y2="713" />
</g>
<g>
	<line stroke="black" stroke-opacity="1" x1="147" y1="712" x2="219" y2="713" />
</g>
<g>
	<line stroke="black" stroke-opacity="1" x1="74" y1="369" x2="28" y2="369" />
</g>
<g>
	<line stroke="black" stroke-opacity="1" x1="246" y1="567" x2="252" y2="561" />
	<line stroke="black" stroke-opacity="1" x1="246" y1="567" x2="240" y2="561" />
	<line stroke="black" stroke-opacity="1" x1="246" y1="532" x2="246" y2="567" />
</g>
<g>
	<line stroke="black" stroke-opacity="1" x1="208" y1="772" x2="202" y2="766" />
	<line stroke="black" stroke-opacity="1" x1="208" y1="772" x2="202" y2="778" />
	<line stroke="black" stroke-opacity="1" x1="128" y1="772" x2="208" y2="772" />
</g>
<g>
	<line stroke="black" stroke-opacity="1" x1="255" y1="580" x2="300" y2="580" />
</g>
<g>
	<line stroke="black" stroke-opacity="1" x1="464" y1="547" x2="384" y2="546" />
</g>
<g>
	<line stroke="black" stroke-opacity="1" x1="367" y1="293" x2="365" y2="132" />
</g>
<g>
	<line stroke="black" stroke-opacity="1" x1="418" y1="305" x2="412" y2="299" />
	<line stroke="black" stroke-opacity="1" x1="418" y1="305" x2="412" y2="311" />
	<line stroke="black" stroke-opacity="1" x1="376" y1="305" x2="418" y2="305" />
</g>
<g>
	<line stroke="black" stroke-opacity="1" x1="245" y1="483" x2="251" y2="477" />
	<line stroke="black" stroke-opacity="1" x1="245" y1="483" x2="239" y2="477" />
	<line stroke="black" stroke-opacity="1" x1="245" y1="449" x2="245" y2="483" />
</g>
<g>
	<line stroke="black" stroke-opacity="1" x1="139" y1="699" x2="145" y2="693" />
	<line stroke="black" stroke-opacity="1" x1="139" y1="699" x2="133" y2="693" />
	<line stroke="black" stroke-opacity="1" x1="139" y1="685" x2="139" y2="699" />
</g>
<g>
	<line stroke="black" stroke-opacity="1" x1="363" y1="674" x2="360" y2="441" />
</g>
<g>
	<line stroke="black" stroke-opacity="1" x1="407" y1="381" x2="412" y2="387" />
	<line stroke="black" stroke-opacity="1" x1="407" y1="381" x2="413" y2="375" />
	<line stroke="black" stroke-opacity="1" x1="471" y1="384" x2="407" y2="381" />
</g>
<g>
	<line stroke="black" stroke-opacity="1" x1="570" y1="335" x2="576" y2="329" />
	<line stroke="black" stroke-opacity="1" x1="570" y1="335" x2="564" y2="329" />
	<line stroke="black" stroke-opacity="1" x1="570" y1="312" x2="570" y2="335" />
</g>
<g>
	<line stroke="black" stroke-opacity="1" x1="114" y1="352" x2="119" y2="345" />
	<line stroke="black" stroke-opacity="1" x1="114" y1="352" x2="107" y2="346" />
	<line stroke="black" stroke-opacity="1" x1="113" y1="325" x2="114" y2="352" />
</g>
<g>
	<line stroke="black" stroke-opacity="1" x1="481" y1="549" x2="487" y2="555" />
	<line stroke="black" stroke-opacity="1" x1="481" y1="549" x2="487" y2="543" />
	<line stroke="black" stroke-opacity="1" x1="572" y1="549" x2="481" y2="549" />
</g>
<g>
	<line stroke="black" stroke-opacity="1" x1="185" y1="147" x2="191" y2="141" />
	<line stroke="black" stroke-opacity="1" x1="185" y1="147" x2="179" y2="141" />
	<line stroke="black" stroke-opacity="1" x1="185" y1="120" x2="185" y2="147" />
</g>
<g>
	<line stroke="black" stroke-opacity="1" x1="338" y1="345" x2="343" y2="338" />
	<line stroke="black" stroke-opacity="1" x1="338" y1="345" x2="331" y2="339" />
	<line stroke="black" stroke-opacity="1" x1="335" y1="325" x2="338" y2="345" />
</g>
<g>
	<line stroke="black" stroke-opacity="1" x1="88" y1="747" x2="94" y2="741" />
	<line stroke="black" stroke-opacity="1" x1="88" y1="747" x2="82" y2="741" />
	<line stroke="black" stroke-opacity="1" x1="88" y1="713" x2="88" y2="747" />
</g>
<g>
	<line stroke="black" stroke-opacity="1" x1="98" y1="657" x2="92" y2="651" />
	<line stroke="black" stroke-opacity="1" x1="98" y1="657" x2="92" y2="663" />
	<line stroke="black" stroke-opacity="1" x1="30" y1="657" x2="98" y2="657" />
</g>
<g>
	<line stroke="black" stroke-opacity="1" x1="384" y1="546" x2="383" y2="419" />
</g>
<g>
	<line stroke="black" stroke-opacity="1" x1="407" y1="364" x2="412" y2="370" />
	<line stroke="black" stroke-opacity="1" x1="407" y1="364" x2="413" y2="358" />
	<line stroke="black" stroke-opacity="1" x1="471" y1="365" x2="407" y2="364" />
</g>
<g>
	<line stroke="black" stroke-opacity="1" x1="456" y1="134" x2="450" y2="127" />
	<line stroke="black" stroke-opacity="1" x1="456" y1="134" x2="449" y2="139" />
	<line stroke="black" stroke-opacity="1" x1="365" y1="132" x2="456" y2="134" />
</g>
<g>
	<line stroke="black" stroke-opacity="1" x1="28" y1="369" x2="30" y2="657" />
</g>
<g>
	<line stroke="black" stroke-opacity="1" x1="301" y1="615" x2="306" y2="608" />
	<line stroke="black" stroke-opacity="1" x1="301" y1="615" x2="294" y2="609" />
	<line stroke="black" stroke-opacity="1" x1="300" y1="580" x2="301" y2="615" />
</g>
<g>
	<line stroke="black" stroke-opacity="1" x1="217" y1="764" x2="223" y2="758" />
	<line stroke="black" stroke-opacity="1" x1="217" y1="764" x2="211" y2="757" />
	<line stroke="black" stroke-opacity="1" x1="219" y1="713" x2="217" y2="764" />
</g>
<g>
	<line stroke="black" stroke-opacity="1" x1="285" y1="441" x2="291" y2="447" />
	<line stroke="black" stroke-opacity="1" x1="285" y1="441" x2="291" y2="435" />
	<line stroke="black" stroke-opacity="1" x1="360" y1="441" x2="285" y2="441" />
</g>
<g>
	<rect fill="none" stroke="black" stroke-opacity="1" x="100" y="556" width="80" height="48" rx="10" />
</g>
	<text font-family="MS Shell Dlg 2" font-size="6" fill="#000000" xml:space="preserve" text-anchor="middle" x="140" y="586">Odabir clana</text>
<polygon fill="white" stroke="black" stroke-opacity="1" points ="293,699 299,688 305,699 299,710" />
<g>
	<line stroke="black" stroke-opacity="1" x1="285" y1="418" x2="290" y2="424" />
	<line stroke="black" stroke-opacity="1" x1="285" y1="418" x2="291" y2="412" />
	<line stroke="black" stroke-opacity="1" x1="383" y1="419" x2="285" y2="418" />
</g>
<g>
	<line stroke="black" stroke-opacity="1" x1="139" y1="628" x2="145" y2="622" />
	<line stroke="black" stroke-opacity="1" x1="139" y1="628" x2="133" y2="622" />
	<line stroke="black" stroke-opacity="1" x1="139" y1="604" x2="139" y2="628" />
</g>
<g>
	<line stroke="black" stroke-opacity="1" x1="180" y1="580" x2="186" y2="586" />
	<line stroke="black" stroke-opacity="1" x1="180" y1="580" x2="186" y2="574" />
	<line stroke="black" stroke-opacity="1" x1="238" y1="580" x2="180" y2="580" />
</g>
<g>
	<line stroke="black" stroke-opacity="1" x1="299" y1="711" x2="299" y2="771" />
</g>
<g>
	<line stroke="black" stroke-opacity="1" x1="299" y1="686" x2="305" y2="680" />
	<line stroke="black" stroke-opacity="1" x1="299" y1="686" x2="293" y2="679" />
	<line stroke="black" stroke-opacity="1" x1="300" y1="664" x2="299" y2="686" />
</g>
<g>
	<line stroke="black" stroke-opacity="1" x1="323" y1="699" x2="317" y2="693" />
	<line stroke="black" stroke-opacity="1" x1="323" y1="699" x2="317" y2="705" />
	<line stroke="black" stroke-opacity="1" x1="307" y1="699" x2="323" y2="699" />
</g>
<g>
	<line stroke="black" stroke-opacity="1" x1="225" y1="772" x2="231" y2="777" />
	<line stroke="black" stroke-opacity="1" x1="225" y1="772" x2="230" y2="765" />
	<line stroke="black" stroke-opacity="1" x1="299" y1="771" x2="225" y2="772" />
</g>
<g>
	<text font-family="MS Shell Dlg 2" font-size="6" fill="#000000" xml:space="preserve" x="458" y="348">Ne</text>
</g>
<g>
	<text font-family="MS Shell Dlg 2" font-size="6" fill="#000000" xml:space="preserve" x="508" y="304">Da</text>
</g>
<g>
	<text font-family="MS Shell Dlg 2" font-size="6" fill="#000000" xml:space="preserve" x="412" y="468">Nije na stanju</text>
</g>
<g>
	<text font-family="MS Shell Dlg 2" font-size="6" fill="#000000" xml:space="preserve" x="337" y="111">Nema rezervaciju</text>
</g>
<g>
	<text font-family="MS Shell Dlg 2" font-size="6" fill="#000000" xml:space="preserve" x="230" y="113">Ima</text>
</g>
<g>
	<text font-family="MS Shell Dlg 2" font-size="6" fill="#000000" xml:space="preserve" x="203" y="572">Da</text>
</g>
<g>
	<text font-family="MS Shell Dlg 2" font-size="6" fill="#000000" xml:space="preserve" x="103" y="707">Da</text>
</g>
<g>
	<text font-family="MS Shell Dlg 2" font-size="6" fill="#000000" xml:space="preserve" x="177" y="708">Ne</text>
</g>
<g>
	<text font-family="MS Shell Dlg 2" font-size="6" fill="#000000" xml:space="preserve" x="393" y="536">Jeste na stanju</text>
</g>
<g>
	<text font-family="MS Shell Dlg 2" font-size="6" fill="#000000" xml:space="preserve" x="391" y="300">Ne</text>
</g>
<g>
	<text font-family="MS Shell Dlg 2" font-size="6" fill="#000000" xml:space="preserve" x="109" y="315">Ima rezervaciju</text>
</g>
<g>
	<text font-family="MS Shell Dlg 2" font-size="6" fill="#000000" xml:space="preserve" x="225" y="314">Nema rezervaciju</text>
</g>
<g>
	<text font-family="MS Shell Dlg 2" font-size="6" fill="#000000" xml:space="preserve" x="354" y="215">Da</text>
</g>
<g>
	<text font-family="MS Shell Dlg 2" font-size="6" fill="#000000" xml:space="preserve" x="252" y="568">Ne postoji</text>
</g>
<g>
	<text font-family="MS Shell Dlg 2" font-size="6" fill="#000000" xml:space="preserve" x="307" y="689">Da</text>
</g>
<g>
	<text font-family="MS Shell Dlg 2" font-size="6" fill="#000000" xml:space="preserve" x="281" y="739">Ne</text>
</g>
</svg>
