<?xml version="1.0" encoding="UTF-8" standalone="no"?>
<!-- Created with Bouml (http://bouml.free.fr/) -->
<!DOCTYPE svg PUBLIC "-//W3C//DTD SVG 1.1//EN" "http://www.w3.org/Graphics/SVG/1.1/DTD/svg11.dtd">
<svg width="800" height="1033" version="1.1" xmlns="http://www.w3.org/2000/svg">
<g>
	<rect fill="none" stroke="black" stroke-opacity="1" x="550" y="700" width="94" height="56" rx="10" />
</g>
	<text font-family="MS Shell Dlg 2" font-size="8" fill="#000000" xml:space="preserve" text-anchor="middle" x="597" y="735">Odabir autora</text>
<g>
	<rect fill="none" stroke="black" stroke-opacity="1" x="542" y="456" width="100" height="60" rx="10" />
</g>
	<text font-family="MS Shell Dlg 2" font-size="8" fill="#000000" xml:space="preserve" text-anchor="middle" x="592" y="486">Pretraga liste</text>
	<text font-family="MS Shell Dlg 2" font-size="8" fill="#000000" xml:space="preserve" text-anchor="middle" x="592" y="499">autora</text>
<g>
	<rect fill="none" stroke="black" stroke-opacity="1" x="543" y="545" width="100" height="64" rx="10" />
</g>
	<text font-family="MS Shell Dlg 2" font-size="8" fill="#000000" xml:space="preserve" text-anchor="middle" x="593" y="571">Provera da li</text>
	<text font-family="MS Shell Dlg 2" font-size="8" fill="#000000" xml:space="preserve" text-anchor="middle" x="593" y="584">autor postoji u</text>
	<text font-family="MS Shell Dlg 2" font-size="8" fill="#000000" xml:space="preserve" text-anchor="middle" x="593" y="597">sistemu</text>
<g>
	<rect fill="none" stroke="black" stroke-opacity="1" x="655" y="619" width="100" height="60" rx="10" />
</g>
	<text font-family="MS Shell Dlg 2" font-size="8" fill="#000000" xml:space="preserve" text-anchor="middle" x="705" y="649">Dodavanje</text>
	<text font-family="MS Shell Dlg 2" font-size="8" fill="#000000" xml:space="preserve" text-anchor="middle" x="705" y="662">novog autora</text>
<g>
	<rect fill="none" stroke="black" stroke-opacity="1" x="532" y="122" width="114" height="84" rx="10" />
</g>
	<text font-family="MS Shell Dlg 2" font-size="8" fill="#000000" xml:space="preserve" text-anchor="middle" x="589" y="158">Unos podataka o</text>
	<text font-family="MS Shell Dlg 2" font-size="8" fill="#000000" xml:space="preserve" text-anchor="middle" x="589" y="171">knjizi: ime knjige,</text>
	<text font-family="MS Shell Dlg 2" font-size="8" fill="#000000" xml:space="preserve" text-anchor="middle" x="589" y="184">broj stranica, povez</text>
<g>
	<rect fill="none" stroke="black" stroke-opacity="1" x="538" y="239" width="104" height="62" rx="10" />
</g>
	<text font-family="MS Shell Dlg 2" font-size="8" fill="#000000" xml:space="preserve" text-anchor="middle" x="590" y="270">Provera validnosti</text>
	<text font-family="MS Shell Dlg 2" font-size="8" fill="#000000" xml:space="preserve" text-anchor="middle" x="590" y="283">podataka</text>
	<ellipse fill="black" stroke="none" cx="588" cy="28" rx="8.5" ry="8.5" />
<polygon fill="white" stroke="black" stroke-opacity="1" points ="581,352 590,335 599,352 590,369" />
<polygon fill="white" stroke="black" stroke-opacity="1" points ="586,651 595,634 604,651 595,668" />
<g>
	<rect fill="none" stroke="black" stroke-opacity="1" x="539" y="786" width="118" height="70" rx="10" />
</g>
	<text font-family="MS Shell Dlg 2" font-size="8" fill="#000000" xml:space="preserve" text-anchor="middle" x="598" y="821">Provera da li knjiga</text>
	<text font-family="MS Shell Dlg 2" font-size="8" fill="#000000" xml:space="preserve" text-anchor="middle" x="598" y="834">vec postoji u sistemu</text>
<g>
	<line stroke="black" stroke-opacity="1" x1="590" y1="333" x2="596" y2="327" />
	<line stroke="black" stroke-opacity="1" x1="590" y1="333" x2="584" y2="327" />
	<line stroke="black" stroke-opacity="1" x1="590" y1="301" x2="590" y2="333" />
</g>
<g>
	<line stroke="black" stroke-opacity="1" x1="594" y1="632" x2="599" y2="625" />
	<line stroke="black" stroke-opacity="1" x1="594" y1="632" x2="587" y2="626" />
	<line stroke="black" stroke-opacity="1" x1="593" y1="609" x2="594" y2="632" />
</g>
<g>
	<line stroke="black" stroke-opacity="1" x1="596" y1="699" x2="601" y2="692" />
	<line stroke="black" stroke-opacity="1" x1="596" y1="699" x2="589" y2="693" />
	<line stroke="black" stroke-opacity="1" x1="595" y1="669" x2="596" y2="699" />
</g>
<g>
	<line stroke="black" stroke-opacity="1" x1="602" y1="423" x2="608" y2="428" />
	<line stroke="black" stroke-opacity="1" x1="602" y1="423" x2="607" y2="416" />
	<line stroke="black" stroke-opacity="1" x1="779" y1="421" x2="602" y2="423" />
</g>
<g>
	<line stroke="black" stroke-opacity="1" x1="589" y1="238" x2="595" y2="232" />
	<line stroke="black" stroke-opacity="1" x1="589" y1="238" x2="583" y2="232" />
	<line stroke="black" stroke-opacity="1" x1="589" y1="206" x2="589" y2="238" />
</g>
<g>
	<line stroke="black" stroke-opacity="1" x1="755" y1="649" x2="780" y2="649" />
</g>
<g>
	<line stroke="black" stroke-opacity="1" x1="597" y1="785" x2="603" y2="779" />
	<line stroke="black" stroke-opacity="1" x1="597" y1="785" x2="591" y2="779" />
	<line stroke="black" stroke-opacity="1" x1="597" y1="756" x2="597" y2="785" />
</g>
<g>
	<line stroke="black" stroke-opacity="1" x1="780" y1="649" x2="779" y2="421" />
</g>
<g>
	<line stroke="black" stroke-opacity="1" x1="654" y1="649" x2="648" y2="643" />
	<line stroke="black" stroke-opacity="1" x1="654" y1="649" x2="648" y2="655" />
	<line stroke="black" stroke-opacity="1" x1="607" y1="649" x2="654" y2="649" />
</g>
<g>
	<text font-family="MS Shell Dlg 2" font-size="8" fill="#000000" xml:space="preserve" x="608" y="681">da</text>
</g>
<g>
	<text font-family="MS Shell Dlg 2" font-size="8" fill="#000000" xml:space="preserve" x="621" y="638">ne</text>
</g>
<polygon fill="white" stroke="black" stroke-opacity="1" points ="579,87 588,70 597,87 588,104" />
<polygon fill="white" stroke="black" stroke-opacity="1" points ="581,419 590,402 599,419 590,436" />
<g>
	<line stroke="black" stroke-opacity="1" x1="602" y1="352" x2="717" y2="352" />
</g>
<g>
	<line stroke="black" stroke-opacity="1" x1="717" y1="352" x2="715" y2="86" />
</g>
<g>
	<line stroke="black" stroke-opacity="1" x1="600" y1="86" x2="606" y2="92" />
	<line stroke="black" stroke-opacity="1" x1="600" y1="86" x2="606" y2="80" />
	<line stroke="black" stroke-opacity="1" x1="715" y1="86" x2="600" y2="86" />
</g>
<g>
	<line stroke="black" stroke-opacity="1" x1="588" y1="68" x2="594" y2="62" />
	<line stroke="black" stroke-opacity="1" x1="588" y1="68" x2="582" y2="62" />
	<line stroke="black" stroke-opacity="1" x1="588" y1="37" x2="588" y2="68" />
</g>
<g>
	<line stroke="black" stroke-opacity="1" x1="590" y1="455" x2="596" y2="449" />
	<line stroke="black" stroke-opacity="1" x1="590" y1="455" x2="584" y2="449" />
	<line stroke="black" stroke-opacity="1" x1="590" y1="437" x2="590" y2="455" />
</g>
<g>
	<line stroke="black" stroke-opacity="1" x1="590" y1="400" x2="596" y2="394" />
	<line stroke="black" stroke-opacity="1" x1="590" y1="400" x2="584" y2="394" />
	<line stroke="black" stroke-opacity="1" x1="590" y1="370" x2="590" y2="400" />
</g>
<g>
	<line stroke="black" stroke-opacity="1" x1="592" y1="544" x2="598" y2="538" />
	<line stroke="black" stroke-opacity="1" x1="592" y1="544" x2="586" y2="538" />
	<line stroke="black" stroke-opacity="1" x1="592" y1="516" x2="592" y2="544" />
</g>
<g>
	<line stroke="black" stroke-opacity="1" x1="588" y1="121" x2="594" y2="115" />
	<line stroke="black" stroke-opacity="1" x1="588" y1="121" x2="582" y2="115" />
	<line stroke="black" stroke-opacity="1" x1="588" y1="105" x2="588" y2="121" />
</g>
<g>
	<text font-family="MS Shell Dlg 2" font-size="8" fill="#000000" xml:space="preserve" x="606" y="386">validni su</text>
</g>
<g>
	<text font-family="MS Shell Dlg 2" font-size="8" fill="#000000" xml:space="preserve" x="624" y="334">nisu validni</text>
</g>
</svg>
