<?xml version="1.0" encoding="UTF-8" standalone="no"?>
<!-- Created with Bouml (http://bouml.free.fr/) -->
<!DOCTYPE svg PUBLIC "-//W3C//DTD SVG 1.1//EN" "http://www.w3.org/Graphics/SVG/1.1/DTD/svg11.dtd">
<svg width="210" height="910" version="1.1" xmlns="http://www.w3.org/2000/svg">
	<ellipse fill="black" stroke="none" cx="75" cy="20" rx="5.5" ry="5.5" />
<polygon fill="white" stroke="black" stroke-opacity="1" points ="73,488 79,477 85,488 79,499" />
<polygon fill="white" stroke="black" stroke-opacity="1" points ="76,829 82,818 88,829 82,840" />
<polygon fill="white" stroke="black" stroke-opacity="1" points ="70,214 76,203 82,214 76,225" />
<polygon fill="white" stroke="black" stroke-opacity="1" points ="73,393 79,382 85,393 79,404" />
<polygon fill="white" stroke="black" stroke-opacity="1" points ="76,642 82,631 88,642 82,653" />
<g>
	<rect fill="#cbcbcb" stroke="none" stroke-opacity="1" x="44" y="79" width="65" height="47" rx="10" />
	<rect fill="#e0ffff" stroke="black" stroke-opacity="1" x="41" y="76" width="65" height="47" rx="10" />
</g>
	<text font-family="Helvetica" font-size="5" fill="#000000" xml:space="preserve" text-anchor="middle" x="74" y="97">Unos podataka o</text>
	<text font-family="Helvetica" font-size="5" fill="#000000" xml:space="preserve" text-anchor="middle" x="74" y="103">knjizi: ime knjige, broj</text>
	<text font-family="Helvetica" font-size="5" fill="#000000" xml:space="preserve" text-anchor="middle" x="74" y="109">stranica, povez</text>
<g>
	<rect fill="#cbcbcb" stroke="none" stroke-opacity="1" x="50" y="755" width="67" height="39" rx="10" />
	<rect fill="#e0ffff" stroke="black" stroke-opacity="1" x="47" y="752" width="67" height="39" rx="10" />
</g>
	<text font-family="Helvetica" font-size="5" fill="#000000" xml:space="preserve" text-anchor="middle" x="81" y="772">Provera da li knjiga</text>
	<text font-family="Helvetica" font-size="5" fill="#000000" xml:space="preserve" text-anchor="middle" x="81" y="778">vec postoji u sistemu</text>
<g>
	<rect fill="#cbcbcb" stroke="none" stroke-opacity="1" x="51" y="332" width="57" height="35" rx="10" />
	<rect fill="#e0ffff" stroke="black" stroke-opacity="1" x="48" y="329" width="57" height="35" rx="10" />
</g>
	<text font-family="Helvetica" font-size="5" fill="#000000" xml:space="preserve" text-anchor="middle" x="77" y="347">Provera da li autor</text>
	<text font-family="Helvetica" font-size="5" fill="#000000" xml:space="preserve" text-anchor="middle" x="77" y="353">postoji u sistemu</text>
<g>
	<rect fill="#cbcbcb" stroke="none" stroke-opacity="1" x="56" y="687" width="55" height="31" rx="10" />
	<rect fill="#e0ffff" stroke="black" stroke-opacity="1" x="53" y="684" width="55" height="31" rx="10" />
</g>
	<text font-family="Helvetica" font-size="5" fill="#000000" xml:space="preserve" text-anchor="middle" x="81" y="703">Odabir zanra</text>
<g>
	<rect fill="#cbcbcb" stroke="none" stroke-opacity="1" x="118" y="377" width="57" height="33" rx="10" />
	<rect fill="#e0ffff" stroke="black" stroke-opacity="1" x="115" y="374" width="57" height="33" rx="10" />
</g>
	<text font-family="Helvetica" font-size="5" fill="#000000" xml:space="preserve" text-anchor="middle" x="144" y="391">Dodavanje novog</text>
	<text font-family="Helvetica" font-size="5" fill="#000000" xml:space="preserve" text-anchor="middle" x="144" y="397">autora</text>
<g>
	<rect fill="#cbcbcb" stroke="none" stroke-opacity="1" x="56" y="574" width="55" height="31" rx="10" />
	<rect fill="#e0ffff" stroke="black" stroke-opacity="1" x="53" y="571" width="55" height="31" rx="10" />
</g>
	<text font-family="Helvetica" font-size="5" fill="#000000" xml:space="preserve" text-anchor="middle" x="81" y="587">Provera da li zanr</text>
	<text font-family="Helvetica" font-size="5" fill="#000000" xml:space="preserve" text-anchor="middle" x="81" y="593">postoji u sistemu</text>
<g>
	<rect fill="#cbcbcb" stroke="none" stroke-opacity="1" x="48" y="150" width="59" height="33" rx="10" />
	<rect fill="#e0ffff" stroke="black" stroke-opacity="1" x="45" y="147" width="59" height="33" rx="10" />
</g>
	<text font-family="Helvetica" font-size="5" fill="#000000" xml:space="preserve" text-anchor="middle" x="75" y="164">Provera validnosti</text>
	<text font-family="Helvetica" font-size="5" fill="#000000" xml:space="preserve" text-anchor="middle" x="75" y="170">podataka</text>
<g>
	<rect fill="#cbcbcb" stroke="none" stroke-opacity="1" x="50" y="279" width="57" height="33" rx="10" />
	<rect fill="#e0ffff" stroke="black" stroke-opacity="1" x="47" y="276" width="57" height="33" rx="10" />
</g>
	<text font-family="Helvetica" font-size="5" fill="#000000" xml:space="preserve" text-anchor="middle" x="76" y="293">Pretraga liste</text>
	<text font-family="Helvetica" font-size="5" fill="#000000" xml:space="preserve" text-anchor="middle" x="76" y="299">autora</text>
<g>
	<rect fill="#cbcbcb" stroke="none" stroke-opacity="1" x="54" y="425" width="53" height="31" rx="10" />
	<rect fill="#e0ffff" stroke="black" stroke-opacity="1" x="51" y="422" width="53" height="31" rx="10" />
</g>
	<text font-family="Helvetica" font-size="5" fill="#000000" xml:space="preserve" text-anchor="middle" x="78" y="441">Odabir autora</text>
<g>
	<rect fill="#cbcbcb" stroke="none" stroke-opacity="1" x="56" y="519" width="55" height="31" rx="10" />
	<rect fill="#e0ffff" stroke="black" stroke-opacity="1" x="53" y="516" width="55" height="31" rx="10" />
</g>
	<text font-family="Helvetica" font-size="5" fill="#000000" xml:space="preserve" text-anchor="middle" x="81" y="532">Pretraga liste</text>
	<text font-family="Helvetica" font-size="5" fill="#000000" xml:space="preserve" text-anchor="middle" x="81" y="538">zanrova</text>
<g>
	<rect fill="#cbcbcb" stroke="none" stroke-opacity="1" x="140" y="628" width="55" height="31" rx="10" />
	<rect fill="#e0ffff" stroke="black" stroke-opacity="1" x="137" y="625" width="55" height="31" rx="10" />
</g>
	<text font-family="Helvetica" font-size="5" fill="#000000" xml:space="preserve" text-anchor="middle" x="165" y="641">Dodavanje novog</text>
	<text font-family="Helvetica" font-size="5" fill="#000000" xml:space="preserve" text-anchor="middle" x="165" y="647">zanra</text>
<g>
	<text font-family="Helvetica" font-size="5" fill="#000000" xml:space="preserve" x="107" y="822">postoji</text>
</g>
<g>
	<text font-family="Helvetica" font-size="5" fill="#000000" xml:space="preserve" x="95" y="387">ne</text>
</g>
<g>
	<text font-family="Helvetica" font-size="5" fill="#000000" xml:space="preserve" x="86" y="413">da</text>
</g>
<g>
	<text font-family="Helvetica" font-size="5" fill="#000000" xml:space="preserve" x="110" y="640">Ne</text>
</g>
<g>
	<text font-family="Helvetica" font-size="5" fill="#000000" xml:space="preserve" x="83" y="668">Da</text>
</g>
<g>
	<line stroke="black" stroke-opacity="1" x1="90" y1="829" x2="150" y2="830" />
</g>
<g>
	<line stroke="black" stroke-opacity="1" x1="149" y1="872" x2="155" y2="866" />
	<line stroke="black" stroke-opacity="1" x1="149" y1="872" x2="143" y2="865" />
	<line stroke="black" stroke-opacity="1" x1="150" y1="830" x2="149" y2="872" />
</g>
<g>
	<line stroke="black" stroke-opacity="1" x1="82" y1="861" x2="88" y2="855" />
	<line stroke="black" stroke-opacity="1" x1="82" y1="861" x2="76" y2="855" />
	<line stroke="black" stroke-opacity="1" x1="82" y1="841" x2="82" y2="861" />
</g>
<g>
	<line stroke="black" stroke-opacity="1" x1="136" y1="642" x2="130" y2="636" />
	<line stroke="black" stroke-opacity="1" x1="136" y1="642" x2="130" y2="648" />
	<line stroke="black" stroke-opacity="1" x1="90" y1="642" x2="136" y2="642" />
</g>
<g>
	<line stroke="black" stroke-opacity="1" x1="114" y1="392" x2="108" y2="386" />
	<line stroke="black" stroke-opacity="1" x1="114" y1="392" x2="108" y2="398" />
	<line stroke="black" stroke-opacity="1" x1="87" y1="392" x2="114" y2="392" />
</g>
<g>
	<line stroke="black" stroke-opacity="1" x1="79" y1="515" x2="85" y2="509" />
	<line stroke="black" stroke-opacity="1" x1="79" y1="515" x2="73" y2="509" />
	<line stroke="black" stroke-opacity="1" x1="79" y1="500" x2="79" y2="515" />
</g>
<g>
	<line stroke="black" stroke-opacity="1" x1="87" y1="488" x2="93" y2="494" />
	<line stroke="black" stroke-opacity="1" x1="87" y1="488" x2="93" y2="482" />
	<line stroke="black" stroke-opacity="1" x1="166" y1="488" x2="87" y2="488" />
</g>
<g>
	<line stroke="black" stroke-opacity="1" x1="82" y1="629" x2="88" y2="623" />
	<line stroke="black" stroke-opacity="1" x1="82" y1="629" x2="76" y2="623" />
	<line stroke="black" stroke-opacity="1" x1="82" y1="605" x2="82" y2="629" />
</g>
<g>
	<line stroke="black" stroke-opacity="1" x1="79" y1="475" x2="85" y2="469" />
	<line stroke="black" stroke-opacity="1" x1="79" y1="475" x2="73" y2="469" />
	<line stroke="black" stroke-opacity="1" x1="79" y1="456" x2="79" y2="475" />
</g>
<g>
	<line stroke="black" stroke-opacity="1" x1="82" y1="570" x2="88" y2="564" />
	<line stroke="black" stroke-opacity="1" x1="82" y1="570" x2="76" y2="564" />
	<line stroke="black" stroke-opacity="1" x1="82" y1="550" x2="82" y2="570" />
</g>
<g>
	<line stroke="black" stroke-opacity="1" x1="82" y1="683" x2="88" y2="677" />
	<line stroke="black" stroke-opacity="1" x1="82" y1="683" x2="76" y2="677" />
	<line stroke="black" stroke-opacity="1" x1="82" y1="654" x2="82" y2="683" />
</g>
<g>
	<line stroke="black" stroke-opacity="1" x1="175" y1="392" x2="190" y2="392" />
</g>
<g>
	<line stroke="black" stroke-opacity="1" x1="82" y1="751" x2="88" y2="745" />
	<line stroke="black" stroke-opacity="1" x1="82" y1="751" x2="76" y2="745" />
	<line stroke="black" stroke-opacity="1" x1="82" y1="718" x2="82" y2="751" />
</g>
<g>
	<line stroke="black" stroke-opacity="1" x1="75" y1="146" x2="81" y2="140" />
	<line stroke="black" stroke-opacity="1" x1="75" y1="146" x2="69" y2="140" />
	<line stroke="black" stroke-opacity="1" x1="75" y1="126" x2="75" y2="146" />
</g>
<g>
	<line stroke="black" stroke-opacity="1" x1="78" y1="380" x2="84" y2="374" />
	<line stroke="black" stroke-opacity="1" x1="78" y1="380" x2="72" y2="374" />
	<line stroke="black" stroke-opacity="1" x1="78" y1="367" x2="78" y2="380" />
</g>
<g>
	<line stroke="black" stroke-opacity="1" x1="76" y1="201" x2="82" y2="195" />
	<line stroke="black" stroke-opacity="1" x1="76" y1="201" x2="70" y2="195" />
	<line stroke="black" stroke-opacity="1" x1="76" y1="183" x2="76" y2="201" />
</g>
<g>
	<line stroke="black" stroke-opacity="1" x1="84" y1="257" x2="90" y2="263" />
	<line stroke="black" stroke-opacity="1" x1="84" y1="257" x2="90" y2="251" />
	<line stroke="black" stroke-opacity="1" x1="190" y1="257" x2="84" y2="257" />
</g>
<g>
	<line stroke="black" stroke-opacity="1" x1="79" y1="421" x2="85" y2="415" />
	<line stroke="black" stroke-opacity="1" x1="79" y1="421" x2="73" y2="415" />
	<line stroke="black" stroke-opacity="1" x1="79" y1="405" x2="79" y2="421" />
</g>
<g>
	<line stroke="black" stroke-opacity="1" x1="166" y1="624" x2="166" y2="488" />
</g>
<g>
	<line stroke="black" stroke-opacity="1" x1="190" y1="392" x2="190" y2="257" />
</g>
<g>
	<line stroke="black" stroke-opacity="1" x1="82" y1="816" x2="88" y2="810" />
	<line stroke="black" stroke-opacity="1" x1="82" y1="816" x2="76" y2="810" />
	<line stroke="black" stroke-opacity="1" x1="82" y1="794" x2="82" y2="816" />
</g>
<polygon fill="white" stroke="black" stroke-opacity="1" points ="70,254 76,243 82,254 76,265" />
<polygon fill="white" stroke="black" stroke-opacity="1" points ="69,55 75,44 81,55 75,66" />
<g>
	<text font-family="Helvetica" font-size="5" fill="#000000" xml:space="preserve" x="99" y="205">nisu validni</text>
</g>
<g>
	<text font-family="Helvetica" font-size="5" fill="#000000" xml:space="preserve" x="88" y="236">validni su</text>
</g>
<g>
	<line stroke="black" stroke-opacity="1" x1="153" y1="215" x2="151" y2="55" />
</g>
<g>
	<line stroke="black" stroke-opacity="1" x1="83" y1="55" x2="89" y2="61" />
	<line stroke="black" stroke-opacity="1" x1="83" y1="55" x2="89" y2="49" />
	<line stroke="black" stroke-opacity="1" x1="151" y1="55" x2="83" y2="55" />
</g>
<g>
	<line stroke="black" stroke-opacity="1" x1="75" y1="42" x2="81" y2="36" />
	<line stroke="black" stroke-opacity="1" x1="75" y1="42" x2="69" y2="36" />
	<line stroke="black" stroke-opacity="1" x1="75" y1="27" x2="75" y2="42" />
</g>
<g>
	<line stroke="black" stroke-opacity="1" x1="77" y1="328" x2="83" y2="322" />
	<line stroke="black" stroke-opacity="1" x1="77" y1="328" x2="71" y2="322" />
	<line stroke="black" stroke-opacity="1" x1="77" y1="312" x2="77" y2="328" />
</g>
<g>
	<line stroke="black" stroke-opacity="1" x1="75" y1="75" x2="81" y2="69" />
	<line stroke="black" stroke-opacity="1" x1="75" y1="75" x2="69" y2="69" />
	<line stroke="black" stroke-opacity="1" x1="75" y1="67" x2="75" y2="75" />
</g>
<g>
	<line stroke="black" stroke-opacity="1" x1="76" y1="275" x2="82" y2="269" />
	<line stroke="black" stroke-opacity="1" x1="76" y1="275" x2="70" y2="269" />
	<line stroke="black" stroke-opacity="1" x1="76" y1="266" x2="76" y2="275" />
</g>
<g>
	<line stroke="black" stroke-opacity="1" x1="84" y1="214" x2="153" y2="215" />
</g>
<g>
	<line stroke="black" stroke-opacity="1" x1="76" y1="241" x2="82" y2="235" />
	<line stroke="black" stroke-opacity="1" x1="76" y1="241" x2="70" y2="235" />
	<line stroke="black" stroke-opacity="1" x1="76" y1="226" x2="76" y2="241" />
</g>
</svg>
