<?xml version="1.0" encoding="UTF-8" standalone="no"?>
<!-- Created with Bouml (http://bouml.free.fr/) -->
<!DOCTYPE svg PUBLIC "-//W3C//DTD SVG 1.1//EN" "http://www.w3.org/Graphics/SVG/1.1/DTD/svg11.dtd">
<svg width="802" height="1504" version="1.1" xmlns="http://www.w3.org/2000/svg">
<polygon fill="white" stroke="black" stroke-opacity="1" points ="585,650 594,633 603,650 594,667" />
<polygon fill="white" stroke="black" stroke-opacity="1" points ="586,808 595,791 604,808 595,825" />
<polygon fill="white" stroke="black" stroke-opacity="1" points ="581,352 590,335 599,352 590,369" />
	<ellipse fill="black" stroke="none" cx="588" cy="28" rx="8.5" ry="8.5" />
<g>
	<rect fill="none" stroke="black" stroke-opacity="1" x="655" y="618" width="100" height="60" rx="10" />
</g>
	<text font-family="MS Shell Dlg 2" font-size="8" fill="#000000" xml:space="preserve" text-anchor="middle" x="705" y="648">Dodavanje</text>
	<text font-family="MS Shell Dlg 2" font-size="8" fill="#000000" xml:space="preserve" text-anchor="middle" x="705" y="661">novog autora</text>
<g>
	<rect fill="none" stroke="black" stroke-opacity="1" x="548" y="699" width="94" height="56" rx="10" />
</g>
	<text font-family="MS Shell Dlg 2" font-size="8" fill="#000000" xml:space="preserve" text-anchor="middle" x="595" y="734">Odabir autora</text>
<g>
	<rect fill="none" stroke="black" stroke-opacity="1" x="542" y="455" width="100" height="60" rx="10" />
</g>
	<text font-family="MS Shell Dlg 2" font-size="8" fill="#000000" xml:space="preserve" text-anchor="middle" x="592" y="485">Pretraga liste</text>
	<text font-family="MS Shell Dlg 2" font-size="8" fill="#000000" xml:space="preserve" text-anchor="middle" x="592" y="498">autora</text>
<g>
	<rect fill="none" stroke="black" stroke-opacity="1" x="532" y="122" width="114" height="84" rx="10" />
</g>
	<text font-family="MS Shell Dlg 2" font-size="8" fill="#000000" xml:space="preserve" text-anchor="middle" x="589" y="158">Unos podataka o</text>
	<text font-family="MS Shell Dlg 2" font-size="8" fill="#000000" xml:space="preserve" text-anchor="middle" x="589" y="171">knjizi: ime knjige,</text>
	<text font-family="MS Shell Dlg 2" font-size="8" fill="#000000" xml:space="preserve" text-anchor="middle" x="589" y="184">broj stranica, povez</text>
<g>
	<rect fill="none" stroke="black" stroke-opacity="1" x="538" y="239" width="104" height="62" rx="10" />
</g>
	<text font-family="MS Shell Dlg 2" font-size="8" fill="#000000" xml:space="preserve" text-anchor="middle" x="590" y="270">Provera validnosti</text>
	<text font-family="MS Shell Dlg 2" font-size="8" fill="#000000" xml:space="preserve" text-anchor="middle" x="590" y="283">podataka</text>
<g>
	<rect fill="none" stroke="black" stroke-opacity="1" x="543" y="544" width="100" height="64" rx="10" />
</g>
	<text font-family="MS Shell Dlg 2" font-size="8" fill="#000000" xml:space="preserve" text-anchor="middle" x="593" y="570">Provera da li</text>
	<text font-family="MS Shell Dlg 2" font-size="8" fill="#000000" xml:space="preserve" text-anchor="middle" x="593" y="583">autor postoji u</text>
	<text font-family="MS Shell Dlg 2" font-size="8" fill="#000000" xml:space="preserve" text-anchor="middle" x="593" y="596">sistemu</text>
<g>
	<text font-family="MS Shell Dlg 2" font-size="8" fill="#000000" xml:space="preserve" x="605" y="680">da</text>
</g>
<g>
	<text font-family="MS Shell Dlg 2" font-size="8" fill="#000000" xml:space="preserve" x="620" y="637">ne</text>
</g>
<g>
	<line stroke="black" stroke-opacity="1" x1="739" y1="1034" x2="739" y2="808" />
</g>
<g>
	<line stroke="black" stroke-opacity="1" x1="607" y1="808" x2="613" y2="814" />
	<line stroke="black" stroke-opacity="1" x1="607" y1="808" x2="613" y2="802" />
	<line stroke="black" stroke-opacity="1" x1="739" y1="808" x2="607" y2="808" />
</g>
<g>
	<line stroke="black" stroke-opacity="1" x1="590" y1="333" x2="596" y2="327" />
	<line stroke="black" stroke-opacity="1" x1="590" y1="333" x2="584" y2="327" />
	<line stroke="black" stroke-opacity="1" x1="590" y1="301" x2="590" y2="333" />
</g>
<g>
	<line stroke="black" stroke-opacity="1" x1="755" y1="648" x2="780" y2="648" />
</g>
<g>
	<line stroke="black" stroke-opacity="1" x1="589" y1="238" x2="595" y2="232" />
	<line stroke="black" stroke-opacity="1" x1="589" y1="238" x2="583" y2="232" />
	<line stroke="black" stroke-opacity="1" x1="589" y1="206" x2="589" y2="238" />
</g>
<g>
	<line stroke="black" stroke-opacity="1" x1="595" y1="789" x2="601" y2="783" />
	<line stroke="black" stroke-opacity="1" x1="595" y1="789" x2="589" y2="783" />
	<line stroke="black" stroke-opacity="1" x1="595" y1="755" x2="595" y2="789" />
</g>
<g>
	<line stroke="black" stroke-opacity="1" x1="593" y1="631" x2="599" y2="625" />
	<line stroke="black" stroke-opacity="1" x1="593" y1="631" x2="587" y2="625" />
	<line stroke="black" stroke-opacity="1" x1="593" y1="608" x2="593" y2="631" />
</g>
<g>
	<line stroke="black" stroke-opacity="1" x1="654" y1="648" x2="648" y2="642" />
	<line stroke="black" stroke-opacity="1" x1="654" y1="648" x2="648" y2="654" />
	<line stroke="black" stroke-opacity="1" x1="606" y1="648" x2="654" y2="648" />
</g>
<g>
	<line stroke="black" stroke-opacity="1" x1="780" y1="648" x2="779" y2="422" />
</g>
<g>
	<line stroke="black" stroke-opacity="1" x1="602" y1="422" x2="608" y2="428" />
	<line stroke="black" stroke-opacity="1" x1="602" y1="422" x2="608" y2="416" />
	<line stroke="black" stroke-opacity="1" x1="779" y1="422" x2="602" y2="422" />
</g>
<g>
	<line stroke="black" stroke-opacity="1" x1="596" y1="852" x2="602" y2="846" />
	<line stroke="black" stroke-opacity="1" x1="596" y1="852" x2="590" y2="846" />
	<line stroke="black" stroke-opacity="1" x1="596" y1="826" x2="596" y2="852" />
</g>
<g>
	<line stroke="black" stroke-opacity="1" x1="594" y1="698" x2="600" y2="692" />
	<line stroke="black" stroke-opacity="1" x1="594" y1="698" x2="588" y2="692" />
	<line stroke="black" stroke-opacity="1" x1="594" y1="668" x2="594" y2="698" />
</g>
<polygon fill="white" stroke="black" stroke-opacity="1" points ="581,418 590,401 599,418 590,435" />
<polygon fill="white" stroke="black" stroke-opacity="1" points ="579,87 588,70 597,87 588,104" />
<g>
	<text font-family="MS Shell Dlg 2" font-size="8" fill="#000000" xml:space="preserve" x="624" y="334">nisu validni</text>
</g>
<g>
	<text font-family="MS Shell Dlg 2" font-size="8" fill="#000000" xml:space="preserve" x="606" y="385">validni su</text>
</g>
<g>
	<line stroke="black" stroke-opacity="1" x1="602" y1="352" x2="717" y2="352" />
</g>
<g>
	<line stroke="black" stroke-opacity="1" x1="592" y1="543" x2="598" y2="537" />
	<line stroke="black" stroke-opacity="1" x1="592" y1="543" x2="586" y2="537" />
	<line stroke="black" stroke-opacity="1" x1="592" y1="515" x2="592" y2="543" />
</g>
<g>
	<line stroke="black" stroke-opacity="1" x1="590" y1="454" x2="596" y2="448" />
	<line stroke="black" stroke-opacity="1" x1="590" y1="454" x2="584" y2="448" />
	<line stroke="black" stroke-opacity="1" x1="590" y1="436" x2="590" y2="454" />
</g>
<g>
	<line stroke="black" stroke-opacity="1" x1="588" y1="121" x2="594" y2="115" />
	<line stroke="black" stroke-opacity="1" x1="588" y1="121" x2="582" y2="115" />
	<line stroke="black" stroke-opacity="1" x1="588" y1="105" x2="588" y2="121" />
</g>
<g>
	<line stroke="black" stroke-opacity="1" x1="600" y1="86" x2="606" y2="92" />
	<line stroke="black" stroke-opacity="1" x1="600" y1="86" x2="606" y2="80" />
	<line stroke="black" stroke-opacity="1" x1="715" y1="86" x2="600" y2="86" />
</g>
<g>
	<line stroke="black" stroke-opacity="1" x1="588" y1="68" x2="594" y2="62" />
	<line stroke="black" stroke-opacity="1" x1="588" y1="68" x2="582" y2="62" />
	<line stroke="black" stroke-opacity="1" x1="588" y1="37" x2="588" y2="68" />
</g>
<g>
	<line stroke="black" stroke-opacity="1" x1="717" y1="352" x2="715" y2="86" />
</g>
<g>
	<line stroke="black" stroke-opacity="1" x1="590" y1="399" x2="596" y2="393" />
	<line stroke="black" stroke-opacity="1" x1="590" y1="399" x2="584" y2="393" />
	<line stroke="black" stroke-opacity="1" x1="590" y1="370" x2="590" y2="399" />
</g>
</svg>
