<?xml version="1.0" encoding="UTF-8" standalone="no"?>
<!-- Created with Bouml (http://bouml.free.fr/) -->
<!DOCTYPE svg PUBLIC "-//W3C//DTD SVG 1.1//EN" "http://www.w3.org/Graphics/SVG/1.1/DTD/svg11.dtd">
<svg width="776" height="1042" version="1.1" xmlns="http://www.w3.org/2000/svg">
<polygon fill="white" stroke="black" stroke-opacity="1" points ="573,160 582,143 591,160 582,177" />
<g>
	<rect fill="#cbcbcb" stroke="none" stroke-opacity="1" x="415" y="375" width="100" height="64" rx="10" />
	<rect fill="#e0ffff" stroke="black" stroke-opacity="1" x="411" y="371" width="100" height="64" rx="10" />
</g>
	<text font-family="Helvetica" font-size="8" fill="#000000" xml:space="preserve" text-anchor="middle" x="461" y="396">Provera da li</text>
	<text font-family="Helvetica" font-size="8" fill="#000000" xml:space="preserve" text-anchor="middle" x="461" y="410">hoce drugu</text>
	<text font-family="Helvetica" font-size="8" fill="#000000" xml:space="preserve" text-anchor="middle" x="461" y="424">knjigu</text>
<g>
	<rect fill="#cbcbcb" stroke="none" stroke-opacity="1" x="541" y="199" width="96" height="56" rx="10" />
	<rect fill="#e0ffff" stroke="black" stroke-opacity="1" x="537" y="195" width="96" height="56" rx="10" />
</g>
	<text font-family="Helvetica" font-size="8" fill="#000000" xml:space="preserve" text-anchor="middle" x="585" y="230">Pretraga knjige</text>
<g>
	<rect fill="#cbcbcb" stroke="none" stroke-opacity="1" x="541" y="296" width="96" height="56" rx="10" />
	<rect fill="#e0ffff" stroke="black" stroke-opacity="1" x="537" y="292" width="96" height="56" rx="10" />
</g>
	<text font-family="Helvetica" font-size="8" fill="#000000" xml:space="preserve" text-anchor="middle" x="585" y="315">Provera da li</text>
	<text font-family="Helvetica" font-size="8" fill="#000000" xml:space="preserve" text-anchor="middle" x="585" y="329">knjiga postoji u</text>
	<text font-family="Helvetica" font-size="8" fill="#000000" xml:space="preserve" text-anchor="middle" x="585" y="343">sistemu</text>
<g>
	<rect fill="#cbcbcb" stroke="none" stroke-opacity="1" x="668" y="498" width="96" height="56" rx="10" />
	<rect fill="#e0ffff" stroke="black" stroke-opacity="1" x="664" y="494" width="96" height="56" rx="10" />
</g>
	<text font-family="Helvetica" font-size="8" fill="#000000" xml:space="preserve" text-anchor="middle" x="712" y="522">Prikaz detalja</text>
	<text font-family="Helvetica" font-size="8" fill="#000000" xml:space="preserve" text-anchor="middle" x="712" y="536">knjige</text>
<g>
	<rect fill="#cbcbcb" stroke="none" stroke-opacity="1" x="666" y="415" width="96" height="56" rx="10" />
	<rect fill="#e0ffff" stroke="black" stroke-opacity="1" x="662" y="411" width="96" height="56" rx="10" />
</g>
	<text font-family="Helvetica" font-size="8" fill="#000000" xml:space="preserve" text-anchor="middle" x="710" y="446">Odabir knjige</text>
<g>
	<rect fill="#cbcbcb" stroke="none" stroke-opacity="1" x="186" y="190" width="96" height="56" rx="10" />
	<rect fill="#e0ffff" stroke="black" stroke-opacity="1" x="182" y="186" width="96" height="56" rx="10" />
</g>
	<text font-family="Helvetica" font-size="8" fill="#000000" xml:space="preserve" text-anchor="middle" x="230" y="209">Prikaz</text>
	<text font-family="Helvetica" font-size="8" fill="#000000" xml:space="preserve" text-anchor="middle" x="230" y="223">rezervisanih</text>
	<text font-family="Helvetica" font-size="8" fill="#000000" xml:space="preserve" text-anchor="middle" x="230" y="237">knjiga</text>
<g>
	<rect fill="#cbcbcb" stroke="none" stroke-opacity="1" x="185" y="294" width="96" height="74" rx="10" />
	<rect fill="#e0ffff" stroke="black" stroke-opacity="1" x="181" y="290" width="96" height="74" rx="10" />
</g>
	<text font-family="Helvetica" font-size="8" fill="#000000" xml:space="preserve" text-anchor="middle" x="229" y="313">Provera da li</text>
	<text font-family="Helvetica" font-size="8" fill="#000000" xml:space="preserve" text-anchor="middle" x="229" y="327">postoji</text>
	<text font-family="Helvetica" font-size="8" fill="#000000" xml:space="preserve" text-anchor="middle" x="229" y="341">rezervacija na</text>
	<text font-family="Helvetica" font-size="8" fill="#000000" xml:space="preserve" text-anchor="middle" x="229" y="355">ime tog clana</text>
<g>
	<rect fill="#cbcbcb" stroke="none" stroke-opacity="1" x="260" y="505" width="96" height="56" rx="10" />
	<rect fill="#e0ffff" stroke="black" stroke-opacity="1" x="256" y="501" width="96" height="56" rx="10" />
</g>
	<text font-family="Helvetica" font-size="8" fill="#000000" xml:space="preserve" text-anchor="middle" x="304" y="536">Pretraga clana</text>
<g>
	<rect fill="#cbcbcb" stroke="none" stroke-opacity="1" x="128" y="803" width="98" height="74" rx="10" />
	<rect fill="#e0ffff" stroke="black" stroke-opacity="1" x="124" y="799" width="98" height="74" rx="10" />
</g>
	<text font-family="Helvetica" font-size="8" fill="#000000" xml:space="preserve" text-anchor="middle" x="173" y="829">Provera da li</text>
	<text font-family="Helvetica" font-size="8" fill="#000000" xml:space="preserve" text-anchor="middle" x="173" y="843">clan zadovoljava</text>
	<text font-family="Helvetica" font-size="8" fill="#000000" xml:space="preserve" text-anchor="middle" x="173" y="857">uslove</text>
<g>
	<rect fill="#cbcbcb" stroke="none" stroke-opacity="1" x="96" y="460" width="96" height="56" rx="10" />
	<rect fill="#e0ffff" stroke="black" stroke-opacity="1" x="92" y="456" width="96" height="56" rx="10" />
</g>
	<text font-family="Helvetica" font-size="8" fill="#000000" xml:space="preserve" text-anchor="middle" x="140" y="484">Odabir</text>
	<text font-family="Helvetica" font-size="8" fill="#000000" xml:space="preserve" text-anchor="middle" x="140" y="498">rezervacije</text>
<g>
	<rect fill="#cbcbcb" stroke="none" stroke-opacity="1" x="326" y="50" width="96" height="56" rx="10" />
	<rect fill="#e0ffff" stroke="black" stroke-opacity="1" x="322" y="46" width="96" height="56" rx="10" />
</g>
	<text font-family="Helvetica" font-size="8" fill="#000000" xml:space="preserve" text-anchor="middle" x="370" y="69">Provera da li</text>
	<text font-family="Helvetica" font-size="8" fill="#000000" xml:space="preserve" text-anchor="middle" x="370" y="83">clan ima</text>
	<text font-family="Helvetica" font-size="8" fill="#000000" xml:space="preserve" text-anchor="middle" x="370" y="97">rezervaciju</text>
<g>
	<rect fill="#cbcbcb" stroke="none" stroke-opacity="1" x="667" y="576" width="96" height="56" rx="10" />
	<rect fill="#e0ffff" stroke="black" stroke-opacity="1" x="663" y="572" width="96" height="56" rx="10" />
</g>
	<text font-family="Helvetica" font-size="8" fill="#000000" xml:space="preserve" text-anchor="middle" x="711" y="600">Provera da li je</text>
	<text font-family="Helvetica" font-size="8" fill="#000000" xml:space="preserve" text-anchor="middle" x="711" y="614">na stanju</text>
<g>
	<rect fill="#cbcbcb" stroke="none" stroke-opacity="1" x="261" y="600" width="96" height="56" rx="10" />
	<rect fill="#e0ffff" stroke="black" stroke-opacity="1" x="257" y="596" width="96" height="56" rx="10" />
</g>
	<text font-family="Helvetica" font-size="8" fill="#000000" xml:space="preserve" text-anchor="middle" x="305" y="624">Provera da li</text>
	<text font-family="Helvetica" font-size="8" fill="#000000" xml:space="preserve" text-anchor="middle" x="305" y="638">clan postoji</text>
	<ellipse fill="black" stroke="none" cx="371" cy="10" rx="8.5" ry="8.5" />
<polygon fill="white" stroke="black" stroke-opacity="1" points ="579,388 588,371 597,388 588,405" />
<polygon fill="white" stroke="black" stroke-opacity="1" points ="453,317 462,300 471,317 462,334" />
<polygon fill="white" stroke="black" stroke-opacity="1" points ="363,152 372,135 381,152 372,169" />
<g>
	<ellipse fill="white" stroke="black" stroke-width="1" stroke-opacity="1" cx="390" cy="316" rx="11.5" ry="11.5" />
	<ellipse fill="black" cx="390" cy="316" rx="8.5" ry="8.5" />
</g>
<polygon fill="white" stroke="black" stroke-opacity="1" points ="454,472 463,455 472,472 463,489" />
<polygon fill="white" stroke="black" stroke-opacity="1" points ="584,661 593,644 602,661 593,678" />
<polygon fill="white" stroke="black" stroke-opacity="1" points ="221,408 230,391 239,408 230,425" />
<polygon fill="white" stroke="black" stroke-opacity="1" points ="298,707 307,690 316,707 307,724" />
<g>
	<line stroke="black" stroke-opacity="1" x1="600" y1="388" x2="711" y2="388" />
</g>
<g>
	<line stroke="black" stroke-opacity="1" x1="711" y1="410" x2="717" y2="404" />
	<line stroke="black" stroke-opacity="1" x1="711" y1="410" x2="705" y2="404" />
	<line stroke="black" stroke-opacity="1" x1="711" y1="388" x2="711" y2="410" />
</g>
<g>
	<line stroke="black" stroke-opacity="1" x1="587" y1="369" x2="593" y2="363" />
	<line stroke="black" stroke-opacity="1" x1="587" y1="369" x2="581" y2="363" />
	<line stroke="black" stroke-opacity="1" x1="587" y1="352" x2="587" y2="369" />
</g>
<g>
	<line stroke="black" stroke-opacity="1" x1="584" y1="194" x2="589" y2="187" />
	<line stroke="black" stroke-opacity="1" x1="584" y1="194" x2="577" y2="188" />
	<line stroke="black" stroke-opacity="1" x1="583" y1="178" x2="584" y2="194" />
</g>
<g>
	<line stroke="black" stroke-opacity="1" x1="402" y1="316" x2="408" y2="322" />
	<line stroke="black" stroke-opacity="1" x1="402" y1="316" x2="408" y2="310" />
	<line stroke="black" stroke-opacity="1" x1="449" y1="316" x2="402" y2="316" />
</g>
<g>
	<line stroke="black" stroke-opacity="1" x1="217" y1="407" x2="142" y2="407" />
</g>
<g>
	<line stroke="black" stroke-opacity="1" x1="590" y1="508" x2="463" y2="507" />
</g>
<g>
	<line stroke="black" stroke-opacity="1" x1="356" y1="545" x2="361" y2="551" />
	<line stroke="black" stroke-opacity="1" x1="356" y1="545" x2="362" y2="539" />
	<line stroke="black" stroke-opacity="1" x1="504" y1="547" x2="356" y2="545" />
</g>
<g>
	<line stroke="black" stroke-opacity="1" x1="605" y1="662" x2="611" y2="667" />
	<line stroke="black" stroke-opacity="1" x1="605" y1="662" x2="610" y2="655" />
	<line stroke="black" stroke-opacity="1" x1="712" y1="661" x2="605" y2="662" />
</g>
<g>
	<line stroke="black" stroke-opacity="1" x1="371" y1="45" x2="377" y2="39" />
	<line stroke="black" stroke-opacity="1" x1="371" y1="45" x2="365" y2="39" />
	<line stroke="black" stroke-opacity="1" x1="371" y1="19" x2="371" y2="45" />
</g>
<g>
	<line stroke="black" stroke-opacity="1" x1="462" y1="335" x2="456" y2="341" />
	<line stroke="black" stroke-opacity="1" x1="462" y1="335" x2="468" y2="341" />
	<line stroke="black" stroke-opacity="1" x1="462" y1="370" x2="462" y2="335" />
</g>
<g>
	<line stroke="black" stroke-opacity="1" x1="450" y1="471" x2="444" y2="465" />
	<line stroke="black" stroke-opacity="1" x1="450" y1="471" x2="444" y2="477" />
	<line stroke="black" stroke-opacity="1" x1="230" y1="471" x2="450" y2="471" />
</g>
<g>
	<line stroke="black" stroke-opacity="1" x1="231" y1="289" x2="237" y2="283" />
	<line stroke="black" stroke-opacity="1" x1="231" y1="289" x2="225" y2="283" />
	<line stroke="black" stroke-opacity="1" x1="231" y1="246" x2="231" y2="289" />
</g>
<g>
	<line stroke="black" stroke-opacity="1" x1="592" y1="642" x2="590" y2="508" />
</g>
<g>
	<line stroke="black" stroke-opacity="1" x1="569" y1="165" x2="563" y2="159" />
	<line stroke="black" stroke-opacity="1" x1="569" y1="165" x2="563" y2="171" />
	<line stroke="black" stroke-opacity="1" x1="460" y1="165" x2="569" y2="165" />
</g>
<g>
	<line stroke="black" stroke-opacity="1" x1="588" y1="406" x2="589" y2="470" />
</g>
<g>
	<line stroke="black" stroke-opacity="1" x1="306" y1="595" x2="312" y2="589" />
	<line stroke="black" stroke-opacity="1" x1="306" y1="595" x2="300" y2="589" />
	<line stroke="black" stroke-opacity="1" x1="306" y1="561" x2="306" y2="595" />
</g>
<g>
	<line stroke="black" stroke-opacity="1" x1="307" y1="688" x2="313" y2="682" />
	<line stroke="black" stroke-opacity="1" x1="307" y1="688" x2="301" y2="682" />
	<line stroke="black" stroke-opacity="1" x1="307" y1="656" x2="307" y2="688" />
</g>
<g>
	<line stroke="black" stroke-opacity="1" x1="307" y1="725" x2="307" y2="1001" />
</g>
<g>
	<line stroke="black" stroke-opacity="1" x1="712" y1="493" x2="718" y2="487" />
	<line stroke="black" stroke-opacity="1" x1="712" y1="493" x2="706" y2="487" />
	<line stroke="black" stroke-opacity="1" x1="712" y1="471" x2="712" y2="493" />
</g>
<g>
	<line stroke="black" stroke-opacity="1" x1="372" y1="133" x2="378" y2="127" />
	<line stroke="black" stroke-opacity="1" x1="372" y1="133" x2="366" y2="127" />
	<line stroke="black" stroke-opacity="1" x1="372" y1="106" x2="372" y2="133" />
</g>
<g>
	<line stroke="black" stroke-opacity="1" x1="359" y1="151" x2="232" y2="150" />
</g>
<g>
	<line stroke="black" stroke-opacity="1" x1="463" y1="490" x2="457" y2="496" />
	<line stroke="black" stroke-opacity="1" x1="463" y1="490" x2="469" y2="496" />
	<line stroke="black" stroke-opacity="1" x1="463" y1="507" x2="463" y2="490" />
</g>
<g>
	<line stroke="black" stroke-opacity="1" x1="569" y1="151" x2="562" y2="145" />
	<line stroke="black" stroke-opacity="1" x1="569" y1="151" x2="563" y2="157" />
	<line stroke="black" stroke-opacity="1" x1="384" y1="152" x2="569" y2="151" />
</g>
<g>
	<line stroke="black" stroke-opacity="1" x1="232" y1="185" x2="238" y2="179" />
	<line stroke="black" stroke-opacity="1" x1="232" y1="185" x2="226" y2="179" />
	<line stroke="black" stroke-opacity="1" x1="232" y1="150" x2="232" y2="185" />
</g>
<g>
	<line stroke="black" stroke-opacity="1" x1="712" y1="632" x2="712" y2="661" />
</g>
<g>
	<line stroke="black" stroke-opacity="1" x1="507" y1="660" x2="504" y2="547" />
</g>
<g>
	<line stroke="black" stroke-opacity="1" x1="230" y1="426" x2="230" y2="471" />
</g>
<g>
	<line stroke="black" stroke-opacity="1" x1="587" y1="291" x2="593" y2="285" />
	<line stroke="black" stroke-opacity="1" x1="587" y1="291" x2="581" y2="285" />
	<line stroke="black" stroke-opacity="1" x1="587" y1="255" x2="587" y2="291" />
</g>
<g>
	<line stroke="black" stroke-opacity="1" x1="713" y1="571" x2="719" y2="565" />
	<line stroke="black" stroke-opacity="1" x1="713" y1="571" x2="707" y2="565" />
	<line stroke="black" stroke-opacity="1" x1="713" y1="554" x2="713" y2="571" />
</g>
<g>
	<line stroke="black" stroke-opacity="1" x1="475" y1="471" x2="481" y2="476" />
	<line stroke="black" stroke-opacity="1" x1="475" y1="471" x2="480" y2="464" />
	<line stroke="black" stroke-opacity="1" x1="589" y1="470" x2="475" y2="471" />
</g>
<g>
	<line stroke="black" stroke-opacity="1" x1="230" y1="389" x2="236" y2="383" />
	<line stroke="black" stroke-opacity="1" x1="230" y1="389" x2="224" y2="383" />
	<line stroke="black" stroke-opacity="1" x1="230" y1="368" x2="230" y2="389" />
</g>
<g>
	<line stroke="black" stroke-opacity="1" x1="580" y1="660" x2="507" y2="660" />
</g>
<g>
	<line stroke="black" stroke-opacity="1" x1="142" y1="455" x2="148" y2="449" />
	<line stroke="black" stroke-opacity="1" x1="142" y1="455" x2="136" y2="449" />
	<line stroke="black" stroke-opacity="1" x1="142" y1="407" x2="142" y2="455" />
</g>
<g>
	<line stroke="black" stroke-opacity="1" x1="461" y1="298" x2="460" y2="165" />
</g>
<g>
	<line stroke="black" stroke-opacity="1" x1="463" y1="439" x2="457" y2="445" />
	<line stroke="black" stroke-opacity="1" x1="463" y1="439" x2="469" y2="445" />
	<line stroke="black" stroke-opacity="1" x1="463" y1="453" x2="463" y2="439" />
</g>
<g>
	<text font-family="Helvetica" font-size="8" fill="#000000" xml:space="preserve" x="287" y="454">Nema rezervaciju</text>
</g>
<g>
	<text font-family="Helvetica" font-size="8" fill="#000000" xml:space="preserve" x="290" y="142">Ima</text>
</g>
<g>
	<text font-family="Helvetica" font-size="8" fill="#000000" xml:space="preserve" x="140" y="394">Ima rezervaciju</text>
</g>
<g>
	<text font-family="Helvetica" font-size="8" fill="#000000" xml:space="preserve" x="634" y="377">Da</text>
</g>
<g>
	<text font-family="Helvetica" font-size="8" fill="#000000" xml:space="preserve" x="437" y="239">Da</text>
</g>
<g>
	<text font-family="Helvetica" font-size="8" fill="#000000" xml:space="preserve" x="425" y="139">Nema rezervaciju</text>
</g>
<g>
	<text font-family="Helvetica" font-size="8" fill="#000000" xml:space="preserve" x="419" y="300">Ne</text>
</g>
<g>
	<text font-family="Helvetica" font-size="8" fill="#000000" xml:space="preserve" x="513" y="645">na stanju je</text>
</g>
<g>
	<text font-family="Helvetica" font-size="8" fill="#000000" xml:space="preserve" x="490" y="518">Nije na stanju</text>
</g>
<g>
	<text font-family="Helvetica" font-size="8" fill="#000000" xml:space="preserve" x="565" y="434">Ne</text>
</g>
<g>
	<rect fill="#cbcbcb" stroke="none" stroke-opacity="1" x="132" y="681" width="96" height="56" rx="10" />
	<rect fill="#e0ffff" stroke="black" stroke-opacity="1" x="128" y="677" width="96" height="56" rx="10" />
</g>
	<text font-family="Helvetica" font-size="8" fill="#000000" xml:space="preserve" text-anchor="middle" x="176" y="712">Odabir clana</text>
<polygon fill="white" stroke="black" stroke-opacity="1" points ="163,769 172,752 181,769 172,786" />
<g>
	<line stroke="black" stroke-opacity="1" x1="159" y1="769" x2="152" y2="763" />
	<line stroke="black" stroke-opacity="1" x1="159" y1="769" x2="153" y2="775" />
	<line stroke="black" stroke-opacity="1" x1="71" y1="770" x2="159" y2="769" />
</g>
<g>
	<line stroke="black" stroke-opacity="1" x1="169" y1="750" x2="175" y2="744" />
	<line stroke="black" stroke-opacity="1" x1="169" y1="750" x2="163" y2="744" />
	<line stroke="black" stroke-opacity="1" x1="169" y1="737" x2="169" y2="750" />
</g>
<g>
	<line stroke="black" stroke-opacity="1" x1="172" y1="798" x2="178" y2="792" />
	<line stroke="black" stroke-opacity="1" x1="172" y1="798" x2="166" y2="792" />
	<line stroke="black" stroke-opacity="1" x1="172" y1="787" x2="172" y2="798" />
</g>
<g>
	<line stroke="black" stroke-opacity="1" x1="91" y1="485" x2="71" y2="485" />
</g>
<g>
	<line stroke="black" stroke-opacity="1" x1="71" y1="485" x2="71" y2="770" />
</g>
<g>
	<text font-family="Helvetica" font-size="8" fill="#000000" xml:space="preserve" x="254" y="698">Da</text>
</g>
<g>
	<line stroke="black" stroke-opacity="1" x1="228" y1="707" x2="234" y2="713" />
	<line stroke="black" stroke-opacity="1" x1="228" y1="707" x2="234" y2="701" />
	<line stroke="black" stroke-opacity="1" x1="294" y1="707" x2="228" y2="707" />
</g>
</svg>
