<?xml version="1.0" encoding="UTF-8" standalone="no"?>
<!-- Created with Bouml (http://bouml.free.fr/) -->
<!DOCTYPE svg PUBLIC "-//W3C//DTD SVG 1.1//EN" "http://www.w3.org/Graphics/SVG/1.1/DTD/svg11.dtd">
<svg width="1494" height="899" version="1.1" xmlns="http://www.w3.org/2000/svg">
<g>
	<rect fill="#cbcbcb" stroke="none" stroke-opacity="1" x="990" y="713" width="2" height="76" />
	<rect fill="#cbcbcb" stroke="none" stroke-opacity="1" x="914" y="787" width="78" height="2" />
	<rect fill="#ffffc0" stroke="black" stroke-width="1" stroke-opacity="1" x="911" y="710" width="79" height="77" />
	<text font-family="MS Shell Dlg 2" font-size="7" fill="#000000" xml:space="preserve" text-anchor="middle" x="951" y="718">&lt;&lt;boundary&gt;&gt;</text>
	<text font-family="MS Shell Dlg 2" font-size="7" fill="#000000" xml:space="preserve" font-weight="bold" text-anchor="middle" x="951" y="732">ZanrForma</text>
	<line stroke="black" stroke-opacity="1" x1="911" y1="738" x2="990" y2="738" />
	<line stroke="black" stroke-opacity="1" x1="911" y1="744" x2="990" y2="744" />
	<text font-family="MS Shell Dlg 2" font-size="7" fill="#000000" xml:space="preserve" x="914" y="752">dodajZanr()</text>
	<text font-family="MS Shell Dlg 2" font-size="7" fill="#000000" xml:space="preserve" x="914" y="765">izaberiZanr()</text>
	<text font-family="MS Shell Dlg 2" font-size="7" fill="#000000" xml:space="preserve" x="914" y="778">pretraziZanr()</text>
</g>
<g>
	<rect fill="#cbcbcb" stroke="none" stroke-opacity="1" x="1336" y="714" width="2" height="76" />
	<rect fill="#cbcbcb" stroke="none" stroke-opacity="1" x="1260" y="788" width="78" height="2" />
	<rect fill="#ffffc0" stroke="black" stroke-width="1" stroke-opacity="1" x="1257" y="711" width="79" height="77" />
	<text font-family="MS Shell Dlg 2" font-size="7" fill="#000000" xml:space="preserve" text-anchor="middle" x="1297" y="719">&lt;&lt;boundary&gt;&gt;</text>
	<text font-family="MS Shell Dlg 2" font-size="7" fill="#000000" xml:space="preserve" font-weight="bold" text-anchor="middle" x="1297" y="733">AutorForma</text>
	<line stroke="black" stroke-opacity="1" x1="1257" y1="739" x2="1336" y2="739" />
	<line stroke="black" stroke-opacity="1" x1="1257" y1="745" x2="1336" y2="745" />
	<text font-family="MS Shell Dlg 2" font-size="7" fill="#000000" xml:space="preserve" x="1260" y="753">dodajAutora()</text>
	<text font-family="MS Shell Dlg 2" font-size="7" fill="#000000" xml:space="preserve" x="1260" y="766">izaberiAutora()</text>
	<text font-family="MS Shell Dlg 2" font-size="7" fill="#000000" xml:space="preserve" x="1260" y="779">pretraziAutora()</text>
</g>
<g>
	<rect fill="#cbcbcb" stroke="none" stroke-opacity="1" x="845" y="730" width="2" height="50" />
	<rect fill="#cbcbcb" stroke="none" stroke-opacity="1" x="765" y="778" width="82" height="2" />
	<rect fill="#ffffc0" stroke="black" stroke-width="1" stroke-opacity="1" x="762" y="727" width="83" height="51" />
	<text font-family="MS Shell Dlg 2" font-size="7" fill="#000000" xml:space="preserve" text-anchor="middle" x="804" y="735">&lt;&lt;boundary&gt;&gt;</text>
	<text font-family="MS Shell Dlg 2" font-size="7" fill="#000000" xml:space="preserve" font-weight="bold" text-anchor="middle" x="804" y="749">NoviZanrForma</text>
	<line stroke="black" stroke-opacity="1" x1="762" y1="755" x2="845" y2="755" />
	<line stroke="black" stroke-opacity="1" x1="762" y1="761" x2="845" y2="761" />
	<text font-family="MS Shell Dlg 2" font-size="7" fill="#000000" xml:space="preserve" x="765" y="769">sacuvajZanr()</text>
</g>
<g>
	<rect fill="#cbcbcb" stroke="none" stroke-opacity="1" x="1103" y="161" width="2" height="50" />
	<rect fill="#cbcbcb" stroke="none" stroke-opacity="1" x="1001" y="209" width="104" height="2" />
	<rect fill="#ffffc0" stroke="black" stroke-width="1" stroke-opacity="1" x="998" y="158" width="105" height="51" />
	<text font-family="MS Shell Dlg 2" font-size="7" fill="#000000" xml:space="preserve" text-anchor="middle" x="1051" y="166">&lt;&lt;boundary&gt;&gt;</text>
	<text font-family="MS Shell Dlg 2" font-size="7" fill="#000000" xml:space="preserve" font-weight="bold" text-anchor="middle" x="1051" y="180">DetaljiKnjigeForma</text>
	<line stroke="black" stroke-opacity="1" x1="998" y1="186" x2="1103" y2="186" />
	<line stroke="black" stroke-opacity="1" x1="998" y1="192" x2="1103" y2="192" />
	<text font-family="MS Shell Dlg 2" font-size="7" fill="#000000" xml:space="preserve" x="1001" y="200">izdavanje()</text>
</g>
<g>
	<rect fill="#cbcbcb" stroke="none" stroke-opacity="1" x="661" y="162" width="2" height="50" />
	<rect fill="#cbcbcb" stroke="none" stroke-opacity="1" x="467" y="210" width="196" height="2" />
	<rect fill="#ffffc0" stroke="black" stroke-width="1" stroke-opacity="1" x="464" y="159" width="197" height="51" />
	<text font-family="MS Shell Dlg 2" font-size="7" fill="#000000" xml:space="preserve" text-anchor="middle" x="563" y="167">&lt;&lt;control&gt;&gt;</text>
	<text font-family="MS Shell Dlg 2" font-size="7" fill="#000000" xml:space="preserve" font-weight="bold" text-anchor="middle" x="563" y="181">IzdavanjeKontroler</text>
	<line stroke="black" stroke-opacity="1" x1="464" y1="187" x2="661" y2="187" />
	<line stroke="black" stroke-opacity="1" x1="464" y1="193" x2="661" y2="193" />
	<text font-family="MS Shell Dlg 2" font-size="7" fill="#000000" xml:space="preserve" x="467" y="201">cuvajIzdavanje(in i : Izdavanje) : bool [1]</text>
</g>
<g>
	<rect fill="#cbcbcb" stroke="none" stroke-opacity="1" x="657" y="317" width="2" height="96" />
	<rect fill="#cbcbcb" stroke="none" stroke-opacity="1" x="473" y="411" width="186" height="2" />
	<rect fill="#ffffc0" stroke="black" stroke-width="1" stroke-opacity="1" x="470" y="314" width="187" height="97" />
	<text font-family="MS Shell Dlg 2" font-size="7" fill="#000000" xml:space="preserve" text-anchor="middle" x="564" y="322">&lt;&lt;entity&gt;&gt;</text>
	<text font-family="MS Shell Dlg 2" font-size="7" fill="#000000" xml:space="preserve" font-weight="bold" text-anchor="middle" x="564" y="336">Izdavanje</text>
	<line stroke="black" stroke-opacity="1" x1="470" y1="342" x2="657" y2="342" />
	<text font-family="MS Shell Dlg 2" font-size="7" fill="#000000" xml:space="preserve" x="473" y="350">datumIzdavanja : Date [1]</text>
	<text font-family="MS Shell Dlg 2" font-size="7" fill="#000000" xml:space="preserve" x="473" y="363">rokZaVracanje : Date</text>
	<line stroke="black" stroke-opacity="1" x1="470" y1="369" x2="657" y2="369" />
	<text font-family="MS Shell Dlg 2" font-size="7" fill="#000000" xml:space="preserve" x="473" y="377">dodajClana(in c : Clan) : bool [1]</text>
	<text font-family="MS Shell Dlg 2" font-size="7" fill="#000000" xml:space="preserve" x="473" y="390">dodajKnjigu(in k : Knjiga) : bool [1]</text>
	<text font-family="MS Shell Dlg 2" font-size="7" fill="#000000" xml:space="preserve" x="473" y="403">setRokZaVracanje(in d : Date) : bool [1]</text>
</g>
<g>
	<rect fill="#cbcbcb" stroke="none" stroke-opacity="1" x="278" y="445" width="2" height="62" />
	<rect fill="#cbcbcb" stroke="none" stroke-opacity="1" x="184" y="505" width="96" height="2" />
	<rect fill="#ffffc0" stroke="black" stroke-width="1" stroke-opacity="1" x="181" y="442" width="97" height="63" />
	<text font-family="MS Shell Dlg 2" font-size="7" fill="#000000" xml:space="preserve" text-anchor="middle" x="230" y="450">&lt;&lt;boundary&gt;&gt;</text>
	<text font-family="MS Shell Dlg 2" font-size="7" fill="#000000" xml:space="preserve" font-weight="bold" text-anchor="middle" x="230" y="464">RezervacijaForma</text>
	<line stroke="black" stroke-opacity="1" x1="181" y1="470" x2="278" y2="470" />
	<line stroke="black" stroke-opacity="1" x1="181" y1="476" x2="278" y2="476" />
	<text font-family="MS Shell Dlg 2" font-size="7" fill="#000000" xml:space="preserve" x="184" y="484">pretrazi()</text>
	<text font-family="MS Shell Dlg 2" font-size="7" fill="#000000" xml:space="preserve" x="184" y="497">prikaziRezervaciju()</text>
</g>
<g>
	<rect fill="#cbcbcb" stroke="none" stroke-opacity="1" x="913" y="634" width="2" height="62" />
	<rect fill="#cbcbcb" stroke="none" stroke-opacity="1" x="705" y="694" width="210" height="2" />
	<rect fill="#ffffc0" stroke="black" stroke-width="1" stroke-opacity="1" x="702" y="631" width="211" height="63" />
	<text font-family="MS Shell Dlg 2" font-size="7" fill="#000000" xml:space="preserve" text-anchor="middle" x="808" y="639">&lt;&lt;control&gt;&gt;</text>
	<text font-family="MS Shell Dlg 2" font-size="7" fill="#000000" xml:space="preserve" font-weight="bold" text-anchor="middle" x="808" y="653">ZanrKontroler</text>
	<line stroke="black" stroke-opacity="1" x1="702" y1="659" x2="913" y2="659" />
	<line stroke="black" stroke-opacity="1" x1="702" y1="665" x2="913" y2="665" />
	<text font-family="MS Shell Dlg 2" font-size="7" fill="#000000" xml:space="preserve" x="705" y="673">sacuvaj(in z : Zanr) : bool [1]</text>
	<text font-family="MS Shell Dlg 2" font-size="7" fill="#000000" xml:space="preserve" x="705" y="686">pronadjiZanr(in kriterijum : string) : Zanr [*]</text>
</g>
<g>
	<rect fill="#cbcbcb" stroke="none" stroke-opacity="1" x="296" y="342" width="2" height="50" />
	<rect fill="#cbcbcb" stroke="none" stroke-opacity="1" x="168" y="390" width="130" height="2" />
	<rect fill="#ffffc0" stroke="black" stroke-width="1" stroke-opacity="1" x="165" y="339" width="131" height="51" />
	<text font-family="MS Shell Dlg 2" font-size="7" fill="#000000" xml:space="preserve" text-anchor="middle" x="231" y="347">&lt;&lt;boundary&gt;&gt;</text>
	<text font-family="MS Shell Dlg 2" font-size="7" fill="#000000" xml:space="preserve" font-weight="bold" text-anchor="middle" x="231" y="361">DetaljiRezervacijeForma</text>
	<line stroke="black" stroke-opacity="1" x1="165" y1="367" x2="296" y2="367" />
	<line stroke="black" stroke-opacity="1" x1="165" y1="373" x2="296" y2="373" />
	<text font-family="MS Shell Dlg 2" font-size="7" fill="#000000" xml:space="preserve" x="168" y="381">izdavanje()</text>
</g>
<g>
	<rect fill="#cbcbcb" stroke="none" stroke-opacity="1" x="1479" y="540" width="2" height="50" />
	<rect fill="#cbcbcb" stroke="none" stroke-opacity="1" x="1393" y="588" width="88" height="2" />
	<rect fill="#ffffc0" stroke="black" stroke-width="1" stroke-opacity="1" x="1390" y="537" width="89" height="51" />
	<text font-family="MS Shell Dlg 2" font-size="7" fill="#000000" xml:space="preserve" text-anchor="middle" x="1435" y="545">&lt;&lt;boundary&gt;&gt;</text>
	<text font-family="MS Shell Dlg 2" font-size="7" fill="#000000" xml:space="preserve" font-weight="bold" text-anchor="middle" x="1435" y="559">NoviAutorForma</text>
	<line stroke="black" stroke-opacity="1" x1="1390" y1="565" x2="1479" y2="565" />
	<line stroke="black" stroke-opacity="1" x1="1390" y1="571" x2="1479" y2="571" />
	<text font-family="MS Shell Dlg 2" font-size="7" fill="#000000" xml:space="preserve" x="1393" y="579">sacuvajAutora()</text>
</g>
<g>
	<rect fill="#cbcbcb" stroke="none" stroke-opacity="1" x="825" y="155" width="2" height="62" />
	<rect fill="#cbcbcb" stroke="none" stroke-opacity="1" x="735" y="215" width="92" height="2" />
	<rect fill="#ffffc0" stroke="black" stroke-width="1" stroke-opacity="1" x="732" y="152" width="93" height="63" />
	<text font-family="MS Shell Dlg 2" font-size="7" fill="#000000" xml:space="preserve" text-anchor="middle" x="779" y="160">&lt;&lt;boundary&gt;&gt;</text>
	<text font-family="MS Shell Dlg 2" font-size="7" fill="#000000" xml:space="preserve" font-weight="bold" text-anchor="middle" x="779" y="174">IzdavanjeForma</text>
	<line stroke="black" stroke-opacity="1" x1="732" y1="180" x2="825" y2="180" />
	<line stroke="black" stroke-opacity="1" x1="732" y1="186" x2="825" y2="186" />
	<text font-family="MS Shell Dlg 2" font-size="7" fill="#000000" xml:space="preserve" x="735" y="194">izaberiClana()</text>
	<text font-family="MS Shell Dlg 2" font-size="7" fill="#000000" xml:space="preserve" x="735" y="207">sacuvajIzdavanje()</text>
</g>
<g>
	<rect fill="#cbcbcb" stroke="none" stroke-opacity="1" x="841" y="546" width="2" height="50" />
	<rect fill="#cbcbcb" stroke="none" stroke-opacity="1" x="779" y="594" width="64" height="2" />
	<rect fill="#ffffc0" stroke="black" stroke-width="1" stroke-opacity="1" x="776" y="543" width="65" height="51" />
	<text font-family="MS Shell Dlg 2" font-size="7" fill="#000000" xml:space="preserve" text-anchor="middle" x="809" y="551">&lt;&lt;entity&gt;&gt;</text>
	<text font-family="MS Shell Dlg 2" font-size="7" fill="#000000" xml:space="preserve" font-weight="bold" text-anchor="middle" x="809" y="565">Zanr</text>
	<line stroke="black" stroke-opacity="1" x1="776" y1="571" x2="841" y2="571" />
	<text font-family="MS Shell Dlg 2" font-size="7" fill="#000000" xml:space="preserve" x="779" y="579">naziv : string</text>
	<line stroke="black" stroke-opacity="1" x1="776" y1="585" x2="841" y2="585" />
</g>
<g>
	<rect fill="#cbcbcb" stroke="none" stroke-opacity="1" x="1179" y="711" width="2" height="76" />
	<rect fill="#cbcbcb" stroke="none" stroke-opacity="1" x="1057" y="785" width="124" height="2" />
	<rect fill="#ffffc0" stroke="black" stroke-width="1" stroke-opacity="1" x="1054" y="708" width="125" height="77" />
	<text font-family="MS Shell Dlg 2" font-size="7" fill="#000000" xml:space="preserve" text-anchor="middle" x="1117" y="716">&lt;&lt;boundary&gt;&gt;</text>
	<text font-family="MS Shell Dlg 2" font-size="7" fill="#000000" xml:space="preserve" font-weight="bold" text-anchor="middle" x="1117" y="730">DodavanjeKnjigaForma</text>
	<line stroke="black" stroke-opacity="1" x1="1054" y1="736" x2="1179" y2="736" />
	<line stroke="black" stroke-opacity="1" x1="1054" y1="742" x2="1179" y2="742" />
	<text font-family="MS Shell Dlg 2" font-size="7" fill="#000000" xml:space="preserve" x="1057" y="750">dodajAutora()</text>
	<text font-family="MS Shell Dlg 2" font-size="7" fill="#000000" xml:space="preserve" x="1057" y="763">dodajZanr()</text>
	<text font-family="MS Shell Dlg 2" font-size="7" fill="#000000" xml:space="preserve" x="1057" y="776">kreirajKnjigu()</text>
</g>
<g>
	<rect fill="#cbcbcb" stroke="none" stroke-opacity="1" x="651" y="525" width="2" height="70" />
	<rect fill="#cbcbcb" stroke="none" stroke-opacity="1" x="483" y="593" width="170" height="2" />
	<rect fill="#ffffc0" stroke="black" stroke-width="1" stroke-opacity="1" x="480" y="522" width="171" height="71" />
	<text font-family="MS Shell Dlg 2" font-size="7" fill="#000000" xml:space="preserve" text-anchor="middle" x="566" y="530">&lt;&lt;entity&gt;&gt;</text>
	<text font-family="MS Shell Dlg 2" font-size="7" fill="#000000" xml:space="preserve" font-weight="bold" text-anchor="middle" x="566" y="544">Rezervacija</text>
	<line stroke="black" stroke-opacity="1" x1="480" y1="550" x2="651" y2="550" />
	<text font-family="MS Shell Dlg 2" font-size="7" fill="#000000" xml:space="preserve" x="483" y="558">datumRezervisanja : Date</text>
	<line stroke="black" stroke-opacity="1" x1="480" y1="564" x2="651" y2="564" />
	<text font-family="MS Shell Dlg 2" font-size="7" fill="#000000" xml:space="preserve" x="483" y="572">dodajClana(in c : Clan) : bool [1]</text>
	<text font-family="MS Shell Dlg 2" font-size="7" fill="#000000" xml:space="preserve" x="483" y="585">dodajKnjigu(in k : Knjiga) : bool [1]</text>
</g>
<g>
	<rect fill="#cbcbcb" stroke="none" stroke-opacity="1" x="1408" y="384" width="2" height="62" />
	<rect fill="#cbcbcb" stroke="none" stroke-opacity="1" x="1186" y="444" width="224" height="2" />
	<rect fill="#ffffc0" stroke="black" stroke-width="1" stroke-opacity="1" x="1183" y="381" width="225" height="63" />
	<text font-family="MS Shell Dlg 2" font-size="7" fill="#000000" xml:space="preserve" text-anchor="middle" x="1296" y="389">&lt;&lt;control&gt;&gt;</text>
	<text font-family="MS Shell Dlg 2" font-size="7" fill="#000000" xml:space="preserve" font-weight="bold" text-anchor="middle" x="1296" y="403">AutorKontroler</text>
	<line stroke="black" stroke-opacity="1" x1="1183" y1="409" x2="1408" y2="409" />
	<line stroke="black" stroke-opacity="1" x1="1183" y1="415" x2="1408" y2="415" />
	<text font-family="MS Shell Dlg 2" font-size="7" fill="#000000" xml:space="preserve" x="1186" y="423">sacuvaj(in a : Autor) : bool [1]</text>
	<text font-family="MS Shell Dlg 2" font-size="7" fill="#000000" xml:space="preserve" x="1186" y="436">pronadjiAutora(in kriterijum : string) : Autor [*]</text>
</g>
<g>
	<rect fill="#cbcbcb" stroke="none" stroke-opacity="1" x="1091" y="267" width="2" height="62" />
	<rect fill="#cbcbcb" stroke="none" stroke-opacity="1" x="1015" y="327" width="78" height="2" />
	<rect fill="#ffffc0" stroke="black" stroke-width="1" stroke-opacity="1" x="1012" y="264" width="79" height="63" />
	<text font-family="MS Shell Dlg 2" font-size="7" fill="#000000" xml:space="preserve" text-anchor="middle" x="1052" y="272">&lt;&lt;boundary&gt;&gt;</text>
	<text font-family="MS Shell Dlg 2" font-size="7" fill="#000000" xml:space="preserve" font-weight="bold" text-anchor="middle" x="1052" y="286">KnjigaForma</text>
	<line stroke="black" stroke-opacity="1" x1="1012" y1="292" x2="1091" y2="292" />
	<line stroke="black" stroke-opacity="1" x1="1012" y1="298" x2="1091" y2="298" />
	<text font-family="MS Shell Dlg 2" font-size="7" fill="#000000" xml:space="preserve" x="1015" y="306">pretrazi()</text>
	<text font-family="MS Shell Dlg 2" font-size="7" fill="#000000" xml:space="preserve" x="1015" y="319">prikazi()</text>
</g>
<g>
	<rect fill="#cbcbcb" stroke="none" stroke-opacity="1" x="1207" y="541" width="2" height="50" />
	<rect fill="#cbcbcb" stroke="none" stroke-opacity="1" x="1031" y="589" width="178" height="2" />
	<rect fill="#ffffc0" stroke="black" stroke-width="1" stroke-opacity="1" x="1028" y="538" width="179" height="51" />
	<text font-family="MS Shell Dlg 2" font-size="7" fill="#000000" xml:space="preserve" text-anchor="middle" x="1118" y="546">&lt;&lt;control&gt;&gt;</text>
	<text font-family="MS Shell Dlg 2" font-size="7" fill="#000000" xml:space="preserve" font-weight="bold" text-anchor="middle" x="1118" y="560">DodavanjeKnjigeKontroler</text>
	<line stroke="black" stroke-opacity="1" x1="1028" y1="566" x2="1207" y2="566" />
	<line stroke="black" stroke-opacity="1" x1="1028" y1="572" x2="1207" y2="572" />
	<text font-family="MS Shell Dlg 2" font-size="7" fill="#000000" xml:space="preserve" x="1031" y="580">sacuvajKnjigu(in k : Knjiga) : bool [1]</text>
</g>
<g>
	<rect fill="#cbcbcb" stroke="none" stroke-opacity="1" x="918" y="273" width="2" height="50" />
	<rect fill="#cbcbcb" stroke="none" stroke-opacity="1" x="696" y="321" width="224" height="2" />
	<rect fill="#ffffc0" stroke="black" stroke-width="1" stroke-opacity="1" x="693" y="270" width="225" height="51" />
	<text font-family="MS Shell Dlg 2" font-size="7" fill="#000000" xml:space="preserve" text-anchor="middle" x="806" y="278">&lt;&lt;control&gt;&gt;</text>
	<text font-family="MS Shell Dlg 2" font-size="7" fill="#000000" xml:space="preserve" font-weight="bold" text-anchor="middle" x="806" y="292">KnjigaKontroler</text>
	<line stroke="black" stroke-opacity="1" x1="693" y1="298" x2="918" y2="298" />
	<line stroke="black" stroke-opacity="1" x1="693" y1="304" x2="918" y2="304" />
	<text font-family="MS Shell Dlg 2" font-size="7" fill="#000000" xml:space="preserve" x="696" y="312">pronadjiKnjigu(in kriterijum : string) : Knjiga [*]</text>
</g>
<g>
	<rect fill="#cbcbcb" stroke="none" stroke-opacity="1" x="818" y="62" width="2" height="62" />
	<rect fill="#cbcbcb" stroke="none" stroke-opacity="1" x="742" y="122" width="78" height="2" />
	<rect fill="#ffffc0" stroke="black" stroke-width="1" stroke-opacity="1" x="739" y="59" width="79" height="63" />
	<text font-family="MS Shell Dlg 2" font-size="7" fill="#000000" xml:space="preserve" text-anchor="middle" x="779" y="67">&lt;&lt;boundary&gt;&gt;</text>
	<text font-family="MS Shell Dlg 2" font-size="7" fill="#000000" xml:space="preserve" font-weight="bold" text-anchor="middle" x="779" y="81">ClanForma</text>
	<line stroke="black" stroke-opacity="1" x1="739" y1="87" x2="818" y2="87" />
	<line stroke="black" stroke-opacity="1" x1="739" y1="93" x2="818" y2="93" />
	<text font-family="MS Shell Dlg 2" font-size="7" fill="#000000" xml:space="preserve" x="742" y="101">pretraziClana()</text>
	<text font-family="MS Shell Dlg 2" font-size="7" fill="#000000" xml:space="preserve" x="742" y="114">izaberiClana()</text>
</g>
<g>
	<rect fill="#cbcbcb" stroke="none" stroke-opacity="1" x="479" y="69" width="2" height="50" />
	<rect fill="#cbcbcb" stroke="none" stroke-opacity="1" x="263" y="117" width="218" height="2" />
	<rect fill="#ffffc0" stroke="black" stroke-width="1" stroke-opacity="1" x="260" y="66" width="219" height="51" />
	<text font-family="MS Shell Dlg 2" font-size="7" fill="#000000" xml:space="preserve" text-anchor="middle" x="370" y="74">&lt;&lt;control&gt;&gt;</text>
	<text font-family="MS Shell Dlg 2" font-size="7" fill="#000000" xml:space="preserve" font-weight="bold" text-anchor="middle" x="370" y="88">ClanKontroler</text>
	<line stroke="black" stroke-opacity="1" x1="260" y1="94" x2="479" y2="94" />
	<line stroke="black" stroke-opacity="1" x1="260" y1="100" x2="479" y2="100" />
	<text font-family="MS Shell Dlg 2" font-size="7" fill="#000000" xml:space="preserve" x="263" y="108">pretraziClana(in kriterijum : string) : Clan [0..1]</text>
</g>
<g>
	<rect fill="#cbcbcb" stroke="none" stroke-opacity="1" x="1098" y="376" width="2" height="76" />
	<rect fill="#cbcbcb" stroke="none" stroke-opacity="1" x="996" y="450" width="104" height="2" />
	<rect fill="#ffffc0" stroke="black" stroke-width="1" stroke-opacity="1" x="993" y="373" width="105" height="77" />
	<text font-family="MS Shell Dlg 2" font-size="7" fill="#000000" xml:space="preserve" text-anchor="middle" x="1046" y="381">&lt;&lt;entity&gt;&gt;</text>
	<text font-family="MS Shell Dlg 2" font-size="7" fill="#000000" xml:space="preserve" font-weight="bold" text-anchor="middle" x="1046" y="395">Autor</text>
	<line stroke="black" stroke-opacity="1" x1="993" y1="401" x2="1098" y2="401" />
	<text font-family="MS Shell Dlg 2" font-size="7" fill="#000000" xml:space="preserve" x="996" y="409">ime : string</text>
	<text font-family="MS Shell Dlg 2" font-size="7" fill="#000000" xml:space="preserve" x="996" y="422">prezime : string</text>
	<text font-family="MS Shell Dlg 2" font-size="7" fill="#000000" xml:space="preserve" x="996" y="435">datumRodjenja : Date</text>
	<line stroke="black" stroke-opacity="1" x1="993" y1="441" x2="1098" y2="441" />
</g>
<g>
	<rect fill="#cbcbcb" stroke="none" stroke-opacity="1" x="899" y="390" width="2" height="122" />
	<rect fill="#cbcbcb" stroke="none" stroke-opacity="1" x="721" y="510" width="180" height="2" />
	<rect fill="#ffffc0" stroke="black" stroke-width="1" stroke-opacity="1" x="718" y="387" width="181" height="123" />
	<text font-family="MS Shell Dlg 2" font-size="7" fill="#000000" xml:space="preserve" text-anchor="middle" x="809" y="395">&lt;&lt;entity&gt;&gt;</text>
	<text font-family="MS Shell Dlg 2" font-size="7" fill="#000000" xml:space="preserve" font-weight="bold" text-anchor="middle" x="809" y="409">Knjiga</text>
	<line stroke="black" stroke-opacity="1" x1="718" y1="415" x2="899" y2="415" />
	<text font-family="MS Shell Dlg 2" font-size="7" fill="#000000" xml:space="preserve" x="721" y="423">naziv : string [1]</text>
	<text font-family="MS Shell Dlg 2" font-size="7" fill="#000000" xml:space="preserve" x="721" y="436">brStrana : int</text>
	<text font-family="MS Shell Dlg 2" font-size="7" fill="#000000" xml:space="preserve" x="721" y="449">izdavac : string</text>
	<text font-family="MS Shell Dlg 2" font-size="7" fill="#000000" xml:space="preserve" x="721" y="462">brKnjigaUBiblioteci : int</text>
	<text font-family="MS Shell Dlg 2" font-size="7" fill="#000000" xml:space="preserve" x="721" y="475">brKnjigaUkupno : int</text>
	<line stroke="black" stroke-opacity="1" x1="718" y1="481" x2="899" y2="481" />
	<text font-family="MS Shell Dlg 2" font-size="7" fill="#000000" xml:space="preserve" x="721" y="489">dodajAutora(in a : Autor [1..*]) : bool</text>
	<text font-family="MS Shell Dlg 2" font-size="7" fill="#000000" xml:space="preserve" x="721" y="502">dodajZanr(in z : Zanr) : bool [1]</text>
</g>
<g>
	<rect fill="#cbcbcb" stroke="none" stroke-opacity="1" x="175" y="653" width="2" height="88" />
	<rect fill="#cbcbcb" stroke="none" stroke-opacity="1" x="93" y="739" width="84" height="2" />
	<rect fill="#ffffc0" stroke="black" stroke-width="1" stroke-opacity="1" x="90" y="650" width="85" height="89" />
	<text font-family="MS Shell Dlg 2" font-size="7" fill="#000000" xml:space="preserve" text-anchor="middle" x="133" y="658">&lt;&lt;actor&gt;&gt;</text>
	<text font-family="MS Shell Dlg 2" font-size="7" fill="#000000" xml:space="preserve" font-weight="bold" text-anchor="middle" x="133" y="672">Admin</text>
	<line stroke="black" stroke-opacity="1" x1="90" y1="678" x2="175" y2="678" />
	<text font-family="MS Shell Dlg 2" font-size="7" fill="#000000" xml:space="preserve" x="93" y="686">ime : string</text>
	<text font-family="MS Shell Dlg 2" font-size="7" fill="#000000" xml:space="preserve" x="93" y="699">prezime : string</text>
	<text font-family="MS Shell Dlg 2" font-size="7" fill="#000000" xml:space="preserve" x="93" y="712">username : string</text>
	<text font-family="MS Shell Dlg 2" font-size="7" fill="#000000" xml:space="preserve" x="93" y="725">password : string</text>
	<line stroke="black" stroke-opacity="1" x1="90" y1="731" x2="175" y2="731" />
</g>
<g>
	<rect fill="#cbcbcb" stroke="none" stroke-opacity="1" x="412" y="402" width="2" height="88" />
	<rect fill="#cbcbcb" stroke="none" stroke-opacity="1" x="330" y="488" width="84" height="2" />
	<rect fill="#ffffc0" stroke="black" stroke-width="1" stroke-opacity="1" x="327" y="399" width="85" height="89" />
	<text font-family="MS Shell Dlg 2" font-size="7" fill="#000000" xml:space="preserve" text-anchor="middle" x="370" y="407">&lt;&lt;actor&gt;&gt;</text>
	<text font-family="MS Shell Dlg 2" font-size="7" fill="#000000" xml:space="preserve" font-weight="bold" text-anchor="middle" x="370" y="421">Clan</text>
	<line stroke="black" stroke-opacity="1" x1="327" y1="427" x2="412" y2="427" />
	<text font-family="MS Shell Dlg 2" font-size="7" fill="#000000" xml:space="preserve" x="330" y="435">ime : string</text>
	<text font-family="MS Shell Dlg 2" font-size="7" fill="#000000" xml:space="preserve" x="330" y="448">prezime : string</text>
	<text font-family="MS Shell Dlg 2" font-size="7" fill="#000000" xml:space="preserve" x="330" y="461">username : string</text>
	<text font-family="MS Shell Dlg 2" font-size="7" fill="#000000" xml:space="preserve" x="330" y="474">password : string</text>
	<line stroke="black" stroke-opacity="1" x1="327" y1="480" x2="412" y2="480" />
</g>
<g>
	<rect fill="#cbcbcb" stroke="none" stroke-opacity="1" x="450" y="674" width="2" height="50" />
	<rect fill="#cbcbcb" stroke="none" stroke-opacity="1" x="298" y="722" width="154" height="2" />
	<rect fill="#ffffc0" stroke="black" stroke-width="1" stroke-opacity="1" x="295" y="671" width="155" height="51" />
	<text font-family="MS Shell Dlg 2" font-size="7" fill="#000000" xml:space="preserve" text-anchor="middle" x="373" y="679">&lt;&lt;boundary&gt;&gt;</text>
	<text font-family="MS Shell Dlg 2" font-size="7" fill="#000000" xml:space="preserve" font-weight="bold" text-anchor="middle" x="373" y="693">DodavanjeBibliotekaraForma</text>
	<line stroke="black" stroke-opacity="1" x1="295" y1="699" x2="450" y2="699" />
	<line stroke="black" stroke-opacity="1" x1="295" y1="705" x2="450" y2="705" />
	<text font-family="MS Shell Dlg 2" font-size="7" fill="#000000" xml:space="preserve" x="298" y="713">kreirajBibliotekara()</text>
</g>
<g>
	<rect fill="#cbcbcb" stroke="none" stroke-opacity="1" x="303" y="246" width="2" height="50" />
	<rect fill="#cbcbcb" stroke="none" stroke-opacity="1" x="159" y="294" width="146" height="2" />
	<rect fill="#ffffc0" stroke="black" stroke-width="1" stroke-opacity="1" x="156" y="243" width="147" height="51" />
	<text font-family="MS Shell Dlg 2" font-size="7" fill="#000000" xml:space="preserve" text-anchor="middle" x="230" y="251">&lt;&lt;boundary&gt;&gt;</text>
	<text font-family="MS Shell Dlg 2" font-size="7" fill="#000000" xml:space="preserve" font-weight="bold" text-anchor="middle" x="230" y="265">IzdavanjeRezervacijeForma</text>
	<line stroke="black" stroke-opacity="1" x1="156" y1="271" x2="303" y2="271" />
	<line stroke="black" stroke-opacity="1" x1="156" y1="277" x2="303" y2="277" />
	<text font-family="MS Shell Dlg 2" font-size="7" fill="#000000" xml:space="preserve" x="159" y="285">sacuvajIzdavanje()</text>
</g>
<g>
	<rect fill="#cbcbcb" stroke="none" stroke-opacity="1" x="333" y="151" width="2" height="50" />
	<rect fill="#cbcbcb" stroke="none" stroke-opacity="1" x="131" y="199" width="204" height="2" />
	<rect fill="#ffffc0" stroke="black" stroke-width="1" stroke-opacity="1" x="128" y="148" width="205" height="51" />
	<text font-family="MS Shell Dlg 2" font-size="7" fill="#000000" xml:space="preserve" text-anchor="middle" x="231" y="156">&lt;&lt;control&gt;&gt;</text>
	<text font-family="MS Shell Dlg 2" font-size="7" fill="#000000" xml:space="preserve" font-weight="bold" text-anchor="middle" x="231" y="170">IzdavanjeRezervacijeKontroler</text>
	<line stroke="black" stroke-opacity="1" x1="128" y1="176" x2="333" y2="176" />
	<line stroke="black" stroke-opacity="1" x1="128" y1="182" x2="333" y2="182" />
	<text font-family="MS Shell Dlg 2" font-size="7" fill="#000000" xml:space="preserve" x="131" y="190">sacuvajIzdavanje(in i : Izdavanje) : bool [1]</text>
</g>
<g>
	<rect fill="#cbcbcb" stroke="none" stroke-opacity="1" x="366" y="544" width="2" height="34" />
	<rect fill="#cbcbcb" stroke="none" stroke-opacity="1" x="94" y="576" width="274" height="2" />
	<rect fill="#ffffc0" stroke="black" stroke-width="1" stroke-opacity="1" x="91" y="541" width="275" height="35" />
	<text font-family="MS Shell Dlg 2" font-size="7" fill="#000000" xml:space="preserve" font-weight="bold" text-anchor="middle" x="229" y="549">RezervacijaKontroler</text>
	<line stroke="black" stroke-opacity="1" x1="91" y1="555" x2="366" y2="555" />
	<line stroke="black" stroke-opacity="1" x1="91" y1="561" x2="366" y2="561" />
	<text font-family="MS Shell Dlg 2" font-size="7" fill="#000000" xml:space="preserve" x="94" y="569">pretraziRezervaciju(in kriterijum : string) : Rezervacija [0..1]</text>
</g>
<g>
	<rect fill="#cbcbcb" stroke="none" stroke-opacity="1" x="482" y="817" width="2" height="50" />
	<rect fill="#cbcbcb" stroke="none" stroke-opacity="1" x="264" y="865" width="220" height="2" />
	<rect fill="#ffffc0" stroke="black" stroke-width="1" stroke-opacity="1" x="261" y="814" width="221" height="51" />
	<text font-family="MS Shell Dlg 2" font-size="7" fill="#000000" xml:space="preserve" text-anchor="middle" x="372" y="822">&lt;&lt;control&gt;&gt;</text>
	<text font-family="MS Shell Dlg 2" font-size="7" fill="#000000" xml:space="preserve" font-weight="bold" text-anchor="middle" x="372" y="836">BibliotekarKontroler</text>
	<line stroke="black" stroke-opacity="1" x1="261" y1="842" x2="482" y2="842" />
	<line stroke="black" stroke-opacity="1" x1="261" y1="848" x2="482" y2="848" />
	<text font-family="MS Shell Dlg 2" font-size="7" fill="#000000" xml:space="preserve" x="264" y="856">sacuvajBibliotekara(in b : Bibliotekar) : bool [1]</text>
</g>
<g>
	<line stroke="black" stroke-opacity="1" x1="469" y1="365" x2="463" y2="359" />
	<line stroke="black" stroke-opacity="1" x1="469" y1="365" x2="463" y2="371" />
	<line stroke-dasharray="4,4" stroke="black" stroke-opacity="1" x1="414" y1="365" x2="469" y2="365" />
</g>
<g>
	<line stroke="black" stroke-opacity="1" x1="231" y1="202" x2="225" y2="208" />
	<line stroke="black" stroke-opacity="1" x1="231" y1="202" x2="237" y2="208" />
	<line stroke-dasharray="4,4" stroke="black" stroke-opacity="1" x1="231" y1="242" x2="231" y2="202" />
</g>
<g>
	<line stroke="black" stroke-opacity="1" x1="231" y1="441" x2="231" y2="393" />
</g>
<g>
	<line stroke="black" stroke-opacity="1" x1="371" y1="398" x2="377" y2="392" />
	<line stroke="black" stroke-opacity="1" x1="371" y1="398" x2="365" y2="392" />
	<line stroke-dasharray="4,4" stroke="black" stroke-opacity="1" x1="371" y1="120" x2="371" y2="398" />
</g>
<g>
	<line stroke="black" stroke-opacity="1" x1="564" y1="313" x2="570" y2="307" />
	<line stroke="black" stroke-opacity="1" x1="564" y1="313" x2="558" y2="307" />
	<line stroke-dasharray="4,4" stroke="black" stroke-opacity="1" x1="564" y1="213" x2="564" y2="313" />
</g>
<g>
	<line stroke="black" stroke-opacity="1" x1="780" y1="151" x2="780" y2="125" />
</g>
<g>
	<line stroke="black" stroke-opacity="1" x1="231" y1="338" x2="231" y2="297" />
</g>
<g>
	<line stroke="black" stroke-opacity="1" x1="230" y1="508" x2="230" y2="540" />
</g>
<g>
	<line stroke="black" stroke-opacity="1" x1="479" y1="559" x2="473" y2="553" />
	<line stroke="black" stroke-opacity="1" x1="479" y1="559" x2="473" y2="565" />
	<line stroke-dasharray="4,4" stroke="black" stroke-opacity="1" x1="369" y1="559" x2="479" y2="559" />
</g>
<g>
	<line stroke-dasharray="4,4" stroke="black" stroke-opacity="1" x1="336" y1="172" x2="414" y2="172" />
</g>
<g>
	<line stroke="black" stroke-opacity="1" x1="482" y1="92" x2="488" y2="98" />
	<line stroke="black" stroke-opacity="1" x1="482" y1="92" x2="488" y2="86" />
	<line stroke-dasharray="4,4" stroke="black" stroke-opacity="1" x1="738" y1="92" x2="482" y2="92" />
</g>
<g>
	<line stroke-dasharray="4,4" stroke="black" stroke-opacity="1" x1="414" y1="172" x2="414" y2="365" />
</g>
<g>
	<line stroke="black" stroke-opacity="1" x1="807" y1="386" x2="813" y2="380" />
	<line stroke="black" stroke-opacity="1" x1="807" y1="386" x2="801" y2="380" />
	<line stroke-dasharray="4,4" stroke="black" stroke-opacity="1" x1="807" y1="324" x2="807" y2="386" />
</g>
<g>
	<line stroke="black" stroke-opacity="1" x1="1339" y1="749" x2="1436" y2="748" />
</g>
<g>
	<line stroke="black" stroke-opacity="1" x1="1118" y1="592" x2="1112" y2="598" />
	<line stroke="black" stroke-opacity="1" x1="1118" y1="592" x2="1124" y2="598" />
	<line stroke-dasharray="4,4" stroke="black" stroke-opacity="1" x1="1118" y1="707" x2="1118" y2="592" />
</g>
<g>
	<line stroke="black" stroke-opacity="1" x1="415" y1="441" x2="717" y2="440" />
</g>
<g>
	<line stroke-dasharray="4,4" stroke="black" stroke-opacity="1" x1="1436" y1="536" x2="1436" y2="411" />
</g>
<g>
	<line stroke="black" stroke-opacity="1" x1="1411" y1="411" x2="1417" y2="417" />
	<line stroke="black" stroke-opacity="1" x1="1411" y1="411" x2="1417" y2="405" />
	<line stroke-dasharray="4,4" stroke="black" stroke-opacity="1" x1="1436" y1="411" x2="1411" y2="411" />
</g>
<g>
	<line stroke="black" stroke-opacity="1" x1="1053" y1="748" x2="993" y2="749" />
</g>
<g>
	<line stroke="black" stroke-opacity="1" x1="1436" y1="748" x2="1436" y2="591" />
</g>
<g>
	<line stroke="black" stroke-opacity="1" x1="910" y1="751" x2="848" y2="752" />
</g>
<g>
	<line stroke="black" stroke-opacity="1" x1="809" y1="597" x2="803" y2="603" />
	<line stroke="black" stroke-opacity="1" x1="809" y1="597" x2="815" y2="603" />
	<line stroke-dasharray="4,4" stroke="black" stroke-opacity="1" x1="809" y1="630" x2="809" y2="597" />
</g>
<g>
	<line stroke="black" stroke-opacity="1" x1="812" y1="513" x2="812" y2="542" />
	<polygon fill="#ffffff" stroke="black" stroke-opacity="1" points="812,513 818,519 812,525 806,519" />
</g>
<g>
	<line stroke="black" stroke-opacity="1" x1="902" y1="494" x2="908" y2="500" />
	<line stroke="black" stroke-opacity="1" x1="902" y1="494" x2="908" y2="488" />
	<line stroke-dasharray="4,4" stroke="black" stroke-opacity="1" x1="1119" y1="494" x2="902" y2="494" />
</g>
<g>
	<line stroke="black" stroke-opacity="1" x1="415" y1="484" x2="717" y2="484" />
</g>
<g>
	<line stroke="black" stroke-opacity="1" x1="806" y1="697" x2="800" y2="703" />
	<line stroke="black" stroke-opacity="1" x1="806" y1="697" x2="812" y2="703" />
	<line stroke-dasharray="4,4" stroke="black" stroke-opacity="1" x1="806" y1="726" x2="806" y2="697" />
</g>
<g>
	<line stroke="black" stroke-opacity="1" x1="1297" y1="447" x2="1291" y2="453" />
	<line stroke="black" stroke-opacity="1" x1="1297" y1="447" x2="1303" y2="453" />
	<line stroke-dasharray="4,4" stroke="black" stroke-opacity="1" x1="1297" y1="710" x2="1297" y2="447" />
</g>
<g>
	<line stroke="black" stroke-opacity="1" x1="1182" y1="748" x2="1256" y2="749" />
</g>
<g>
	<line stroke="black" stroke-opacity="1" x1="1101" y1="413" x2="1107" y2="419" />
	<line stroke="black" stroke-opacity="1" x1="1101" y1="413" x2="1107" y2="407" />
	<line stroke-dasharray="4,4" stroke="black" stroke-opacity="1" x1="1182" y1="413" x2="1101" y2="413" />
</g>
<g>
	<line stroke-dasharray="4,4" stroke="black" stroke-opacity="1" x1="1119" y1="537" x2="1119" y2="494" />
</g>
<g>
	<line stroke-dasharray="4,4" stroke="black" stroke-opacity="1" x1="953" y1="709" x2="953" y2="664" />
</g>
<g>
	<line stroke="black" stroke-opacity="1" x1="916" y1="664" x2="922" y2="670" />
	<line stroke="black" stroke-opacity="1" x1="916" y1="664" x2="922" y2="658" />
	<line stroke-dasharray="4,4" stroke="black" stroke-opacity="1" x1="953" y1="664" x2="916" y2="664" />
</g>
<g>
	<line stroke="black" stroke-opacity="1" x1="902" y1="414" x2="992" y2="413" />
	<polygon fill="#ffffff" stroke="black" stroke-opacity="1" points="902,414 907,407 913,413 908,419" />
</g>
<g>
	<line stroke="black" stroke-opacity="1" x1="921" y1="297" x2="927" y2="303" />
	<line stroke="black" stroke-opacity="1" x1="921" y1="297" x2="927" y2="291" />
	<line stroke-dasharray="4,4" stroke="black" stroke-opacity="1" x1="1011" y1="297" x2="921" y2="297" />
</g>
<g>
	<line stroke="black" stroke-opacity="1" x1="1052" y1="263" x2="1052" y2="212" />
</g>
<g>
	<line stroke="black" stroke-opacity="1" x1="997" y1="185" x2="828" y2="185" />
</g>
<g>
	<line stroke="black" stroke-opacity="1" x1="664" y1="185" x2="670" y2="191" />
	<line stroke="black" stroke-opacity="1" x1="664" y1="185" x2="670" y2="179" />
	<line stroke-dasharray="4,4" stroke="black" stroke-opacity="1" x1="731" y1="185" x2="664" y2="185" />
</g>
<g>
	<line stroke="black" stroke-opacity="1" x1="373" y1="813" x2="379" y2="807" />
	<line stroke="black" stroke-opacity="1" x1="373" y1="813" x2="367" y2="807" />
	<line stroke-dasharray="4,4" stroke="black" stroke-opacity="1" x1="373" y1="725" x2="373" y2="813" />
</g>
<g>
	<line stroke-dasharray="4,4" stroke="black" stroke-opacity="1" x1="565" y1="414" x2="565" y2="439" />
</g>
<g>
	<line stroke-dasharray="4,4" stroke="black" stroke-opacity="1" x1="566" y1="521" x2="566" y2="484" />
</g>
<g>
	<rect fill="#cbcbcb" stroke="none" stroke-opacity="1" x="176" y="798" width="2" height="88" />
	<rect fill="#cbcbcb" stroke="none" stroke-opacity="1" x="94" y="884" width="84" height="2" />
	<rect fill="#ffffc0" stroke="black" stroke-width="1" stroke-opacity="1" x="91" y="795" width="85" height="89" />
	<text font-family="MS Shell Dlg 2" font-size="7" fill="#000000" xml:space="preserve" text-anchor="middle" x="134" y="803">&lt;&lt;actor&gt;&gt;</text>
	<text font-family="MS Shell Dlg 2" font-size="7" fill="#000000" xml:space="preserve" font-weight="bold" text-anchor="middle" x="134" y="817">Bibliotekar</text>
	<line stroke="black" stroke-opacity="1" x1="91" y1="823" x2="176" y2="823" />
	<text font-family="MS Shell Dlg 2" font-size="7" fill="#000000" xml:space="preserve" x="94" y="831">ime : string</text>
	<text font-family="MS Shell Dlg 2" font-size="7" fill="#000000" xml:space="preserve" x="94" y="844">prezime : string</text>
	<text font-family="MS Shell Dlg 2" font-size="7" fill="#000000" xml:space="preserve" x="94" y="857">username : string</text>
	<text font-family="MS Shell Dlg 2" font-size="7" fill="#000000" xml:space="preserve" x="94" y="870">password : string</text>
	<line stroke="black" stroke-opacity="1" x1="91" y1="876" x2="176" y2="876" />
</g>
<g>
	<line stroke="#000000" stroke-opacity="1" x1="134" y1="742" x2="134" y2="788" />
	<line stroke="#000000" stroke-opacity="1" x1="134" y1="794" x2="140" y2="788" />
	<line stroke="#000000" stroke-opacity="1" x1="134" y1="794" x2="128" y2="788" />
	<line stroke="#000000" stroke-opacity="1" x1="140" y1="788" x2="128" y2="788" />
</g>
<g>
	<line stroke="black" stroke-opacity="1" x1="179" y1="841" x2="185" y2="847" />
	<line stroke="black" stroke-opacity="1" x1="179" y1="841" x2="185" y2="835" />
	<line stroke-dasharray="4,4" stroke="black" stroke-opacity="1" x1="260" y1="841" x2="179" y2="841" />
</g>
<g>
	<text font-family="MS Shell Dlg 2" font-size="7" fill="#000000" xml:space="preserve" x="1191" y="762">1</text>
</g>
<g>
	<text font-family="MS Shell Dlg 2" font-size="7" fill="#000000" xml:space="preserve" x="1410" y="603">0..1</text>
</g>
<g>
	<text font-family="MS Shell Dlg 2" font-size="7" fill="#000000" xml:space="preserve" x="1349" y="762">1</text>
</g>
<g>
	<text font-family="MS Shell Dlg 2" font-size="7" fill="#000000" xml:space="preserve" x="858" y="765">0..1</text>
</g>
<g>
	<text font-family="MS Shell Dlg 2" font-size="7" fill="#000000" xml:space="preserve" x="1231" y="763">0..1</text>
</g>
<g>
	<text font-family="MS Shell Dlg 2" font-size="7" fill="#000000" xml:space="preserve" x="1038" y="762">1</text>
</g>
<g>
	<text font-family="MS Shell Dlg 2" font-size="7" fill="#000000" xml:space="preserve" x="894" y="764">1</text>
</g>
<g>
	<text font-family="MS Shell Dlg 2" font-size="7" fill="#000000" xml:space="preserve" x="707" y="454">*</text>
</g>
<g>
	<text font-family="MS Shell Dlg 2" font-size="7" fill="#000000" xml:space="preserve" x="707" y="499">*</text>
</g>
<g>
	<text font-family="MS Shell Dlg 2" font-size="7" fill="#000000" xml:space="preserve" x="1002" y="762">0..1</text>
</g>
<g>
	<text font-family="MS Shell Dlg 2" font-size="7" fill="#000000" xml:space="preserve" x="423" y="499">*</text>
</g>
<g>
	<text font-family="MS Shell Dlg 2" font-size="7" fill="#000000" xml:space="preserve" x="423" y="456">*</text>
</g>
<g>
	<text font-family="MS Shell Dlg 2" font-size="7" fill="#000000" xml:space="preserve" x="982" y="198">1</text>
</g>
<g>
	<text font-family="MS Shell Dlg 2" font-size="7" fill="#000000" xml:space="preserve" x="1026" y="225">0..1</text>
</g>
<g>
	<text font-family="MS Shell Dlg 2" font-size="7" fill="#000000" xml:space="preserve" x="205" y="310">0..1</text>
</g>
<g>
	<text font-family="MS Shell Dlg 2" font-size="7" fill="#000000" xml:space="preserve" x="215" y="432">1</text>
</g>
<g>
	<text font-family="MS Shell Dlg 2" font-size="7" fill="#000000" xml:space="preserve" x="1037" y="254">1</text>
</g>
<g>
	<text font-family="MS Shell Dlg 2" font-size="7" fill="#000000" xml:space="preserve" x="216" y="328">1</text>
</g>
<g>
	<text font-family="MS Shell Dlg 2" font-size="7" fill="#000000" xml:space="preserve" x="837" y="198">0..1</text>
</g>
<g>
	<text font-family="MS Shell Dlg 2" font-size="7" fill="#000000" xml:space="preserve" x="204" y="405">0..1</text>
</g>
</svg>
