<?xml version="1.0" encoding="UTF-8" standalone="no"?>
<!-- Created with Bouml (http://bouml.free.fr/) -->
<!DOCTYPE svg PUBLIC "-//W3C//DTD SVG 1.1//EN" "http://www.w3.org/Graphics/SVG/1.1/DTD/svg11.dtd">
<svg width="1195" height="791" version="1.1" xmlns="http://www.w3.org/2000/svg">
<g>
	<rect fill="#cbcbcb" stroke="none" stroke-opacity="1" x="693" y="743" width="2" height="32" />
	<rect fill="#cbcbcb" stroke="none" stroke-opacity="1" x="635" y="773" width="60" height="2" />
	<rect fill="#ffffc0" stroke="black" stroke-width="1" stroke-opacity="1" x="632" y="740" width="61" height="33" />
	<text font-family="Helvetica" font-size="6" fill="#000000" xml:space="preserve" text-anchor="middle" x="663" y="747">&lt;&lt;boundary&gt;&gt;</text>
	<text font-family="Helvetica" font-size="6" fill="#000000" xml:space="preserve" font-weight="bold" text-anchor="middle" x="663" y="756">LogovanjeForma</text>
	<line stroke="black" stroke-opacity="1" x1="632" y1="758" x2="693" y2="758" />
	<line stroke="black" stroke-opacity="1" x1="632" y1="763" x2="693" y2="763" />
	<text font-family="Helvetica" font-size="6" fill="#000000" xml:space="preserve" x="634" y="770">prijaviSe()</text>
</g>
<g>
	<rect fill="#cbcbcb" stroke="none" stroke-opacity="1" x="235" y="543" width="2" height="28" />
	<rect fill="#cbcbcb" stroke="none" stroke-opacity="1" x="201" y="569" width="36" height="2" />
	<rect fill="#ffffc0" stroke="black" stroke-width="1" stroke-opacity="1" x="198" y="540" width="37" height="29" />
	<text font-family="Helvetica" font-size="6" fill="#000000" xml:space="preserve" text-anchor="middle" x="217" y="547">&lt;&lt;actor&gt;&gt;</text>
	<text font-family="Helvetica" font-size="6" fill="#000000" xml:space="preserve" font-weight="bold" text-anchor="middle" x="217" y="556">Admin</text>
	<line stroke="black" stroke-opacity="1" x1="198" y1="558" x2="235" y2="558" />
	<line stroke="black" stroke-opacity="1" x1="198" y1="563" x2="235" y2="563" />
</g>
<g>
	<rect fill="#cbcbcb" stroke="none" stroke-opacity="1" x="581" y="707" width="2" height="22" />
	<rect fill="#cbcbcb" stroke="none" stroke-opacity="1" x="437" y="727" width="146" height="2" />
	<rect fill="#ffffc0" stroke="black" stroke-width="1" stroke-opacity="1" x="434" y="704" width="147" height="23" />
	<text font-family="Helvetica" font-size="6" fill="#000000" xml:space="preserve" font-weight="bold" text-anchor="middle" x="508" y="711">LogovanjeKontroler</text>
	<line stroke="black" stroke-opacity="1" x1="434" y1="713" x2="581" y2="713" />
	<line stroke="black" stroke-opacity="1" x1="434" y1="718" x2="581" y2="718" />
	<text font-family="Helvetica" font-size="6" fill="#000000" xml:space="preserve" x="436" y="725">prijava(in u : string, in p : string) : Korisnik [1]</text>
</g>
<g>
	<rect fill="#cbcbcb" stroke="none" stroke-opacity="1" x="1034" y="563" width="2" height="48" />
	<rect fill="#cbcbcb" stroke="none" stroke-opacity="1" x="984" y="609" width="52" height="2" />
	<rect fill="#ffffc0" stroke="black" stroke-width="1" stroke-opacity="1" x="981" y="560" width="53" height="49" />
	<text font-family="Helvetica" font-size="6" fill="#000000" xml:space="preserve" text-anchor="middle" x="1008" y="567">&lt;&lt;boundary&gt;&gt;</text>
	<text font-family="Helvetica" font-size="6" fill="#000000" xml:space="preserve" font-weight="bold" text-anchor="middle" x="1008" y="576">AutorForma</text>
	<line stroke="black" stroke-opacity="1" x1="981" y1="578" x2="1034" y2="578" />
	<line stroke="black" stroke-opacity="1" x1="981" y1="583" x2="1034" y2="583" />
	<text font-family="Helvetica" font-size="6" fill="#000000" xml:space="preserve" x="983" y="590">dodajAutora()</text>
	<text font-family="Helvetica" font-size="6" fill="#000000" xml:space="preserve" x="983" y="598">izaberiAutora()</text>
	<text font-family="Helvetica" font-size="6" fill="#000000" xml:space="preserve" x="983" y="606">pretraziAutora()</text>
</g>
<g>
	<rect fill="#cbcbcb" stroke="none" stroke-opacity="1" x="760" y="563" width="2" height="48" />
	<rect fill="#cbcbcb" stroke="none" stroke-opacity="1" x="714" y="609" width="48" height="2" />
	<rect fill="#ffffc0" stroke="black" stroke-width="1" stroke-opacity="1" x="711" y="560" width="49" height="49" />
	<text font-family="Helvetica" font-size="6" fill="#000000" xml:space="preserve" text-anchor="middle" x="736" y="567">&lt;&lt;boundary&gt;&gt;</text>
	<text font-family="Helvetica" font-size="6" fill="#000000" xml:space="preserve" font-weight="bold" text-anchor="middle" x="736" y="576">ZanrForma</text>
	<line stroke="black" stroke-opacity="1" x1="711" y1="578" x2="760" y2="578" />
	<line stroke="black" stroke-opacity="1" x1="711" y1="583" x2="760" y2="583" />
	<text font-family="Helvetica" font-size="6" fill="#000000" xml:space="preserve" x="713" y="590">dodajZanr()</text>
	<text font-family="Helvetica" font-size="6" fill="#000000" xml:space="preserve" x="713" y="598">izaberiZanr()</text>
	<text font-family="Helvetica" font-size="6" fill="#000000" xml:space="preserve" x="713" y="606">pretraziZanr()</text>
</g>
<g>
	<rect fill="#cbcbcb" stroke="none" stroke-opacity="1" x="915" y="436" width="2" height="32" />
	<rect fill="#cbcbcb" stroke="none" stroke-opacity="1" x="795" y="466" width="122" height="2" />
	<rect fill="#ffffc0" stroke="black" stroke-width="1" stroke-opacity="1" x="792" y="433" width="123" height="33" />
	<text font-family="Helvetica" font-size="6" fill="#000000" xml:space="preserve" text-anchor="middle" x="854" y="440">&lt;&lt;control&gt;&gt;</text>
	<text font-family="Helvetica" font-size="6" fill="#000000" xml:space="preserve" font-weight="bold" text-anchor="middle" x="854" y="449">DodavanjeKnjigeKontroler</text>
	<line stroke="black" stroke-opacity="1" x1="792" y1="451" x2="915" y2="451" />
	<line stroke="black" stroke-opacity="1" x1="792" y1="456" x2="915" y2="456" />
	<text font-family="Helvetica" font-size="6" fill="#000000" xml:space="preserve" x="794" y="463">sacuvajKnjigu(in k : Knjiga) : bool [1]</text>
</g>
<g>
	<rect fill="#cbcbcb" stroke="none" stroke-opacity="1" x="1079" y="304" width="2" height="40" />
	<rect fill="#cbcbcb" stroke="none" stroke-opacity="1" x="933" y="342" width="148" height="2" />
	<rect fill="#ffffc0" stroke="black" stroke-width="1" stroke-opacity="1" x="930" y="301" width="149" height="41" />
	<text font-family="Helvetica" font-size="6" fill="#000000" xml:space="preserve" text-anchor="middle" x="1005" y="308">&lt;&lt;control&gt;&gt;</text>
	<text font-family="Helvetica" font-size="6" fill="#000000" xml:space="preserve" font-weight="bold" text-anchor="middle" x="1005" y="317">AutorKontroler</text>
	<line stroke="black" stroke-opacity="1" x1="930" y1="319" x2="1079" y2="319" />
	<line stroke="black" stroke-opacity="1" x1="930" y1="324" x2="1079" y2="324" />
	<text font-family="Helvetica" font-size="6" fill="#000000" xml:space="preserve" x="932" y="331">sacuvaj(in a : Autor) : bool [1]</text>
	<text font-family="Helvetica" font-size="6" fill="#000000" xml:space="preserve" x="932" y="339">pronadjiAutora(in kriterijum : string) : Autor [*]</text>
</g>
<g>
	<rect fill="#cbcbcb" stroke="none" stroke-opacity="1" x="693" y="664" width="2" height="22" />
	<rect fill="#cbcbcb" stroke="none" stroke-opacity="1" x="631" y="684" width="64" height="2" />
	<rect fill="#ffffc0" stroke="black" stroke-width="1" stroke-opacity="1" x="628" y="661" width="65" height="23" />
	<text font-family="Helvetica" font-size="6" fill="#000000" xml:space="preserve" font-weight="bold" text-anchor="middle" x="661" y="668">AdminForma</text>
	<line stroke="black" stroke-opacity="1" x1="628" y1="670" x2="693" y2="670" />
	<line stroke="black" stroke-opacity="1" x1="628" y1="675" x2="693" y2="675" />
	<text font-family="Helvetica" font-size="6" fill="#000000" xml:space="preserve" x="630" y="682">dodajBibliotekara()</text>
</g>
<g>
	<rect fill="#cbcbcb" stroke="none" stroke-opacity="1" x="296" y="350" width="2" height="32" />
	<rect fill="#cbcbcb" stroke="none" stroke-opacity="1" x="262" y="380" width="36" height="2" />
	<rect fill="#ffffc0" stroke="black" stroke-width="1" stroke-opacity="1" x="259" y="347" width="37" height="33" />
	<text font-family="Helvetica" font-size="6" fill="#000000" xml:space="preserve" text-anchor="middle" x="278" y="354">&lt;&lt;actor&gt;&gt;</text>
	<text font-family="Helvetica" font-size="6" fill="#000000" xml:space="preserve" font-weight="bold" text-anchor="middle" x="278" y="363">Clan</text>
	<line stroke="black" stroke-opacity="1" x1="259" y1="365" x2="296" y2="365" />
	<text font-family="Helvetica" font-size="6" fill="#000000" xml:space="preserve" x="261" y="372">IDC : int</text>
	<line stroke="black" stroke-opacity="1" x1="259" y1="374" x2="296" y2="374" />
</g>
<g>
	<rect fill="#cbcbcb" stroke="none" stroke-opacity="1" x="908" y="562" width="2" height="48" />
	<rect fill="#cbcbcb" stroke="none" stroke-opacity="1" x="826" y="608" width="84" height="2" />
	<rect fill="#ffffc0" stroke="black" stroke-width="1" stroke-opacity="1" x="823" y="559" width="85" height="49" />
	<text font-family="Helvetica" font-size="6" fill="#000000" xml:space="preserve" text-anchor="middle" x="866" y="566">&lt;&lt;boundary&gt;&gt;</text>
	<text font-family="Helvetica" font-size="6" fill="#000000" xml:space="preserve" font-weight="bold" text-anchor="middle" x="866" y="575">DodavanjeKnjigaForma</text>
	<line stroke="black" stroke-opacity="1" x1="823" y1="577" x2="908" y2="577" />
	<line stroke="black" stroke-opacity="1" x1="823" y1="582" x2="908" y2="582" />
	<text font-family="Helvetica" font-size="6" fill="#000000" xml:space="preserve" x="825" y="589">dodajAutora()</text>
	<text font-family="Helvetica" font-size="6" fill="#000000" xml:space="preserve" x="825" y="597">dodajZanr()</text>
	<text font-family="Helvetica" font-size="6" fill="#000000" xml:space="preserve" x="825" y="605">kreirajKnjigu()</text>
</g>
<g>
	<rect fill="#cbcbcb" stroke="none" stroke-opacity="1" x="689" y="319" width="2" height="84" />
	<rect fill="#cbcbcb" stroke="none" stroke-opacity="1" x="573" y="401" width="118" height="2" />
	<rect fill="#ffffc0" stroke="black" stroke-width="1" stroke-opacity="1" x="570" y="316" width="119" height="85" />
	<text font-family="Helvetica" font-size="6" fill="#000000" xml:space="preserve" text-anchor="middle" x="630" y="323">&lt;&lt;entity&gt;&gt;</text>
	<text font-family="Helvetica" font-size="6" fill="#000000" xml:space="preserve" font-weight="bold" text-anchor="middle" x="630" y="332">Knjiga</text>
	<line stroke="black" stroke-opacity="1" x1="570" y1="334" x2="689" y2="334" />
	<text font-family="Helvetica" font-size="6" fill="#000000" xml:space="preserve" x="572" y="341">naziv : string [1]</text>
	<text font-family="Helvetica" font-size="6" fill="#000000" xml:space="preserve" x="572" y="349">brStrana : int</text>
	<text font-family="Helvetica" font-size="6" fill="#000000" xml:space="preserve" x="572" y="357">izdavac : string</text>
	<text font-family="Helvetica" font-size="6" fill="#000000" xml:space="preserve" x="572" y="365">brKnjigaUBiblioteci : int</text>
	<text font-family="Helvetica" font-size="6" fill="#000000" xml:space="preserve" x="572" y="373">brKnjigaUkupno : int</text>
	<text font-family="Helvetica" font-size="6" fill="#000000" xml:space="preserve" x="572" y="381">IDK : int</text>
	<line stroke="black" stroke-opacity="1" x1="570" y1="383" x2="689" y2="383" />
	<text font-family="Helvetica" font-size="6" fill="#000000" xml:space="preserve" x="572" y="390">dodajAutora(in a : Autor [1..*]) : bool</text>
	<text font-family="Helvetica" font-size="6" fill="#000000" xml:space="preserve" x="572" y="398">dodajZanr(in z : Zanr) : bool [1]</text>
</g>
<g>
	<rect fill="#cbcbcb" stroke="none" stroke-opacity="1" x="824" y="659" width="2" height="30" />
	<rect fill="#cbcbcb" stroke="none" stroke-opacity="1" x="766" y="687" width="60" height="2" />
	<rect fill="#ffffc0" stroke="black" stroke-width="1" stroke-opacity="1" x="763" y="656" width="61" height="31" />
	<text font-family="Helvetica" font-size="6" fill="#000000" xml:space="preserve" font-weight="bold" text-anchor="middle" x="794" y="663">BibliotekarForma</text>
	<line stroke="black" stroke-opacity="1" x1="763" y1="665" x2="824" y2="665" />
	<line stroke="black" stroke-opacity="1" x1="763" y1="670" x2="824" y2="670" />
	<text font-family="Helvetica" font-size="6" fill="#000000" xml:space="preserve" x="765" y="677">izdajKnjigu()</text>
	<text font-family="Helvetica" font-size="6" fill="#000000" xml:space="preserve" x="765" y="685">dodajKnjigu()</text>
</g>
<g>
	<rect fill="#cbcbcb" stroke="none" stroke-opacity="1" x="504" y="256" width="2" height="60" />
	<rect fill="#cbcbcb" stroke="none" stroke-opacity="1" x="376" y="314" width="130" height="2" />
	<rect fill="#ffffc0" stroke="black" stroke-width="1" stroke-opacity="1" x="373" y="253" width="131" height="61" />
	<text font-family="Helvetica" font-size="6" fill="#000000" xml:space="preserve" text-anchor="middle" x="439" y="260">&lt;&lt;entity&gt;&gt;</text>
	<text font-family="Helvetica" font-size="6" fill="#000000" xml:space="preserve" font-weight="bold" text-anchor="middle" x="439" y="269">Izdavanje</text>
	<line stroke="black" stroke-opacity="1" x1="373" y1="271" x2="504" y2="271" />
	<text font-family="Helvetica" font-size="6" fill="#000000" xml:space="preserve" x="375" y="278">datumIzdavanja : Date [1]</text>
	<text font-family="Helvetica" font-size="6" fill="#000000" xml:space="preserve" x="375" y="286">rokZaVracanje : Date</text>
	<line stroke="black" stroke-opacity="1" x1="373" y1="288" x2="504" y2="288" />
	<text font-family="Helvetica" font-size="6" fill="#000000" xml:space="preserve" x="375" y="295">dodajClana(in c : Clan) : bool [1]</text>
	<text font-family="Helvetica" font-size="6" fill="#000000" xml:space="preserve" x="375" y="303">dodajKnjigu(in k : Knjiga) : bool [1]</text>
	<text font-family="Helvetica" font-size="6" fill="#000000" xml:space="preserve" x="375" y="311">setRokZaVracanje(in d : Date) : bool [1]</text>
</g>
<g>
	<rect fill="#cbcbcb" stroke="none" stroke-opacity="1" x="843" y="297" width="2" height="56" />
	<rect fill="#cbcbcb" stroke="none" stroke-opacity="1" x="771" y="351" width="74" height="2" />
	<rect fill="#ffffc0" stroke="black" stroke-width="1" stroke-opacity="1" x="768" y="294" width="75" height="57" />
	<text font-family="Helvetica" font-size="6" fill="#000000" xml:space="preserve" text-anchor="middle" x="806" y="301">&lt;&lt;entity&gt;&gt;</text>
	<text font-family="Helvetica" font-size="6" fill="#000000" xml:space="preserve" font-weight="bold" text-anchor="middle" x="806" y="310">Autor</text>
	<line stroke="black" stroke-opacity="1" x1="768" y1="312" x2="843" y2="312" />
	<text font-family="Helvetica" font-size="6" fill="#000000" xml:space="preserve" x="770" y="319">ime : string</text>
	<text font-family="Helvetica" font-size="6" fill="#000000" xml:space="preserve" x="770" y="327">prezime : string</text>
	<text font-family="Helvetica" font-size="6" fill="#000000" xml:space="preserve" x="770" y="335">datumRodjenja : Date</text>
	<text font-family="Helvetica" font-size="6" fill="#000000" xml:space="preserve" x="770" y="343">IDA : int</text>
	<line stroke="black" stroke-opacity="1" x1="768" y1="345" x2="843" y2="345" />
</g>
<g>
	<rect fill="#cbcbcb" stroke="none" stroke-opacity="1" x="657" y="443" width="2" height="40" />
	<rect fill="#cbcbcb" stroke="none" stroke-opacity="1" x="615" y="481" width="44" height="2" />
	<rect fill="#ffffc0" stroke="black" stroke-width="1" stroke-opacity="1" x="612" y="440" width="45" height="41" />
	<text font-family="Helvetica" font-size="6" fill="#000000" xml:space="preserve" text-anchor="middle" x="635" y="447">&lt;&lt;entity&gt;&gt;</text>
	<text font-family="Helvetica" font-size="6" fill="#000000" xml:space="preserve" font-weight="bold" text-anchor="middle" x="635" y="456">Zanr</text>
	<line stroke="black" stroke-opacity="1" x1="612" y1="458" x2="657" y2="458" />
	<text font-family="Helvetica" font-size="6" fill="#000000" xml:space="preserve" x="614" y="465">naziv : string</text>
	<text font-family="Helvetica" font-size="6" fill="#000000" xml:space="preserve" x="614" y="473">IDZ : int</text>
	<line stroke="black" stroke-opacity="1" x1="612" y1="475" x2="657" y2="475" />
</g>
<g>
	<rect fill="#cbcbcb" stroke="none" stroke-opacity="1" x="495" y="415" width="2" height="44" />
	<rect fill="#cbcbcb" stroke="none" stroke-opacity="1" x="383" y="457" width="114" height="2" />
	<rect fill="#ffffc0" stroke="black" stroke-width="1" stroke-opacity="1" x="380" y="412" width="115" height="45" />
	<text font-family="Helvetica" font-size="6" fill="#000000" xml:space="preserve" text-anchor="middle" x="438" y="419">&lt;&lt;entity&gt;&gt;</text>
	<text font-family="Helvetica" font-size="6" fill="#000000" xml:space="preserve" font-weight="bold" text-anchor="middle" x="438" y="428">Rezervacija</text>
	<line stroke="black" stroke-opacity="1" x1="380" y1="430" x2="495" y2="430" />
	<text font-family="Helvetica" font-size="6" fill="#000000" xml:space="preserve" x="382" y="437">datumRezervisanja : Date</text>
	<line stroke="black" stroke-opacity="1" x1="380" y1="439" x2="495" y2="439" />
	<text font-family="Helvetica" font-size="6" fill="#000000" xml:space="preserve" x="382" y="446">dodajClana(in c : Clan) : bool [1]</text>
	<text font-family="Helvetica" font-size="6" fill="#000000" xml:space="preserve" x="382" y="454">dodajKnjigu(in k : Knjiga) : bool [1]</text>
</g>
<g>
	<rect fill="#cbcbcb" stroke="none" stroke-opacity="1" x="702" y="218" width="2" height="32" />
	<rect fill="#cbcbcb" stroke="none" stroke-opacity="1" x="552" y="248" width="152" height="2" />
	<rect fill="#ffffc0" stroke="black" stroke-width="1" stroke-opacity="1" x="549" y="215" width="153" height="33" />
	<text font-family="Helvetica" font-size="6" fill="#000000" xml:space="preserve" text-anchor="middle" x="626" y="222">&lt;&lt;control&gt;&gt;</text>
	<text font-family="Helvetica" font-size="6" fill="#000000" xml:space="preserve" font-weight="bold" text-anchor="middle" x="626" y="231">KnjigaKontroler</text>
	<line stroke="black" stroke-opacity="1" x1="549" y1="233" x2="702" y2="233" />
	<line stroke="black" stroke-opacity="1" x1="549" y1="238" x2="702" y2="238" />
	<text font-family="Helvetica" font-size="6" fill="#000000" xml:space="preserve" x="551" y="245">pronadjiKnjigu(in kriterijum : string) : Knjiga [*]</text>
</g>
<g>
	<rect fill="#cbcbcb" stroke="none" stroke-opacity="1" x="638" y="49" width="2" height="40" />
	<rect fill="#cbcbcb" stroke="none" stroke-opacity="1" x="572" y="87" width="68" height="2" />
	<rect fill="#ffffc0" stroke="black" stroke-width="1" stroke-opacity="1" x="569" y="46" width="69" height="41" />
	<text font-family="Helvetica" font-size="6" fill="#000000" xml:space="preserve" text-anchor="middle" x="604" y="53">&lt;&lt;boundary&gt;&gt;</text>
	<text font-family="Helvetica" font-size="6" fill="#000000" xml:space="preserve" font-weight="bold" text-anchor="middle" x="604" y="62">PretragaClanForma</text>
	<line stroke="black" stroke-opacity="1" x1="569" y1="64" x2="638" y2="64" />
	<line stroke="black" stroke-opacity="1" x1="569" y1="69" x2="638" y2="69" />
	<text font-family="Helvetica" font-size="6" fill="#000000" xml:space="preserve" x="571" y="76">pretraziClana()</text>
	<text font-family="Helvetica" font-size="6" fill="#000000" xml:space="preserve" x="571" y="84">izaberiClana()</text>
</g>
<g>
	<rect fill="#cbcbcb" stroke="none" stroke-opacity="1" x="694" y="497" width="2" height="40" />
	<rect fill="#cbcbcb" stroke="none" stroke-opacity="1" x="558" y="535" width="138" height="2" />
	<rect fill="#ffffc0" stroke="black" stroke-width="1" stroke-opacity="1" x="555" y="494" width="139" height="41" />
	<text font-family="Helvetica" font-size="6" fill="#000000" xml:space="preserve" text-anchor="middle" x="625" y="501">&lt;&lt;control&gt;&gt;</text>
	<text font-family="Helvetica" font-size="6" fill="#000000" xml:space="preserve" font-weight="bold" text-anchor="middle" x="625" y="510">ZanrKontroler</text>
	<line stroke="black" stroke-opacity="1" x1="555" y1="512" x2="694" y2="512" />
	<line stroke="black" stroke-opacity="1" x1="555" y1="517" x2="694" y2="517" />
	<text font-family="Helvetica" font-size="6" fill="#000000" xml:space="preserve" x="557" y="524">sacuvaj(in z : Zanr) : bool [1]</text>
	<text font-family="Helvetica" font-size="6" fill="#000000" xml:space="preserve" x="557" y="532">pronadjiZanr(in kriterijum : string) : Zanr [*]</text>
</g>
<g>
	<rect fill="#cbcbcb" stroke="none" stroke-opacity="1" x="648" y="574" width="2" height="32" />
	<rect fill="#cbcbcb" stroke="none" stroke-opacity="1" x="594" y="604" width="56" height="2" />
	<rect fill="#ffffc0" stroke="black" stroke-width="1" stroke-opacity="1" x="591" y="571" width="57" height="33" />
	<text font-family="Helvetica" font-size="6" fill="#000000" xml:space="preserve" text-anchor="middle" x="620" y="578">&lt;&lt;boundary&gt;&gt;</text>
	<text font-family="Helvetica" font-size="6" fill="#000000" xml:space="preserve" font-weight="bold" text-anchor="middle" x="620" y="587">NoviZanrForma</text>
	<line stroke="black" stroke-opacity="1" x1="591" y1="589" x2="648" y2="589" />
	<line stroke="black" stroke-opacity="1" x1="591" y1="594" x2="648" y2="594" />
	<text font-family="Helvetica" font-size="6" fill="#000000" xml:space="preserve" x="593" y="601">sacuvajZanr()</text>
</g>
<g>
	<rect fill="#cbcbcb" stroke="none" stroke-opacity="1" x="126" y="528" width="2" height="56" />
	<rect fill="#cbcbcb" stroke="none" stroke-opacity="1" x="68" y="582" width="60" height="2" />
	<rect fill="#ffffc0" stroke="black" stroke-width="1" stroke-opacity="1" x="65" y="525" width="61" height="57" />
	<text font-family="Helvetica" font-size="6" fill="#000000" xml:space="preserve" text-anchor="middle" x="96" y="532">&lt;&lt;actor&gt;&gt;</text>
	<text font-family="Helvetica" font-size="6" fill="#000000" xml:space="preserve" font-weight="bold" text-anchor="middle" x="96" y="541">Korisnik</text>
	<line stroke="black" stroke-opacity="1" x1="65" y1="543" x2="126" y2="543" />
	<text font-family="Helvetica" font-size="6" fill="#000000" xml:space="preserve" x="67" y="550">ime : string</text>
	<text font-family="Helvetica" font-size="6" fill="#000000" xml:space="preserve" x="67" y="558">prezime : string</text>
	<text font-family="Helvetica" font-size="6" fill="#000000" xml:space="preserve" x="67" y="566">username : string</text>
	<text font-family="Helvetica" font-size="6" fill="#000000" xml:space="preserve" x="67" y="574">password : string</text>
	<line stroke="black" stroke-opacity="1" x1="65" y1="576" x2="126" y2="576" />
</g>
<g>
	<rect fill="#cbcbcb" stroke="none" stroke-opacity="1" x="210" y="352" width="2" height="40" />
	<rect fill="#cbcbcb" stroke="none" stroke-opacity="1" x="146" y="390" width="66" height="2" />
	<rect fill="#ffffc0" stroke="black" stroke-width="1" stroke-opacity="1" x="143" y="349" width="67" height="41" />
	<text font-family="Helvetica" font-size="6" fill="#000000" xml:space="preserve" text-anchor="middle" x="177" y="356">&lt;&lt;boundary&gt;&gt;</text>
	<text font-family="Helvetica" font-size="6" fill="#000000" xml:space="preserve" font-weight="bold" text-anchor="middle" x="177" y="365">RezervacijaForma</text>
	<line stroke="black" stroke-opacity="1" x1="143" y1="367" x2="210" y2="367" />
	<line stroke="black" stroke-opacity="1" x1="143" y1="372" x2="210" y2="372" />
	<text font-family="Helvetica" font-size="6" fill="#000000" xml:space="preserve" x="145" y="379">pretrazi()</text>
	<text font-family="Helvetica" font-size="6" fill="#000000" xml:space="preserve" x="145" y="387">prikaziRezervaciju()</text>
</g>
<g>
	<rect fill="#cbcbcb" stroke="none" stroke-opacity="1" x="262" y="427" width="2" height="32" />
	<rect fill="#cbcbcb" stroke="none" stroke-opacity="1" x="84" y="457" width="180" height="2" />
	<rect fill="#ffffc0" stroke="black" stroke-width="1" stroke-opacity="1" x="81" y="424" width="181" height="33" />
	<text font-family="Helvetica" font-size="6" fill="#000000" xml:space="preserve" text-anchor="middle" x="172" y="431">&lt;&lt;control&gt;&gt;</text>
	<text font-family="Helvetica" font-size="6" fill="#000000" xml:space="preserve" font-weight="bold" text-anchor="middle" x="172" y="440">RezervacijaKontroler</text>
	<line stroke="black" stroke-opacity="1" x1="81" y1="442" x2="262" y2="442" />
	<line stroke="black" stroke-opacity="1" x1="81" y1="447" x2="262" y2="447" />
	<text font-family="Helvetica" font-size="6" fill="#000000" xml:space="preserve" x="83" y="454">pretraziRezervaciju(in kriterijum : string) : Rezervacija [*]</text>
</g>
<g>
	<rect fill="#cbcbcb" stroke="none" stroke-opacity="1" x="839" y="213" width="2" height="40" />
	<rect fill="#cbcbcb" stroke="none" stroke-opacity="1" x="793" y="251" width="48" height="2" />
	<rect fill="#ffffc0" stroke="black" stroke-width="1" stroke-opacity="1" x="790" y="210" width="49" height="41" />
	<text font-family="Helvetica" font-size="6" fill="#000000" xml:space="preserve" text-anchor="middle" x="815" y="217">&lt;&lt;boundary&gt;&gt;</text>
	<text font-family="Helvetica" font-size="6" fill="#000000" xml:space="preserve" font-weight="bold" text-anchor="middle" x="815" y="226">KnjigaForma</text>
	<line stroke="black" stroke-opacity="1" x1="790" y1="228" x2="839" y2="228" />
	<line stroke="black" stroke-opacity="1" x1="790" y1="233" x2="839" y2="233" />
	<text font-family="Helvetica" font-size="6" fill="#000000" xml:space="preserve" x="792" y="240">pretrazi()</text>
	<text font-family="Helvetica" font-size="6" fill="#000000" xml:space="preserve" x="792" y="248">prikazi()</text>
</g>
<g>
	<rect fill="#cbcbcb" stroke="none" stroke-opacity="1" x="849" y="131" width="2" height="32" />
	<rect fill="#cbcbcb" stroke="none" stroke-opacity="1" x="783" y="161" width="68" height="2" />
	<rect fill="#ffffc0" stroke="black" stroke-width="1" stroke-opacity="1" x="780" y="128" width="69" height="33" />
	<text font-family="Helvetica" font-size="6" fill="#000000" xml:space="preserve" text-anchor="middle" x="815" y="135">&lt;&lt;boundary&gt;&gt;</text>
	<text font-family="Helvetica" font-size="6" fill="#000000" xml:space="preserve" font-weight="bold" text-anchor="middle" x="815" y="144">DetaljiKnjigeForma</text>
	<line stroke="black" stroke-opacity="1" x1="780" y1="146" x2="849" y2="146" />
	<line stroke="black" stroke-opacity="1" x1="780" y1="151" x2="849" y2="151" />
	<text font-family="Helvetica" font-size="6" fill="#000000" xml:space="preserve" x="782" y="158">izdavanje()</text>
</g>
<g>
	<rect fill="#cbcbcb" stroke="none" stroke-opacity="1" x="500" y="131" width="2" height="32" />
	<rect fill="#cbcbcb" stroke="none" stroke-opacity="1" x="372" y="161" width="130" height="2" />
	<rect fill="#ffffc0" stroke="black" stroke-width="1" stroke-opacity="1" x="369" y="128" width="131" height="33" />
	<text font-family="Helvetica" font-size="6" fill="#000000" xml:space="preserve" text-anchor="middle" x="435" y="135">&lt;&lt;control&gt;&gt;</text>
	<text font-family="Helvetica" font-size="6" fill="#000000" xml:space="preserve" font-weight="bold" text-anchor="middle" x="435" y="144">IzdavanjeKontroler</text>
	<line stroke="black" stroke-opacity="1" x1="369" y1="146" x2="500" y2="146" />
	<line stroke="black" stroke-opacity="1" x1="369" y1="151" x2="500" y2="151" />
	<text font-family="Helvetica" font-size="6" fill="#000000" xml:space="preserve" x="371" y="158">cuvajIzdavanje(in i : Izdavanje) : bool [1]</text>
</g>
<g>
	<rect fill="#cbcbcb" stroke="none" stroke-opacity="1" x="462" y="513" width="2" height="32" />
	<rect fill="#cbcbcb" stroke="none" stroke-opacity="1" x="362" y="543" width="102" height="2" />
	<rect fill="#ffffc0" stroke="black" stroke-width="1" stroke-opacity="1" x="359" y="510" width="103" height="33" />
	<text font-family="Helvetica" font-size="6" fill="#000000" xml:space="preserve" text-anchor="middle" x="411" y="517">&lt;&lt;boundary&gt;&gt;</text>
	<text font-family="Helvetica" font-size="6" fill="#000000" xml:space="preserve" font-weight="bold" text-anchor="middle" x="411" y="526">DodavanjeBibliotekaraForma</text>
	<line stroke="black" stroke-opacity="1" x1="359" y1="528" x2="462" y2="528" />
	<line stroke="black" stroke-opacity="1" x1="359" y1="533" x2="462" y2="533" />
	<text font-family="Helvetica" font-size="6" fill="#000000" xml:space="preserve" x="361" y="540">kreirajBibliotekara()</text>
</g>
<g>
	<rect fill="#cbcbcb" stroke="none" stroke-opacity="1" x="246" y="122" width="2" height="32" />
	<rect fill="#cbcbcb" stroke="none" stroke-opacity="1" x="110" y="152" width="138" height="2" />
	<rect fill="#ffffc0" stroke="black" stroke-width="1" stroke-opacity="1" x="107" y="119" width="139" height="33" />
	<text font-family="Helvetica" font-size="6" fill="#000000" xml:space="preserve" text-anchor="middle" x="177" y="126">&lt;&lt;control&gt;&gt;</text>
	<text font-family="Helvetica" font-size="6" fill="#000000" xml:space="preserve" font-weight="bold" text-anchor="middle" x="177" y="135">IzdavanjeRezervacijeKontroler</text>
	<line stroke="black" stroke-opacity="1" x1="107" y1="137" x2="246" y2="137" />
	<line stroke="black" stroke-opacity="1" x1="107" y1="142" x2="246" y2="142" />
	<text font-family="Helvetica" font-size="6" fill="#000000" xml:space="preserve" x="109" y="149">sacuvajIzdavanje(in i : Izdavanje) : bool [1]</text>
</g>
<g>
	<rect fill="#cbcbcb" stroke="none" stroke-opacity="1" x="489" y="623" width="2" height="32" />
	<rect fill="#cbcbcb" stroke="none" stroke-opacity="1" x="339" y="653" width="152" height="2" />
	<rect fill="#ffffc0" stroke="black" stroke-width="1" stroke-opacity="1" x="336" y="620" width="153" height="33" />
	<text font-family="Helvetica" font-size="6" fill="#000000" xml:space="preserve" text-anchor="middle" x="413" y="627">&lt;&lt;control&gt;&gt;</text>
	<text font-family="Helvetica" font-size="6" fill="#000000" xml:space="preserve" font-weight="bold" text-anchor="middle" x="413" y="636">BibliotekarKontroler</text>
	<line stroke="black" stroke-opacity="1" x1="336" y1="638" x2="489" y2="638" />
	<line stroke="black" stroke-opacity="1" x1="336" y1="643" x2="489" y2="643" />
	<text font-family="Helvetica" font-size="6" fill="#000000" xml:space="preserve" x="338" y="650">sacuvajBibliotekara(in b : Bibliotekar) : bool [1]</text>
</g>
<g>
	<rect fill="#cbcbcb" stroke="none" stroke-opacity="1" x="219" y="271" width="2" height="32" />
	<rect fill="#cbcbcb" stroke="none" stroke-opacity="1" x="133" y="301" width="88" height="2" />
	<rect fill="#ffffc0" stroke="black" stroke-width="1" stroke-opacity="1" x="130" y="268" width="89" height="33" />
	<text font-family="Helvetica" font-size="6" fill="#000000" xml:space="preserve" text-anchor="middle" x="175" y="275">&lt;&lt;boundary&gt;&gt;</text>
	<text font-family="Helvetica" font-size="6" fill="#000000" xml:space="preserve" font-weight="bold" text-anchor="middle" x="175" y="284">DetaljiRezervacijeForma</text>
	<line stroke="black" stroke-opacity="1" x1="130" y1="286" x2="219" y2="286" />
	<line stroke="black" stroke-opacity="1" x1="130" y1="291" x2="219" y2="291" />
	<text font-family="Helvetica" font-size="6" fill="#000000" xml:space="preserve" x="132" y="298">izdavanje()</text>
</g>
<g>
	<rect fill="#cbcbcb" stroke="none" stroke-opacity="1" x="1144" y="424" width="2" height="32" />
	<rect fill="#cbcbcb" stroke="none" stroke-opacity="1" x="1088" y="454" width="58" height="2" />
	<rect fill="#ffffc0" stroke="black" stroke-width="1" stroke-opacity="1" x="1085" y="421" width="59" height="33" />
	<text font-family="Helvetica" font-size="6" fill="#000000" xml:space="preserve" text-anchor="middle" x="1115" y="428">&lt;&lt;boundary&gt;&gt;</text>
	<text font-family="Helvetica" font-size="6" fill="#000000" xml:space="preserve" font-weight="bold" text-anchor="middle" x="1115" y="437">NoviAutorForma</text>
	<line stroke="black" stroke-opacity="1" x1="1085" y1="439" x2="1144" y2="439" />
	<line stroke="black" stroke-opacity="1" x1="1085" y1="444" x2="1144" y2="444" />
	<text font-family="Helvetica" font-size="6" fill="#000000" xml:space="preserve" x="1087" y="451">sacuvajAutora()</text>
</g>
<g>
	<rect fill="#cbcbcb" stroke="none" stroke-opacity="1" x="636" y="126" width="2" height="40" />
	<rect fill="#cbcbcb" stroke="none" stroke-opacity="1" x="576" y="164" width="62" height="2" />
	<rect fill="#ffffc0" stroke="black" stroke-width="1" stroke-opacity="1" x="573" y="123" width="63" height="41" />
	<text font-family="Helvetica" font-size="6" fill="#000000" xml:space="preserve" text-anchor="middle" x="605" y="130">&lt;&lt;boundary&gt;&gt;</text>
	<text font-family="Helvetica" font-size="6" fill="#000000" xml:space="preserve" font-weight="bold" text-anchor="middle" x="605" y="139">IzdavanjeForma</text>
	<line stroke="black" stroke-opacity="1" x1="573" y1="141" x2="636" y2="141" />
	<line stroke="black" stroke-opacity="1" x1="573" y1="146" x2="636" y2="146" />
	<text font-family="Helvetica" font-size="6" fill="#000000" xml:space="preserve" x="575" y="153">izaberiClana()</text>
	<text font-family="Helvetica" font-size="6" fill="#000000" xml:space="preserve" x="575" y="161">sacuvajIzdavanje()</text>
</g>
<g>
	<rect fill="#cbcbcb" stroke="none" stroke-opacity="1" x="225" y="196" width="2" height="32" />
	<rect fill="#cbcbcb" stroke="none" stroke-opacity="1" x="127" y="226" width="100" height="2" />
	<rect fill="#ffffc0" stroke="black" stroke-width="1" stroke-opacity="1" x="124" y="193" width="101" height="33" />
	<text font-family="Helvetica" font-size="6" fill="#000000" xml:space="preserve" text-anchor="middle" x="175" y="200">&lt;&lt;boundary&gt;&gt;</text>
	<text font-family="Helvetica" font-size="6" fill="#000000" xml:space="preserve" font-weight="bold" text-anchor="middle" x="175" y="209">IzdavanjeRezervacijeForma</text>
	<line stroke="black" stroke-opacity="1" x1="124" y1="211" x2="225" y2="211" />
	<line stroke="black" stroke-opacity="1" x1="124" y1="216" x2="225" y2="216" />
	<text font-family="Helvetica" font-size="6" fill="#000000" xml:space="preserve" x="126" y="223">sacuvajIzdavanje()</text>
</g>
<g>
	<rect fill="#cbcbcb" stroke="none" stroke-opacity="1" x="351" y="55" width="2" height="32" />
	<rect fill="#cbcbcb" stroke="none" stroke-opacity="1" x="213" y="85" width="140" height="2" />
	<rect fill="#ffffc0" stroke="black" stroke-width="1" stroke-opacity="1" x="210" y="52" width="141" height="33" />
	<text font-family="Helvetica" font-size="6" fill="#000000" xml:space="preserve" text-anchor="middle" x="281" y="59">&lt;&lt;control&gt;&gt;</text>
	<text font-family="Helvetica" font-size="6" fill="#000000" xml:space="preserve" font-weight="bold" text-anchor="middle" x="281" y="68">PretragaClanKontroler</text>
	<line stroke="black" stroke-opacity="1" x1="210" y1="70" x2="351" y2="70" />
	<line stroke="black" stroke-opacity="1" x1="210" y1="75" x2="351" y2="75" />
	<text font-family="Helvetica" font-size="6" fill="#000000" xml:space="preserve" x="212" y="82">pretraziClana(in kriterijum : string) : Clan [*]</text>
</g>
<g>
	<line stroke="black" stroke-opacity="1" x1="911" y1="585" x2="980" y2="585" />
</g>
<g>
	<line stroke="black" stroke-opacity="1" x1="299" y1="352" x2="569" y2="353" />
</g>
<g>
	<line stroke="black" stroke-opacity="1" x1="800" y1="768" x2="799" y2="690" />
</g>
<g>
	<line stroke="black" stroke-opacity="1" x1="632" y1="404" x2="632" y2="439" />
	<polygon fill="#ffffff" stroke="black" stroke-opacity="1" points="632,404 638,410 632,416 626,410" />
</g>
<g>
	<line stroke="black" stroke-opacity="1" x1="508" y1="730" x2="502" y2="736" />
	<line stroke="black" stroke-opacity="1" x1="508" y1="730" x2="514" y2="736" />
	<line stroke-dasharray="4,4" stroke="black" stroke-opacity="1" x1="508" y1="758" x2="508" y2="730" />
</g>
<g>
	<line stroke="black" stroke-opacity="1" x1="299" y1="380" x2="569" y2="384" />
</g>
<g>
	<line stroke="black" stroke-opacity="1" x1="696" y1="765" x2="800" y2="768" />
</g>
<g>
	<line stroke="black" stroke-opacity="1" x1="627" y1="669" x2="519" y2="669" />
</g>
<g>
	<line stroke="black" stroke-opacity="1" x1="519" y1="669" x2="514" y2="529" />
</g>
<g>
	<line stroke="black" stroke-opacity="1" x1="514" y1="529" x2="465" y2="528" />
</g>
<g>
	<line stroke-dasharray="4,4" stroke="black" stroke-opacity="1" x1="631" y1="758" x2="508" y2="758" />
</g>
<g>
	<line stroke="black" stroke-opacity="1" x1="692" y1="322" x2="767" y2="323" />
	<polygon fill="#ffffff" stroke="black" stroke-opacity="1" points="692,322 698,316 703,322 697,328" />
</g>
<g>
	<line stroke="black" stroke-opacity="1" x1="779" y1="145" x2="639" y2="145" />
</g>
<g>
	<line stroke="black" stroke-opacity="1" x1="705" y1="232" x2="711" y2="238" />
	<line stroke="black" stroke-opacity="1" x1="705" y1="232" x2="711" y2="226" />
	<line stroke-dasharray="4,4" stroke="black" stroke-opacity="1" x1="789" y1="232" x2="705" y2="232" />
</g>
<g>
	<line stroke-dasharray="4,4" stroke="black" stroke-opacity="1" x1="1132" y1="420" x2="1133" y2="319" />
</g>
<g>
	<line stroke="black" stroke-opacity="1" x1="279" y1="346" x2="285" y2="340" />
	<line stroke="black" stroke-opacity="1" x1="279" y1="346" x2="273" y2="339" />
	<line stroke-dasharray="4,4" stroke="black" stroke-opacity="1" x1="281" y1="88" x2="279" y2="346" />
</g>
<g>
	<line stroke="black" stroke-opacity="1" x1="177" y1="348" x2="176" y2="304" />
</g>
<g>
	<line stroke="black" stroke-opacity="1" x1="503" y1="145" x2="509" y2="151" />
	<line stroke="black" stroke-opacity="1" x1="503" y1="145" x2="509" y2="139" />
	<line stroke-dasharray="4,4" stroke="black" stroke-opacity="1" x1="572" y1="145" x2="503" y2="145" />
</g>
<g>
	<line stroke-dasharray="4,4" stroke="black" stroke-opacity="1" x1="738" y1="559" x2="737" y2="516" />
</g>
<g>
	<line stroke="black" stroke-opacity="1" x1="1037" y1="584" x2="1118" y2="582" />
</g>
<g>
	<line stroke="black" stroke-opacity="1" x1="692" y1="387" x2="698" y2="392" />
	<line stroke="black" stroke-opacity="1" x1="692" y1="387" x2="697" y2="380" />
	<line stroke-dasharray="4,4" stroke="black" stroke-opacity="1" x1="854" y1="386" x2="692" y2="387" />
</g>
<g>
	<line stroke="black" stroke-opacity="1" x1="176" y1="267" x2="176" y2="229" />
</g>
<g>
	<line stroke="black" stroke-opacity="1" x1="1082" y1="320" x2="1088" y2="325" />
	<line stroke="black" stroke-opacity="1" x1="1082" y1="320" x2="1087" y2="313" />
	<line stroke-dasharray="4,4" stroke="black" stroke-opacity="1" x1="1133" y1="319" x2="1082" y2="320" />
</g>
<g>
	<line stroke="black" stroke-opacity="1" x1="710" y1="586" x2="651" y2="586" />
</g>
<g>
	<line stroke="black" stroke-opacity="1" x1="618" y1="538" x2="612" y2="544" />
	<line stroke="black" stroke-opacity="1" x1="618" y1="538" x2="624" y2="543" />
	<line stroke-dasharray="4,4" stroke="black" stroke-opacity="1" x1="621" y1="570" x2="618" y2="538" />
</g>
<g>
	<line stroke="black" stroke-opacity="1" x1="97" y1="585" x2="91" y2="591" />
	<line stroke="black" stroke-opacity="1" x1="97" y1="585" x2="103" y2="590" />
	<line stroke-dasharray="4,4" stroke="black" stroke-opacity="1" x1="100" y1="712" x2="97" y2="585" />
</g>
<g>
	<line stroke="black" stroke-opacity="1" x1="1006" y1="345" x2="1000" y2="351" />
	<line stroke="black" stroke-opacity="1" x1="1006" y1="345" x2="1012" y2="350" />
	<line stroke-dasharray="4,4" stroke="black" stroke-opacity="1" x1="1008" y1="559" x2="1006" y2="345" />
</g>
<g>
	<line stroke="black" stroke-opacity="1" x1="1118" y1="582" x2="1116" y2="457" />
</g>
<g>
	<line stroke="#000000" stroke-opacity="1" x1="129" y1="555" x2="191" y2="555" />
	<line stroke="#000000" stroke-opacity="1" x1="197" y1="555" x2="191" y2="549" />
	<line stroke="#000000" stroke-opacity="1" x1="197" y1="555" x2="191" y2="561" />
	<line stroke="#000000" stroke-opacity="1" x1="191" y1="549" x2="191" y2="561" />
</g>
<g>
	<line stroke="black" stroke-opacity="1" x1="1175" y1="684" x2="1175" y2="233" />
</g>
<g>
	<line stroke="black" stroke-opacity="1" x1="846" y1="323" x2="852" y2="329" />
	<line stroke="black" stroke-opacity="1" x1="846" y1="323" x2="852" y2="317" />
	<line stroke-dasharray="4,4" stroke="black" stroke-opacity="1" x1="929" y1="323" x2="846" y2="323" />
</g>
<g>
	<line stroke="black" stroke-opacity="1" x1="697" y1="516" x2="703" y2="522" />
	<line stroke="black" stroke-opacity="1" x1="697" y1="516" x2="703" y2="510" />
	<line stroke-dasharray="4,4" stroke="black" stroke-opacity="1" x1="737" y1="516" x2="697" y2="516" />
</g>
<g>
	<line stroke="black" stroke-opacity="1" x1="630" y1="484" x2="623" y2="489" />
	<line stroke="black" stroke-opacity="1" x1="630" y1="484" x2="635" y2="490" />
	<line stroke-dasharray="4,4" stroke="black" stroke-opacity="1" x1="629" y1="493" x2="630" y2="484" />
</g>
<g>
	<line stroke="black" stroke-opacity="1" x1="816" y1="209" x2="816" y2="164" />
</g>
<g>
	<line stroke="black" stroke-opacity="1" x1="629" y1="315" x2="634" y2="308" />
	<line stroke="black" stroke-opacity="1" x1="629" y1="315" x2="622" y2="309" />
	<line stroke-dasharray="4,4" stroke="black" stroke-opacity="1" x1="627" y1="251" x2="629" y2="315" />
</g>
<g>
	<line stroke="black" stroke-opacity="1" x1="439" y1="252" x2="444" y2="245" />
	<line stroke="black" stroke-opacity="1" x1="439" y1="252" x2="432" y2="246" />
	<line stroke-dasharray="4,4" stroke="black" stroke-opacity="1" x1="436" y1="164" x2="439" y2="252" />
</g>
<g>
	<line stroke="black" stroke-opacity="1" x1="605" y1="122" x2="605" y2="90" />
</g>
<g>
	<line stroke="black" stroke-opacity="1" x1="354" y1="69" x2="360" y2="74" />
	<line stroke="black" stroke-opacity="1" x1="354" y1="69" x2="359" y2="62" />
	<line stroke-dasharray="4,4" stroke="black" stroke-opacity="1" x1="568" y1="68" x2="354" y2="69" />
</g>
<g>
	<line stroke="black" stroke-opacity="1" x1="1175" y1="233" x2="842" y2="232" />
</g>
<g>
	<line stroke="black" stroke-opacity="1" x1="827" y1="667" x2="871" y2="666" />
</g>
<g>
	<line stroke="black" stroke-opacity="1" x1="871" y1="666" x2="868" y2="611" />
</g>
<g>
	<line stroke-dasharray="4,4" stroke="black" stroke-opacity="1" x1="433" y1="715" x2="100" y2="712" />
</g>
<g>
	<line stroke="#000000" stroke-opacity="1" x1="97" y1="524" x2="97" y2="501" />
</g>
<g>
	<line stroke-dasharray="4,4" stroke="black" stroke-opacity="1" x1="854" y1="432" x2="854" y2="386" />
</g>
<g>
	<line stroke="black" stroke-opacity="1" x1="662" y1="687" x2="663" y2="739" />
</g>
<g>
	<line stroke="black" stroke-opacity="1" x1="827" y1="680" x2="1175" y2="684" />
</g>
<g>
	<line stroke="black" stroke-opacity="1" x1="856" y1="469" x2="850" y2="475" />
	<line stroke="black" stroke-opacity="1" x1="856" y1="469" x2="862" y2="474" />
	<line stroke-dasharray="4,4" stroke="black" stroke-opacity="1" x1="864" y1="558" x2="856" y2="469" />
</g>
<g>
	<line stroke="black" stroke-opacity="1" x1="822" y1="585" x2="763" y2="585" />
</g>
<g>
	<line stroke="black" stroke-opacity="1" x1="372" y1="281" x2="365" y2="275" />
	<line stroke="black" stroke-opacity="1" x1="372" y1="281" x2="366" y2="287" />
	<line stroke-dasharray="4,4" stroke="black" stroke-opacity="1" x1="322" y1="282" x2="372" y2="281" />
</g>
<g>
	<line stroke="black" stroke-opacity="1" x1="175" y1="393" x2="173" y2="423" />
</g>
<g>
	<line stroke="black" stroke-opacity="1" x1="379" y1="436" x2="372" y2="430" />
	<line stroke="black" stroke-opacity="1" x1="379" y1="436" x2="373" y2="442" />
	<line stroke-dasharray="4,4" stroke="black" stroke-opacity="1" x1="265" y1="439" x2="379" y2="436" />
</g>
<g>
	<line stroke-dasharray="4,4" stroke="black" stroke-opacity="1" x1="322" y1="135" x2="322" y2="282" />
</g>
<g>
	<line stroke-dasharray="4,4" stroke="black" stroke-opacity="1" x1="249" y1="136" x2="322" y2="135" />
</g>
<g>
	<line stroke="black" stroke-opacity="1" x1="413" y1="619" x2="418" y2="612" />
	<line stroke="black" stroke-opacity="1" x1="413" y1="619" x2="406" y2="613" />
	<line stroke-dasharray="4,4" stroke="black" stroke-opacity="1" x1="412" y1="546" x2="413" y2="619" />
</g>
<g>
	<line stroke="black" stroke-opacity="1" x1="177" y1="155" x2="170" y2="160" />
	<line stroke="black" stroke-opacity="1" x1="177" y1="155" x2="182" y2="161" />
	<line stroke-dasharray="4,4" stroke="black" stroke-opacity="1" x1="176" y1="192" x2="177" y2="155" />
</g>
<g>
	<line stroke-dasharray="4,4" stroke="black" stroke-opacity="1" x1="436" y1="411" x2="434" y2="382" />
</g>
<g>
	<line stroke-dasharray="4,4" stroke="black" stroke-opacity="1" x1="437" y1="317" x2="437" y2="351" />
</g>
<g>
	<line stroke="#000000" stroke-opacity="1" x1="278" y1="499" x2="278" y2="389" />
	<line stroke="#000000" stroke-opacity="1" x1="278" y1="383" x2="272" y2="389" />
	<line stroke="#000000" stroke-opacity="1" x1="278" y1="383" x2="284" y2="389" />
	<line stroke="#000000" stroke-opacity="1" x1="272" y1="389" x2="284" y2="389" />
</g>
<g>
	<line stroke="#000000" stroke-opacity="1" x1="97" y1="501" x2="278" y2="499" />
</g>
<g>
	<rect fill="#cbcbcb" stroke="none" stroke-opacity="1" x="238" y="625" width="2" height="28" />
	<rect fill="#cbcbcb" stroke="none" stroke-opacity="1" x="200" y="651" width="40" height="2" />
	<rect fill="#ffffc0" stroke="black" stroke-width="1" stroke-opacity="1" x="197" y="622" width="41" height="29" />
	<text font-family="Helvetica" font-size="6" fill="#000000" xml:space="preserve" text-anchor="middle" x="218" y="629">&lt;&lt;actor&gt;&gt;</text>
	<text font-family="Helvetica" font-size="6" fill="#000000" xml:space="preserve" font-weight="bold" text-anchor="middle" x="218" y="638">Bibliotekar</text>
	<line stroke="black" stroke-opacity="1" x1="197" y1="640" x2="238" y2="640" />
	<line stroke="black" stroke-opacity="1" x1="197" y1="645" x2="238" y2="645" />
</g>
<g>
	<line stroke="#000000" stroke-opacity="1" x1="218" y1="572" x2="218" y2="615" />
	<line stroke="#000000" stroke-opacity="1" x1="218" y1="621" x2="224" y2="615" />
	<line stroke="#000000" stroke-opacity="1" x1="218" y1="621" x2="212" y2="615" />
	<line stroke="#000000" stroke-opacity="1" x1="224" y1="615" x2="212" y2="615" />
</g>
<g>
	<line stroke="black" stroke-opacity="1" x1="241" y1="638" x2="247" y2="644" />
	<line stroke="black" stroke-opacity="1" x1="241" y1="638" x2="247" y2="632" />
	<line stroke-dasharray="4,4" stroke="black" stroke-opacity="1" x1="335" y1="638" x2="241" y2="638" />
</g>
<g>
	<text font-family="Helvetica" font-size="6" fill="#000000" xml:space="preserve" x="777" y="699">0..1</text>
</g>
<g>
	<text font-family="Helvetica" font-size="6" fill="#000000" xml:space="preserve" x="658" y="727">1</text>
</g>
<g>
	<text font-family="Helvetica" font-size="6" fill="#000000" xml:space="preserve" x="556" y="362">*</text>
</g>
<g>
	<text font-family="Helvetica" font-size="6" fill="#000000" xml:space="preserve" x="475" y="537">0..1</text>
</g>
<g>
	<text font-family="Helvetica" font-size="6" fill="#000000" xml:space="preserve" x="309" y="389">*</text>
</g>
<g>
	<text font-family="Helvetica" font-size="6" fill="#000000" xml:space="preserve" x="613" y="678">1</text>
</g>
<g>
	<text font-family="Helvetica" font-size="6" fill="#000000" xml:space="preserve" x="955" y="601">0..1</text>
</g>
<g>
	<text font-family="Helvetica" font-size="6" fill="#000000" xml:space="preserve" x="940" y="601">1</text>
</g>
<g>
	<text font-family="Helvetica" font-size="6" fill="#000000" xml:space="preserve" x="556" y="393">*</text>
</g>
<g>
	<text font-family="Helvetica" font-size="6" fill="#000000" xml:space="preserve" x="309" y="361">*</text>
</g>
<g>
	<text font-family="Helvetica" font-size="6" fill="#000000" xml:space="preserve" x="719" y="781">1</text>
</g>
<g>
	<text font-family="Helvetica" font-size="6" fill="#000000" xml:space="preserve" x="783" y="601">0..1</text>
</g>
<g>
	<text font-family="Helvetica" font-size="6" fill="#000000" xml:space="preserve" x="809" y="601">1</text>
</g>
<g>
	<text font-family="Helvetica" font-size="6" fill="#000000" xml:space="preserve" x="696" y="595">1</text>
</g>
<g>
	<text font-family="Helvetica" font-size="6" fill="#000000" xml:space="preserve" x="163" y="326">0..1</text>
</g>
<g>
	<text font-family="Helvetica" font-size="6" fill="#000000" xml:space="preserve" x="168" y="256">1</text>
</g>
<g>
	<text font-family="Helvetica" font-size="6" fill="#000000" xml:space="preserve" x="846" y="620">0..1</text>
</g>
<g>
	<text font-family="Helvetica" font-size="6" fill="#000000" xml:space="preserve" x="837" y="689">1</text>
</g>
<g>
	<text font-family="Helvetica" font-size="6" fill="#000000" xml:space="preserve" x="1050" y="594">1</text>
</g>
<g>
	<text font-family="Helvetica" font-size="6" fill="#000000" xml:space="preserve" x="764" y="156">1</text>
</g>
<g>
	<text font-family="Helvetica" font-size="6" fill="#000000" xml:space="preserve" x="1096" y="471">0..1</text>
</g>
<g>
	<text font-family="Helvetica" font-size="6" fill="#000000" xml:space="preserve" x="651" y="156">0..1</text>
</g>
<g>
	<text font-family="Helvetica" font-size="6" fill="#000000" xml:space="preserve" x="647" y="705">0..1</text>
</g>
<g>
	<text font-family="Helvetica" font-size="6" fill="#000000" xml:space="preserve" x="837" y="676">1</text>
</g>
<g>
	<text font-family="Helvetica" font-size="6" fill="#000000" xml:space="preserve" x="863" y="247">0..1</text>
</g>
<g>
	<text font-family="Helvetica" font-size="6" fill="#000000" xml:space="preserve" x="661" y="595">0..1</text>
</g>
<g>
	<text font-family="Helvetica" font-size="6" fill="#000000" xml:space="preserve" x="801" y="185">0..1</text>
</g>
<g>
	<text font-family="Helvetica" font-size="6" fill="#000000" xml:space="preserve" x="811" y="196">1</text>
</g>
<g>
	<text font-family="Helvetica" font-size="6" fill="#000000" xml:space="preserve" x="173" y="334">1</text>
</g>
<g>
	<text font-family="Helvetica" font-size="6" fill="#000000" xml:space="preserve" x="159" y="242">0..1</text>
</g>
</svg>
