<?xml version="1.0" encoding="UTF-8" standalone="no"?>
<!-- Created with Bouml (http://bouml.free.fr/) -->
<!DOCTYPE svg PUBLIC "-//W3C//DTD SVG 1.1//EN" "http://www.w3.org/Graphics/SVG/1.1/DTD/svg11.dtd">
<svg width="1363" height="902" version="1.1" xmlns="http://www.w3.org/2000/svg">
<g>
	<rect fill="#cbcbcb" stroke="none" stroke-opacity="1" x="270" y="619" width="2" height="36" />
	<rect fill="#cbcbcb" stroke="none" stroke-opacity="1" x="226" y="653" width="46" height="2" />
	<rect fill="#e0ffff" stroke="black" stroke-width="1" stroke-opacity="1" x="223" y="616" width="47" height="37" />
	<text font-family="Helvetica" font-size="6" fill="#000000" xml:space="preserve" text-anchor="middle" x="247" y="623">&lt;&lt;actor&gt;&gt;</text>
	<text font-family="Helvetica" font-size="6" fill="#000000" xml:space="preserve" font-weight="bold" text-anchor="middle" x="247" y="636">Admin</text>
	<line stroke="black" stroke-opacity="1" x1="223" y1="642" x2="270" y2="642" />
	<line stroke="black" stroke-opacity="1" x1="223" y1="647" x2="270" y2="647" />
</g>
<g>
	<rect fill="#cbcbcb" stroke="none" stroke-opacity="1" x="677" y="805" width="2" height="30" />
	<rect fill="#cbcbcb" stroke="none" stroke-opacity="1" x="485" y="833" width="194" height="2" />
	<rect fill="#e0ffff" stroke="black" stroke-width="1" stroke-opacity="1" x="482" y="802" width="195" height="31" />
	<text font-family="Helvetica" font-size="6" fill="#000000" xml:space="preserve" font-weight="bold" text-anchor="middle" x="580" y="809">LogovanjeKontroler</text>
	<line stroke="black" stroke-opacity="1" x1="482" y1="815" x2="677" y2="815" />
	<line stroke="black" stroke-opacity="1" x1="482" y1="820" x2="677" y2="820" />
	<text font-family="Helvetica" font-size="6" fill="#000000" xml:space="preserve" x="485" y="827">prijava(in u : string, in p : string) : Korisnik [1]</text>
</g>
<g>
	<rect fill="#cbcbcb" stroke="none" stroke-opacity="1" x="1185" y="637" width="2" height="68" />
	<rect fill="#cbcbcb" stroke="none" stroke-opacity="1" x="1119" y="703" width="68" height="2" />
	<rect fill="#e0ffff" stroke="black" stroke-width="1" stroke-opacity="1" x="1116" y="634" width="69" height="69" />
	<text font-family="Helvetica" font-size="6" fill="#000000" xml:space="preserve" text-anchor="middle" x="1151" y="641">&lt;&lt;boundary&gt;&gt;</text>
	<text font-family="Helvetica" font-size="6" fill="#000000" xml:space="preserve" font-weight="bold" text-anchor="middle" x="1151" y="654">AutorForma</text>
	<line stroke="black" stroke-opacity="1" x1="1116" y1="660" x2="1185" y2="660" />
	<line stroke="black" stroke-opacity="1" x1="1116" y1="665" x2="1185" y2="665" />
	<text font-family="Helvetica" font-size="6" fill="#000000" xml:space="preserve" x="1119" y="672">dodajAutora()</text>
	<text font-family="Helvetica" font-size="6" fill="#000000" xml:space="preserve" x="1119" y="684">izaberiAutora()</text>
	<text font-family="Helvetica" font-size="6" fill="#000000" xml:space="preserve" x="1119" y="696">pretraziAutora()</text>
</g>
<g>
	<rect fill="#cbcbcb" stroke="none" stroke-opacity="1" x="873" y="636" width="2" height="68" />
	<rect fill="#cbcbcb" stroke="none" stroke-opacity="1" x="811" y="702" width="64" height="2" />
	<rect fill="#e0ffff" stroke="black" stroke-width="1" stroke-opacity="1" x="808" y="633" width="65" height="69" />
	<text font-family="Helvetica" font-size="6" fill="#000000" xml:space="preserve" text-anchor="middle" x="841" y="640">&lt;&lt;boundary&gt;&gt;</text>
	<text font-family="Helvetica" font-size="6" fill="#000000" xml:space="preserve" font-weight="bold" text-anchor="middle" x="841" y="653">ZanrForma</text>
	<line stroke="black" stroke-opacity="1" x1="808" y1="659" x2="873" y2="659" />
	<line stroke="black" stroke-opacity="1" x1="808" y1="664" x2="873" y2="664" />
	<text font-family="Helvetica" font-size="6" fill="#000000" xml:space="preserve" x="811" y="671">dodajZanr()</text>
	<text font-family="Helvetica" font-size="6" fill="#000000" xml:space="preserve" x="811" y="683">izaberiZanr()</text>
	<text font-family="Helvetica" font-size="6" fill="#000000" xml:space="preserve" x="811" y="695">pretraziZanr()</text>
</g>
<g>
	<rect fill="#cbcbcb" stroke="none" stroke-opacity="1" x="1054" y="494" width="2" height="44" />
	<rect fill="#cbcbcb" stroke="none" stroke-opacity="1" x="898" y="536" width="158" height="2" />
	<rect fill="#e0ffff" stroke="black" stroke-width="1" stroke-opacity="1" x="895" y="491" width="159" height="45" />
	<text font-family="Helvetica" font-size="6" fill="#000000" xml:space="preserve" text-anchor="middle" x="975" y="498">&lt;&lt;control&gt;&gt;</text>
	<text font-family="Helvetica" font-size="6" fill="#000000" xml:space="preserve" font-weight="bold" text-anchor="middle" x="975" y="511">DodavanjeKnjigeKontroler</text>
	<line stroke="black" stroke-opacity="1" x1="895" y1="517" x2="1054" y2="517" />
	<line stroke="black" stroke-opacity="1" x1="895" y1="522" x2="1054" y2="522" />
	<text font-family="Helvetica" font-size="6" fill="#000000" xml:space="preserve" x="898" y="529">sacuvajKnjigu(in k : Knjiga) : bool [1]</text>
</g>
<g>
	<rect fill="#cbcbcb" stroke="none" stroke-opacity="1" x="1244" y="342" width="2" height="56" />
	<rect fill="#cbcbcb" stroke="none" stroke-opacity="1" x="1052" y="396" width="194" height="2" />
	<rect fill="#e0ffff" stroke="black" stroke-width="1" stroke-opacity="1" x="1049" y="339" width="195" height="57" />
	<text font-family="Helvetica" font-size="6" fill="#000000" xml:space="preserve" text-anchor="middle" x="1147" y="346">&lt;&lt;control&gt;&gt;</text>
	<text font-family="Helvetica" font-size="6" fill="#000000" xml:space="preserve" font-weight="bold" text-anchor="middle" x="1147" y="359">AutorKontroler</text>
	<line stroke="black" stroke-opacity="1" x1="1049" y1="365" x2="1244" y2="365" />
	<line stroke="black" stroke-opacity="1" x1="1049" y1="370" x2="1244" y2="370" />
	<text font-family="Helvetica" font-size="6" fill="#000000" xml:space="preserve" x="1052" y="377">sacuvaj(in a : Autor) : bool [1]</text>
	<text font-family="Helvetica" font-size="6" fill="#000000" xml:space="preserve" x="1052" y="389">pronadjiAutora(in kriterijum : string) : Autor [*]</text>
</g>
<g>
	<rect fill="#cbcbcb" stroke="none" stroke-opacity="1" x="795" y="756" width="2" height="30" />
	<rect fill="#cbcbcb" stroke="none" stroke-opacity="1" x="717" y="784" width="80" height="2" />
	<rect fill="#e0ffff" stroke="black" stroke-width="1" stroke-opacity="1" x="714" y="753" width="81" height="31" />
	<text font-family="Helvetica" font-size="6" fill="#000000" xml:space="preserve" font-weight="bold" text-anchor="middle" x="755" y="760">AdminForma</text>
	<line stroke="black" stroke-opacity="1" x1="714" y1="766" x2="795" y2="766" />
	<line stroke="black" stroke-opacity="1" x1="714" y1="771" x2="795" y2="771" />
	<text font-family="Helvetica" font-size="6" fill="#000000" xml:space="preserve" x="717" y="778">dodajBibliotekara()</text>
</g>
<g>
	<rect fill="#cbcbcb" stroke="none" stroke-opacity="1" x="341" y="396" width="2" height="44" />
	<rect fill="#cbcbcb" stroke="none" stroke-opacity="1" x="297" y="438" width="46" height="2" />
	<rect fill="#e0ffff" stroke="black" stroke-width="1" stroke-opacity="1" x="294" y="393" width="47" height="45" />
	<text font-family="Helvetica" font-size="6" fill="#000000" xml:space="preserve" text-anchor="middle" x="318" y="400">&lt;&lt;actor&gt;&gt;</text>
	<text font-family="Helvetica" font-size="6" fill="#000000" xml:space="preserve" font-weight="bold" text-anchor="middle" x="318" y="413">Clan</text>
	<line stroke="black" stroke-opacity="1" x1="294" y1="419" x2="341" y2="419" />
	<text font-family="Helvetica" font-size="6" fill="#000000" xml:space="preserve" x="297" y="426">IDC : int</text>
	<line stroke="black" stroke-opacity="1" x1="294" y1="432" x2="341" y2="432" />
</g>
<g>
	<rect fill="#cbcbcb" stroke="none" stroke-opacity="1" x="1047" y="636" width="2" height="68" />
	<rect fill="#cbcbcb" stroke="none" stroke-opacity="1" x="937" y="702" width="112" height="2" />
	<rect fill="#e0ffff" stroke="black" stroke-width="1" stroke-opacity="1" x="934" y="633" width="113" height="69" />
	<text font-family="Helvetica" font-size="6" fill="#000000" xml:space="preserve" text-anchor="middle" x="991" y="640">&lt;&lt;boundary&gt;&gt;</text>
	<text font-family="Helvetica" font-size="6" fill="#000000" xml:space="preserve" font-weight="bold" text-anchor="middle" x="991" y="653">DodavanjeKnjigaForma</text>
	<line stroke="black" stroke-opacity="1" x1="934" y1="659" x2="1047" y2="659" />
	<line stroke="black" stroke-opacity="1" x1="934" y1="664" x2="1047" y2="664" />
	<text font-family="Helvetica" font-size="6" fill="#000000" xml:space="preserve" x="937" y="671">dodajAutora()</text>
	<text font-family="Helvetica" font-size="6" fill="#000000" xml:space="preserve" x="937" y="683">dodajZanr()</text>
	<text font-family="Helvetica" font-size="6" fill="#000000" xml:space="preserve" x="937" y="695">kreirajKnjigu()</text>
</g>
<g>
	<rect fill="#cbcbcb" stroke="none" stroke-opacity="1" x="797" y="350" width="2" height="124" />
	<rect fill="#cbcbcb" stroke="none" stroke-opacity="1" x="643" y="472" width="156" height="2" />
	<rect fill="#e0ffff" stroke="black" stroke-width="1" stroke-opacity="1" x="640" y="347" width="157" height="125" />
	<text font-family="Helvetica" font-size="6" fill="#000000" xml:space="preserve" text-anchor="middle" x="719" y="354">&lt;&lt;entity&gt;&gt;</text>
	<text font-family="Helvetica" font-size="6" fill="#000000" xml:space="preserve" font-weight="bold" text-anchor="middle" x="719" y="367">Knjiga</text>
	<line stroke="black" stroke-opacity="1" x1="640" y1="373" x2="797" y2="373" />
	<text font-family="Helvetica" font-size="6" fill="#000000" xml:space="preserve" x="643" y="380">naziv : string [1]</text>
	<text font-family="Helvetica" font-size="6" fill="#000000" xml:space="preserve" x="643" y="392">brStrana : int</text>
	<text font-family="Helvetica" font-size="6" fill="#000000" xml:space="preserve" x="643" y="404">izdavac : string</text>
	<text font-family="Helvetica" font-size="6" fill="#000000" xml:space="preserve" x="643" y="416">brKnjigaUBiblioteci : int</text>
	<text font-family="Helvetica" font-size="6" fill="#000000" xml:space="preserve" x="643" y="428">brKnjigaUkupno : int</text>
	<text font-family="Helvetica" font-size="6" fill="#000000" xml:space="preserve" x="643" y="440">IDK : int</text>
	<line stroke="black" stroke-opacity="1" x1="640" y1="446" x2="797" y2="446" />
	<text font-family="Helvetica" font-size="6" fill="#000000" xml:space="preserve" x="643" y="453">dodajAutora(in a : Autor [1..*]) : bool</text>
	<text font-family="Helvetica" font-size="6" fill="#000000" xml:space="preserve" x="643" y="465">dodajZanr(in z : Zanr) : bool [1]</text>
</g>
<g>
	<rect fill="#cbcbcb" stroke="none" stroke-opacity="1" x="949" y="748" width="2" height="42" />
	<rect fill="#cbcbcb" stroke="none" stroke-opacity="1" x="867" y="788" width="84" height="2" />
	<rect fill="#e0ffff" stroke="black" stroke-width="1" stroke-opacity="1" x="864" y="745" width="85" height="43" />
	<text font-family="Helvetica" font-size="6" fill="#000000" xml:space="preserve" font-weight="bold" text-anchor="middle" x="907" y="752">BibliotekarForma</text>
	<line stroke="black" stroke-opacity="1" x1="864" y1="758" x2="949" y2="758" />
	<line stroke="black" stroke-opacity="1" x1="864" y1="763" x2="949" y2="763" />
	<text font-family="Helvetica" font-size="6" fill="#000000" xml:space="preserve" x="867" y="770">izdajKnjigu()</text>
	<text font-family="Helvetica" font-size="6" fill="#000000" xml:space="preserve" x="867" y="782">dodajKnjigu()</text>
</g>
<g>
	<rect fill="#cbcbcb" stroke="none" stroke-opacity="1" x="588" y="282" width="2" height="88" />
	<rect fill="#cbcbcb" stroke="none" stroke-opacity="1" x="418" y="368" width="172" height="2" />
	<rect fill="#e0ffff" stroke="black" stroke-width="1" stroke-opacity="1" x="415" y="279" width="173" height="89" />
	<text font-family="Helvetica" font-size="6" fill="#000000" xml:space="preserve" text-anchor="middle" x="502" y="286">&lt;&lt;entity&gt;&gt;</text>
	<text font-family="Helvetica" font-size="6" fill="#000000" xml:space="preserve" font-weight="bold" text-anchor="middle" x="502" y="299">Izdavanje</text>
	<line stroke="black" stroke-opacity="1" x1="415" y1="305" x2="588" y2="305" />
	<text font-family="Helvetica" font-size="6" fill="#000000" xml:space="preserve" x="418" y="312">datumIzdavanja : Date [1]</text>
	<text font-family="Helvetica" font-size="6" fill="#000000" xml:space="preserve" x="418" y="324">rokZaVracanje : Date</text>
	<line stroke="black" stroke-opacity="1" x1="415" y1="330" x2="588" y2="330" />
	<text font-family="Helvetica" font-size="6" fill="#000000" xml:space="preserve" x="418" y="337">dodajClana(in c : Clan) : bool [1]</text>
	<text font-family="Helvetica" font-size="6" fill="#000000" xml:space="preserve" x="418" y="349">dodajKnjigu(in k : Knjiga) : bool [1]</text>
	<text font-family="Helvetica" font-size="6" fill="#000000" xml:space="preserve" x="418" y="361">setRokZaVracanje(in d : Date) : bool [1]</text>
</g>
<g>
	<rect fill="#cbcbcb" stroke="none" stroke-opacity="1" x="971" y="331" width="2" height="80" />
	<rect fill="#cbcbcb" stroke="none" stroke-opacity="1" x="877" y="409" width="96" height="2" />
	<rect fill="#e0ffff" stroke="black" stroke-width="1" stroke-opacity="1" x="874" y="328" width="97" height="81" />
	<text font-family="Helvetica" font-size="6" fill="#000000" xml:space="preserve" text-anchor="middle" x="923" y="335">&lt;&lt;entity&gt;&gt;</text>
	<text font-family="Helvetica" font-size="6" fill="#000000" xml:space="preserve" font-weight="bold" text-anchor="middle" x="923" y="348">Autor</text>
	<line stroke="black" stroke-opacity="1" x1="874" y1="354" x2="971" y2="354" />
	<text font-family="Helvetica" font-size="6" fill="#000000" xml:space="preserve" x="877" y="361">ime : string</text>
	<text font-family="Helvetica" font-size="6" fill="#000000" xml:space="preserve" x="877" y="373">prezime : string</text>
	<text font-family="Helvetica" font-size="6" fill="#000000" xml:space="preserve" x="877" y="385">datumRodjenja : Date</text>
	<text font-family="Helvetica" font-size="6" fill="#000000" xml:space="preserve" x="877" y="397">IDA : int</text>
	<line stroke="black" stroke-opacity="1" x1="874" y1="403" x2="971" y2="403" />
</g>
<g>
	<rect fill="#cbcbcb" stroke="none" stroke-opacity="1" x="756" y="501" width="2" height="56" />
	<rect fill="#cbcbcb" stroke="none" stroke-opacity="1" x="700" y="555" width="58" height="2" />
	<rect fill="#e0ffff" stroke="black" stroke-width="1" stroke-opacity="1" x="697" y="498" width="59" height="57" />
	<text font-family="Helvetica" font-size="6" fill="#000000" xml:space="preserve" text-anchor="middle" x="727" y="505">&lt;&lt;entity&gt;&gt;</text>
	<text font-family="Helvetica" font-size="6" fill="#000000" xml:space="preserve" font-weight="bold" text-anchor="middle" x="727" y="518">Zanr</text>
	<line stroke="black" stroke-opacity="1" x1="697" y1="524" x2="756" y2="524" />
	<text font-family="Helvetica" font-size="6" fill="#000000" xml:space="preserve" x="700" y="531">naziv : string</text>
	<text font-family="Helvetica" font-size="6" fill="#000000" xml:space="preserve" x="700" y="543">IDZ : int</text>
	<line stroke="black" stroke-opacity="1" x1="697" y1="549" x2="756" y2="549" />
</g>
<g>
	<rect fill="#cbcbcb" stroke="none" stroke-opacity="1" x="573" y="468" width="2" height="64" />
	<rect fill="#cbcbcb" stroke="none" stroke-opacity="1" x="429" y="530" width="146" height="2" />
	<rect fill="#e0ffff" stroke="black" stroke-width="1" stroke-opacity="1" x="426" y="465" width="147" height="65" />
	<text font-family="Helvetica" font-size="6" fill="#000000" xml:space="preserve" text-anchor="middle" x="500" y="472">&lt;&lt;entity&gt;&gt;</text>
	<text font-family="Helvetica" font-size="6" fill="#000000" xml:space="preserve" font-weight="bold" text-anchor="middle" x="500" y="485">Rezervacija</text>
	<line stroke="black" stroke-opacity="1" x1="426" y1="491" x2="573" y2="491" />
	<text font-family="Helvetica" font-size="6" fill="#000000" xml:space="preserve" x="429" y="498">datumRezervisanja : Date</text>
	<line stroke="black" stroke-opacity="1" x1="426" y1="504" x2="573" y2="504" />
	<text font-family="Helvetica" font-size="6" fill="#000000" xml:space="preserve" x="429" y="511">dodajClana(in c : Clan) : bool [1]</text>
	<text font-family="Helvetica" font-size="6" fill="#000000" xml:space="preserve" x="429" y="523">dodajKnjigu(in k : Knjiga) : bool [1]</text>
</g>
<g>
	<rect fill="#cbcbcb" stroke="none" stroke-opacity="1" x="813" y="246" width="2" height="44" />
	<rect fill="#cbcbcb" stroke="none" stroke-opacity="1" x="621" y="288" width="194" height="2" />
	<rect fill="#e0ffff" stroke="black" stroke-width="1" stroke-opacity="1" x="618" y="243" width="195" height="45" />
	<text font-family="Helvetica" font-size="6" fill="#000000" xml:space="preserve" text-anchor="middle" x="716" y="250">&lt;&lt;control&gt;&gt;</text>
	<text font-family="Helvetica" font-size="6" fill="#000000" xml:space="preserve" font-weight="bold" text-anchor="middle" x="716" y="263">KnjigaKontroler</text>
	<line stroke="black" stroke-opacity="1" x1="618" y1="269" x2="813" y2="269" />
	<line stroke="black" stroke-opacity="1" x1="618" y1="274" x2="813" y2="274" />
	<text font-family="Helvetica" font-size="6" fill="#000000" xml:space="preserve" x="621" y="281">pronadjiKnjigu(in kriterijum : string) : Knjiga [*]</text>
</g>
<g>
	<rect fill="#cbcbcb" stroke="none" stroke-opacity="1" x="737" y="50" width="2" height="56" />
	<rect fill="#cbcbcb" stroke="none" stroke-opacity="1" x="647" y="104" width="92" height="2" />
	<rect fill="#e0ffff" stroke="black" stroke-width="1" stroke-opacity="1" x="644" y="47" width="93" height="57" />
	<text font-family="Helvetica" font-size="6" fill="#000000" xml:space="preserve" text-anchor="middle" x="691" y="54">&lt;&lt;boundary&gt;&gt;</text>
	<text font-family="Helvetica" font-size="6" fill="#000000" xml:space="preserve" font-weight="bold" text-anchor="middle" x="691" y="67">PretragaClanForma</text>
	<line stroke="black" stroke-opacity="1" x1="644" y1="73" x2="737" y2="73" />
	<line stroke="black" stroke-opacity="1" x1="644" y1="78" x2="737" y2="78" />
	<text font-family="Helvetica" font-size="6" fill="#000000" xml:space="preserve" x="647" y="85">pretraziClana()</text>
	<text font-family="Helvetica" font-size="6" fill="#000000" xml:space="preserve" x="647" y="97">izaberiClana()</text>
</g>
<g>
	<rect fill="#cbcbcb" stroke="none" stroke-opacity="1" x="805" y="562" width="2" height="56" />
	<rect fill="#cbcbcb" stroke="none" stroke-opacity="1" x="625" y="616" width="182" height="2" />
	<rect fill="#e0ffff" stroke="black" stroke-width="1" stroke-opacity="1" x="622" y="559" width="183" height="57" />
	<text font-family="Helvetica" font-size="6" fill="#000000" xml:space="preserve" text-anchor="middle" x="714" y="566">&lt;&lt;control&gt;&gt;</text>
	<text font-family="Helvetica" font-size="6" fill="#000000" xml:space="preserve" font-weight="bold" text-anchor="middle" x="714" y="579">ZanrKontroler</text>
	<line stroke="black" stroke-opacity="1" x1="622" y1="585" x2="805" y2="585" />
	<line stroke="black" stroke-opacity="1" x1="622" y1="590" x2="805" y2="590" />
	<text font-family="Helvetica" font-size="6" fill="#000000" xml:space="preserve" x="625" y="597">sacuvaj(in z : Zanr) : bool [1]</text>
	<text font-family="Helvetica" font-size="6" fill="#000000" xml:space="preserve" x="625" y="609">pronadjiZanr(in kriterijum : string) : Zanr [*]</text>
</g>
<g>
	<rect fill="#cbcbcb" stroke="none" stroke-opacity="1" x="745" y="651" width="2" height="44" />
	<rect fill="#cbcbcb" stroke="none" stroke-opacity="1" x="671" y="693" width="76" height="2" />
	<rect fill="#e0ffff" stroke="black" stroke-width="1" stroke-opacity="1" x="668" y="648" width="77" height="45" />
	<text font-family="Helvetica" font-size="6" fill="#000000" xml:space="preserve" text-anchor="middle" x="707" y="655">&lt;&lt;boundary&gt;&gt;</text>
	<text font-family="Helvetica" font-size="6" fill="#000000" xml:space="preserve" font-weight="bold" text-anchor="middle" x="707" y="668">NoviZanrForma</text>
	<line stroke="black" stroke-opacity="1" x1="668" y1="674" x2="745" y2="674" />
	<line stroke="black" stroke-opacity="1" x1="668" y1="679" x2="745" y2="679" />
	<text font-family="Helvetica" font-size="6" fill="#000000" xml:space="preserve" x="671" y="686">sacuvajZanr()</text>
</g>
<g>
	<rect fill="#cbcbcb" stroke="none" stroke-opacity="1" x="150" y="595" width="2" height="80" />
	<rect fill="#cbcbcb" stroke="none" stroke-opacity="1" x="74" y="673" width="78" height="2" />
	<rect fill="#e0ffff" stroke="black" stroke-width="1" stroke-opacity="1" x="71" y="592" width="79" height="81" />
	<text font-family="Helvetica" font-size="6" fill="#000000" xml:space="preserve" text-anchor="middle" x="111" y="599">&lt;&lt;actor&gt;&gt;</text>
	<text font-family="Helvetica" font-size="6" fill="#000000" xml:space="preserve" font-weight="bold" text-anchor="middle" x="111" y="612">Korisnik</text>
	<line stroke="black" stroke-opacity="1" x1="71" y1="618" x2="150" y2="618" />
	<text font-family="Helvetica" font-size="6" fill="#000000" xml:space="preserve" x="74" y="625">ime : string</text>
	<text font-family="Helvetica" font-size="6" fill="#000000" xml:space="preserve" x="74" y="637">prezime : string</text>
	<text font-family="Helvetica" font-size="6" fill="#000000" xml:space="preserve" x="74" y="649">username : string</text>
	<text font-family="Helvetica" font-size="6" fill="#000000" xml:space="preserve" x="74" y="661">password : string</text>
	<line stroke="black" stroke-opacity="1" x1="71" y1="667" x2="150" y2="667" />
</g>
<g>
	<rect fill="#cbcbcb" stroke="none" stroke-opacity="1" x="245" y="397" width="2" height="56" />
	<rect fill="#cbcbcb" stroke="none" stroke-opacity="1" x="161" y="451" width="86" height="2" />
	<rect fill="#e0ffff" stroke="black" stroke-width="1" stroke-opacity="1" x="158" y="394" width="87" height="57" />
	<text font-family="Helvetica" font-size="6" fill="#000000" xml:space="preserve" text-anchor="middle" x="202" y="401">&lt;&lt;boundary&gt;&gt;</text>
	<text font-family="Helvetica" font-size="6" fill="#000000" xml:space="preserve" font-weight="bold" text-anchor="middle" x="202" y="414">RezervacijaForma</text>
	<line stroke="black" stroke-opacity="1" x1="158" y1="420" x2="245" y2="420" />
	<line stroke="black" stroke-opacity="1" x1="158" y1="425" x2="245" y2="425" />
	<text font-family="Helvetica" font-size="6" fill="#000000" xml:space="preserve" x="161" y="432">pretrazi()</text>
	<text font-family="Helvetica" font-size="6" fill="#000000" xml:space="preserve" x="161" y="444">prikaziRezervaciju()</text>
</g>
<g>
	<rect fill="#cbcbcb" stroke="none" stroke-opacity="1" x="316" y="483" width="2" height="44" />
	<rect fill="#cbcbcb" stroke="none" stroke-opacity="1" x="78" y="525" width="240" height="2" />
	<rect fill="#e0ffff" stroke="black" stroke-width="1" stroke-opacity="1" x="75" y="480" width="241" height="45" />
	<text font-family="Helvetica" font-size="6" fill="#000000" xml:space="preserve" text-anchor="middle" x="196" y="487">&lt;&lt;control&gt;&gt;</text>
	<text font-family="Helvetica" font-size="6" fill="#000000" xml:space="preserve" font-weight="bold" text-anchor="middle" x="196" y="500">RezervacijaKontroler</text>
	<line stroke="black" stroke-opacity="1" x1="75" y1="506" x2="316" y2="506" />
	<line stroke="black" stroke-opacity="1" x1="75" y1="511" x2="316" y2="511" />
	<text font-family="Helvetica" font-size="6" fill="#000000" xml:space="preserve" x="78" y="518">pretraziRezervaciju(in kriterijum : string) : Rezervacija [*]</text>
</g>
<g>
	<rect fill="#cbcbcb" stroke="none" stroke-opacity="1" x="964" y="237" width="2" height="56" />
	<rect fill="#cbcbcb" stroke="none" stroke-opacity="1" x="902" y="291" width="64" height="2" />
	<rect fill="#e0ffff" stroke="black" stroke-width="1" stroke-opacity="1" x="899" y="234" width="65" height="57" />
	<text font-family="Helvetica" font-size="6" fill="#000000" xml:space="preserve" text-anchor="middle" x="932" y="241">&lt;&lt;boundary&gt;&gt;</text>
	<text font-family="Helvetica" font-size="6" fill="#000000" xml:space="preserve" font-weight="bold" text-anchor="middle" x="932" y="254">KnjigaForma</text>
	<line stroke="black" stroke-opacity="1" x1="899" y1="260" x2="964" y2="260" />
	<line stroke="black" stroke-opacity="1" x1="899" y1="265" x2="964" y2="265" />
	<text font-family="Helvetica" font-size="6" fill="#000000" xml:space="preserve" x="902" y="272">pretrazi()</text>
	<text font-family="Helvetica" font-size="6" fill="#000000" xml:space="preserve" x="902" y="284">prikazi()</text>
</g>
<g>
	<rect fill="#cbcbcb" stroke="none" stroke-opacity="1" x="977" y="147" width="2" height="44" />
	<rect fill="#cbcbcb" stroke="none" stroke-opacity="1" x="887" y="189" width="92" height="2" />
	<rect fill="#e0ffff" stroke="black" stroke-width="1" stroke-opacity="1" x="884" y="144" width="93" height="45" />
	<text font-family="Helvetica" font-size="6" fill="#000000" xml:space="preserve" text-anchor="middle" x="931" y="151">&lt;&lt;boundary&gt;&gt;</text>
	<text font-family="Helvetica" font-size="6" fill="#000000" xml:space="preserve" font-weight="bold" text-anchor="middle" x="931" y="164">DetaljiKnjigeForma</text>
	<line stroke="black" stroke-opacity="1" x1="884" y1="170" x2="977" y2="170" />
	<line stroke="black" stroke-opacity="1" x1="884" y1="175" x2="977" y2="175" />
	<text font-family="Helvetica" font-size="6" fill="#000000" xml:space="preserve" x="887" y="182">izdavanje()</text>
</g>
<g>
	<rect fill="#cbcbcb" stroke="none" stroke-opacity="1" x="584" y="147" width="2" height="44" />
	<rect fill="#cbcbcb" stroke="none" stroke-opacity="1" x="412" y="189" width="174" height="2" />
	<rect fill="#e0ffff" stroke="black" stroke-width="1" stroke-opacity="1" x="409" y="144" width="175" height="45" />
	<text font-family="Helvetica" font-size="6" fill="#000000" xml:space="preserve" text-anchor="middle" x="497" y="151">&lt;&lt;control&gt;&gt;</text>
	<text font-family="Helvetica" font-size="6" fill="#000000" xml:space="preserve" font-weight="bold" text-anchor="middle" x="497" y="164">IzdavanjeKontroler</text>
	<line stroke="black" stroke-opacity="1" x1="409" y1="170" x2="584" y2="170" />
	<line stroke="black" stroke-opacity="1" x1="409" y1="175" x2="584" y2="175" />
	<text font-family="Helvetica" font-size="6" fill="#000000" xml:space="preserve" x="412" y="182">cuvajIzdavanje(in i : Izdavanje) : bool [1]</text>
</g>
<g>
	<rect fill="#cbcbcb" stroke="none" stroke-opacity="1" x="539" y="582" width="2" height="44" />
	<rect fill="#cbcbcb" stroke="none" stroke-opacity="1" x="405" y="624" width="136" height="2" />
	<rect fill="#e0ffff" stroke="black" stroke-width="1" stroke-opacity="1" x="402" y="579" width="137" height="45" />
	<text font-family="Helvetica" font-size="6" fill="#000000" xml:space="preserve" text-anchor="middle" x="471" y="586">&lt;&lt;boundary&gt;&gt;</text>
	<text font-family="Helvetica" font-size="6" fill="#000000" xml:space="preserve" font-weight="bold" text-anchor="middle" x="471" y="599">DodavanjeBibliotekaraForma</text>
	<line stroke="black" stroke-opacity="1" x1="402" y1="605" x2="539" y2="605" />
	<line stroke="black" stroke-opacity="1" x1="402" y1="610" x2="539" y2="610" />
	<text font-family="Helvetica" font-size="6" fill="#000000" xml:space="preserve" x="405" y="617">kreirajBibliotekara()</text>
</g>
<g>
	<rect fill="#cbcbcb" stroke="none" stroke-opacity="1" x="295" y="136" width="2" height="44" />
	<rect fill="#cbcbcb" stroke="none" stroke-opacity="1" x="113" y="178" width="184" height="2" />
	<rect fill="#e0ffff" stroke="black" stroke-width="1" stroke-opacity="1" x="110" y="133" width="185" height="45" />
	<text font-family="Helvetica" font-size="6" fill="#000000" xml:space="preserve" text-anchor="middle" x="203" y="140">&lt;&lt;control&gt;&gt;</text>
	<text font-family="Helvetica" font-size="6" fill="#000000" xml:space="preserve" font-weight="bold" text-anchor="middle" x="203" y="153">IzdavanjeRezervacijeKontroler</text>
	<line stroke="black" stroke-opacity="1" x1="110" y1="159" x2="295" y2="159" />
	<line stroke="black" stroke-opacity="1" x1="110" y1="164" x2="295" y2="164" />
	<text font-family="Helvetica" font-size="6" fill="#000000" xml:space="preserve" x="113" y="171">sacuvajIzdavanje(in i : Izdavanje) : bool [1]</text>
</g>
<g>
	<rect fill="#cbcbcb" stroke="none" stroke-opacity="1" x="570" y="707" width="2" height="44" />
	<rect fill="#cbcbcb" stroke="none" stroke-opacity="1" x="374" y="749" width="198" height="2" />
	<rect fill="#e0ffff" stroke="black" stroke-width="1" stroke-opacity="1" x="371" y="704" width="199" height="45" />
	<text font-family="Helvetica" font-size="6" fill="#000000" xml:space="preserve" text-anchor="middle" x="471" y="711">&lt;&lt;control&gt;&gt;</text>
	<text font-family="Helvetica" font-size="6" fill="#000000" xml:space="preserve" font-weight="bold" text-anchor="middle" x="471" y="724">BibliotekarKontroler</text>
	<line stroke="black" stroke-opacity="1" x1="371" y1="730" x2="570" y2="730" />
	<line stroke="black" stroke-opacity="1" x1="371" y1="735" x2="570" y2="735" />
	<text font-family="Helvetica" font-size="6" fill="#000000" xml:space="preserve" x="374" y="742">sacuvajBibliotekara(in b : Bibliotekar) : bool [1]</text>
</g>
<g>
	<rect fill="#cbcbcb" stroke="none" stroke-opacity="1" x="257" y="307" width="2" height="44" />
	<rect fill="#cbcbcb" stroke="none" stroke-opacity="1" x="145" y="349" width="114" height="2" />
	<rect fill="#e0ffff" stroke="black" stroke-width="1" stroke-opacity="1" x="142" y="304" width="115" height="45" />
	<text font-family="Helvetica" font-size="6" fill="#000000" xml:space="preserve" text-anchor="middle" x="200" y="311">&lt;&lt;boundary&gt;&gt;</text>
	<text font-family="Helvetica" font-size="6" fill="#000000" xml:space="preserve" font-weight="bold" text-anchor="middle" x="200" y="324">DetaljiRezervacijeForma</text>
	<line stroke="black" stroke-opacity="1" x1="142" y1="330" x2="257" y2="330" />
	<line stroke="black" stroke-opacity="1" x1="142" y1="335" x2="257" y2="335" />
	<text font-family="Helvetica" font-size="6" fill="#000000" xml:space="preserve" x="145" y="342">izdavanje()</text>
</g>
<g>
	<rect fill="#cbcbcb" stroke="none" stroke-opacity="1" x="1314" y="481" width="2" height="44" />
	<rect fill="#cbcbcb" stroke="none" stroke-opacity="1" x="1238" y="523" width="78" height="2" />
	<rect fill="#e0ffff" stroke="black" stroke-width="1" stroke-opacity="1" x="1235" y="478" width="79" height="45" />
	<text font-family="Helvetica" font-size="6" fill="#000000" xml:space="preserve" text-anchor="middle" x="1275" y="485">&lt;&lt;boundary&gt;&gt;</text>
	<text font-family="Helvetica" font-size="6" fill="#000000" xml:space="preserve" font-weight="bold" text-anchor="middle" x="1275" y="498">NoviAutorForma</text>
	<line stroke="black" stroke-opacity="1" x1="1235" y1="504" x2="1314" y2="504" />
	<line stroke="black" stroke-opacity="1" x1="1235" y1="509" x2="1314" y2="509" />
	<text font-family="Helvetica" font-size="6" fill="#000000" xml:space="preserve" x="1238" y="516">sacuvajAutora()</text>
</g>
<g>
	<rect fill="#cbcbcb" stroke="none" stroke-opacity="1" x="734" y="138" width="2" height="56" />
	<rect fill="#cbcbcb" stroke="none" stroke-opacity="1" x="652" y="192" width="84" height="2" />
	<rect fill="#e0ffff" stroke="black" stroke-width="1" stroke-opacity="1" x="649" y="135" width="85" height="57" />
	<text font-family="Helvetica" font-size="6" fill="#000000" xml:space="preserve" text-anchor="middle" x="692" y="142">&lt;&lt;boundary&gt;&gt;</text>
	<text font-family="Helvetica" font-size="6" fill="#000000" xml:space="preserve" font-weight="bold" text-anchor="middle" x="692" y="155">IzdavanjeForma</text>
	<line stroke="black" stroke-opacity="1" x1="649" y1="161" x2="734" y2="161" />
	<line stroke="black" stroke-opacity="1" x1="649" y1="166" x2="734" y2="166" />
	<text font-family="Helvetica" font-size="6" fill="#000000" xml:space="preserve" x="652" y="173">izaberiClana()</text>
	<text font-family="Helvetica" font-size="6" fill="#000000" xml:space="preserve" x="652" y="185">sacuvajIzdavanje()</text>
</g>
<g>
	<rect fill="#cbcbcb" stroke="none" stroke-opacity="1" x="264" y="219" width="2" height="44" />
	<rect fill="#cbcbcb" stroke="none" stroke-opacity="1" x="138" y="261" width="128" height="2" />
	<rect fill="#e0ffff" stroke="black" stroke-width="1" stroke-opacity="1" x="135" y="216" width="129" height="45" />
	<text font-family="Helvetica" font-size="6" fill="#000000" xml:space="preserve" text-anchor="middle" x="200" y="223">&lt;&lt;boundary&gt;&gt;</text>
	<text font-family="Helvetica" font-size="6" fill="#000000" xml:space="preserve" font-weight="bold" text-anchor="middle" x="200" y="236">IzdavanjeRezervacijeForma</text>
	<line stroke="black" stroke-opacity="1" x1="135" y1="242" x2="264" y2="242" />
	<line stroke="black" stroke-opacity="1" x1="135" y1="247" x2="264" y2="247" />
	<text font-family="Helvetica" font-size="6" fill="#000000" xml:space="preserve" x="138" y="254">sacuvajIzdavanje()</text>
</g>
<g>
	<rect fill="#cbcbcb" stroke="none" stroke-opacity="1" x="414" y="59" width="2" height="44" />
	<rect fill="#cbcbcb" stroke="none" stroke-opacity="1" x="230" y="101" width="186" height="2" />
	<rect fill="#e0ffff" stroke="black" stroke-width="1" stroke-opacity="1" x="227" y="56" width="187" height="45" />
	<text font-family="Helvetica" font-size="6" fill="#000000" xml:space="preserve" text-anchor="middle" x="321" y="63">&lt;&lt;control&gt;&gt;</text>
	<text font-family="Helvetica" font-size="6" fill="#000000" xml:space="preserve" font-weight="bold" text-anchor="middle" x="321" y="76">PretragaClanKontroler</text>
	<line stroke="black" stroke-opacity="1" x1="227" y1="82" x2="414" y2="82" />
	<line stroke="black" stroke-opacity="1" x1="227" y1="87" x2="414" y2="87" />
	<text font-family="Helvetica" font-size="6" fill="#000000" xml:space="preserve" x="230" y="94">pretraziClana(in kriterijum : string) : Clan [*]</text>
</g>
<g>
	<line stroke="black" stroke-opacity="1" x1="1050" y1="669" x2="1115" y2="669" />
</g>
<g>
	<line stroke="black" stroke-opacity="1" x1="344" y1="400" x2="639" y2="400" />
</g>
<g>
	<line stroke="black" stroke-opacity="1" x1="914" y1="877" x2="913" y2="791" />
</g>
<g>
	<line stroke="black" stroke-opacity="1" x1="721" y1="475" x2="723" y2="497" />
	<polygon fill="#ffffff" stroke="black" stroke-opacity="1" points="721,475 727,480 722,486 715,481" />
</g>
<g>
	<line stroke="black" stroke-opacity="1" x1="581" y1="836" x2="575" y2="842" />
	<line stroke="black" stroke-opacity="1" x1="581" y1="836" x2="587" y2="842" />
	<line stroke-dasharray="4,4" stroke="black" stroke-opacity="1" x1="581" y1="866" x2="581" y2="836" />
</g>
<g>
	<line stroke="black" stroke-opacity="1" x1="344" y1="437" x2="639" y2="446" />
</g>
<g>
	<line stroke="black" stroke-opacity="1" x1="713" y1="764" x2="593" y2="765" />
</g>
<g>
	<line stroke="black" stroke-opacity="1" x1="593" y1="765" x2="587" y2="605" />
</g>
<g>
	<line stroke="black" stroke-opacity="1" x1="587" y1="605" x2="542" y2="604" />
</g>
<g>
	<line stroke="black" stroke-opacity="1" x1="800" y1="357" x2="873" y2="363" />
	<polygon fill="#ffffff" stroke="black" stroke-opacity="1" points="800,357 806,351 811,357 805,363" />
</g>
<g>
	<line stroke="black" stroke-opacity="1" x1="883" y1="167" x2="737" y2="165" />
</g>
<g>
	<line stroke="black" stroke-opacity="1" x1="816" y1="264" x2="822" y2="270" />
	<line stroke="black" stroke-opacity="1" x1="816" y1="264" x2="822" y2="258" />
	<line stroke-dasharray="4,4" stroke="black" stroke-opacity="1" x1="898" y1="264" x2="816" y2="264" />
</g>
<g>
	<line stroke-dasharray="4,4" stroke="black" stroke-opacity="1" x1="1297" y1="477" x2="1295" y2="365" />
</g>
<g>
	<line stroke="black" stroke-opacity="1" x1="319" y1="392" x2="325" y2="386" />
	<line stroke="black" stroke-opacity="1" x1="319" y1="392" x2="313" y2="385" />
	<line stroke-dasharray="4,4" stroke="black" stroke-opacity="1" x1="321" y1="104" x2="319" y2="392" />
</g>
<g>
	<line stroke="black" stroke-opacity="1" x1="202" y1="393" x2="201" y2="352" />
</g>
<g>
	<line stroke="black" stroke-opacity="1" x1="587" y1="165" x2="593" y2="171" />
	<line stroke="black" stroke-opacity="1" x1="587" y1="165" x2="593" y2="159" />
	<line stroke-dasharray="4,4" stroke="black" stroke-opacity="1" x1="648" y1="165" x2="587" y2="165" />
</g>
<g>
	<line stroke-dasharray="4,4" stroke="black" stroke-opacity="1" x1="843" y1="632" x2="842" y2="589" />
</g>
<g>
	<line stroke="black" stroke-opacity="1" x1="1188" y1="668" x2="1278" y2="666" />
</g>
<g>
	<line stroke="black" stroke-opacity="1" x1="800" y1="450" x2="806" y2="455" />
	<line stroke="black" stroke-opacity="1" x1="800" y1="450" x2="805" y2="443" />
	<line stroke-dasharray="4,4" stroke="black" stroke-opacity="1" x1="976" y1="440" x2="800" y2="450" />
</g>
<g>
	<line stroke="black" stroke-opacity="1" x1="201" y1="303" x2="201" y2="264" />
</g>
<g>
	<line stroke="black" stroke-opacity="1" x1="1247" y1="366" x2="1253" y2="371" />
	<line stroke="black" stroke-opacity="1" x1="1247" y1="366" x2="1252" y2="359" />
	<line stroke-dasharray="4,4" stroke="black" stroke-opacity="1" x1="1295" y1="365" x2="1247" y2="366" />
</g>
<g>
	<line stroke="black" stroke-opacity="1" x1="807" y1="669" x2="748" y2="668" />
</g>
<g>
	<line stroke="black" stroke-opacity="1" x1="705" y1="619" x2="699" y2="625" />
	<line stroke="black" stroke-opacity="1" x1="705" y1="619" x2="711" y2="624" />
	<line stroke-dasharray="4,4" stroke="black" stroke-opacity="1" x1="709" y1="647" x2="705" y2="619" />
</g>
<g>
	<line stroke="black" stroke-opacity="1" x1="112" y1="676" x2="106" y2="682" />
	<line stroke="black" stroke-opacity="1" x1="112" y1="676" x2="118" y2="681" />
	<line stroke-dasharray="4,4" stroke="black" stroke-opacity="1" x1="114" y1="814" x2="112" y2="676" />
</g>
<g>
	<line stroke="black" stroke-opacity="1" x1="1148" y1="399" x2="1142" y2="405" />
	<line stroke="black" stroke-opacity="1" x1="1148" y1="399" x2="1154" y2="404" />
	<line stroke-dasharray="4,4" stroke="black" stroke-opacity="1" x1="1151" y1="633" x2="1148" y2="399" />
</g>
<g>
	<line stroke="black" stroke-opacity="1" x1="1278" y1="666" x2="1276" y2="526" />
</g>
<g>
	<line stroke="#000000" stroke-opacity="1" x1="153" y1="634" x2="216" y2="634" />
	<line stroke="#000000" stroke-opacity="1" x1="222" y1="635" x2="216" y2="628" />
	<line stroke="#000000" stroke-opacity="1" x1="222" y1="635" x2="215" y2="640" />
	<line stroke="#000000" stroke-opacity="1" x1="216" y1="628" x2="215" y2="640" />
</g>
<g>
	<line stroke="black" stroke-opacity="1" x1="1343" y1="782" x2="1343" y2="267" />
</g>
<g>
	<line stroke="black" stroke-opacity="1" x1="974" y1="369" x2="980" y2="375" />
	<line stroke="black" stroke-opacity="1" x1="974" y1="369" x2="980" y2="363" />
	<line stroke-dasharray="4,4" stroke="black" stroke-opacity="1" x1="1048" y1="369" x2="974" y2="369" />
</g>
<g>
	<line stroke="black" stroke-opacity="1" x1="808" y1="589" x2="814" y2="595" />
	<line stroke="black" stroke-opacity="1" x1="808" y1="589" x2="814" y2="583" />
	<line stroke-dasharray="4,4" stroke="black" stroke-opacity="1" x1="842" y1="589" x2="808" y2="589" />
</g>
<g>
	<line stroke="black" stroke-opacity="1" x1="720" y1="557" x2="714" y2="563" />
	<line stroke="black" stroke-opacity="1" x1="720" y1="557" x2="726" y2="563" />
	<line stroke-dasharray="4,4" stroke="black" stroke-opacity="1" x1="720" y1="558" x2="720" y2="557" />
</g>
<g>
	<line stroke="black" stroke-opacity="1" x1="932" y1="233" x2="932" y2="192" />
</g>
<g>
	<line stroke="black" stroke-opacity="1" x1="717" y1="346" x2="723" y2="340" />
	<line stroke="black" stroke-opacity="1" x1="717" y1="346" x2="711" y2="340" />
	<line stroke-dasharray="4,4" stroke="black" stroke-opacity="1" x1="717" y1="291" x2="717" y2="346" />
</g>
<g>
	<line stroke="black" stroke-opacity="1" x1="502" y1="278" x2="507" y2="271" />
	<line stroke="black" stroke-opacity="1" x1="502" y1="278" x2="495" y2="272" />
	<line stroke-dasharray="4,4" stroke="black" stroke-opacity="1" x1="498" y1="192" x2="502" y2="278" />
</g>
<g>
	<line stroke="black" stroke-opacity="1" x1="692" y1="134" x2="692" y2="107" />
</g>
<g>
	<line stroke="black" stroke-opacity="1" x1="417" y1="78" x2="423" y2="83" />
	<line stroke="black" stroke-opacity="1" x1="417" y1="78" x2="422" y2="71" />
	<line stroke-dasharray="4,4" stroke="black" stroke-opacity="1" x1="643" y1="77" x2="417" y2="78" />
</g>
<g>
	<line stroke="black" stroke-opacity="1" x1="1343" y1="267" x2="967" y2="264" />
</g>
<g>
	<line stroke="black" stroke-opacity="1" x1="952" y1="760" x2="995" y2="761" />
</g>
<g>
	<line stroke="black" stroke-opacity="1" x1="995" y1="761" x2="992" y2="705" />
</g>
<g>
	<line stroke-dasharray="4,4" stroke="black" stroke-opacity="1" x1="481" y1="817" x2="114" y2="814" />
</g>
<g>
	<line stroke="#000000" stroke-opacity="1" x1="112" y1="591" x2="112" y2="573" />
</g>
<g>
	<line stroke-dasharray="4,4" stroke="black" stroke-opacity="1" x1="976" y1="490" x2="976" y2="440" />
</g>
<g>
	<line stroke="black" stroke-opacity="1" x1="756" y1="787" x2="758" y2="841" />
</g>
<g>
	<line stroke="black" stroke-opacity="1" x1="952" y1="778" x2="1343" y2="782" />
</g>
<g>
	<line stroke="black" stroke-opacity="1" x1="978" y1="539" x2="972" y2="545" />
	<line stroke="black" stroke-opacity="1" x1="978" y1="539" x2="984" y2="544" />
	<line stroke-dasharray="4,4" stroke="black" stroke-opacity="1" x1="988" y1="632" x2="978" y2="539" />
</g>
<g>
	<line stroke="black" stroke-opacity="1" x1="933" y1="669" x2="876" y2="669" />
</g>
<g>
	<line stroke="black" stroke-opacity="1" x1="414" y1="320" x2="407" y2="314" />
	<line stroke="black" stroke-opacity="1" x1="414" y1="320" x2="408" y2="326" />
	<line stroke-dasharray="4,4" stroke="black" stroke-opacity="1" x1="368" y1="323" x2="414" y2="320" />
</g>
<g>
	<line stroke="black" stroke-opacity="1" x1="200" y1="454" x2="197" y2="479" />
</g>
<g>
	<line stroke="black" stroke-opacity="1" x1="425" y1="499" x2="418" y2="493" />
	<line stroke="black" stroke-opacity="1" x1="425" y1="499" x2="419" y2="505" />
	<line stroke-dasharray="4,4" stroke="black" stroke-opacity="1" x1="319" y1="501" x2="425" y2="499" />
</g>
<g>
	<line stroke-dasharray="4,4" stroke="black" stroke-opacity="1" x1="368" y1="154" x2="368" y2="323" />
</g>
<g>
	<line stroke-dasharray="4,4" stroke="black" stroke-opacity="1" x1="298" y1="154" x2="368" y2="154" />
</g>
<g>
	<line stroke="black" stroke-opacity="1" x1="472" y1="703" x2="478" y2="697" />
	<line stroke="black" stroke-opacity="1" x1="472" y1="703" x2="466" y2="697" />
	<line stroke-dasharray="4,4" stroke="black" stroke-opacity="1" x1="472" y1="627" x2="472" y2="703" />
</g>
<g>
	<line stroke="black" stroke-opacity="1" x1="202" y1="181" x2="195" y2="186" />
	<line stroke="black" stroke-opacity="1" x1="202" y1="181" x2="207" y2="187" />
	<line stroke-dasharray="4,4" stroke="black" stroke-opacity="1" x1="201" y1="215" x2="202" y2="181" />
</g>
<g>
	<line stroke-dasharray="4,4" stroke="black" stroke-opacity="1" x1="494" y1="464" x2="491" y2="441" />
</g>
<g>
	<line stroke-dasharray="4,4" stroke="black" stroke-opacity="1" x1="494" y1="371" x2="495" y2="399" />
</g>
<g>
	<line stroke="#000000" stroke-opacity="1" x1="318" y1="571" x2="318" y2="447" />
	<line stroke="#000000" stroke-opacity="1" x1="318" y1="441" x2="312" y2="447" />
	<line stroke="#000000" stroke-opacity="1" x1="318" y1="441" x2="324" y2="447" />
	<line stroke="#000000" stroke-opacity="1" x1="312" y1="447" x2="324" y2="447" />
</g>
<g>
	<line stroke="#000000" stroke-opacity="1" x1="112" y1="573" x2="318" y2="571" />
</g>
<g>
	<rect fill="#cbcbcb" stroke="none" stroke-opacity="1" x="277" y="711" width="2" height="36" />
	<rect fill="#cbcbcb" stroke="none" stroke-opacity="1" x="225" y="745" width="54" height="2" />
	<rect fill="#e0ffff" stroke="black" stroke-width="1" stroke-opacity="1" x="222" y="708" width="55" height="37" />
	<text font-family="Helvetica" font-size="6" fill="#000000" xml:space="preserve" text-anchor="middle" x="250" y="715">&lt;&lt;actor&gt;&gt;</text>
	<text font-family="Helvetica" font-size="6" fill="#000000" xml:space="preserve" font-weight="bold" text-anchor="middle" x="250" y="728">Bibliotekar</text>
	<line stroke="black" stroke-opacity="1" x1="222" y1="734" x2="277" y2="734" />
	<line stroke="black" stroke-opacity="1" x1="222" y1="739" x2="277" y2="739" />
</g>
<g>
	<line stroke="#000000" stroke-opacity="1" x1="248" y1="656" x2="248" y2="701" />
	<line stroke="#000000" stroke-opacity="1" x1="249" y1="707" x2="254" y2="700" />
	<line stroke="#000000" stroke-opacity="1" x1="249" y1="707" x2="242" y2="701" />
	<line stroke="#000000" stroke-opacity="1" x1="254" y1="700" x2="242" y2="701" />
</g>
<g>
	<line stroke="black" stroke-opacity="1" x1="280" y1="728" x2="286" y2="734" />
	<line stroke="black" stroke-opacity="1" x1="280" y1="728" x2="286" y2="722" />
	<line stroke-dasharray="4,4" stroke="black" stroke-opacity="1" x1="370" y1="728" x2="280" y2="728" />
</g>
<g>
	<text font-family="Helvetica" font-size="6" fill="#000000" xml:space="preserve" x="887" y="803">0..1</text>
</g>
<g>
	<text font-family="Helvetica" font-size="6" fill="#000000" xml:space="preserve" x="743" y="831">1</text>
</g>
<g>
	<text font-family="Helvetica" font-size="6" fill="#000000" xml:space="preserve" x="625" y="412">*</text>
</g>
<g>
	<text font-family="Helvetica" font-size="6" fill="#000000" xml:space="preserve" x="552" y="616">0..1</text>
</g>
<g>
	<text font-family="Helvetica" font-size="6" fill="#000000" xml:space="preserve" x="354" y="449">*</text>
</g>
<g>
	<text font-family="Helvetica" font-size="6" fill="#000000" xml:space="preserve" x="698" y="776">1</text>
</g>
<g>
	<text font-family="Helvetica" font-size="6" fill="#000000" xml:space="preserve" x="1089" y="681">0..1</text>
</g>
<g>
	<text font-family="Helvetica" font-size="6" fill="#000000" xml:space="preserve" x="1060" y="681">1</text>
</g>
<g>
	<text font-family="Helvetica" font-size="6" fill="#000000" xml:space="preserve" x="625" y="458">*</text>
</g>
<g>
	<text font-family="Helvetica" font-size="6" fill="#000000" xml:space="preserve" x="354" y="412">*</text>
</g>
<g>
	<text font-family="Helvetica" font-size="6" fill="#000000" xml:space="preserve" x="886" y="681">0..1</text>
</g>
<g>
	<text font-family="Helvetica" font-size="6" fill="#000000" xml:space="preserve" x="918" y="681">1</text>
</g>
<g>
	<text font-family="Helvetica" font-size="6" fill="#000000" xml:space="preserve" x="792" y="681">1</text>
</g>
<g>
	<text font-family="Helvetica" font-size="6" fill="#000000" xml:space="preserve" x="175" y="364">0..1</text>
</g>
<g>
	<text font-family="Helvetica" font-size="6" fill="#000000" xml:space="preserve" x="186" y="293">1</text>
</g>
<g>
	<text font-family="Helvetica" font-size="6" fill="#000000" xml:space="preserve" x="966" y="717">0..1</text>
</g>
<g>
	<text font-family="Helvetica" font-size="6" fill="#000000" xml:space="preserve" x="962" y="790">1</text>
</g>
<g>
	<text font-family="Helvetica" font-size="6" fill="#000000" xml:space="preserve" x="1198" y="680">1</text>
</g>
<g>
	<text font-family="Helvetica" font-size="6" fill="#000000" xml:space="preserve" x="868" y="179">1</text>
</g>
<g>
	<text font-family="Helvetica" font-size="6" fill="#000000" xml:space="preserve" x="1250" y="538">0..1</text>
</g>
<g>
	<text font-family="Helvetica" font-size="6" fill="#000000" xml:space="preserve" x="747" y="177">0..1</text>
</g>
<g>
	<text font-family="Helvetica" font-size="6" fill="#000000" xml:space="preserve" x="730" y="799">0..1</text>
</g>
<g>
	<text font-family="Helvetica" font-size="6" fill="#000000" xml:space="preserve" x="962" y="772">1</text>
</g>
<g>
	<text font-family="Helvetica" font-size="6" fill="#000000" xml:space="preserve" x="977" y="276">0..1</text>
</g>
<g>
	<text font-family="Helvetica" font-size="6" fill="#000000" xml:space="preserve" x="758" y="680">0..1</text>
</g>
<g>
	<text font-family="Helvetica" font-size="6" fill="#000000" xml:space="preserve" x="906" y="204">0..1</text>
</g>
<g>
	<text font-family="Helvetica" font-size="6" fill="#000000" xml:space="preserve" x="917" y="223">1</text>
</g>
<g>
	<text font-family="Helvetica" font-size="6" fill="#000000" xml:space="preserve" x="187" y="383">1</text>
</g>
<g>
	<text font-family="Helvetica" font-size="6" fill="#000000" xml:space="preserve" x="175" y="276">0..1</text>
</g>
</svg>
