<?xml version="1.0" encoding="UTF-8" standalone="no"?>
<!-- Created with Bouml (http://bouml.free.fr/) -->
<!DOCTYPE svg PUBLIC "-//W3C//DTD SVG 1.1//EN" "http://www.w3.org/Graphics/SVG/1.1/DTD/svg11.dtd">
<svg width="1161" height="624" version="1.1" xmlns="http://www.w3.org/2000/svg">
<g>
	<rect fill="#cbcbcb" stroke="none" stroke-opacity="1" x="309" y="493" width="2" height="62" />
	<rect fill="#cbcbcb" stroke="none" stroke-opacity="1" x="251" y="553" width="60" height="2" />
	<rect fill="#ffffc0" stroke="black" stroke-width="1" stroke-opacity="1" x="248" y="490" width="61" height="63" />
	<text font-family="MS Shell Dlg 2" font-size="6" fill="#000000" xml:space="preserve" text-anchor="middle" x="279" y="497">&lt;&lt;actor&gt;&gt;</text>
	<text font-family="MS Shell Dlg 2" font-size="6" fill="#000000" xml:space="preserve" font-weight="bold" text-anchor="middle" x="279" y="507">Admin</text>
	<line stroke="black" stroke-opacity="1" x1="248" y1="510" x2="309" y2="510" />
	<text font-family="MS Shell Dlg 2" font-size="6" fill="#000000" xml:space="preserve" x="250" y="517">ime : string</text>
	<text font-family="MS Shell Dlg 2" font-size="6" fill="#000000" xml:space="preserve" x="250" y="526">prezime : string</text>
	<text font-family="MS Shell Dlg 2" font-size="6" fill="#000000" xml:space="preserve" x="250" y="535">username : string</text>
	<text font-family="MS Shell Dlg 2" font-size="6" fill="#000000" xml:space="preserve" x="250" y="544">password : string</text>
	<line stroke="black" stroke-opacity="1" x1="248" y1="547" x2="309" y2="547" />
</g>
<g>
	<rect fill="#cbcbcb" stroke="none" stroke-opacity="1" x="317" y="315" width="2" height="62" />
	<rect fill="#cbcbcb" stroke="none" stroke-opacity="1" x="259" y="375" width="60" height="2" />
	<rect fill="#ffffc0" stroke="black" stroke-width="1" stroke-opacity="1" x="256" y="312" width="61" height="63" />
	<text font-family="MS Shell Dlg 2" font-size="6" fill="#000000" xml:space="preserve" text-anchor="middle" x="287" y="319">&lt;&lt;actor&gt;&gt;</text>
	<text font-family="MS Shell Dlg 2" font-size="6" fill="#000000" xml:space="preserve" font-weight="bold" text-anchor="middle" x="287" y="329">Clan</text>
	<line stroke="black" stroke-opacity="1" x1="256" y1="332" x2="317" y2="332" />
	<text font-family="MS Shell Dlg 2" font-size="6" fill="#000000" xml:space="preserve" x="258" y="339">ime : string</text>
	<text font-family="MS Shell Dlg 2" font-size="6" fill="#000000" xml:space="preserve" x="258" y="348">prezime : string</text>
	<text font-family="MS Shell Dlg 2" font-size="6" fill="#000000" xml:space="preserve" x="258" y="357">username : string</text>
	<text font-family="MS Shell Dlg 2" font-size="6" fill="#000000" xml:space="preserve" x="258" y="366">password : string</text>
	<line stroke="black" stroke-opacity="1" x1="256" y1="369" x2="317" y2="369" />
</g>
<g>
	<rect fill="#cbcbcb" stroke="none" stroke-opacity="1" x="691" y="309" width="2" height="84" />
	<rect fill="#cbcbcb" stroke="none" stroke-opacity="1" x="569" y="391" width="124" height="2" />
	<rect fill="#ffffc0" stroke="black" stroke-width="1" stroke-opacity="1" x="566" y="306" width="125" height="85" />
	<text font-family="MS Shell Dlg 2" font-size="6" fill="#000000" xml:space="preserve" text-anchor="middle" x="629" y="313">&lt;&lt;entity&gt;&gt;</text>
	<text font-family="MS Shell Dlg 2" font-size="6" fill="#000000" xml:space="preserve" font-weight="bold" text-anchor="middle" x="629" y="323">Knjiga</text>
	<line stroke="black" stroke-opacity="1" x1="566" y1="326" x2="691" y2="326" />
	<text font-family="MS Shell Dlg 2" font-size="6" fill="#000000" xml:space="preserve" x="568" y="333">naziv : string [1]</text>
	<text font-family="MS Shell Dlg 2" font-size="6" fill="#000000" xml:space="preserve" x="568" y="342">brStrana : int</text>
	<text font-family="MS Shell Dlg 2" font-size="6" fill="#000000" xml:space="preserve" x="568" y="351">izdavac : string</text>
	<text font-family="MS Shell Dlg 2" font-size="6" fill="#000000" xml:space="preserve" x="568" y="360">brKnjigaUBiblioteci : int</text>
	<text font-family="MS Shell Dlg 2" font-size="6" fill="#000000" xml:space="preserve" x="568" y="369">brKnjigaUkupno : int</text>
	<line stroke="black" stroke-opacity="1" x1="566" y1="372" x2="691" y2="372" />
	<text font-family="MS Shell Dlg 2" font-size="6" fill="#000000" xml:space="preserve" x="568" y="379">dodajAutora(in a : Autor [1..*]) : bool</text>
	<text font-family="MS Shell Dlg 2" font-size="6" fill="#000000" xml:space="preserve" x="568" y="388">dodajZanr(in z : Zanr) : bool [1]</text>
</g>
<g>
	<rect fill="#cbcbcb" stroke="none" stroke-opacity="1" x="849" y="296" width="2" height="52" />
	<rect fill="#cbcbcb" stroke="none" stroke-opacity="1" x="779" y="346" width="72" height="2" />
	<rect fill="#ffffc0" stroke="black" stroke-width="1" stroke-opacity="1" x="776" y="293" width="73" height="53" />
	<text font-family="MS Shell Dlg 2" font-size="6" fill="#000000" xml:space="preserve" text-anchor="middle" x="813" y="300">&lt;&lt;entity&gt;&gt;</text>
	<text font-family="MS Shell Dlg 2" font-size="6" fill="#000000" xml:space="preserve" font-weight="bold" text-anchor="middle" x="813" y="310">Autor</text>
	<line stroke="black" stroke-opacity="1" x1="776" y1="313" x2="849" y2="313" />
	<text font-family="MS Shell Dlg 2" font-size="6" fill="#000000" xml:space="preserve" x="778" y="320">ime : string</text>
	<text font-family="MS Shell Dlg 2" font-size="6" fill="#000000" xml:space="preserve" x="778" y="329">prezime : string</text>
	<text font-family="MS Shell Dlg 2" font-size="6" fill="#000000" xml:space="preserve" x="778" y="338">datumRodjenja : Date</text>
	<line stroke="black" stroke-opacity="1" x1="776" y1="341" x2="849" y2="341" />
</g>
<g>
	<rect fill="#cbcbcb" stroke="none" stroke-opacity="1" x="505" y="128" width="2" height="34" />
	<rect fill="#cbcbcb" stroke="none" stroke-opacity="1" x="371" y="160" width="136" height="2" />
	<rect fill="#ffffc0" stroke="black" stroke-width="1" stroke-opacity="1" x="368" y="125" width="137" height="35" />
	<text font-family="MS Shell Dlg 2" font-size="6" fill="#000000" xml:space="preserve" text-anchor="middle" x="437" y="132">&lt;&lt;control&gt;&gt;</text>
	<text font-family="MS Shell Dlg 2" font-size="6" fill="#000000" xml:space="preserve" font-weight="bold" text-anchor="middle" x="437" y="142">IzdavanjeKontroler</text>
	<line stroke="black" stroke-opacity="1" x1="368" y1="145" x2="505" y2="145" />
	<line stroke="black" stroke-opacity="1" x1="368" y1="150" x2="505" y2="150" />
	<text font-family="MS Shell Dlg 2" font-size="6" fill="#000000" xml:space="preserve" x="370" y="157">cuvajIzdavanje(in i : Izdavanje) : bool [1]</text>
</g>
<g>
	<rect fill="#cbcbcb" stroke="none" stroke-opacity="1" x="632" y="51" width="2" height="44" />
	<rect fill="#cbcbcb" stroke="none" stroke-opacity="1" x="580" y="93" width="54" height="2" />
	<rect fill="#ffffc0" stroke="black" stroke-width="1" stroke-opacity="1" x="577" y="48" width="55" height="45" />
	<text font-family="MS Shell Dlg 2" font-size="6" fill="#000000" xml:space="preserve" text-anchor="middle" x="605" y="55">&lt;&lt;boundary&gt;&gt;</text>
	<text font-family="MS Shell Dlg 2" font-size="6" fill="#000000" xml:space="preserve" font-weight="bold" text-anchor="middle" x="605" y="65">ClanForma</text>
	<line stroke="black" stroke-opacity="1" x1="577" y1="68" x2="632" y2="68" />
	<line stroke="black" stroke-opacity="1" x1="577" y1="73" x2="632" y2="73" />
	<text font-family="MS Shell Dlg 2" font-size="6" fill="#000000" xml:space="preserve" x="579" y="80">pretraziClana()</text>
	<text font-family="MS Shell Dlg 2" font-size="6" fill="#000000" xml:space="preserve" x="579" y="89">izaberiClana()</text>
</g>
<g>
	<rect fill="#cbcbcb" stroke="none" stroke-opacity="1" x="702" y="495" width="2" height="44" />
	<rect fill="#cbcbcb" stroke="none" stroke-opacity="1" x="556" y="537" width="148" height="2" />
	<rect fill="#ffffc0" stroke="black" stroke-width="1" stroke-opacity="1" x="553" y="492" width="149" height="45" />
	<text font-family="MS Shell Dlg 2" font-size="6" fill="#000000" xml:space="preserve" text-anchor="middle" x="628" y="499">&lt;&lt;control&gt;&gt;</text>
	<text font-family="MS Shell Dlg 2" font-size="6" fill="#000000" xml:space="preserve" font-weight="bold" text-anchor="middle" x="628" y="509">ZanrKontroler</text>
	<line stroke="black" stroke-opacity="1" x1="553" y1="512" x2="702" y2="512" />
	<line stroke="black" stroke-opacity="1" x1="553" y1="517" x2="702" y2="517" />
	<text font-family="MS Shell Dlg 2" font-size="6" fill="#000000" xml:space="preserve" x="555" y="524">sacuvaj(in z : Zanr) : bool [1]</text>
	<text font-family="MS Shell Dlg 2" font-size="6" fill="#000000" xml:space="preserve" x="555" y="533">pronadjiZanr(in kriterijum : string) : Zanr [*]</text>
</g>
<g>
	<rect fill="#cbcbcb" stroke="none" stroke-opacity="1" x="365" y="56" width="2" height="34" />
	<rect fill="#cbcbcb" stroke="none" stroke-opacity="1" x="211" y="88" width="156" height="2" />
	<rect fill="#ffffc0" stroke="black" stroke-width="1" stroke-opacity="1" x="208" y="53" width="157" height="35" />
	<text font-family="MS Shell Dlg 2" font-size="6" fill="#000000" xml:space="preserve" text-anchor="middle" x="287" y="60">&lt;&lt;control&gt;&gt;</text>
	<text font-family="MS Shell Dlg 2" font-size="6" fill="#000000" xml:space="preserve" font-weight="bold" text-anchor="middle" x="287" y="70">ClanKontroler</text>
	<line stroke="black" stroke-opacity="1" x1="208" y1="73" x2="365" y2="73" />
	<line stroke="black" stroke-opacity="1" x1="208" y1="78" x2="365" y2="78" />
	<text font-family="MS Shell Dlg 2" font-size="6" fill="#000000" xml:space="preserve" x="210" y="85">pretraziClana(in kriterijum : string) : Clan [0..1]</text>
</g>
<g>
	<rect fill="#cbcbcb" stroke="none" stroke-opacity="1" x="845" y="210" width="2" height="44" />
	<rect fill="#cbcbcb" stroke="none" stroke-opacity="1" x="793" y="252" width="54" height="2" />
	<rect fill="#ffffc0" stroke="black" stroke-width="1" stroke-opacity="1" x="790" y="207" width="55" height="45" />
	<text font-family="MS Shell Dlg 2" font-size="6" fill="#000000" xml:space="preserve" text-anchor="middle" x="818" y="214">&lt;&lt;boundary&gt;&gt;</text>
	<text font-family="MS Shell Dlg 2" font-size="6" fill="#000000" xml:space="preserve" font-weight="bold" text-anchor="middle" x="818" y="224">KnjigaForma</text>
	<line stroke="black" stroke-opacity="1" x1="790" y1="227" x2="845" y2="227" />
	<line stroke="black" stroke-opacity="1" x1="790" y1="232" x2="845" y2="232" />
	<text font-family="MS Shell Dlg 2" font-size="6" fill="#000000" xml:space="preserve" x="792" y="239">pretrazi()</text>
	<text font-family="MS Shell Dlg 2" font-size="6" fill="#000000" xml:space="preserve" x="792" y="248">prikazi()</text>
</g>
<g>
	<rect fill="#cbcbcb" stroke="none" stroke-opacity="1" x="1086" y="300" width="2" height="44" />
	<rect fill="#cbcbcb" stroke="none" stroke-opacity="1" x="932" y="342" width="156" height="2" />
	<rect fill="#ffffc0" stroke="black" stroke-width="1" stroke-opacity="1" x="929" y="297" width="157" height="45" />
	<text font-family="MS Shell Dlg 2" font-size="6" fill="#000000" xml:space="preserve" text-anchor="middle" x="1008" y="304">&lt;&lt;control&gt;&gt;</text>
	<text font-family="MS Shell Dlg 2" font-size="6" fill="#000000" xml:space="preserve" font-weight="bold" text-anchor="middle" x="1008" y="314">AutorKontroler</text>
	<line stroke="black" stroke-opacity="1" x1="929" y1="317" x2="1086" y2="317" />
	<line stroke="black" stroke-opacity="1" x1="929" y1="322" x2="1086" y2="322" />
	<text font-family="MS Shell Dlg 2" font-size="6" fill="#000000" xml:space="preserve" x="931" y="329">sacuvaj(in a : Autor) : bool [1]</text>
	<text font-family="MS Shell Dlg 2" font-size="6" fill="#000000" xml:space="preserve" x="931" y="338">pronadjiAutora(in kriterijum : string) : Autor [*]</text>
</g>
<g>
	<rect fill="#cbcbcb" stroke="none" stroke-opacity="1" x="502" y="250" width="2" height="66" />
	<rect fill="#cbcbcb" stroke="none" stroke-opacity="1" x="374" y="314" width="130" height="2" />
	<rect fill="#ffffc0" stroke="black" stroke-width="1" stroke-opacity="1" x="371" y="247" width="131" height="67" />
	<text font-family="MS Shell Dlg 2" font-size="6" fill="#000000" xml:space="preserve" text-anchor="middle" x="437" y="254">&lt;&lt;entity&gt;&gt;</text>
	<text font-family="MS Shell Dlg 2" font-size="6" fill="#000000" xml:space="preserve" font-weight="bold" text-anchor="middle" x="437" y="264">Izdavanje</text>
	<line stroke="black" stroke-opacity="1" x1="371" y1="267" x2="502" y2="267" />
	<text font-family="MS Shell Dlg 2" font-size="6" fill="#000000" xml:space="preserve" x="373" y="274">datumIzdavanja : Date [1]</text>
	<text font-family="MS Shell Dlg 2" font-size="6" fill="#000000" xml:space="preserve" x="373" y="283">rokZaVracanje : Date</text>
	<line stroke="black" stroke-opacity="1" x1="371" y1="286" x2="502" y2="286" />
	<text font-family="MS Shell Dlg 2" font-size="6" fill="#000000" xml:space="preserve" x="373" y="293">dodajClana(in c : Clan) : bool [1]</text>
	<text font-family="MS Shell Dlg 2" font-size="6" fill="#000000" xml:space="preserve" x="373" y="302">dodajKnjigu(in k : Knjiga) : bool [1]</text>
	<text font-family="MS Shell Dlg 2" font-size="6" fill="#000000" xml:space="preserve" x="373" y="311">setRokZaVracanje(in d : Date) : bool [1]</text>
</g>
<g>
	<rect fill="#cbcbcb" stroke="none" stroke-opacity="1" x="1037" y="559" width="2" height="52" />
	<rect fill="#cbcbcb" stroke="none" stroke-opacity="1" x="983" y="609" width="56" height="2" />
	<rect fill="#ffffc0" stroke="black" stroke-width="1" stroke-opacity="1" x="980" y="556" width="57" height="53" />
	<text font-family="MS Shell Dlg 2" font-size="6" fill="#000000" xml:space="preserve" text-anchor="middle" x="1009" y="563">&lt;&lt;boundary&gt;&gt;</text>
	<text font-family="MS Shell Dlg 2" font-size="6" fill="#000000" xml:space="preserve" font-weight="bold" text-anchor="middle" x="1009" y="573">AutorForma</text>
	<line stroke="black" stroke-opacity="1" x1="980" y1="576" x2="1037" y2="576" />
	<line stroke="black" stroke-opacity="1" x1="980" y1="581" x2="1037" y2="581" />
	<text font-family="MS Shell Dlg 2" font-size="6" fill="#000000" xml:space="preserve" x="982" y="588">dodajAutora()</text>
	<text font-family="MS Shell Dlg 2" font-size="6" fill="#000000" xml:space="preserve" x="982" y="597">izaberiAutora()</text>
	<text font-family="MS Shell Dlg 2" font-size="6" fill="#000000" xml:space="preserve" x="982" y="606">pretraziAutora()</text>
</g>
<g>
	<rect fill="#cbcbcb" stroke="none" stroke-opacity="1" x="766" y="558" width="2" height="52" />
	<rect fill="#cbcbcb" stroke="none" stroke-opacity="1" x="714" y="608" width="54" height="2" />
	<rect fill="#ffffc0" stroke="black" stroke-width="1" stroke-opacity="1" x="711" y="555" width="55" height="53" />
	<text font-family="MS Shell Dlg 2" font-size="6" fill="#000000" xml:space="preserve" text-anchor="middle" x="739" y="562">&lt;&lt;boundary&gt;&gt;</text>
	<text font-family="MS Shell Dlg 2" font-size="6" fill="#000000" xml:space="preserve" font-weight="bold" text-anchor="middle" x="739" y="572">ZanrForma</text>
	<line stroke="black" stroke-opacity="1" x1="711" y1="575" x2="766" y2="575" />
	<line stroke="black" stroke-opacity="1" x1="711" y1="580" x2="766" y2="580" />
	<text font-family="MS Shell Dlg 2" font-size="6" fill="#000000" xml:space="preserve" x="713" y="587">dodajZanr()</text>
	<text font-family="MS Shell Dlg 2" font-size="6" fill="#000000" xml:space="preserve" x="713" y="596">izaberiZanr()</text>
	<text font-family="MS Shell Dlg 2" font-size="6" fill="#000000" xml:space="preserve" x="713" y="605">pretraziZanr()</text>
</g>
<g>
	<rect fill="#cbcbcb" stroke="none" stroke-opacity="1" x="930" y="420" width="2" height="34" />
	<rect fill="#cbcbcb" stroke="none" stroke-opacity="1" x="810" y="452" width="122" height="2" />
	<rect fill="#ffffc0" stroke="black" stroke-width="1" stroke-opacity="1" x="807" y="417" width="123" height="35" />
	<text font-family="MS Shell Dlg 2" font-size="6" fill="#000000" xml:space="preserve" text-anchor="middle" x="869" y="424">&lt;&lt;control&gt;&gt;</text>
	<text font-family="MS Shell Dlg 2" font-size="6" fill="#000000" xml:space="preserve" font-weight="bold" text-anchor="middle" x="869" y="434">DodavanjeKnjigeKontroler</text>
	<line stroke="black" stroke-opacity="1" x1="807" y1="437" x2="930" y2="437" />
	<line stroke="black" stroke-opacity="1" x1="807" y1="442" x2="930" y2="442" />
	<text font-family="MS Shell Dlg 2" font-size="6" fill="#000000" xml:space="preserve" x="809" y="449">sacuvajKnjigu(in k : Knjiga) : bool [1]</text>
</g>
<g>
	<rect fill="#cbcbcb" stroke="none" stroke-opacity="1" x="500" y="411" width="2" height="48" />
	<rect fill="#cbcbcb" stroke="none" stroke-opacity="1" x="386" y="457" width="116" height="2" />
	<rect fill="#ffffc0" stroke="black" stroke-width="1" stroke-opacity="1" x="383" y="408" width="117" height="49" />
	<text font-family="MS Shell Dlg 2" font-size="6" fill="#000000" xml:space="preserve" text-anchor="middle" x="442" y="415">&lt;&lt;entity&gt;&gt;</text>
	<text font-family="MS Shell Dlg 2" font-size="6" fill="#000000" xml:space="preserve" font-weight="bold" text-anchor="middle" x="442" y="425">Rezervacija</text>
	<line stroke="black" stroke-opacity="1" x1="383" y1="428" x2="500" y2="428" />
	<text font-family="MS Shell Dlg 2" font-size="6" fill="#000000" xml:space="preserve" x="385" y="435">datumRezervisanja : Date</text>
	<line stroke="black" stroke-opacity="1" x1="383" y1="438" x2="500" y2="438" />
	<text font-family="MS Shell Dlg 2" font-size="6" fill="#000000" xml:space="preserve" x="385" y="445">dodajClana(in c : Clan) : bool [1]</text>
	<text font-family="MS Shell Dlg 2" font-size="6" fill="#000000" xml:space="preserve" x="385" y="454">dodajKnjigu(in k : Knjiga) : bool [1]</text>
</g>
<g>
	<rect fill="#cbcbcb" stroke="none" stroke-opacity="1" x="651" y="427" width="2" height="34" />
	<rect fill="#cbcbcb" stroke="none" stroke-opacity="1" x="609" y="459" width="44" height="2" />
	<rect fill="#ffffc0" stroke="black" stroke-width="1" stroke-opacity="1" x="606" y="424" width="45" height="35" />
	<text font-family="MS Shell Dlg 2" font-size="6" fill="#000000" xml:space="preserve" text-anchor="middle" x="629" y="431">&lt;&lt;entity&gt;&gt;</text>
	<text font-family="MS Shell Dlg 2" font-size="6" fill="#000000" xml:space="preserve" font-weight="bold" text-anchor="middle" x="629" y="441">Zanr</text>
	<line stroke="black" stroke-opacity="1" x1="606" y1="444" x2="651" y2="444" />
	<text font-family="MS Shell Dlg 2" font-size="6" fill="#000000" xml:space="preserve" x="608" y="451">naziv : string</text>
	<line stroke="black" stroke-opacity="1" x1="606" y1="454" x2="651" y2="454" />
</g>
<g>
	<rect fill="#cbcbcb" stroke="none" stroke-opacity="1" x="852" y="128" width="2" height="34" />
	<rect fill="#cbcbcb" stroke="none" stroke-opacity="1" x="784" y="160" width="70" height="2" />
	<rect fill="#ffffc0" stroke="black" stroke-width="1" stroke-opacity="1" x="781" y="125" width="71" height="35" />
	<text font-family="MS Shell Dlg 2" font-size="6" fill="#000000" xml:space="preserve" text-anchor="middle" x="817" y="132">&lt;&lt;boundary&gt;&gt;</text>
	<text font-family="MS Shell Dlg 2" font-size="6" fill="#000000" xml:space="preserve" font-weight="bold" text-anchor="middle" x="817" y="142">DetaljiKnjigeForma</text>
	<line stroke="black" stroke-opacity="1" x1="781" y1="145" x2="852" y2="145" />
	<line stroke="black" stroke-opacity="1" x1="781" y1="150" x2="852" y2="150" />
	<text font-family="MS Shell Dlg 2" font-size="6" fill="#000000" xml:space="preserve" x="783" y="157">izdavanje()</text>
</g>
<g>
	<rect fill="#cbcbcb" stroke="none" stroke-opacity="1" x="911" y="558" width="2" height="52" />
	<rect fill="#cbcbcb" stroke="none" stroke-opacity="1" x="829" y="608" width="84" height="2" />
	<rect fill="#ffffc0" stroke="black" stroke-width="1" stroke-opacity="1" x="826" y="555" width="85" height="53" />
	<text font-family="MS Shell Dlg 2" font-size="6" fill="#000000" xml:space="preserve" text-anchor="middle" x="869" y="562">&lt;&lt;boundary&gt;&gt;</text>
	<text font-family="MS Shell Dlg 2" font-size="6" fill="#000000" xml:space="preserve" font-weight="bold" text-anchor="middle" x="869" y="572">DodavanjeKnjigaForma</text>
	<line stroke="black" stroke-opacity="1" x1="826" y1="575" x2="911" y2="575" />
	<line stroke="black" stroke-opacity="1" x1="826" y1="580" x2="911" y2="580" />
	<text font-family="MS Shell Dlg 2" font-size="6" fill="#000000" xml:space="preserve" x="828" y="587">dodajAutora()</text>
	<text font-family="MS Shell Dlg 2" font-size="6" fill="#000000" xml:space="preserve" x="828" y="596">dodajZanr()</text>
	<text font-family="MS Shell Dlg 2" font-size="6" fill="#000000" xml:space="preserve" x="828" y="605">kreirajKnjigu()</text>
</g>
<g>
	<rect fill="#cbcbcb" stroke="none" stroke-opacity="1" x="1146" y="423" width="2" height="34" />
	<rect fill="#cbcbcb" stroke="none" stroke-opacity="1" x="1088" y="455" width="60" height="2" />
	<rect fill="#ffffc0" stroke="black" stroke-width="1" stroke-opacity="1" x="1085" y="420" width="61" height="35" />
	<text font-family="MS Shell Dlg 2" font-size="6" fill="#000000" xml:space="preserve" text-anchor="middle" x="1116" y="427">&lt;&lt;boundary&gt;&gt;</text>
	<text font-family="MS Shell Dlg 2" font-size="6" fill="#000000" xml:space="preserve" font-weight="bold" text-anchor="middle" x="1116" y="437">NoviAutorForma</text>
	<line stroke="black" stroke-opacity="1" x1="1085" y1="440" x2="1146" y2="440" />
	<line stroke="black" stroke-opacity="1" x1="1085" y1="445" x2="1146" y2="445" />
	<text font-family="MS Shell Dlg 2" font-size="6" fill="#000000" xml:space="preserve" x="1087" y="452">sacuvajAutora()</text>
</g>
<g>
	<rect fill="#cbcbcb" stroke="none" stroke-opacity="1" x="652" y="570" width="2" height="34" />
	<rect fill="#cbcbcb" stroke="none" stroke-opacity="1" x="598" y="602" width="56" height="2" />
	<rect fill="#ffffc0" stroke="black" stroke-width="1" stroke-opacity="1" x="595" y="567" width="57" height="35" />
	<text font-family="MS Shell Dlg 2" font-size="6" fill="#000000" xml:space="preserve" text-anchor="middle" x="624" y="574">&lt;&lt;boundary&gt;&gt;</text>
	<text font-family="MS Shell Dlg 2" font-size="6" fill="#000000" xml:space="preserve" font-weight="bold" text-anchor="middle" x="624" y="584">NoviZanrForma</text>
	<line stroke="black" stroke-opacity="1" x1="595" y1="587" x2="652" y2="587" />
	<line stroke="black" stroke-opacity="1" x1="595" y1="592" x2="652" y2="592" />
	<text font-family="MS Shell Dlg 2" font-size="6" fill="#000000" xml:space="preserve" x="597" y="599">sacuvajZanr()</text>
</g>
<g>
	<rect fill="#cbcbcb" stroke="none" stroke-opacity="1" x="706" y="215" width="2" height="34" />
	<rect fill="#cbcbcb" stroke="none" stroke-opacity="1" x="550" y="247" width="158" height="2" />
	<rect fill="#ffffc0" stroke="black" stroke-width="1" stroke-opacity="1" x="547" y="212" width="159" height="35" />
	<text font-family="MS Shell Dlg 2" font-size="6" fill="#000000" xml:space="preserve" text-anchor="middle" x="627" y="219">&lt;&lt;control&gt;&gt;</text>
	<text font-family="MS Shell Dlg 2" font-size="6" fill="#000000" xml:space="preserve" font-weight="bold" text-anchor="middle" x="627" y="229">KnjigaKontroler</text>
	<line stroke="black" stroke-opacity="1" x1="547" y1="232" x2="706" y2="232" />
	<line stroke="black" stroke-opacity="1" x1="547" y1="237" x2="706" y2="237" />
	<text font-family="MS Shell Dlg 2" font-size="6" fill="#000000" xml:space="preserve" x="549" y="244">pronadjiKnjigu(in kriterijum : string) : Knjiga [*]</text>
</g>
<g>
	<rect fill="#cbcbcb" stroke="none" stroke-opacity="1" x="637" y="123" width="2" height="44" />
	<rect fill="#cbcbcb" stroke="none" stroke-opacity="1" x="575" y="165" width="64" height="2" />
	<rect fill="#ffffc0" stroke="black" stroke-width="1" stroke-opacity="1" x="572" y="120" width="65" height="45" />
	<text font-family="MS Shell Dlg 2" font-size="6" fill="#000000" xml:space="preserve" text-anchor="middle" x="605" y="127">&lt;&lt;boundary&gt;&gt;</text>
	<text font-family="MS Shell Dlg 2" font-size="6" fill="#000000" xml:space="preserve" font-weight="bold" text-anchor="middle" x="605" y="137">IzdavanjeForma</text>
	<line stroke="black" stroke-opacity="1" x1="572" y1="140" x2="637" y2="140" />
	<line stroke="black" stroke-opacity="1" x1="572" y1="145" x2="637" y2="145" />
	<text font-family="MS Shell Dlg 2" font-size="6" fill="#000000" xml:space="preserve" x="574" y="152">izaberiClana()</text>
	<text font-family="MS Shell Dlg 2" font-size="6" fill="#000000" xml:space="preserve" x="574" y="161">sacuvajIzdavanje()</text>
</g>
<g>
	<rect fill="#cbcbcb" stroke="none" stroke-opacity="1" x="224" y="268" width="2" height="34" />
	<rect fill="#cbcbcb" stroke="none" stroke-opacity="1" x="136" y="300" width="90" height="2" />
	<rect fill="#ffffc0" stroke="black" stroke-width="1" stroke-opacity="1" x="133" y="265" width="91" height="35" />
	<text font-family="MS Shell Dlg 2" font-size="6" fill="#000000" xml:space="preserve" text-anchor="middle" x="179" y="272">&lt;&lt;boundary&gt;&gt;</text>
	<text font-family="MS Shell Dlg 2" font-size="6" fill="#000000" xml:space="preserve" font-weight="bold" text-anchor="middle" x="179" y="282">DetaljiRezervacijeForma</text>
	<line stroke="black" stroke-opacity="1" x1="133" y1="285" x2="224" y2="285" />
	<line stroke="black" stroke-opacity="1" x1="133" y1="290" x2="224" y2="290" />
	<text font-family="MS Shell Dlg 2" font-size="6" fill="#000000" xml:space="preserve" x="135" y="297">izdavanje()</text>
</g>
<g>
	<rect fill="#cbcbcb" stroke="none" stroke-opacity="1" x="229" y="194" width="2" height="34" />
	<rect fill="#cbcbcb" stroke="none" stroke-opacity="1" x="131" y="226" width="100" height="2" />
	<rect fill="#ffffc0" stroke="black" stroke-width="1" stroke-opacity="1" x="128" y="191" width="101" height="35" />
	<text font-family="MS Shell Dlg 2" font-size="6" fill="#000000" xml:space="preserve" text-anchor="middle" x="179" y="198">&lt;&lt;boundary&gt;&gt;</text>
	<text font-family="MS Shell Dlg 2" font-size="6" fill="#000000" xml:space="preserve" font-weight="bold" text-anchor="middle" x="179" y="208">IzdavanjeRezervacijeForma</text>
	<line stroke="black" stroke-opacity="1" x1="128" y1="211" x2="229" y2="211" />
	<line stroke="black" stroke-opacity="1" x1="128" y1="216" x2="229" y2="216" />
	<text font-family="MS Shell Dlg 2" font-size="6" fill="#000000" xml:space="preserve" x="130" y="223">sacuvajIzdavanje()</text>
</g>
<g>
	<rect fill="#cbcbcb" stroke="none" stroke-opacity="1" x="250" y="119" width="2" height="34" />
	<rect fill="#cbcbcb" stroke="none" stroke-opacity="1" x="110" y="151" width="142" height="2" />
	<rect fill="#ffffc0" stroke="black" stroke-width="1" stroke-opacity="1" x="107" y="116" width="143" height="35" />
	<text font-family="MS Shell Dlg 2" font-size="6" fill="#000000" xml:space="preserve" text-anchor="middle" x="179" y="123">&lt;&lt;control&gt;&gt;</text>
	<text font-family="MS Shell Dlg 2" font-size="6" fill="#000000" xml:space="preserve" font-weight="bold" text-anchor="middle" x="179" y="133">IzdavanjeRezervacijeKontroler</text>
	<line stroke="black" stroke-opacity="1" x1="107" y1="136" x2="250" y2="136" />
	<line stroke="black" stroke-opacity="1" x1="107" y1="141" x2="250" y2="141" />
	<text font-family="MS Shell Dlg 2" font-size="6" fill="#000000" xml:space="preserve" x="109" y="148">sacuvajIzdavanje(in i : Izdavanje) : bool [1]</text>
</g>
<g>
	<rect fill="#cbcbcb" stroke="none" stroke-opacity="1" x="211" y="348" width="2" height="44" />
	<rect fill="#cbcbcb" stroke="none" stroke-opacity="1" x="147" y="390" width="66" height="2" />
	<rect fill="#ffffc0" stroke="black" stroke-width="1" stroke-opacity="1" x="144" y="345" width="67" height="45" />
	<text font-family="MS Shell Dlg 2" font-size="6" fill="#000000" xml:space="preserve" text-anchor="middle" x="178" y="352">&lt;&lt;boundary&gt;&gt;</text>
	<text font-family="MS Shell Dlg 2" font-size="6" fill="#000000" xml:space="preserve" font-weight="bold" text-anchor="middle" x="178" y="362">RezervacijaForma</text>
	<line stroke="black" stroke-opacity="1" x1="144" y1="365" x2="211" y2="365" />
	<line stroke="black" stroke-opacity="1" x1="144" y1="370" x2="211" y2="370" />
	<text font-family="MS Shell Dlg 2" font-size="6" fill="#000000" xml:space="preserve" x="146" y="377">pretrazi()</text>
	<text font-family="MS Shell Dlg 2" font-size="6" fill="#000000" xml:space="preserve" x="146" y="386">prikaziRezervaciju()</text>
</g>
<g>
	<rect fill="#cbcbcb" stroke="none" stroke-opacity="1" x="277" y="424" width="2" height="24" />
	<rect fill="#cbcbcb" stroke="none" stroke-opacity="1" x="83" y="446" width="196" height="2" />
	<rect fill="#ffffc0" stroke="black" stroke-width="1" stroke-opacity="1" x="80" y="421" width="197" height="25" />
	<text font-family="MS Shell Dlg 2" font-size="6" fill="#000000" xml:space="preserve" font-weight="bold" text-anchor="middle" x="179" y="428">RezervacijaKontroler</text>
	<line stroke="black" stroke-opacity="1" x1="80" y1="431" x2="277" y2="431" />
	<line stroke="black" stroke-opacity="1" x1="80" y1="436" x2="277" y2="436" />
	<text font-family="MS Shell Dlg 2" font-size="6" fill="#000000" xml:space="preserve" x="82" y="443">pretraziRezervaciju(in kriterijum : string) : Rezervacija [0..1]</text>
</g>
<g>
	<line stroke="black" stroke-opacity="1" x1="1089" y1="319" x2="1095" y2="325" />
	<line stroke="black" stroke-opacity="1" x1="1089" y1="319" x2="1095" y2="313" />
	<line stroke-dasharray="4,4" stroke="black" stroke-opacity="1" x1="1117" y1="319" x2="1089" y2="319" />
</g>
<g>
	<line stroke="black" stroke-opacity="1" x1="694" y1="320" x2="775" y2="320" />
	<polygon fill="#ffffff" stroke="black" stroke-opacity="1" points="694,320 700,314 706,320 700,326" />
</g>
<g>
	<line stroke="black" stroke-opacity="1" x1="320" y1="373" x2="565" y2="374" />
</g>
<g>
	<line stroke="black" stroke-opacity="1" x1="320" y1="342" x2="565" y2="343" />
</g>
<g>
	<line stroke="black" stroke-opacity="1" x1="914" y1="583" x2="979" y2="583" />
</g>
<g>
	<line stroke="black" stroke-opacity="1" x1="631" y1="394" x2="631" y2="423" />
	<polygon fill="#ffffff" stroke="black" stroke-opacity="1" points="631,394 637,400 631,406 625,400" />
</g>
<g>
	<line stroke-dasharray="4,4" stroke="black" stroke-opacity="1" x1="1117" y1="419" x2="1117" y2="319" />
</g>
<g>
	<line stroke="black" stroke-opacity="1" x1="825" y1="583" x2="769" y2="583" />
</g>
<g>
	<line stroke="black" stroke-opacity="1" x1="870" y1="455" x2="864" y2="461" />
	<line stroke="black" stroke-opacity="1" x1="870" y1="455" x2="876" y2="461" />
	<line stroke-dasharray="4,4" stroke="black" stroke-opacity="1" x1="870" y1="554" x2="870" y2="455" />
</g>
<g>
	<line stroke="black" stroke-opacity="1" x1="627" y1="540" x2="620" y2="545" />
	<line stroke="black" stroke-opacity="1" x1="627" y1="540" x2="632" y2="546" />
	<line stroke-dasharray="4,4" stroke="black" stroke-opacity="1" x1="626" y1="566" x2="627" y2="540" />
</g>
<g>
	<line stroke="black" stroke-opacity="1" x1="852" y1="321" x2="858" y2="327" />
	<line stroke="black" stroke-opacity="1" x1="852" y1="321" x2="858" y2="315" />
	<line stroke-dasharray="4,4" stroke="black" stroke-opacity="1" x1="928" y1="321" x2="852" y2="321" />
</g>
<g>
	<line stroke-dasharray="4,4" stroke="black" stroke-opacity="1" x1="253" y1="134" x2="322" y2="134" />
</g>
<g>
	<line stroke="black" stroke-opacity="1" x1="288" y1="311" x2="294" y2="305" />
	<line stroke="black" stroke-opacity="1" x1="288" y1="311" x2="282" y2="305" />
	<line stroke-dasharray="4,4" stroke="black" stroke-opacity="1" x1="288" y1="91" x2="288" y2="311" />
</g>
<g>
	<line stroke-dasharray="4,4" stroke="black" stroke-opacity="1" x1="741" y1="554" x2="741" y2="517" />
</g>
<g>
	<line stroke="black" stroke-opacity="1" x1="818" y1="206" x2="818" y2="163" />
</g>
<g>
	<line stroke="black" stroke-opacity="1" x1="179" y1="344" x2="179" y2="303" />
</g>
<g>
	<line stroke="black" stroke-opacity="1" x1="180" y1="264" x2="180" y2="229" />
</g>
<g>
	<line stroke-dasharray="4,4" stroke="black" stroke-opacity="1" x1="322" y1="134" x2="322" y2="284" />
</g>
<g>
	<line stroke="black" stroke-opacity="1" x1="629" y1="462" x2="623" y2="468" />
	<line stroke="black" stroke-opacity="1" x1="629" y1="462" x2="635" y2="468" />
	<line stroke-dasharray="4,4" stroke="black" stroke-opacity="1" x1="629" y1="491" x2="629" y2="462" />
</g>
<g>
	<line stroke="black" stroke-opacity="1" x1="694" y1="381" x2="700" y2="387" />
	<line stroke="black" stroke-opacity="1" x1="694" y1="381" x2="700" y2="375" />
	<line stroke-dasharray="4,4" stroke="black" stroke-opacity="1" x1="870" y1="381" x2="694" y2="381" />
</g>
<g>
	<line stroke="black" stroke-opacity="1" x1="370" y1="283" x2="363" y2="277" />
	<line stroke="black" stroke-opacity="1" x1="370" y1="283" x2="364" y2="289" />
	<line stroke-dasharray="4,4" stroke="black" stroke-opacity="1" x1="322" y1="284" x2="370" y2="283" />
</g>
<g>
	<line stroke="black" stroke-opacity="1" x1="710" y1="583" x2="655" y2="584" />
</g>
<g>
	<line stroke="black" stroke-opacity="1" x1="705" y1="516" x2="710" y2="522" />
	<line stroke="black" stroke-opacity="1" x1="705" y1="516" x2="711" y2="510" />
	<line stroke-dasharray="4,4" stroke="black" stroke-opacity="1" x1="741" y1="517" x2="705" y2="516" />
</g>
<g>
	<line stroke="black" stroke-opacity="1" x1="508" y1="144" x2="514" y2="150" />
	<line stroke="black" stroke-opacity="1" x1="508" y1="144" x2="514" y2="138" />
	<line stroke-dasharray="4,4" stroke="black" stroke-opacity="1" x1="571" y1="144" x2="508" y2="144" />
</g>
<g>
	<line stroke-dasharray="4,4" stroke="black" stroke-opacity="1" x1="870" y1="416" x2="870" y2="381" />
</g>
<g>
	<line stroke="black" stroke-opacity="1" x1="1117" y1="582" x2="1117" y2="458" />
</g>
<g>
	<line stroke="black" stroke-opacity="1" x1="1009" y1="345" x2="1003" y2="351" />
	<line stroke="black" stroke-opacity="1" x1="1009" y1="345" x2="1015" y2="351" />
	<line stroke-dasharray="4,4" stroke="black" stroke-opacity="1" x1="1009" y1="555" x2="1009" y2="345" />
</g>
<g>
	<line stroke="black" stroke-opacity="1" x1="179" y1="393" x2="179" y2="420" />
</g>
<g>
	<line stroke="black" stroke-opacity="1" x1="1040" y1="583" x2="1117" y2="582" />
</g>
<g>
	<line stroke="black" stroke-opacity="1" x1="709" y1="231" x2="715" y2="237" />
	<line stroke="black" stroke-opacity="1" x1="709" y1="231" x2="715" y2="225" />
	<line stroke-dasharray="4,4" stroke="black" stroke-opacity="1" x1="789" y1="231" x2="709" y2="231" />
</g>
<g>
	<line stroke="black" stroke-opacity="1" x1="438" y1="246" x2="444" y2="240" />
	<line stroke="black" stroke-opacity="1" x1="438" y1="246" x2="432" y2="240" />
	<line stroke-dasharray="4,4" stroke="black" stroke-opacity="1" x1="438" y1="163" x2="438" y2="246" />
</g>
<g>
	<line stroke="black" stroke-opacity="1" x1="629" y1="305" x2="634" y2="298" />
	<line stroke="black" stroke-opacity="1" x1="629" y1="305" x2="622" y2="299" />
	<line stroke-dasharray="4,4" stroke="black" stroke-opacity="1" x1="628" y1="250" x2="629" y2="305" />
</g>
<g>
	<line stroke="black" stroke-opacity="1" x1="368" y1="72" x2="374" y2="78" />
	<line stroke="black" stroke-opacity="1" x1="368" y1="72" x2="374" y2="66" />
	<line stroke-dasharray="4,4" stroke="black" stroke-opacity="1" x1="576" y1="72" x2="368" y2="72" />
</g>
<g>
	<line stroke="black" stroke-opacity="1" x1="780" y1="144" x2="640" y2="144" />
</g>
<g>
	<line stroke="black" stroke-opacity="1" x1="180" y1="154" x2="174" y2="160" />
	<line stroke="black" stroke-opacity="1" x1="180" y1="154" x2="186" y2="160" />
	<line stroke-dasharray="4,4" stroke="black" stroke-opacity="1" x1="180" y1="190" x2="180" y2="154" />
</g>
<g>
	<line stroke="black" stroke-opacity="1" x1="382" y1="434" x2="376" y2="428" />
	<line stroke="black" stroke-opacity="1" x1="382" y1="434" x2="376" y2="440" />
	<line stroke-dasharray="4,4" stroke="black" stroke-opacity="1" x1="280" y1="434" x2="382" y2="434" />
</g>
<g>
	<line stroke="black" stroke-opacity="1" x1="606" y1="119" x2="606" y2="96" />
</g>
<g>
	<line stroke-dasharray="4,4" stroke="black" stroke-opacity="1" x1="442" y1="407" x2="442" y2="373" />
</g>
<g>
	<line stroke-dasharray="4,4" stroke="black" stroke-opacity="1" x1="440" y1="317" x2="441" y2="341" />
</g>
<g>
	<rect fill="#cbcbcb" stroke="none" stroke-opacity="1" x="527" y="491" width="2" height="62" />
	<rect fill="#cbcbcb" stroke="none" stroke-opacity="1" x="469" y="551" width="60" height="2" />
	<rect fill="#ffffc0" stroke="black" stroke-width="1" stroke-opacity="1" x="466" y="488" width="61" height="63" />
	<text font-family="MS Shell Dlg 2" font-size="6" fill="#000000" xml:space="preserve" text-anchor="middle" x="497" y="495">&lt;&lt;actor&gt;&gt;</text>
	<text font-family="MS Shell Dlg 2" font-size="6" fill="#000000" xml:space="preserve" font-weight="bold" text-anchor="middle" x="497" y="505">Bibliotekar</text>
	<line stroke="black" stroke-opacity="1" x1="466" y1="508" x2="527" y2="508" />
	<text font-family="MS Shell Dlg 2" font-size="6" fill="#000000" xml:space="preserve" x="468" y="515">ime : string</text>
	<text font-family="MS Shell Dlg 2" font-size="6" fill="#000000" xml:space="preserve" x="468" y="524">prezime : string</text>
	<text font-family="MS Shell Dlg 2" font-size="6" fill="#000000" xml:space="preserve" x="468" y="533">username : string</text>
	<text font-family="MS Shell Dlg 2" font-size="6" fill="#000000" xml:space="preserve" x="468" y="542">password : string</text>
	<line stroke="black" stroke-opacity="1" x1="466" y1="545" x2="527" y2="545" />
</g>
<g>
	<line stroke="#000000" stroke-opacity="1" x1="312" y1="522" x2="459" y2="521" />
	<line stroke="#000000" stroke-opacity="1" x1="465" y1="521" x2="458" y2="515" />
	<line stroke="#000000" stroke-opacity="1" x1="465" y1="521" x2="459" y2="527" />
	<line stroke="#000000" stroke-opacity="1" x1="458" y1="515" x2="459" y2="527" />
</g>
<g>
	<text font-family="MS Shell Dlg 2" font-size="6" fill="#000000" xml:space="preserve" x="329" y="389">*</text>
</g>
<g>
	<text font-family="MS Shell Dlg 2" font-size="6" fill="#000000" xml:space="preserve" x="551" y="389">*</text>
</g>
<g>
	<text font-family="MS Shell Dlg 2" font-size="6" fill="#000000" xml:space="preserve" x="696" y="596">1</text>
</g>
<g>
	<text font-family="MS Shell Dlg 2" font-size="6" fill="#000000" xml:space="preserve" x="1050" y="594">1</text>
</g>
<g>
	<text font-family="MS Shell Dlg 2" font-size="6" fill="#000000" xml:space="preserve" x="159" y="317">0..1</text>
</g>
<g>
	<text font-family="MS Shell Dlg 2" font-size="6" fill="#000000" xml:space="preserve" x="799" y="177">0..1</text>
</g>
<g>
	<text font-family="MS Shell Dlg 2" font-size="6" fill="#000000" xml:space="preserve" x="652" y="156">0..1</text>
</g>
<g>
	<text font-family="MS Shell Dlg 2" font-size="6" fill="#000000" xml:space="preserve" x="764" y="156">1</text>
</g>
<g>
	<text font-family="MS Shell Dlg 2" font-size="6" fill="#000000" xml:space="preserve" x="160" y="242">0..1</text>
</g>
<g>
	<text font-family="MS Shell Dlg 2" font-size="6" fill="#000000" xml:space="preserve" x="927" y="594">1</text>
</g>
<g>
	<text font-family="MS Shell Dlg 2" font-size="6" fill="#000000" xml:space="preserve" x="168" y="338">1</text>
</g>
<g>
	<text font-family="MS Shell Dlg 2" font-size="6" fill="#000000" xml:space="preserve" x="329" y="356">*</text>
</g>
<g>
	<text font-family="MS Shell Dlg 2" font-size="6" fill="#000000" xml:space="preserve" x="808" y="594">1</text>
</g>
<g>
	<text font-family="MS Shell Dlg 2" font-size="6" fill="#000000" xml:space="preserve" x="1097" y="471">0..1</text>
</g>
<g>
	<text font-family="MS Shell Dlg 2" font-size="6" fill="#000000" xml:space="preserve" x="668" y="597">0..1</text>
</g>
<g>
	<text font-family="MS Shell Dlg 2" font-size="6" fill="#000000" xml:space="preserve" x="807" y="199">1</text>
</g>
<g>
	<text font-family="MS Shell Dlg 2" font-size="6" fill="#000000" xml:space="preserve" x="780" y="594">0..1</text>
</g>
<g>
	<text font-family="MS Shell Dlg 2" font-size="6" fill="#000000" xml:space="preserve" x="551" y="354">*</text>
</g>
<g>
	<text font-family="MS Shell Dlg 2" font-size="6" fill="#000000" xml:space="preserve" x="168" y="256">1</text>
</g>
<g>
	<text font-family="MS Shell Dlg 2" font-size="6" fill="#000000" xml:space="preserve" x="958" y="595">0..1</text>
</g>
</svg>
