<?xml version="1.0" encoding="UTF-8" standalone="no"?>
<!-- Created with Bouml (http://bouml.free.fr/) -->
<!DOCTYPE svg PUBLIC "-//W3C//DTD SVG 1.1//EN" "http://www.w3.org/Graphics/SVG/1.1/DTD/svg11.dtd">
<svg width="1824" height="1285" version="1.1" xmlns="http://www.w3.org/2000/svg">
<g>
	<polygon fill="#ffffff" stroke="black" stroke-opacity="1" points="52,492 79,492 79,502 69,512 52,512 52,492" />
	<rect fill="none" stroke="black" stroke-width="1" stroke-opacity="1" x="52" y="492" width="1760" height="781" />
	<text font-family="Helvetica" font-size="8" fill="#000000" xml:space="preserve" text-anchor="middle" x="932" y="531">IzdavanjeKnjigeSekvencijaakoNemaRezervaciju</text>
	<text font-family="Helvetica" font-size="8" fill="#000000" xml:space="preserve" text-anchor="middle" x="61" y="506">alt</text>
	<line stroke="black" stroke-opacity="1" x1="52" y1="512" x2="69" y2="512" />
	<line stroke="black" stroke-opacity="1" x1="69" y1="512" x2="79" y2="502" />
	<line stroke="black" stroke-opacity="1" x1="79" y1="502" x2="79" y2="492" />
</g>
<g>
	<ellipse fill="none" stroke="black" stroke-width="1" stroke-opacity="1" cx="76" cy="21" rx="3" ry="3" />
	<line stroke="black" stroke-opacity="1" x1="70" y1="26" x2="81" y2="26" />
	<line stroke="black" stroke-opacity="1" x1="76" y1="24" x2="76" y2="31" />
	<line stroke="black" stroke-opacity="1" x1="76" y1="31" x2="71" y2="37" />
	<line stroke="black" stroke-opacity="1" x1="76" y1="31" x2="81" y2="37" />
	<text font-family="Helvetica" font-size="8" fill="#000000" xml:space="preserve" text-anchor="middle" x="77" y="51">BibliotekarF:Bibliotekar</text>
</g>
<g>
	<rect fill="#cbcbcb" stroke="none" stroke-opacity="1" x="387" y="27" width="3" height="20" />
	<rect fill="#cbcbcb" stroke="none" stroke-opacity="1" x="201" y="44" width="189" height="3" />
	<rect fill="#e0ffff" stroke="black" stroke-width="1" stroke-opacity="1" x="197" y="23" width="190" height="21" />
	<text font-family="Helvetica" font-size="8" fill="#000000" xml:space="preserve" text-decoration="underline" text-anchor="middle" x="292" y="38">RezervacijaFormaF:RezervacijaForma</text>
</g>
<g>
	<rect fill="#cbcbcb" stroke="none" stroke-opacity="1" x="901" y="525" width="3" height="20" />
	<rect fill="#cbcbcb" stroke="none" stroke-opacity="1" x="831" y="542" width="73" height="3" />
	<rect fill="#e0ffff" stroke="black" stroke-width="1" stroke-opacity="1" x="827" y="521" width="74" height="21" />
	<text font-family="Helvetica" font-size="8" fill="#000000" xml:space="preserve" text-decoration="underline" text-anchor="middle" x="864" y="536">KnjigaF:Knjiga</text>
</g>
<g>
	<line stroke="black" stroke-dasharray="18,6"  stroke-opacity="1" x1="995" y1="743" x2="995" y2="1285" />
</g>
<g>
	<line stroke="black" stroke-dasharray="18,6"  stroke-opacity="1" x1="195" y1="561" x2="195" y2="1285" />
</g>
<g>
	<line stroke="black" stroke-dasharray="18,6"  stroke-opacity="1" x1="680" y1="561" x2="680" y2="1285" />
</g>
<g>
	<line stroke="black" stroke-dasharray="18,6"  stroke-opacity="1" x1="866" y1="562" x2="866" y2="1285" />
</g>
<g>
	<line stroke="black" stroke-dasharray="18,6"  stroke-opacity="1" x1="1193" y1="66" x2="1193" y2="1285" />
</g>
<g>
	<line stroke="black" stroke-dasharray="18,6"  stroke-opacity="1" x1="77" y1="59" x2="77" y2="1285" />
</g>
<g>
	<line stroke="black" stroke-dasharray="18,6"  stroke-opacity="1" x1="927" y1="64" x2="927" y2="1285" />
</g>
<g>
	<line stroke="black" stroke-dasharray="18,6"  stroke-opacity="1" x1="294" y1="64" x2="294" y2="1285" />
</g>
<g>
	<line stroke="black" stroke-dasharray="18,6"  stroke-opacity="1" x1="600" y1="210" x2="600" y2="1285" />
</g>
<g>
	<line stroke="black" stroke-dasharray="18,6"  stroke-opacity="1" x1="816" y1="284" x2="816" y2="1285" />
</g>
<g>
	<line stroke="black" stroke-dasharray="18,6"  stroke-opacity="1" x1="1112" y1="287" x2="1112" y2="1285" />
</g>
<g>
	<line stroke="black" stroke-dasharray="18,6"  stroke-opacity="1" x1="449" y1="684" x2="449" y2="1285" />
</g>
<g>
	<line stroke="black" stroke-dasharray="18,6"  stroke-opacity="1" x1="753" y1="744" x2="753" y2="1285" />
</g>
<g>
	<rect fill="none" stroke="black" stroke-width="1" stroke-opacity="1" x="289" y="97" width="10" height="28" />
</g>
<g>
	<rect fill="none" stroke="black" stroke-width="1" stroke-opacity="1" x="922" y="104" width="10" height="49" />
</g>
<g>
	<rect fill="none" stroke="black" stroke-width="1" stroke-opacity="1" x="1188" y="109" width="10" height="43" />
</g>
<g>
	<rect fill="none" stroke="black" stroke-width="1" stroke-opacity="1" x="72" y="97" width="10" height="26" />
</g>
<g>
	<rect fill="#cbcbcb" stroke="none" stroke-opacity="1" x="835" y="707" width="3" height="20" />
	<rect fill="#cbcbcb" stroke="none" stroke-opacity="1" x="671" y="724" width="167" height="3" />
	<rect fill="#e0ffff" stroke="black" stroke-width="1" stroke-opacity="1" x="667" y="703" width="168" height="21" />
	<text font-family="Helvetica" font-size="8" fill="#000000" xml:space="preserve" text-decoration="underline" text-anchor="middle" x="751" y="718">IzdavanjeFormaF:IzdavanjeForma</text>
</g>
<g>
	<rect fill="#cbcbcb" stroke="none" stroke-opacity="1" x="542" y="647" width="3" height="20" />
	<rect fill="#cbcbcb" stroke="none" stroke-opacity="1" x="356" y="664" width="189" height="3" />
	<rect fill="#e0ffff" stroke="black" stroke-width="1" stroke-opacity="1" x="352" y="643" width="190" height="21" />
	<text font-family="Helvetica" font-size="8" fill="#000000" xml:space="preserve" text-decoration="underline" text-anchor="middle" x="447" y="658">DetaljiKnjigeFormaF:DetaljiKnjigeForma</text>
</g>
<g>
	<rect fill="#cbcbcb" stroke="none" stroke-opacity="1" x="259" y="524" width="3" height="20" />
	<rect fill="#cbcbcb" stroke="none" stroke-opacity="1" x="129" y="541" width="133" height="3" />
	<rect fill="#e0ffff" stroke="black" stroke-width="1" stroke-opacity="1" x="125" y="520" width="134" height="21" />
	<text font-family="Helvetica" font-size="8" fill="#000000" xml:space="preserve" text-decoration="underline" text-anchor="middle" x="192" y="535">KnjigaFormaF:KnjigaForma</text>
</g>
<g>
	<rect fill="#cbcbcb" stroke="none" stroke-opacity="1" x="1356" y="813" width="3" height="20" />
	<rect fill="#cbcbcb" stroke="none" stroke-opacity="1" x="1154" y="830" width="205" height="3" />
	<rect fill="#e0ffff" stroke="black" stroke-width="1" stroke-opacity="1" x="1150" y="809" width="206" height="21" />
	<text font-family="Helvetica" font-size="8" fill="#000000" xml:space="preserve" text-decoration="underline" text-anchor="middle" x="1253" y="824">PretragaClanaFormaF:PretragaClanForma</text>
</g>
<g>
	<rect fill="#cbcbcb" stroke="none" stroke-opacity="1" x="759" y="524" width="3" height="20" />
	<rect fill="#cbcbcb" stroke="none" stroke-opacity="1" x="601" y="541" width="161" height="3" />
	<rect fill="#e0ffff" stroke="black" stroke-width="1" stroke-opacity="1" x="597" y="520" width="162" height="21" />
	<text font-family="Helvetica" font-size="8" fill="#000000" xml:space="preserve" text-decoration="underline" text-anchor="middle" x="678" y="535">KnjigaKontrolerF:KnjigaKontroler</text>
</g>
<g>
	<rect fill="#cbcbcb" stroke="none" stroke-opacity="1" x="1256" y="29" width="3" height="20" />
	<rect fill="#cbcbcb" stroke="none" stroke-opacity="1" x="1130" y="46" width="129" height="3" />
	<rect fill="#e0ffff" stroke="black" stroke-width="1" stroke-opacity="1" x="1126" y="25" width="130" height="21" />
	<text font-family="Helvetica" font-size="8" fill="#000000" xml:space="preserve" text-decoration="underline" text-anchor="middle" x="1191" y="40">RezervacijaF:Rezervacija</text>
</g>
<g>
	<rect fill="#cbcbcb" stroke="none" stroke-opacity="1" x="1034" y="27" width="3" height="20" />
	<rect fill="#cbcbcb" stroke="none" stroke-opacity="1" x="820" y="44" width="217" height="3" />
	<rect fill="#e0ffff" stroke="black" stroke-width="1" stroke-opacity="1" x="816" y="23" width="218" height="21" />
	<text font-family="Helvetica" font-size="8" fill="#000000" xml:space="preserve" text-decoration="underline" text-anchor="middle" x="925" y="38">RezervacijaKontrolerF:RezervacijaKontroler</text>
</g>
<g>
	<rect fill="none" stroke="black" stroke-width="1" stroke-opacity="1" x="748" y="810" width="10" height="24" />
</g>
<g>
	<rect fill="none" stroke="black" stroke-width="1" stroke-opacity="1" x="748" y="748" width="10" height="28" />
</g>
<g>
	<rect fill="none" stroke="black" stroke-width="1" stroke-opacity="1" x="595" y="224" width="10" height="36" />
</g>
<g>
	<rect fill="none" stroke="black" stroke-width="1" stroke-opacity="1" x="72" y="742" width="10" height="30" />
</g>
<g>
	<rect fill="none" stroke="black" stroke-width="1" stroke-opacity="1" x="289" y="141" width="10" height="28" />
</g>
<g>
	<rect fill="none" stroke="black" stroke-width="1" stroke-opacity="1" x="289" y="230" width="10" height="29" />
</g>
<g>
	<rect fill="none" stroke="black" stroke-width="1" stroke-opacity="1" x="811" y="309" width="10" height="43" />
</g>
<g>
	<rect fill="none" stroke="black" stroke-width="1" stroke-opacity="1" x="1107" y="302" width="10" height="48" />
</g>
<g>
	<rect fill="none" stroke="black" stroke-width="1" stroke-opacity="1" x="595" y="375" width="10" height="40" />
</g>
<g>
	<rect fill="none" stroke="black" stroke-width="1" stroke-opacity="1" x="811" y="375" width="10" height="40" />
</g>
<g>
	<rect fill="none" stroke="black" stroke-width="1" stroke-opacity="1" x="595" y="435" width="10" height="27" />
</g>
<g>
	<rect fill="none" stroke="black" stroke-width="1" stroke-opacity="1" x="861" y="593" width="10" height="31" />
</g>
<g>
	<rect fill="none" stroke="black" stroke-width="1" stroke-opacity="1" x="444" y="740" width="10" height="29" />
</g>
<g>
	<rect fill="none" stroke="black" stroke-width="1" stroke-opacity="1" x="675" y="592" width="10" height="45" />
</g>
<g>
	<rect fill="none" stroke="black" stroke-width="1" stroke-opacity="1" x="72" y="586" width="10" height="26" />
</g>
<g>
	<rect fill="none" stroke="black" stroke-width="1" stroke-opacity="1" x="72" y="684" width="10" height="29" />
</g>
<g>
	<rect fill="none" stroke="black" stroke-width="1" stroke-opacity="1" x="190" y="587" width="10" height="50" />
</g>
<g>
	<rect fill="none" stroke="black" stroke-width="1" stroke-opacity="1" x="190" y="684" width="10" height="26" />
</g>
<g>
	<rect fill="none" stroke="black" stroke-width="1" stroke-opacity="1" x="595" y="338" width="10" height="28" />
</g>
<g>
	<rect fill="none" stroke="black" stroke-width="1" stroke-opacity="1" x="444" y="695" width="10" height="26" />
</g>
<g>
	<rect fill="none" stroke="black" stroke-width="1" stroke-opacity="1" x="72" y="296" width="10" height="29" />
</g>
<g>
	<rect fill="none" stroke="black" stroke-width="1" stroke-opacity="1" x="72" y="224" width="10" height="33" />
</g>
<g>
	<rect fill="none" stroke="black" stroke-width="1" stroke-opacity="1" x="595" y="296" width="10" height="26" />
</g>
<g>
	<rect fill="none" stroke="black" stroke-width="1" stroke-opacity="1" x="289" y="431" width="10" height="28" />
</g>
<g>
	<rect fill="none" stroke="black" stroke-width="1" stroke-opacity="1" x="990" y="803" width="10" height="28" />
</g>
<g>
	<rect fill="none" stroke="black" stroke-width="1" stroke-opacity="1" x="990" y="760" width="10" height="30" />
</g>
<g>
	<rect fill="none" stroke="black" stroke-width="1" stroke-opacity="1" x="1107" y="803" width="10" height="26" />
</g>
<g>
	<rect fill="none" stroke="black" stroke-width="1" stroke-opacity="1" x="1107" y="761" width="10" height="26" />
</g>
<g>
	<line stroke="black" stroke-opacity="1" stroke-dasharray="4,4" x1="759" y1="820" x2="990" y2="820" />
	<path fill="none" stroke="black" stroke-opacity="1" d="M 763 816 L 759 820 L 763 824" />
</g>
<g>
	<line stroke="black" stroke-opacity="1" x1="83" y1="749" x2="444" y2="749" />
	<polygon fill="#000000" stroke="none" points="444,749 440,745 440,753" />
</g>
<g>
	<line stroke="black" stroke-opacity="1" x1="83" y1="592" x2="190" y2="592" />
	<polygon fill="#000000" stroke="none" points="190,592 186,588 186,596" />
</g>
<g>
	<line stroke="black" stroke-opacity="1" x1="201" y1="701" x2="444" y2="701" />
	<polygon fill="#000000" stroke="none" points="444,701 440,697 440,705" />
</g>
<g>
	<line stroke="black" stroke-opacity="1" x1="1001" y1="768" x2="1107" y2="768" />
	<polygon fill="#000000" stroke="none" points="1107,768 1103,764 1103,772" />
</g>
<g>
	<line stroke="black" stroke-opacity="1" x1="83" y1="691" x2="190" y2="691" />
	<polygon fill="#000000" stroke="none" points="190,691 186,687 186,695" />
</g>
<g>
	<line stroke="black" stroke-opacity="1" x1="455" y1="755" x2="748" y2="755" />
	<polygon fill="#000000" stroke="none" points="748,755 744,751 744,759" />
</g>
<g>
	<line stroke="black" stroke-opacity="1" x1="201" y1="598" x2="675" y2="598" />
	<polygon fill="#000000" stroke="none" points="675,598 671,594 671,602" />
</g>
<g>
	<rect fill="#cbcbcb" stroke="none" stroke-opacity="1" x="1091" y="706" width="3" height="20" />
	<rect fill="#cbcbcb" stroke="none" stroke-opacity="1" x="899" y="723" width="195" height="3" />
	<rect fill="#e0ffff" stroke="black" stroke-width="1" stroke-opacity="1" x="895" y="702" width="196" height="21" />
	<text font-family="Helvetica" font-size="8" fill="#000000" xml:space="preserve" text-decoration="underline" text-anchor="middle" x="993" y="717">IzdavanjeKontrolerF:IzdavanjeKontroler</text>
</g>
<g>
	<polygon fill="#ffffff" stroke="black" stroke-opacity="1" points="53,81 80,81 80,91 70,101 53,101 53,81" />
	<rect fill="none" stroke="black" stroke-width="1" stroke-opacity="1" x="53" y="81" width="1178" height="396" />
	<text font-family="Helvetica" font-size="8" fill="#000000" xml:space="preserve" text-anchor="middle" x="642" y="120">IzdavanjeKnjigeSekvencijaakoClanImaRezervaciju</text>
	<text font-family="Helvetica" font-size="8" fill="#000000" xml:space="preserve" text-anchor="middle" x="62" y="95">alt</text>
	<line stroke="black" stroke-opacity="1" x1="53" y1="101" x2="70" y2="101" />
	<line stroke="black" stroke-opacity="1" x1="70" y1="101" x2="80" y2="91" />
	<line stroke="black" stroke-opacity="1" x1="80" y1="91" x2="80" y2="81" />
</g>
<g>
	<line stroke="black" stroke-opacity="1" x1="606" y1="381" x2="811" y2="381" />
	<polygon fill="#000000" stroke="none" points="811,381 807,377 807,385" />
</g>
<g>
	<line stroke="black" stroke-opacity="1" stroke-dasharray="4,4" x1="300" y1="453" x2="595" y2="453" />
	<path fill="none" stroke="black" stroke-opacity="1" d="M 304 449 L 300 453 L 304 457" />
</g>
<g>
	<line stroke="black" stroke-opacity="1" stroke-dasharray="4,4" x1="606" y1="345" x2="811" y2="345" />
	<path fill="none" stroke="black" stroke-opacity="1" d="M 610 341 L 606 345 L 610 349" />
</g>
<g>
	<line stroke="black" stroke-opacity="1" stroke-dasharray="4,4" x1="606" y1="409" x2="811" y2="409" />
	<path fill="none" stroke="black" stroke-opacity="1" d="M 610 405 L 606 409 L 610 413" />
</g>
<g>
	<line stroke="black" stroke-opacity="1" x1="686" y1="600" x2="861" y2="600" />
	<polygon fill="#000000" stroke="none" points="861,600 857,596 857,604" />
</g>
<g>
	<line stroke="black" stroke-opacity="1" stroke-dasharray="4,4" x1="300" y1="147" x2="922" y2="147" />
	<path fill="none" stroke="black" stroke-opacity="1" d="M 304 143 L 300 147 L 304 151" />
</g>
<g>
	<line stroke="black" stroke-opacity="1" x1="83" y1="302" x2="595" y2="302" />
	<polygon fill="#000000" stroke="none" points="595,302 591,298 591,306" />
</g>
<g>
	<line stroke="black" stroke-opacity="1" x1="822" y1="315" x2="1107" y2="315" />
	<polygon fill="#000000" stroke="none" points="1107,315 1103,311 1103,319" />
</g>
<g>
	<line stroke="black" stroke-opacity="1" x1="300" y1="111" x2="922" y2="111" />
	<polygon fill="#000000" stroke="none" points="922,111 918,107 918,115" />
</g>
<g>
	<line stroke="black" stroke-opacity="1" stroke-dasharray="4,4" x1="822" y1="344" x2="1107" y2="344" />
	<path fill="none" stroke="black" stroke-opacity="1" d="M 826 340 L 822 344 L 826 348" />
</g>
<g>
	<line stroke="black" stroke-opacity="1" stroke-dasharray="4,4" x1="933" y1="145" x2="1188" y2="145" />
	<path fill="none" stroke="black" stroke-opacity="1" d="M 937 141 L 933 145 L 937 149" />
</g>
<g>
	<line stroke="black" stroke-opacity="1" x1="83" y1="253" x2="289" y2="253" />
	<polygon fill="#000000" stroke="none" points="289,253 285,249 285,257" />
</g>
<g>
	<line stroke="black" stroke-opacity="1" x1="83" y1="104" x2="289" y2="104" />
	<polygon fill="#000000" stroke="none" points="289,104 285,100 285,108" />
</g>
<g>
	<line stroke="black" stroke-opacity="1" x1="933" y1="115" x2="1188" y2="115" />
	<polygon fill="#000000" stroke="none" points="1188,115 1184,111 1184,119" />
</g>
<g>
	<line stroke="black" stroke-opacity="1" x1="300" y1="254" x2="595" y2="254" />
	<polygon fill="#000000" stroke="none" points="595,254 591,250 591,258" />
</g>
<g>
	<rect fill="#cbcbcb" stroke="none" stroke-opacity="1" x="969" y="247" width="3" height="20" />
	<rect fill="#cbcbcb" stroke="none" stroke-opacity="1" x="663" y="264" width="309" height="3" />
	<rect fill="#e0ffff" stroke="black" stroke-width="1" stroke-opacity="1" x="659" y="243" width="310" height="21" />
	<text font-family="Helvetica" font-size="8" fill="#000000" xml:space="preserve" text-decoration="underline" text-anchor="middle" x="814" y="258">IzdavanjeRezervacijeKontrolerF:IzdavanjeRezervacijeKontroler</text>
</g>
<g>
	<rect fill="#cbcbcb" stroke="none" stroke-opacity="1" x="1164" y="250" width="3" height="20" />
	<rect fill="#cbcbcb" stroke="none" stroke-opacity="1" x="1060" y="267" width="107" height="3" />
	<rect fill="#e0ffff" stroke="black" stroke-width="1" stroke-opacity="1" x="1056" y="246" width="108" height="21" />
	<text font-family="Helvetica" font-size="8" fill="#000000" xml:space="preserve" text-decoration="underline" text-anchor="middle" x="1110" y="261">IzdavanjeF:Izdavanje</text>
</g>
<g>
	<rect fill="#cbcbcb" stroke="none" stroke-opacity="1" x="739" y="173" width="3" height="20" />
	<rect fill="#cbcbcb" stroke="none" stroke-opacity="1" x="461" y="190" width="281" height="3" />
	<rect fill="#e0ffff" stroke="black" stroke-width="1" stroke-opacity="1" x="457" y="169" width="282" height="21" />
	<text font-family="Helvetica" font-size="8" fill="#000000" xml:space="preserve" text-decoration="underline" text-anchor="middle" x="598" y="184">IzdavanjeRezervacijeFormaF:IzdavanjeRezervacijeForma</text>
</g>
<g>
	<line stroke="black" stroke-opacity="1" stroke-dasharray="4,4" x1="1001" y1="808" x2="1107" y2="808" />
	<path fill="none" stroke="black" stroke-opacity="1" d="M 1005 804 L 1001 808 L 1005 812" />
</g>
<g>
	<line stroke="black" stroke-opacity="1" stroke-dasharray="4,4" x1="686" y1="619" x2="861" y2="619" />
	<path fill="none" stroke="black" stroke-opacity="1" d="M 690 615 L 686 619 L 690 623" />
</g>
<g>
	<line stroke="black" stroke-opacity="1" stroke-dasharray="4,4" x1="201" y1="630" x2="675" y2="630" />
	<path fill="none" stroke="black" stroke-opacity="1" d="M 205 626 L 201 630 L 205 634" />
</g>
<g>
	<text font-family="Helvetica" font-size="8" fill="#000000" xml:space="preserve" x="1053" y="134">void</text>
</g>
<g>
	<text font-family="Helvetica" font-size="8" fill="#000000" xml:space="preserve" x="568" y="100">pretraziRezervaciju()</text>
</g>
<g>
	<text font-family="Helvetica" font-size="8" fill="#000000" xml:space="preserve" x="175" y="93">pretrazi()</text>
</g>
<g>
	<text font-family="Helvetica" font-size="8" fill="#000000" xml:space="preserve" x="1043" y="104">create()</text>
</g>
<g>
	<text font-family="Helvetica" font-size="8" fill="#000000" xml:space="preserve" x="597" y="136">rezervacija</text>
</g>
<g>
	<text font-family="Helvetica" font-size="8" fill="#000000" xml:space="preserve" x="145" y="242">prikaziRezervaciju()</text>
</g>
<g>
	<text font-family="Helvetica" font-size="8" fill="#000000" xml:space="preserve" x="457" y="442">void</text>
</g>
<g>
	<text font-family="Helvetica" font-size="8" fill="#000000" xml:space="preserve" x="314" y="690">create()</text>
</g>
<g>
	<text font-family="Helvetica" font-size="8" fill="#000000" xml:space="preserve" x="306" y="290">sacuvajIzdavanje()</text>
</g>
<g>
	<text font-family="Helvetica" font-size="8" fill="#000000" xml:space="preserve" x="956" y="304">create()</text>
</g>
<g>
	<text font-family="Helvetica" font-size="8" fill="#000000" xml:space="preserve" x="967" y="333">void</text>
</g>
<g>
	<text font-family="Helvetica" font-size="8" fill="#000000" xml:space="preserve" x="247" y="738">izdavanje()</text>
</g>
<g>
	<text font-family="Helvetica" font-size="8" fill="#000000" xml:space="preserve" x="762" y="589">create()</text>
</g>
<g>
	<text font-family="Helvetica" font-size="8" fill="#000000" xml:space="preserve" x="408" y="587">pronadjiKnjigu()</text>
</g>
<g>
	<text font-family="Helvetica" font-size="8" fill="#000000" xml:space="preserve" x="601" y="744">create()</text>
</g>
<g>
	<text font-family="Helvetica" font-size="8" fill="#000000" xml:space="preserve" x="709" y="334">izdavanje</text>
</g>
<g>
	<text font-family="Helvetica" font-size="8" fill="#000000" xml:space="preserve" x="123" y="581">pretrazi()</text>
</g>
<g>
	<text font-family="Helvetica" font-size="8" fill="#000000" xml:space="preserve" x="445" y="243">create()</text>
</g>
<g>
	<text font-family="Helvetica" font-size="8" fill="#000000" xml:space="preserve" x="682" y="370">sacuvajIzdavanje()</text>
</g>
<g>
	<text font-family="Helvetica" font-size="8" fill="#000000" xml:space="preserve" x="774" y="608">void</text>
</g>
<g>
	<text font-family="Helvetica" font-size="8" fill="#000000" xml:space="preserve" x="436" y="619">knjiga</text>
</g>
<g>
	<text font-family="Helvetica" font-size="8" fill="#000000" xml:space="preserve" x="709" y="398">true/false</text>
</g>
<g>
	<text font-family="Helvetica" font-size="8" fill="#000000" xml:space="preserve" x="126" y="680">prikazi()</text>
</g>
<g>
	<text font-family="Helvetica" font-size="8" fill="#000000" xml:space="preserve" x="865" y="809">izdavanje</text>
</g>
<g>
	<text font-family="Helvetica" font-size="8" fill="#000000" xml:space="preserve" x="1043" y="757">create()</text>
</g>
<g>
	<text font-family="Helvetica" font-size="8" fill="#000000" xml:space="preserve" x="1056" y="797">void</text>
</g>
</svg>
