<?xml version="1.0" encoding="UTF-8" standalone="no"?>
<!-- Created with Bouml (http://bouml.free.fr/) -->
<!DOCTYPE svg PUBLIC "-//W3C//DTD SVG 1.1//EN" "http://www.w3.org/Graphics/SVG/1.1/DTD/svg11.dtd">
<svg width="1084" height="1910" version="1.1" xmlns="http://www.w3.org/2000/svg">
<g>
	<line stroke="black" stroke-dasharray="18,6"  stroke-opacity="1" x1="779" y1="67" x2="779" y2="1910" />
</g>
<g>
	<polygon fill="#ffffff" stroke="black" stroke-opacity="1" points="64,381 91,381 91,391 81,401 64,401 64,381" />
	<rect fill="none" stroke="black" stroke-width="1" stroke-opacity="1" x="64" y="381" width="1005" height="411" />
	<text font-family="Helvetica" font-size="8" fill="#000000" xml:space="preserve" text-anchor="middle" x="567" y="420">dodavanjeKnjigeSekvencijakadaAutorNePostoji</text>
	<text font-family="Helvetica" font-size="8" fill="#000000" xml:space="preserve" text-anchor="middle" x="73" y="395">alt</text>
	<line stroke="black" stroke-opacity="1" x1="64" y1="401" x2="81" y2="401" />
	<line stroke="black" stroke-opacity="1" x1="81" y1="401" x2="91" y2="391" />
	<line stroke="black" stroke-opacity="1" x1="91" y1="391" x2="91" y2="381" />
</g>
<g>
	<ellipse fill="none" stroke="black" stroke-width="1" stroke-opacity="1" cx="75" cy="26" rx="3" ry="3" />
	<line stroke="black" stroke-opacity="1" x1="69" y1="31" x2="80" y2="31" />
	<line stroke="black" stroke-opacity="1" x1="75" y1="29" x2="75" y2="36" />
	<line stroke="black" stroke-opacity="1" x1="75" y1="36" x2="70" y2="42" />
	<line stroke="black" stroke-opacity="1" x1="75" y1="36" x2="80" y2="42" />
	<text font-family="Helvetica" font-size="8" fill="#000000" xml:space="preserve" text-anchor="middle" x="76" y="56">BibliotekarF:Bibliotekar</text>
</g>
<g>
	<line stroke="black" stroke-dasharray="18,6"  stroke-opacity="1" x1="76" y1="64" x2="76" y2="1910" />
</g>
<g>
	<line stroke="black" stroke-dasharray="18,6"  stroke-opacity="1" x1="1035" y1="270" x2="1035" y2="1910" />
</g>
<g>
	<line stroke="black" stroke-dasharray="18,6"  stroke-opacity="1" x1="861" y1="267" x2="861" y2="1910" />
</g>
<g>
	<line stroke="black" stroke-dasharray="18,6"  stroke-opacity="1" x1="705" y1="487" x2="705" y2="1910" />
</g>
<g>
	<line stroke="black" stroke-dasharray="18,6"  stroke-opacity="1" x1="297" y1="64" x2="297" y2="1910" />
</g>
<g>
	<line stroke="black" stroke-dasharray="18,6"  stroke-opacity="1" x1="557" y1="68" x2="557" y2="1910" />
</g>
<g>
	<rect fill="none" stroke="black" stroke-width="1" stroke-opacity="1" x="71" y="182" width="10" height="36" />
</g>
<g>
	<rect fill="none" stroke="black" stroke-width="1" stroke-opacity="1" x="71" y="289" width="10" height="36" />
</g>
<g>
	<rect fill="none" stroke="black" stroke-width="1" stroke-opacity="1" x="1030" y="295" width="10" height="36" />
</g>
<g>
	<rect fill="none" stroke="black" stroke-width="1" stroke-opacity="1" x="552" y="289" width="10" height="36" />
</g>
<g>
	<rect fill="none" stroke="black" stroke-width="1" stroke-opacity="1" x="856" y="289" width="10" height="42" />
</g>
<g>
	<rect fill="none" stroke="black" stroke-width="1" stroke-opacity="1" x="1030" y="339" width="10" height="36" />
</g>
<g>
	<rect fill="none" stroke="black" stroke-width="1" stroke-opacity="1" x="292" y="184" width="10" height="46" />
</g>
<g>
	<rect fill="none" stroke="black" stroke-width="1" stroke-opacity="1" x="552" y="192" width="10" height="36" />
</g>
<g>
	<rect fill="none" stroke="black" stroke-width="1" stroke-opacity="1" x="856" y="395" width="10" height="36" />
</g>
<g>
	<rect fill="none" stroke="black" stroke-width="1" stroke-opacity="1" x="71" y="492" width="10" height="56" />
</g>
<g>
	<rect fill="none" stroke="black" stroke-width="1" stroke-opacity="1" x="552" y="492" width="10" height="49" />
</g>
<g>
	<rect fill="none" stroke="black" stroke-width="1" stroke-opacity="1" x="856" y="339" width="10" height="36" />
</g>
<g>
	<rect fill="none" stroke="black" stroke-width="1" stroke-opacity="1" x="700" y="507" width="10" height="52" />
</g>
<g>
	<rect fill="none" stroke="black" stroke-width="1" stroke-opacity="1" x="552" y="395" width="10" height="36" />
</g>
<g>
	<rect fill="none" stroke="black" stroke-width="1" stroke-opacity="1" x="1030" y="522" width="10" height="36" />
</g>
<g>
	<rect fill="none" stroke="black" stroke-width="1" stroke-opacity="1" x="700" y="629" width="10" height="42" />
</g>
<g>
	<rect fill="none" stroke="black" stroke-width="1" stroke-opacity="1" x="71" y="629" width="10" height="36" />
</g>
<g>
	<rect fill="none" stroke="black" stroke-width="1" stroke-opacity="1" x="1030" y="568" width="10" height="39" />
</g>
<g>
	<rect fill="none" stroke="black" stroke-width="1" stroke-opacity="1" x="856" y="635" width="10" height="36" />
</g>
<g>
	<rect fill="none" stroke="black" stroke-width="1" stroke-opacity="1" x="856" y="674" width="10" height="52" />
</g>
<g>
	<rect fill="none" stroke="black" stroke-width="1" stroke-opacity="1" x="700" y="565" width="10" height="36" />
</g>
<g>
	<rect fill="none" stroke="black" stroke-width="1" stroke-opacity="1" x="700" y="675" width="10" height="36" />
</g>
<g>
	<rect fill="none" stroke="black" stroke-width="1" stroke-opacity="1" x="700" y="735" width="10" height="36" />
</g>
<g>
	<rect fill="none" stroke="black" stroke-width="1" stroke-opacity="1" x="552" y="736" width="10" height="42" />
</g>
<g>
	<rect fill="none" stroke="black" stroke-width="1" stroke-opacity="1" x="774" y="72" width="10" height="36" />
</g>
<g>
	<rect fill="none" stroke="black" stroke-width="1" stroke-opacity="1" x="774" y="128" width="10" height="42" />
</g>
<g>
	<rect fill="#cbcbcb" stroke="none" stroke-opacity="1" x="413" y="27" width="3" height="20" />
	<rect fill="#cbcbcb" stroke="none" stroke-opacity="1" x="181" y="44" width="235" height="3" />
	<rect fill="#e0ffff" stroke="black" stroke-width="1" stroke-opacity="1" x="177" y="23" width="236" height="21" />
	<text font-family="Helvetica" font-size="8" fill="#000000" xml:space="preserve" text-decoration="underline" text-anchor="middle" x="295" y="38">DodavanjeKnjigeFormaF:DodavanjeKnjigaForma</text>
</g>
<g>
	<line stroke="black" stroke-opacity="1" stroke-dasharray="4,4" x1="867" y1="356" x2="1030" y2="356" />
	<path fill="none" stroke="black" stroke-opacity="1" d="M 871 352 L 867 356 L 871 360" />
</g>
<g>
	<line stroke="black" stroke-opacity="1" x1="82" y1="201" x2="292" y2="201" />
	<polygon fill="#000000" stroke="none" points="292,201 288,197 288,205" />
</g>
<g>
	<line stroke="black" stroke-opacity="1" x1="303" y1="210" x2="552" y2="210" />
	<polygon fill="#000000" stroke="none" points="552,210 548,206 548,214" />
</g>
<g>
	<line stroke="black" stroke-opacity="1" x1="82" y1="308" x2="552" y2="308" />
	<polygon fill="#000000" stroke="none" points="552,308 548,304 548,312" />
</g>
<g>
	<line stroke="black" stroke-opacity="1" x1="82" y1="648" x2="700" y2="648" />
	<polygon fill="#000000" stroke="none" points="700,648 696,644 696,652" />
</g>
<g>
	<line stroke="black" stroke-opacity="1" stroke-dasharray="4,4" x1="711" y1="584" x2="1030" y2="584" />
	<path fill="none" stroke="black" stroke-opacity="1" d="M 715 580 L 711 584 L 715 588" />
</g>
<g>
	<line stroke="black" stroke-opacity="1" x1="82" y1="510" x2="552" y2="510" />
	<polygon fill="#000000" stroke="none" points="552,510 548,506 548,514" />
</g>
<g>
	<line stroke="black" stroke-opacity="1" stroke-dasharray="4,4" x1="563" y1="752" x2="700" y2="752" />
	<path fill="none" stroke="black" stroke-opacity="1" d="M 567 748 L 563 752 L 567 756" />
</g>
<g>
	<line stroke="black" stroke-opacity="1" x1="711" y1="541" x2="1030" y2="541" />
	<polygon fill="#000000" stroke="none" points="1030,541 1026,537 1026,545" />
</g>
<g>
	<line stroke="black" stroke-opacity="1" stroke-dasharray="4,4" x1="563" y1="412" x2="856" y2="412" />
	<path fill="none" stroke="black" stroke-opacity="1" d="M 567 408 L 563 412 L 567 416" />
</g>
<g>
	<line stroke="black" stroke-opacity="1" stroke-dasharray="4,4" x1="711" y1="695" x2="856" y2="695" />
	<path fill="none" stroke="black" stroke-opacity="1" d="M 715 691 L 711 695 L 715 699" />
</g>
<g>
	<line stroke="black" stroke-opacity="1" x1="711" y1="652" x2="856" y2="652" />
	<polygon fill="#000000" stroke="none" points="856,652 852,648 852,656" />
</g>
<g>
	<rect fill="none" stroke="black" stroke-width="1" stroke-opacity="1" x="856" y="822" width="10" height="36" />
</g>
<g>
	<rect fill="none" stroke="black" stroke-width="1" stroke-opacity="1" x="552" y="820" width="10" height="39" />
</g>
<g>
	<rect fill="none" stroke="black" stroke-width="1" stroke-opacity="1" x="292" y="72" width="10" height="36" />
</g>
<g>
	<rect fill="none" stroke="black" stroke-width="1" stroke-opacity="1" x="292" y="123" width="10" height="39" />
</g>
<g>
	<line stroke="black" stroke-opacity="1" x1="563" y1="308" x2="856" y2="308" />
	<polygon fill="#000000" stroke="none" points="856,308 852,304 852,312" />
</g>
<g>
	<line stroke="black" stroke-opacity="1" stroke-dasharray="4,4" x1="303" y1="144" x2="774" y2="144" />
	<path fill="none" stroke="black" stroke-opacity="1" d="M 307 140 L 303 144 L 307 148" />
</g>
<g>
	<line stroke="black" stroke-opacity="1" x1="303" y1="89" x2="774" y2="89" />
	<polygon fill="#000000" stroke="none" points="774,89 770,85 770,93" />
</g>
<g>
	<line stroke="black" stroke-opacity="1" x1="563" y1="522" x2="700" y2="522" />
	<polygon fill="#000000" stroke="none" points="700,522 696,518 696,526" />
</g>
<g>
	<rect fill="#cbcbcb" stroke="none" stroke-opacity="1" x="814" y="30" width="3" height="20" />
	<rect fill="#cbcbcb" stroke="none" stroke-opacity="1" x="744" y="47" width="73" height="3" />
	<rect fill="#e0ffff" stroke="black" stroke-width="1" stroke-opacity="1" x="740" y="26" width="74" height="21" />
	<text font-family="Helvetica" font-size="8" fill="#000000" xml:space="preserve" text-decoration="underline" text-anchor="middle" x="777" y="41">KnjigaF:Knjiga</text>
</g>
<g>
	<rect fill="#cbcbcb" stroke="none" stroke-opacity="1" x="1068" y="233" width="3" height="20" />
	<rect fill="#cbcbcb" stroke="none" stroke-opacity="1" x="1002" y="250" width="69" height="3" />
	<rect fill="#e0ffff" stroke="black" stroke-width="1" stroke-opacity="1" x="998" y="229" width="70" height="21" />
	<text font-family="Helvetica" font-size="8" fill="#000000" xml:space="preserve" text-decoration="underline" text-anchor="middle" x="1033" y="244">AutorF:Autor</text>
</g>
<g>
	<rect fill="#cbcbcb" stroke="none" stroke-opacity="1" x="620" y="31" width="3" height="20" />
	<rect fill="#cbcbcb" stroke="none" stroke-opacity="1" x="494" y="48" width="129" height="3" />
	<rect fill="#e0ffff" stroke="black" stroke-width="1" stroke-opacity="1" x="490" y="27" width="130" height="21" />
	<text font-family="Helvetica" font-size="8" fill="#000000" xml:space="preserve" text-decoration="underline" text-anchor="middle" x="555" y="42">AutorFormaF:AutorForma</text>
</g>
<g>
	<line stroke="black" stroke-opacity="1" x1="867" y1="315" x2="1030" y2="315" />
	<polygon fill="#000000" stroke="none" points="1030,315 1026,311 1026,319" />
</g>
<g>
	<rect fill="#cbcbcb" stroke="none" stroke-opacity="1" x="938" y="230" width="3" height="20" />
	<rect fill="#cbcbcb" stroke="none" stroke-opacity="1" x="784" y="247" width="157" height="3" />
	<rect fill="#e0ffff" stroke="black" stroke-width="1" stroke-opacity="1" x="780" y="226" width="158" height="21" />
	<text font-family="Helvetica" font-size="8" fill="#000000" xml:space="preserve" text-decoration="underline" text-anchor="middle" x="859" y="241">AutorKontrolerF:AutorKontroler</text>
</g>
<g>
	<rect fill="#cbcbcb" stroke="none" stroke-opacity="1" x="789" y="450" width="3" height="20" />
	<rect fill="#cbcbcb" stroke="none" stroke-opacity="1" x="621" y="467" width="171" height="3" />
	<rect fill="#e0ffff" stroke="black" stroke-width="1" stroke-opacity="1" x="617" y="446" width="172" height="21" />
	<text font-family="Helvetica" font-size="8" fill="#000000" xml:space="preserve" text-decoration="underline" text-anchor="middle" x="703" y="461">NoviAutorFormaF:NoviAutorForma</text>
</g>
<g>
	<text font-family="Helvetica" font-size="8" fill="#000000" xml:space="preserve" x="433" y="132">void</text>
</g>
<g>
	<text font-family="Helvetica" font-size="8" fill="#000000" xml:space="preserve" x="709" y="827">autor</text>
</g>
<g>
	<text font-family="Helvetica" font-size="8" fill="#000000" xml:space="preserve" x="663" y="76">create()</text>
</g>
<g>
	<text font-family="Helvetica" font-size="8" fill="#000000" xml:space="preserve" x="930" y="521">create()</text>
</g>
<g>
	<text font-family="Helvetica" font-size="8" fill="#000000" xml:space="preserve" x="771" y="682">true/false</text>
</g>
<g>
	<text font-family="Helvetica" font-size="8" fill="#000000" xml:space="preserve" x="167" y="188">dodajAutora()</text>
</g>
<g>
	<text font-family="Helvetica" font-size="8" fill="#000000" xml:space="preserve" x="285" y="296">pretraziAutora()</text>
</g>
<g>
	<text font-family="Helvetica" font-size="8" fill="#000000" xml:space="preserve" x="949" y="343">void</text>
</g>
<g>
	<text font-family="Helvetica" font-size="8" fill="#000000" xml:space="preserve" x="361" y="636">sacuvajAutora()</text>
</g>
<g>
	<text font-family="Helvetica" font-size="8" fill="#000000" xml:space="preserve" x="423" y="197">create()</text>
</g>
<g>
	<text font-family="Helvetica" font-size="8" fill="#000000" xml:space="preserve" x="291" y="497">dodajAutora()</text>
</g>
<g>
	<text font-family="Helvetica" font-size="8" fill="#000000" xml:space="preserve" x="772" y="639">sacuvaj()</text>
</g>
<g>
	<text font-family="Helvetica" font-size="8" fill="#000000" xml:space="preserve" x="633" y="739">autor</text>
</g>
<g>
	<text font-family="Helvetica" font-size="8" fill="#000000" xml:space="preserve" x="713" y="396">null</text>
</g>
<g>
	<text font-family="Helvetica" font-size="8" fill="#000000" xml:space="preserve" x="785" y="567">void</text>
</g>
<g>
	<text font-family="Helvetica" font-size="8" fill="#000000" xml:space="preserve" x="683" y="292">pronadjiAutora()</text>
</g>
<g>
	<text font-family="Helvetica" font-size="8" fill="#000000" xml:space="preserve" x="631" y="508">create()</text>
</g>
<g>
	<text font-family="Helvetica" font-size="8" fill="#000000" xml:space="preserve" x="938" y="302">create()</text>
</g>
</svg>
