<?xml version="1.0" encoding="UTF-8" standalone="no"?>
<!-- Created with Bouml (http://bouml.free.fr/) -->
<!DOCTYPE svg PUBLIC "-//W3C//DTD SVG 1.1//EN" "http://www.w3.org/Graphics/SVG/1.1/DTD/svg11.dtd">
<svg width="959" height="285" version="1.1" xmlns="http://www.w3.org/2000/svg">
<g>
	<line stroke="black" stroke-dasharray="18,6"  stroke-opacity="1" x1="570" y1="64" x2="570" y2="285" />
</g>
<g>
	<line stroke="black" stroke-dasharray="18,6"  stroke-opacity="1" x1="57" y1="70" x2="57" y2="285" />
</g>
<g>
	<line stroke="black" stroke-dasharray="18,6"  stroke-opacity="1" x1="815" y1="64" x2="815" y2="285" />
</g>
<g>
	<line stroke="black" stroke-dasharray="18,6"  stroke-opacity="1" x1="280" y1="66" x2="280" y2="285" />
</g>
<g>
	<ellipse fill="none" stroke="black" stroke-width="1" stroke-opacity="1" cx="56" cy="32" rx="3" ry="3" />
	<line stroke="black" stroke-opacity="1" x1="50" y1="37" x2="61" y2="37" />
	<line stroke="black" stroke-opacity="1" x1="56" y1="35" x2="56" y2="42" />
	<line stroke="black" stroke-opacity="1" x1="56" y1="42" x2="51" y2="48" />
	<line stroke="black" stroke-opacity="1" x1="56" y1="42" x2="61" y2="48" />
	<text font-family="Helvetica" font-size="8" fill="#000000" xml:space="preserve" text-anchor="middle" x="57" y="62">AdminF:Admin</text>
</g>
<g>
	<rect fill="#cbcbcb" stroke="none" stroke-opacity="1" x="422" y="29" width="3" height="20" />
	<rect fill="#cbcbcb" stroke="none" stroke-opacity="1" x="138" y="46" width="287" height="3" />
	<rect fill="#e0ffff" stroke="black" stroke-width="1" stroke-opacity="1" x="134" y="25" width="288" height="21" />
	<text font-family="Helvetica" font-size="8" fill="#000000" xml:space="preserve" text-decoration="underline" text-anchor="middle" x="278" y="40">DodavanjeBibliotekaraFormaF:DodavanjeBibliotekaraForma</text>
</g>
<g>
	<rect fill="none" stroke="black" stroke-width="1" stroke-opacity="1" x="565" y="89" width="10" height="25" />
</g>
<g>
	<rect fill="none" stroke="black" stroke-width="1" stroke-opacity="1" x="565" y="129" width="10" height="24" />
</g>
<g>
	<rect fill="none" stroke="black" stroke-width="1" stroke-opacity="1" x="275" y="129" width="10" height="25" />
</g>
<g>
	<rect fill="none" stroke="black" stroke-width="1" stroke-opacity="1" x="52" y="183" width="10" height="25" />
</g>
<g>
	<rect fill="none" stroke="black" stroke-width="1" stroke-opacity="1" x="810" y="247" width="10" height="26" />
</g>
<g>
	<rect fill="none" stroke="black" stroke-width="1" stroke-opacity="1" x="275" y="89" width="10" height="27" />
</g>
<g>
	<rect fill="none" stroke="black" stroke-width="1" stroke-opacity="1" x="275" y="247" width="10" height="25" />
</g>
<g>
	<rect fill="none" stroke="black" stroke-width="1" stroke-opacity="1" x="275" y="181" width="10" height="24" />
</g>
<g>
	<rect fill="none" stroke="black" stroke-width="1" stroke-opacity="1" x="810" y="192" width="10" height="24" />
</g>
<g>
	<line stroke="black" stroke-opacity="1" x1="286" y1="94" x2="565" y2="94" />
	<polygon fill="#000000" stroke="none" points="565,94 561,90 561,98" />
</g>
<g>
	<line stroke="black" stroke-opacity="1" x1="63" y1="188" x2="275" y2="188" />
	<polygon fill="#000000" stroke="none" points="275,188 271,184 271,192" />
</g>
<g>
	<line stroke="black" stroke-opacity="1" stroke-dasharray="4,4" x1="286" y1="134" x2="565" y2="134" />
	<path fill="none" stroke="black" stroke-opacity="1" d="M 290 130 L 286 134 L 290 138" />
</g>
<g>
	<line stroke="black" stroke-opacity="1" stroke-dasharray="4,4" x1="286" y1="252" x2="810" y2="252" />
	<path fill="none" stroke="black" stroke-opacity="1" d="M 290 248 L 286 252 L 290 256" />
</g>
<g>
	<rect fill="#cbcbcb" stroke="none" stroke-opacity="1" x="943" y="27" width="3" height="20" />
	<rect fill="#cbcbcb" stroke="none" stroke-opacity="1" x="688" y="44" width="258" height="3" />
	<rect fill="#e0ffff" stroke="black" stroke-width="1" stroke-opacity="1" x="684" y="23" width="259" height="21" />
	<text font-family="Helvetica" font-size="8" fill="#000000" xml:space="preserve" text-decoration="underline" text-anchor="middle" x="814" y="38">DodavanjeBibliotekaraKontrolerF:BibliotekarKontroler</text>
</g>
<g>
	<line stroke="black" stroke-opacity="1" x1="286" y1="197" x2="810" y2="197" />
	<polygon fill="#000000" stroke="none" points="810,197 806,193 806,201" />
</g>
<g>
	<rect fill="#cbcbcb" stroke="none" stroke-opacity="1" x="625" y="27" width="3" height="20" />
	<rect fill="#cbcbcb" stroke="none" stroke-opacity="1" x="515" y="44" width="113" height="3" />
	<rect fill="#e0ffff" stroke="black" stroke-width="1" stroke-opacity="1" x="511" y="23" width="114" height="21" />
	<text font-family="Helvetica" font-size="8" fill="#000000" xml:space="preserve" text-decoration="underline" text-anchor="middle" x="568" y="38">BibliotekarF:Bibliotekar</text>
</g>
<g>
	<text font-family="Helvetica" font-size="8" fill="#000000" xml:space="preserve" x="424" y="81">create()</text>
</g>
<g>
	<text font-family="Helvetica" font-size="8" fill="#000000" xml:space="preserve" x="435" y="121">void</text>
</g>
<g>
	<text font-family="Helvetica" font-size="8" fill="#000000" xml:space="preserve" x="132" y="175">kreirajBibliotekara()</text>
</g>
<g>
	<text font-family="Helvetica" font-size="8" fill="#000000" xml:space="preserve" x="425" y="239">true/false</text>
</g>
<g>
	<text font-family="Helvetica" font-size="8" fill="#000000" xml:space="preserve" x="650" y="180">sacuvajBibliotekara()</text>
</g>
</svg>
