<?xml version="1.0" encoding="UTF-8" standalone="no"?>
<!-- Created with Bouml (http://bouml.free.fr/) -->
<!DOCTYPE svg PUBLIC "-//W3C//DTD SVG 1.1//EN" "http://www.w3.org/Graphics/SVG/1.1/DTD/svg11.dtd">
<svg width="926" height="716" version="1.1" xmlns="http://www.w3.org/2000/svg">
<g>
	<ellipse fill="none" stroke="black" stroke-width="1" stroke-opacity="1" cx="468" cy="377" rx="6" ry="6" />
	<line stroke="black" stroke-opacity="1" x1="457" y1="388" x2="479" y2="388" />
	<line stroke="black" stroke-opacity="1" x1="468" y1="383" x2="468" y2="398" />
	<line stroke="black" stroke-opacity="1" x1="468" y1="398" x2="458" y2="410" />
	<line stroke="black" stroke-opacity="1" x1="468" y1="398" x2="478" y2="410" />
	<text font-family="MS Shell Dlg 2" font-size="8" fill="#000000" xml:space="preserve" text-anchor="middle" x="470" y="421">Admin</text>
</g>
<g>
	<ellipse fill="none" stroke="black" stroke-width="1" stroke-opacity="1" cx="467" cy="263" rx="6" ry="6" />
	<line stroke="black" stroke-opacity="1" x1="456" y1="274" x2="478" y2="274" />
	<line stroke="black" stroke-opacity="1" x1="467" y1="269" x2="467" y2="284" />
	<line stroke="black" stroke-opacity="1" x1="467" y1="284" x2="457" y2="296" />
	<line stroke="black" stroke-opacity="1" x1="467" y1="284" x2="477" y2="296" />
	<text font-family="MS Shell Dlg 2" font-size="8" fill="#000000" xml:space="preserve" text-anchor="middle" x="469" y="307">Bibliotekar</text>
</g>
<g>
	<line stroke="#000000" stroke-opacity="1" x1="469" y1="370" x2="469" y2="323" />
	<line stroke="#000000" stroke-opacity="1" x1="469" y1="317" x2="463" y2="323" />
	<line stroke="#000000" stroke-opacity="1" x1="469" y1="317" x2="475" y2="323" />
	<line stroke="#000000" stroke-opacity="1" x1="463" y1="323" x2="475" y2="323" />
</g>
<g>
	<text font-family="MS Shell Dlg 2" font-size="8" fill="#000000" xml:space="preserve" x="311" y="105">&lt;&lt;extend&gt;&gt;</text>
</g>
<g>
	<text font-family="MS Shell Dlg 2" font-size="8" fill="#000000" xml:space="preserve" x="431" y="158">&lt;&lt;extend&gt;&gt;</text>
</g>
<g>
	<text font-family="MS Shell Dlg 2" font-size="8" fill="#000000" xml:space="preserve" x="548" y="138">&lt;&lt;extend&gt;&gt;</text>
</g>
<g>
	<text font-family="MS Shell Dlg 2" font-size="8" fill="#000000" xml:space="preserve" x="222" y="440">&lt;&lt;extend&gt;&gt;</text>
</g>
<g>
	<text font-family="MS Shell Dlg 2" font-size="8" fill="#000000" xml:space="preserve" x="122" y="453">&lt;&lt;extend&gt;&gt;</text>
</g>
<g>
	<text font-family="MS Shell Dlg 2" font-size="8" fill="#000000" xml:space="preserve" x="345" y="131">&lt;&lt;extend&gt;&gt;</text>
</g>
<g>
	<text font-family="MS Shell Dlg 2" font-size="8" fill="#000000" xml:space="preserve" x="617" y="287">&lt;&lt;include&gt;&gt;</text>
</g>
<g>
	<text font-family="MS Shell Dlg 2" font-size="8" fill="#000000" xml:space="preserve" x="129" y="294">&lt;&lt;extend&gt;&gt;</text>
</g>
<g>
	<text font-family="MS Shell Dlg 2" font-size="8" fill="#000000" xml:space="preserve" x="137" y="208">&lt;&lt;extend&gt;&gt;</text>
</g>
<g>
	<text font-family="MS Shell Dlg 2" font-size="8" fill="#000000" xml:space="preserve" x="377" y="534">&lt;&lt;extend&gt;&gt;</text>
</g>
<g>
	<text font-family="MS Shell Dlg 2" font-size="8" fill="#000000" xml:space="preserve" x="47" y="122">&lt;&lt;extend&gt;&gt;</text>
</g>
<g>
	<text font-family="MS Shell Dlg 2" font-size="8" fill="#000000" xml:space="preserve" x="136" y="175">&lt;&lt;extend&gt;&gt;</text>
</g>
<g>
	<text font-family="MS Shell Dlg 2" font-size="8" fill="#000000" xml:space="preserve" x="604" y="518">&lt;&lt;extend&gt;&gt;</text>
</g>
<g>
	<text font-family="MS Shell Dlg 2" font-size="8" fill="#000000" xml:space="preserve" x="423" y="576">&lt;&lt;extend&gt;&gt;</text>
</g>
<g>
	<text font-family="MS Shell Dlg 2" font-size="8" fill="#000000" xml:space="preserve" x="336" y="647">&lt;&lt;include&gt;&gt;</text>
</g>
<g>
	<text font-family="MS Shell Dlg 2" font-size="8" fill="#000000" xml:space="preserve" x="117" y="259">&lt;&lt;extend&gt;&gt;</text>
</g>
<g>
	<text font-family="MS Shell Dlg 2" font-size="8" fill="#000000" xml:space="preserve" x="638" y="260">&lt;&lt;extend&gt;&gt;</text>
</g>
<g>
	<text font-family="MS Shell Dlg 2" font-size="8" fill="#000000" xml:space="preserve" x="654" y="364">&lt;&lt;extend&gt;&gt;</text>
</g>
<g>
	<text font-family="MS Shell Dlg 2" font-size="8" fill="#000000" xml:space="preserve" x="328" y="223">&lt;&lt;extend&gt;&gt;</text>
</g>
<g>
	<text font-family="MS Shell Dlg 2" font-size="8" fill="#000000" xml:space="preserve" x="687" y="535">&lt;&lt;extend&gt;&gt;</text>
</g>
<g>
	<text font-family="MS Shell Dlg 2" font-size="8" fill="#000000" xml:space="preserve" x="126" y="528">&lt;&lt;extend&gt;&gt;</text>
</g>
<g>
	<text font-family="MS Shell Dlg 2" font-size="8" fill="#000000" xml:space="preserve" x="565" y="186">&lt;&lt;include&gt;&gt;</text>
</g>
<g>
	<text font-family="MS Shell Dlg 2" font-size="8" fill="#000000" xml:space="preserve" x="35" y="298">&lt;&lt;extend&gt;&gt;</text>
</g>
<g>
	<text font-family="MS Shell Dlg 2" font-size="8" fill="#000000" xml:space="preserve" x="650" y="229">&lt;&lt;extend&gt;&gt;</text>
</g>
<g>
	<text font-family="MS Shell Dlg 2" font-size="8" fill="#000000" xml:space="preserve" x="309" y="543">&lt;&lt;extend&gt;&gt;</text>
</g>
<g>
	<ellipse fill="#cbcbcb" stroke="none" cx="134" cy="407" rx="75" ry="17" />
	<ellipse fill="#ffffc0" stroke="black" stroke-width="1" stroke-opacity="1" cx="131" cy="404" rx="75" ry="17" />
</g>
<g>
	<ellipse fill="#cbcbcb" stroke="none" cx="311" cy="145" rx="48" ry="16" />
	<ellipse fill="#ffffc0" stroke="black" stroke-width="1" stroke-opacity="1" cx="308" cy="142" rx="48" ry="16" />
</g>
<g>
	<ellipse fill="#cbcbcb" stroke="none" cx="469" cy="195" rx="53" ry="20" />
	<ellipse fill="#ffffc0" stroke="black" stroke-width="1" stroke-opacity="1" cx="466" cy="192" rx="53" ry="20" />
</g>
<g>
	<ellipse fill="#cbcbcb" stroke="none" cx="805" cy="271" rx="77" ry="15" />
	<ellipse fill="#ffffc0" stroke="black" stroke-width="1" stroke-opacity="1" cx="802" cy="268" rx="77" ry="15" />
</g>
<g>
	<ellipse fill="#cbcbcb" stroke="none" cx="467" cy="111" rx="65" ry="17" />
	<ellipse fill="#ffffc0" stroke="black" stroke-width="1" stroke-opacity="1" cx="464" cy="108" rx="65" ry="17" />
</g>
<g>
	<ellipse fill="#cbcbcb" stroke="none" cx="237" cy="87" rx="55" ry="16" />
	<ellipse fill="#ffffc0" stroke="black" stroke-width="1" stroke-opacity="1" cx="234" cy="84" rx="55" ry="16" />
</g>
<g>
	<ellipse fill="#cbcbcb" stroke="none" cx="188" cy="485" rx="56" ry="15" />
	<ellipse fill="#ffffc0" stroke="black" stroke-width="1" stroke-opacity="1" cx="185" cy="482" rx="56" ry="15" />
</g>
<g>
	<ellipse fill="#cbcbcb" stroke="none" cx="734" cy="323" rx="58" ry="16" />
	<ellipse fill="#ffffc0" stroke="black" stroke-width="1" stroke-opacity="1" cx="731" cy="320" rx="58" ry="16" />
</g>
<g>
	<ellipse fill="#cbcbcb" stroke="none" cx="479" cy="526" rx="59" ry="15" />
	<ellipse fill="#ffffc0" stroke="black" stroke-width="1" stroke-opacity="1" cx="476" cy="523" rx="59" ry="15" />
</g>
<g>
	<ellipse fill="#cbcbcb" stroke="none" cx="605" cy="462" rx="93" ry="16" />
	<ellipse fill="#ffffc0" stroke="black" stroke-width="1" stroke-opacity="1" cx="602" cy="459" rx="93" ry="16" />
</g>
<g>
	<ellipse fill="#cbcbcb" stroke="none" cx="692" cy="152" rx="56" ry="15" />
	<ellipse fill="#ffffc0" stroke="black" stroke-width="1" stroke-opacity="1" cx="689" cy="149" rx="56" ry="15" />
</g>
<g>
	<ellipse fill="#cbcbcb" stroke="none" cx="657" cy="564" rx="65" ry="15" />
	<ellipse fill="#ffffc0" stroke="black" stroke-width="1" stroke-opacity="1" cx="654" cy="561" rx="65" ry="15" />
</g>
<g>
	<ellipse fill="#cbcbcb" stroke="none" cx="339" cy="385" rx="64" ry="15" />
	<ellipse fill="#ffffc0" stroke="black" stroke-width="1" stroke-opacity="1" cx="336" cy="382" rx="64" ry="15" />
</g>
<g>
	<ellipse fill="#cbcbcb" stroke="none" cx="387" cy="690" rx="59" ry="15" />
	<ellipse fill="#ffffc0" stroke="black" stroke-width="1" stroke-opacity="1" cx="384" cy="687" rx="59" ry="15" />
</g>
<g>
	<ellipse fill="#cbcbcb" stroke="none" cx="353" cy="595" rx="67" ry="15" />
	<ellipse fill="#ffffc0" stroke="black" stroke-width="1" stroke-opacity="1" cx="350" cy="592" rx="67" ry="15" />
</g>
<g>
	<ellipse fill="#cbcbcb" stroke="none" cx="582" cy="246" rx="43" ry="15" />
	<ellipse fill="#ffffc0" stroke="black" stroke-width="1" stroke-opacity="1" cx="579" cy="243" rx="43" ry="15" />
</g>
<g>
	<ellipse fill="#cbcbcb" stroke="none" cx="801" cy="207" rx="48" ry="16" />
	<ellipse fill="#ffffc0" stroke="black" stroke-width="1" stroke-opacity="1" cx="798" cy="204" rx="48" ry="16" />
</g>
<g>
	<ellipse fill="#cbcbcb" stroke="none" cx="152" cy="559" rx="60" ry="15" />
	<ellipse fill="#ffffc0" stroke="black" stroke-width="1" stroke-opacity="1" cx="149" cy="556" rx="60" ry="15" />
</g>
<g>
	<ellipse fill="#cbcbcb" stroke="none" cx="523" cy="625" rx="64" ry="15" />
	<ellipse fill="#ffffc0" stroke="black" stroke-width="1" stroke-opacity="1" cx="520" cy="622" rx="64" ry="15" />
</g>
<g>
	<ellipse fill="#cbcbcb" stroke="none" cx="346" cy="481" rx="71" ry="15" />
	<ellipse fill="#ffffc0" stroke="black" stroke-width="1" stroke-opacity="1" cx="343" cy="478" rx="71" ry="15" />
</g>
<g>
	<ellipse fill="#cbcbcb" stroke="none" cx="659" cy="394" rx="58" ry="15" />
	<ellipse fill="#ffffc0" stroke="black" stroke-width="1" stroke-opacity="1" cx="656" cy="391" rx="58" ry="15" />
</g>
<g>
	<ellipse fill="#cbcbcb" stroke="none" cx="263" cy="247" rx="61" ry="15" />
	<ellipse fill="#ffffc0" stroke="black" stroke-width="1" stroke-opacity="1" cx="260" cy="244" rx="61" ry="15" />
</g>
<g>
	<ellipse fill="#cbcbcb" stroke="none" cx="92" cy="160" rx="54" ry="15" />
	<ellipse fill="#ffffc0" stroke="black" stroke-width="1" stroke-opacity="1" cx="89" cy="157" rx="54" ry="15" />
</g>
<g>
	<ellipse fill="#cbcbcb" stroke="none" cx="267" cy="186" rx="60" ry="15" />
	<ellipse fill="#ffffc0" stroke="black" stroke-width="1" stroke-opacity="1" cx="264" cy="183" rx="60" ry="15" />
</g>
<g>
	<ellipse fill="#cbcbcb" stroke="none" cx="275" cy="319" rx="50" ry="21" />
	<ellipse fill="#ffffc0" stroke="black" stroke-width="1" stroke-opacity="1" cx="272" cy="316" rx="50" ry="21" />
</g>
<g>
	<ellipse fill="#cbcbcb" stroke="none" cx="59" cy="260" rx="46" ry="17" />
	<ellipse fill="#ffffc0" stroke="black" stroke-width="1" stroke-opacity="1" cx="56" cy="257" rx="46" ry="17" />
</g>
<g>
	<ellipse fill="#cbcbcb" stroke="none" cx="86" cy="73" rx="49" ry="15" />
	<ellipse fill="#ffffc0" stroke="black" stroke-width="1" stroke-opacity="1" cx="83" cy="70" rx="49" ry="15" />
</g>
<g>
	<ellipse fill="#cbcbcb" stroke="none" cx="821" cy="488" rx="94" ry="23" />
	<ellipse fill="#ffffc0" stroke="black" stroke-width="1" stroke-opacity="1" cx="818" cy="485" rx="94" ry="23" />
</g>
<g>
	<text font-family="MS Shell Dlg 2" font-size="8" fill="#000000" xml:space="preserve" x="420" y="193">Pretraga knjiga</text>
</g>
<g>
	<text font-family="MS Shell Dlg 2" font-size="8" fill="#000000" xml:space="preserve" x="733" y="266">Produzavanje clanarine</text>
</g>
<g>
	<text font-family="MS Shell Dlg 2" font-size="8" fill="#000000" xml:space="preserve" x="409" y="108">Prikaz detalja knjige</text>
</g>
<g>
	<text font-family="MS Shell Dlg 2" font-size="8" fill="#000000" xml:space="preserve" x="265" y="139">Brisanje knjige</text>
</g>
<g>
	<text font-family="MS Shell Dlg 2" font-size="8" fill="#000000" xml:space="preserve" x="186" y="85">Izmena podataka</text>
</g>
<g>
	<text font-family="MS Shell Dlg 2" font-size="8" fill="#000000" xml:space="preserve" x="422" y="522">prikaz bibliotekara</text>
</g>
<g>
	<text font-family="MS Shell Dlg 2" font-size="8" fill="#000000" xml:space="preserve" x="528" y="458">Prikaz rezervisanih knjiga</text>
</g>
<g>
	<text font-family="MS Shell Dlg 2" font-size="8" fill="#000000" xml:space="preserve" x="605" y="389">Dodavanje clana</text>
</g>
<g>
	<text font-family="MS Shell Dlg 2" font-size="8" fill="#000000" xml:space="preserve" x="71" y="405">Izdavanje opomene</text>
</g>
<g>
	<text font-family="MS Shell Dlg 2" font-size="8" fill="#000000" xml:space="preserve" x="595" y="562">Odabir rezervacije</text>
</g>
<g>
	<text font-family="MS Shell Dlg 2" font-size="8" fill="#000000" xml:space="preserve" x="462" y="623">brisanje bibliotekara</text>
</g>
<g>
	<text font-family="MS Shell Dlg 2" font-size="8" fill="#000000" xml:space="preserve" x="219" y="245">Dodavanje knjige</text>
</g>
<g>
	<text font-family="MS Shell Dlg 2" font-size="8" fill="#000000" xml:space="preserve" x="274" y="381">Prikaz izdatih knjiga</text>
</g>
<g>
	<text font-family="MS Shell Dlg 2" font-size="8" fill="#000000" xml:space="preserve" x="290" y="590">pretraga bibliotekara</text>
</g>
<g>
	<text font-family="MS Shell Dlg 2" font-size="8" fill="#000000" xml:space="preserve" x="134" y="482">Odabir izdavanja</text>
</g>
<g>
	<text font-family="MS Shell Dlg 2" font-size="8" fill="#000000" xml:space="preserve" x="755" y="203">Brisanje clana</text>
</g>
<g>
	<text font-family="MS Shell Dlg 2" font-size="8" fill="#000000" xml:space="preserve" x="641" y="148">Izdavanje knjige</text>
</g>
<g>
	<text font-family="MS Shell Dlg 2" font-size="8" fill="#000000" xml:space="preserve" x="682" y="320">Pretraga clanova</text>
</g>
<g>
	<text font-family="MS Shell Dlg 2" font-size="8" fill="#000000" xml:space="preserve" x="336" y="688">odabir bibliotekara</text>
</g>
<g>
	<text font-family="MS Shell Dlg 2" font-size="8" fill="#000000" xml:space="preserve" x="540" y="243">Odabir clana</text>
</g>
<g>
	<text font-family="MS Shell Dlg 2" font-size="8" fill="#000000" xml:space="preserve" x="96" y="557">Produzavanje roka</text>
</g>
<g>
	<text font-family="MS Shell Dlg 2" font-size="8" fill="#000000" xml:space="preserve" x="40" y="156">Pretraga autora</text>
</g>
<g>
	<text font-family="MS Shell Dlg 2" font-size="8" fill="#000000" xml:space="preserve" x="219" y="183">Dodavanje autora</text>
</g>
<g>
	<text font-family="MS Shell Dlg 2" font-size="8" fill="#000000" xml:space="preserve" x="20" y="257">pretragaZanra</text>
</g>
<g>
	<text font-family="MS Shell Dlg 2" font-size="8" fill="#000000" xml:space="preserve" x="41" y="70">Odabir autora</text>
</g>
<g>
	<text font-family="MS Shell Dlg 2" font-size="8" fill="#000000" xml:space="preserve" x="235" y="317">dodavanjeZanra</text>
</g>
<g>
	<text font-family="MS Shell Dlg 2" font-size="8" fill="#000000" xml:space="preserve" x="275" y="478">dodavanje bibliotekara</text>
</g>
<g>
	<text font-family="MS Shell Dlg 2" font-size="8" fill="#000000" xml:space="preserve" x="733" y="487">Izdavanje rezervisane knjige</text>
</g>
<g>
	<line stroke="black" stroke-opacity="1" x1="483" y1="540" x2="479" y2="547" />
	<line stroke="black" stroke-opacity="1" x1="483" y1="540" x2="490" y2="543" />
	<line stroke-dasharray="4,4" stroke="black" stroke-opacity="1" x1="512" y1="606" x2="483" y2="540" />
</g>
<g>
	<line stroke="black" stroke-opacity="1" x1="623" y1="246" x2="628" y2="252" />
	<line stroke="black" stroke-opacity="1" x1="623" y1="246" x2="629" y2="240" />
	<line stroke-dasharray="4,4" stroke="black" stroke-opacity="1" x1="724" y1="258" x2="623" y2="246" />
</g>
<g>
	<line stroke="black" stroke-opacity="1" x1="595" y1="227" x2="603" y2="227" />
	<line stroke="black" stroke-opacity="1" x1="595" y1="227" x2="595" y2="218" />
	<line stroke-dasharray="4,4" stroke="black" stroke-opacity="1" x1="669" y1="166" x2="595" y2="227" />
</g>
<g>
	<line stroke="black" stroke-opacity="1" x1="398" y1="105" x2="392" y2="98" />
	<line stroke="black" stroke-opacity="1" x1="398" y1="105" x2="391" y2="110" />
	<line stroke-dasharray="4,4" stroke="black" stroke-opacity="1" x1="290" y1="90" x2="398" y2="105" />
</g>
<g>
	<line stroke="black" stroke-opacity="1" x1="398" y1="120" x2="390" y2="115" />
	<line stroke="black" stroke-opacity="1" x1="398" y1="120" x2="393" y2="127" />
	<line stroke-dasharray="4,4" stroke="black" stroke-opacity="1" x1="358" y1="130" x2="398" y2="120" />
</g>
<g>
	<line stroke="black" stroke-opacity="1" x1="465" y1="171" x2="470" y2="164" />
	<line stroke="black" stroke-opacity="1" x1="465" y1="171" x2="458" y2="165" />
	<line stroke-dasharray="4,4" stroke="black" stroke-opacity="1" x1="464" y1="127" x2="465" y2="171" />
</g>
<g>
	<line stroke="black" stroke-opacity="1" x1="530" y1="125" x2="535" y2="131" />
	<line stroke="black" stroke-opacity="1" x1="530" y1="125" x2="536" y2="119" />
	<line stroke-dasharray="4,4" stroke="black" stroke-opacity="1" x1="632" y1="138" x2="530" y2="125" />
</g>
<g>
	<line stroke="black" stroke-opacity="1" x1="308" y1="399" x2="299" y2="397" />
	<line stroke="black" stroke-opacity="1" x1="308" y1="399" x2="306" y2="407" />
	<line stroke-dasharray="4,4" stroke="black" stroke-opacity="1" x1="208" y1="466" x2="308" y2="399" />
</g>
<g>
	<line stroke="black" stroke-opacity="1" x1="172" y1="466" x2="173" y2="457" />
	<line stroke="black" stroke-opacity="1" x1="172" y1="466" x2="163" y2="464" />
	<line stroke-dasharray="4,4" stroke="black" stroke-opacity="1" x1="144" y1="423" x2="172" y2="466" />
</g>
<g>
	<line stroke="black" stroke-opacity="1" x1="175" y1="499" x2="166" y2="501" />
	<line stroke="black" stroke-opacity="1" x1="175" y1="499" x2="177" y2="507" />
	<line stroke-dasharray="4,4" stroke="black" stroke-opacity="1" x1="155" y1="540" x2="175" y2="499" />
</g>
<g>
	<line stroke="black" stroke-opacity="1" x1="615" y1="477" x2="613" y2="485" />
	<line stroke="black" stroke-opacity="1" x1="615" y1="477" x2="623" y2="478" />
	<line stroke-dasharray="4,4" stroke="black" stroke-opacity="1" x1="666" y1="545" x2="615" y2="477" />
</g>
<g>
	<line stroke="black" stroke-opacity="1" x1="378" y1="671" x2="381" y2="663" />
	<line stroke="black" stroke-opacity="1" x1="378" y1="671" x2="370" y2="667" />
	<line stroke-dasharray="4,4" stroke="black" stroke-opacity="1" x1="355" y1="609" x2="378" y2="671" />
</g>
<g>
	<line stroke="black" stroke-opacity="1" x1="442" y1="540" x2="433" y2="537" />
	<line stroke="black" stroke-opacity="1" x1="442" y1="540" x2="439" y2="548" />
	<line stroke-dasharray="4,4" stroke="black" stroke-opacity="1" x1="377" y1="576" x2="442" y2="540" />
</g>
<g>
	<line stroke="black" stroke-opacity="1" x1="701" y1="303" x2="698" y2="294" />
	<line stroke="black" stroke-opacity="1" x1="701" y1="303" x2="692" y2="305" />
	<line stroke-dasharray="4,4" stroke="black" stroke-opacity="1" x1="613" y1="259" x2="701" y2="303" />
</g>
<g>
	<line stroke="black" stroke-opacity="1" x1="623" y1="233" x2="629" y2="237" />
	<line stroke="black" stroke-opacity="1" x1="623" y1="233" x2="627" y2="226" />
	<line stroke-dasharray="4,4" stroke="black" stroke-opacity="1" x1="749" y1="210" x2="623" y2="233" />
</g>
<g>
	<line stroke="black" stroke-opacity="1" x1="198" y1="248" x2="191" y2="242" />
	<line stroke="black" stroke-opacity="1" x1="198" y1="248" x2="192" y2="254" />
	<line stroke-dasharray="4,4" stroke="black" stroke-opacity="1" x1="104" y1="254" x2="198" y2="248" />
</g>
<g>
	<line stroke="black" stroke-opacity="1" x1="104" y1="270" x2="108" y2="277" />
	<line stroke="black" stroke-opacity="1" x1="104" y1="270" x2="111" y2="265" />
	<line stroke-dasharray="4,4" stroke="black" stroke-opacity="1" x1="221" y1="302" x2="104" y2="270" />
</g>
<g>
	<line stroke="black" stroke-opacity="1" x1="87" y1="141" x2="92" y2="134" />
	<line stroke="black" stroke-opacity="1" x1="87" y1="141" x2="80" y2="135" />
	<line stroke-dasharray="4,4" stroke="black" stroke-opacity="1" x1="83" y1="87" x2="87" y2="141" />
</g>
<g>
	<line stroke="black" stroke-opacity="1" x1="228" y1="228" x2="225" y2="219" />
	<line stroke="black" stroke-opacity="1" x1="228" y1="228" x2="219" y2="230" />
	<line stroke-dasharray="4,4" stroke="black" stroke-opacity="1" x1="121" y1="173" x2="228" y2="228" />
</g>
<g>
	<line stroke="black" stroke-opacity="1" x1="144" y1="164" x2="149" y2="170" />
	<line stroke="black" stroke-opacity="1" x1="144" y1="164" x2="150" y2="158" />
	<line stroke-dasharray="4,4" stroke="black" stroke-opacity="1" x1="203" y1="173" x2="144" y2="164" />
</g>
<g>
	<line stroke="black" stroke-opacity="1" x1="684" y1="545" x2="691" y2="547" />
	<line stroke="black" stroke-opacity="1" x1="684" y1="545" x2="686" y2="537" />
	<line stroke-dasharray="4,4" stroke="black" stroke-opacity="1" x1="761" y1="510" x2="684" y2="545" />
</g>
<g>
	<line stroke="black" stroke-opacity="1" x1="440" y1="290" x2="324" y2="307" />
</g>
<g>
	<line stroke="black" stroke-opacity="1" x1="440" y1="307" x2="356" y2="366" />
</g>
<g>
	<line stroke="black" stroke-opacity="1" x1="492" y1="317" x2="589" y2="442" />
</g>
<g>
	<line stroke="black" stroke-opacity="1" x1="497" y1="274" x2="535" y2="258" />
</g>
<g>
	<line stroke="black" stroke-opacity="1" x1="449" y1="412" x2="365" y2="462" />
</g>
<g>
	<line stroke="black" stroke-opacity="1" x1="468" y1="256" x2="467" y2="213" />
</g>
<g>
	<line stroke="black" stroke-opacity="1" x1="471" y1="431" x2="475" y2="507" />
</g>
<g>
	<line stroke="black" stroke-opacity="1" x1="440" y1="272" x2="298" y2="199" />
</g>
<g>
	<line stroke="black" stroke-opacity="1" x1="497" y1="303" x2="628" y2="375" />
</g>
<g>
	<line stroke="black" stroke-opacity="1" x1="711" y1="337" x2="702" y2="336" />
	<line stroke="black" stroke-opacity="1" x1="711" y1="337" x2="710" y2="345" />
	<line stroke-dasharray="4,4" stroke="black" stroke-opacity="1" x1="672" y1="375" x2="711" y2="337" />
</g>
<g>
	<line stroke="black" stroke-opacity="1" x1="348" y1="576" x2="353" y2="569" />
	<line stroke="black" stroke-opacity="1" x1="348" y1="576" x2="341" y2="570" />
	<line stroke-dasharray="4,4" stroke="black" stroke-opacity="1" x1="343" y1="494" x2="348" y2="576" />
</g>
<g>
	<line stroke="black" stroke-opacity="1" x1="412" y1="204" x2="404" y2="199" />
	<line stroke="black" stroke-opacity="1" x1="412" y1="204" x2="407" y2="211" />
	<line stroke-dasharray="4,4" stroke="black" stroke-opacity="1" x1="317" y1="228" x2="412" y2="204" />
</g>
<g>
	<line stroke="black" stroke-opacity="1" x1="440" y1="280" x2="322" y2="252" />
</g>
<g>
	<ellipse fill="#cbcbcb" stroke="none" cx="86" cy="337" rx="42" ry="17" />
	<ellipse fill="#ffffc0" stroke="black" stroke-width="1" stroke-opacity="1" cx="83" cy="334" rx="42" ry="17" />
</g>
<g>
	<text font-family="MS Shell Dlg 2" font-size="8" fill="#000000" xml:space="preserve" x="55" y="335">odabirZanra</text>
</g>
<g>
	<line stroke="black" stroke-opacity="1" x1="63" y1="276" x2="59" y2="283" />
	<line stroke="black" stroke-opacity="1" x1="63" y1="276" x2="70" y2="279" />
	<line stroke-dasharray="4,4" stroke="black" stroke-opacity="1" x1="77" y1="316" x2="63" y2="276" />
</g>
</svg>
