<?xml version="1.0" encoding="UTF-8" standalone="no"?>
<!-- Created with Bouml (http://bouml.free.fr/) -->
<!DOCTYPE svg PUBLIC "-//W3C//DTD SVG 1.1//EN" "http://www.w3.org/Graphics/SVG/1.1/DTD/svg11.dtd">
<svg width="741" height="212" version="1.1" xmlns="http://www.w3.org/2000/svg">
<g>
	<ellipse fill="none" stroke="black" stroke-width="1" stroke-opacity="1" cx="49" cy="38" rx="6" ry="6" />
	<line stroke="black" stroke-opacity="1" x1="38" y1="49" x2="60" y2="49" />
	<line stroke="black" stroke-opacity="1" x1="49" y1="44" x2="49" y2="59" />
	<line stroke="black" stroke-opacity="1" x1="49" y1="59" x2="39" y2="71" />
	<line stroke="black" stroke-opacity="1" x1="49" y1="59" x2="59" y2="71" />
	<text font-family="Helvetica" font-size="8" fill="#000000" xml:space="preserve" text-anchor="middle" x="51" y="82">Clan</text>
</g>
<g>
	<text font-family="Helvetica" font-size="8" fill="#000000" xml:space="preserve" x="497" y="98">&lt;&lt;extend&gt;&gt;</text>
</g>
<g>
	<text font-family="Helvetica" font-size="8" fill="#000000" xml:space="preserve" x="149" y="137">&lt;&lt;include&gt;&gt;</text>
</g>
<g>
	<text font-family="Helvetica" font-size="8" fill="#000000" xml:space="preserve" x="276" y="90">&lt;&lt;include&gt;&gt;</text>
</g>
<g>
	<ellipse fill="#cbcbcb" stroke="none" cx="666" cy="94" rx="65" ry="15" />
	<ellipse fill="#e0ffff" stroke="black" stroke-width="1" stroke-opacity="1" cx="663" cy="91" rx="65" ry="15" />
</g>
<g>
	<ellipse fill="#cbcbcb" stroke="none" cx="201" cy="78" rx="60" ry="15" />
	<ellipse fill="#e0ffff" stroke="black" stroke-width="1" stroke-opacity="1" cx="198" cy="75" rx="60" ry="15" />
</g>
<g>
	<ellipse fill="#cbcbcb" stroke="none" cx="411" cy="95" rx="50" ry="16" />
	<ellipse fill="#e0ffff" stroke="black" stroke-width="1" stroke-opacity="1" cx="408" cy="92" rx="50" ry="16" />
</g>
<g>
	<ellipse fill="#cbcbcb" stroke="none" cx="170" cy="187" rx="31" ry="15" />
	<ellipse fill="#e0ffff" stroke="black" stroke-width="1" stroke-opacity="1" cx="167" cy="184" rx="31" ry="15" />
</g>
<g>
	<text font-family="Helvetica" font-size="8" fill="#000000" xml:space="preserve" x="604" y="91">Prikaz detalja knjige</text>
</g>
<g>
	<text font-family="Helvetica" font-size="8" fill="#000000" xml:space="preserve" x="143" y="76">rezervisanje knjige</text>
</g>
<g>
	<text font-family="Helvetica" font-size="8" fill="#000000" xml:space="preserve" x="363" y="92">Pretraga knjiga</text>
</g>
<g>
	<text font-family="Helvetica" font-size="8" fill="#000000" xml:space="preserve" x="142" y="183">Logovanje</text>
</g>
<g>
	<line stroke="black" stroke-opacity="1" x1="170" y1="168" x2="177" y2="163" />
	<line stroke="black" stroke-opacity="1" x1="170" y1="168" x2="165" y2="160" />
	<line stroke-dasharray="4,4" stroke="black" stroke-opacity="1" x1="193" y1="91" x2="170" y2="168" />
</g>
<g>
	<line stroke="black" stroke-opacity="1" x1="357" y1="86" x2="351" y2="79" />
	<line stroke="black" stroke-opacity="1" x1="357" y1="86" x2="350" y2="91" />
	<line stroke-dasharray="4,4" stroke="black" stroke-opacity="1" x1="260" y1="79" x2="357" y2="86" />
</g>
<g>
	<line stroke="black" stroke-opacity="1" x1="460" y1="91" x2="466" y2="97" />
	<line stroke="black" stroke-opacity="1" x1="460" y1="91" x2="466" y2="85" />
	<line stroke-dasharray="4,4" stroke="black" stroke-opacity="1" x1="597" y1="91" x2="460" y2="91" />
</g>
<g>
	<line stroke="black" stroke-opacity="1" x1="71" y1="64" x2="137" y2="69" />
</g>
</svg>
