<?xml version="1.0" encoding="UTF-8" standalone="no"?>
<!-- Created with Bouml (http://bouml.free.fr/) -->
<!DOCTYPE svg PUBLIC "-//W3C//DTD SVG 1.1//EN" "http://www.w3.org/Graphics/SVG/1.1/DTD/svg11.dtd">
<svg width="1027" height="781" version="1.1" xmlns="http://www.w3.org/2000/svg">
<g>
	<ellipse fill="none" stroke="black" stroke-width="1" stroke-opacity="1" cx="467" cy="264" rx="6" ry="6" />
	<line stroke="black" stroke-opacity="1" x1="456" y1="275" x2="478" y2="275" />
	<line stroke="black" stroke-opacity="1" x1="467" y1="270" x2="467" y2="285" />
	<line stroke="black" stroke-opacity="1" x1="467" y1="285" x2="457" y2="297" />
	<line stroke="black" stroke-opacity="1" x1="467" y1="285" x2="477" y2="297" />
	<text font-family="Helvetica" font-size="8" fill="#000000" xml:space="preserve" text-anchor="middle" x="469" y="308">Bibliotekar</text>
</g>
<g>
	<ellipse fill="none" stroke="black" stroke-width="1" stroke-opacity="1" cx="309" cy="502" rx="6" ry="6" />
	<line stroke="black" stroke-opacity="1" x1="298" y1="513" x2="320" y2="513" />
	<line stroke="black" stroke-opacity="1" x1="309" y1="508" x2="309" y2="523" />
	<line stroke="black" stroke-opacity="1" x1="309" y1="523" x2="299" y2="535" />
	<line stroke="black" stroke-opacity="1" x1="309" y1="523" x2="319" y2="535" />
	<text font-family="Helvetica" font-size="8" fill="#000000" xml:space="preserve" text-anchor="middle" x="311" y="546">Admin</text>
</g>
<g>
	<line stroke="#000000" stroke-opacity="1" x1="330" y1="495" x2="441" y2="325" />
	<line stroke="#000000" stroke-opacity="1" x1="445" y1="320" x2="436" y2="321" />
	<line stroke="#000000" stroke-opacity="1" x1="445" y1="320" x2="446" y2="328" />
	<line stroke="#000000" stroke-opacity="1" x1="436" y1="321" x2="446" y2="328" />
</g>
<g>
	<text font-family="Helvetica" font-size="8" fill="#000000" xml:space="preserve" x="357" y="227">&lt;&lt;extend&gt;&gt;</text>
</g>
<g>
	<text font-family="Helvetica" font-size="8" fill="#000000" xml:space="preserve" x="276" y="651">&lt;&lt;extend&gt;&gt;</text>
</g>
<g>
	<text font-family="Helvetica" font-size="8" fill="#000000" xml:space="preserve" x="191" y="180">&lt;&lt;extend&gt;&gt;</text>
</g>
<g>
	<text font-family="Helvetica" font-size="8" fill="#000000" xml:space="preserve" x="586" y="474">&lt;&lt;include&gt;&gt;</text>
</g>
<g>
	<text font-family="Helvetica" font-size="8" fill="#000000" xml:space="preserve" x="351" y="346">&lt;&lt;include&gt;&gt;</text>
</g>
<g>
	<text font-family="Helvetica" font-size="8" fill="#000000" xml:space="preserve" x="576" y="416">&lt;&lt;include&gt;&gt;</text>
</g>
<g>
	<text font-family="Helvetica" font-size="8" fill="#000000" xml:space="preserve" x="363" y="429">&lt;&lt;include&gt;&gt;</text>
</g>
<g>
	<text font-family="Helvetica" font-size="8" fill="#000000" xml:space="preserve" x="378" y="520">&lt;&lt;include&gt;&gt;</text>
</g>
<g>
	<text font-family="Helvetica" font-size="8" fill="#000000" xml:space="preserve" x="465" y="512">&lt;&lt;include&gt;&gt;</text>
</g>
<g>
	<text font-family="Helvetica" font-size="8" fill="#000000" xml:space="preserve" x="395" y="320">&lt;&lt;include&gt;&gt;</text>
</g>
<g>
	<text font-family="Helvetica" font-size="8" fill="#000000" xml:space="preserve" x="354" y="385">&lt;&lt;include&gt;&gt;</text>
</g>
<g>
	<text font-family="Helvetica" font-size="8" fill="#000000" xml:space="preserve" x="634" y="184">&lt;&lt;include&gt;&gt;</text>
</g>
<g>
	<text font-family="Helvetica" font-size="8" fill="#000000" xml:space="preserve" x="719" y="226">&lt;&lt;extend&gt;&gt;</text>
</g>
<g>
	<text font-family="Helvetica" font-size="8" fill="#000000" xml:space="preserve" x="530" y="359">&lt;&lt;include&gt;&gt;</text>
</g>
<g>
	<text font-family="Helvetica" font-size="8" fill="#000000" xml:space="preserve" x="488" y="321">&lt;&lt;include&gt;&gt;</text>
</g>
<g>
	<text font-family="Helvetica" font-size="8" fill="#000000" xml:space="preserve" x="64" y="120">&lt;&lt;extend&gt;&gt;</text>
</g>
<g>
	<text font-family="Helvetica" font-size="8" fill="#000000" xml:space="preserve" x="115" y="261">&lt;&lt;extend&gt;&gt;</text>
</g>
<g>
	<text font-family="Helvetica" font-size="8" fill="#000000" xml:space="preserve" x="707" y="258">&lt;&lt;extend&gt;&gt;</text>
</g>
<g>
	<text font-family="Helvetica" font-size="8" fill="#000000" xml:space="preserve" x="788" y="610">&lt;&lt;extend&gt;&gt;</text>
</g>
<g>
	<text font-family="Helvetica" font-size="8" fill="#000000" xml:space="preserve" x="35" y="298">&lt;&lt;extend&gt;&gt;</text>
</g>
<g>
	<text font-family="Helvetica" font-size="8" fill="#000000" xml:space="preserve" x="117" y="300">&lt;&lt;extend&gt;&gt;</text>
</g>
<g>
	<text font-family="Helvetica" font-size="8" fill="#000000" xml:space="preserve" x="150" y="209">&lt;&lt;extend&gt;&gt;</text>
</g>
<g>
	<text font-family="Helvetica" font-size="8" fill="#000000" xml:space="preserve" x="495" y="161">&lt;&lt;extend&gt;&gt;</text>
</g>
<g>
	<text font-family="Helvetica" font-size="8" fill="#000000" xml:space="preserve" x="614" y="140">&lt;&lt;extend&gt;&gt;</text>
</g>
<g>
	<text font-family="Helvetica" font-size="8" fill="#000000" xml:space="preserve" x="376" y="132">&lt;&lt;extend&gt;&gt;</text>
</g>
<g>
	<text font-family="Helvetica" font-size="8" fill="#000000" xml:space="preserve" x="96" y="551">&lt;&lt;extend&gt;&gt;</text>
</g>
<g>
	<text font-family="Helvetica" font-size="8" fill="#000000" xml:space="preserve" x="706" y="594">&lt;&lt;extend&gt;&gt;</text>
</g>
<g>
	<text font-family="Helvetica" font-size="8" fill="#000000" xml:space="preserve" x="92" y="476">&lt;&lt;extend&gt;&gt;</text>
</g>
<g>
	<text font-family="Helvetica" font-size="8" fill="#000000" xml:space="preserve" x="343" y="107">&lt;&lt;extend&gt;&gt;</text>
</g>
<g>
	<text font-family="Helvetica" font-size="8" fill="#000000" xml:space="preserve" x="166" y="468">&lt;&lt;extend&gt;&gt;</text>
</g>
<g>
	<text font-family="Helvetica" font-size="8" fill="#000000" xml:space="preserve" x="361" y="612">&lt;&lt;extend&gt;&gt;</text>
</g>
<g>
	<text font-family="Helvetica" font-size="8" fill="#000000" xml:space="preserve" x="343" y="728">&lt;&lt;include&gt;&gt;</text>
</g>
<g>
	<text font-family="Helvetica" font-size="8" fill="#000000" xml:space="preserve" x="686" y="285">&lt;&lt;include&gt;&gt;</text>
</g>
<g>
	<text font-family="Helvetica" font-size="8" fill="#000000" xml:space="preserve" x="426" y="636">&lt;&lt;extend&gt;&gt;</text>
</g>
<g>
	<ellipse fill="#cbcbcb" stroke="none" cx="83" cy="73" rx="49" ry="15" />
	<ellipse fill="#ffffc0" stroke="black" stroke-width="1" stroke-opacity="1" cx="80" cy="70" rx="49" ry="15" />
</g>
<g>
	<ellipse fill="#cbcbcb" stroke="none" cx="125" cy="155" rx="54" ry="15" />
	<ellipse fill="#ffffc0" stroke="black" stroke-width="1" stroke-opacity="1" cx="122" cy="152" rx="54" ry="15" />
</g>
<g>
	<ellipse fill="#cbcbcb" stroke="none" cx="515" cy="429" rx="39" ry="15" />
	<ellipse fill="#ffffc0" stroke="black" stroke-width="1" stroke-opacity="1" cx="512" cy="426" rx="39" ry="15" />
</g>
<g>
	<ellipse fill="#cbcbcb" stroke="none" cx="761" cy="151" rx="56" ry="15" />
	<ellipse fill="#ffffc0" stroke="black" stroke-width="1" stroke-opacity="1" cx="758" cy="148" rx="56" ry="15" />
</g>
<g>
	<ellipse fill="#cbcbcb" stroke="none" cx="257" cy="418" rx="64" ry="15" />
	<ellipse fill="#ffffc0" stroke="black" stroke-width="1" stroke-opacity="1" cx="254" cy="415" rx="64" ry="15" />
</g>
<g>
	<ellipse fill="#cbcbcb" stroke="none" cx="311" cy="143" rx="48" ry="16" />
	<ellipse fill="#ffffc0" stroke="black" stroke-width="1" stroke-opacity="1" cx="308" cy="140" rx="48" ry="16" />
</g>
<g>
	<ellipse fill="#cbcbcb" stroke="none" cx="804" cy="321" rx="58" ry="16" />
	<ellipse fill="#ffffc0" stroke="black" stroke-width="1" stroke-opacity="1" cx="801" cy="318" rx="58" ry="16" />
</g>
<g>
	<ellipse fill="#cbcbcb" stroke="none" cx="121" cy="582" rx="60" ry="15" />
	<ellipse fill="#ffffc0" stroke="black" stroke-width="1" stroke-opacity="1" cx="118" cy="579" rx="60" ry="15" />
</g>
<g>
	<ellipse fill="#cbcbcb" stroke="none" cx="533" cy="197" rx="53" ry="20" />
	<ellipse fill="#ffffc0" stroke="black" stroke-width="1" stroke-opacity="1" cx="530" cy="194" rx="53" ry="20" />
</g>
<g>
	<ellipse fill="#cbcbcb" stroke="none" cx="157" cy="509" rx="56" ry="15" />
	<ellipse fill="#ffffc0" stroke="black" stroke-width="1" stroke-opacity="1" cx="154" cy="506" rx="56" ry="15" />
</g>
<g>
	<ellipse fill="#cbcbcb" stroke="none" cx="869" cy="203" rx="48" ry="16" />
	<ellipse fill="#ffffc0" stroke="black" stroke-width="1" stroke-opacity="1" cx="866" cy="200" rx="48" ry="16" />
</g>
<g>
	<ellipse fill="#cbcbcb" stroke="none" cx="875" cy="267" rx="77" ry="15" />
	<ellipse fill="#ffffc0" stroke="black" stroke-width="1" stroke-opacity="1" cx="872" cy="264" rx="77" ry="15" />
</g>
<g>
	<ellipse fill="#cbcbcb" stroke="none" cx="727" cy="391" rx="58" ry="15" />
	<ellipse fill="#ffffc0" stroke="black" stroke-width="1" stroke-opacity="1" cx="724" cy="388" rx="58" ry="15" />
</g>
<g>
	<ellipse fill="#cbcbcb" stroke="none" cx="257" cy="252" rx="61" ry="15" />
	<ellipse fill="#ffffc0" stroke="black" stroke-width="1" stroke-opacity="1" cx="254" cy="249" rx="61" ry="15" />
</g>
<g>
	<ellipse fill="#cbcbcb" stroke="none" cx="651" cy="243" rx="43" ry="15" />
	<ellipse fill="#ffffc0" stroke="black" stroke-width="1" stroke-opacity="1" cx="648" cy="240" rx="43" ry="15" />
</g>
<g>
	<ellipse fill="#cbcbcb" stroke="none" cx="235" cy="87" rx="55" ry="16" />
	<ellipse fill="#ffffc0" stroke="black" stroke-width="1" stroke-opacity="1" cx="232" cy="84" rx="55" ry="16" />
</g>
<g>
	<ellipse fill="#cbcbcb" stroke="none" cx="529" cy="114" rx="65" ry="17" />
	<ellipse fill="#ffffc0" stroke="black" stroke-width="1" stroke-opacity="1" cx="526" cy="111" rx="65" ry="17" />
</g>
<g>
	<ellipse fill="#cbcbcb" stroke="none" cx="104" cy="431" rx="75" ry="17" />
	<ellipse fill="#ffffc0" stroke="black" stroke-width="1" stroke-opacity="1" cx="101" cy="428" rx="75" ry="17" />
</g>
<g>
	<ellipse fill="#cbcbcb" stroke="none" cx="253" cy="330" rx="50" ry="21" />
	<ellipse fill="#ffffc0" stroke="black" stroke-width="1" stroke-opacity="1" cx="250" cy="327" rx="50" ry="21" />
</g>
<g>
	<ellipse fill="#cbcbcb" stroke="none" cx="343" cy="201" rx="60" ry="15" />
	<ellipse fill="#ffffc0" stroke="black" stroke-width="1" stroke-opacity="1" cx="340" cy="198" rx="60" ry="15" />
</g>
<g>
	<ellipse fill="#cbcbcb" stroke="none" cx="315" cy="689" rx="67" ry="15" />
	<ellipse fill="#ffffc0" stroke="black" stroke-width="1" stroke-opacity="1" cx="312" cy="686" rx="67" ry="15" />
</g>
<g>
	<ellipse fill="#cbcbcb" stroke="none" cx="521" cy="683" rx="64" ry="15" />
	<ellipse fill="#ffffc0" stroke="black" stroke-width="1" stroke-opacity="1" cx="518" cy="680" rx="64" ry="15" />
</g>
<g>
	<ellipse fill="#cbcbcb" stroke="none" cx="59" cy="260" rx="46" ry="17" />
	<ellipse fill="#ffffc0" stroke="black" stroke-width="1" stroke-opacity="1" cx="56" cy="257" rx="46" ry="17" />
</g>
<g>
	<ellipse fill="#cbcbcb" stroke="none" cx="708" cy="540" rx="93" ry="16" />
	<ellipse fill="#ffffc0" stroke="black" stroke-width="1" stroke-opacity="1" cx="705" cy="537" rx="93" ry="16" />
</g>
<g>
	<ellipse fill="#cbcbcb" stroke="none" cx="487" cy="755" rx="59" ry="15" />
	<ellipse fill="#ffffc0" stroke="black" stroke-width="1" stroke-opacity="1" cx="484" cy="752" rx="59" ry="15" />
</g>
<g>
	<ellipse fill="#cbcbcb" stroke="none" cx="757" cy="638" rx="65" ry="15" />
	<ellipse fill="#ffffc0" stroke="black" stroke-width="1" stroke-opacity="1" cx="754" cy="635" rx="65" ry="15" />
</g>
<g>
	<ellipse fill="#cbcbcb" stroke="none" cx="317" cy="599" rx="71" ry="15" />
	<ellipse fill="#ffffc0" stroke="black" stroke-width="1" stroke-opacity="1" cx="314" cy="596" rx="71" ry="15" />
</g>
<g>
	<ellipse fill="#cbcbcb" stroke="none" cx="486" cy="585" rx="59" ry="15" />
	<ellipse fill="#ffffc0" stroke="black" stroke-width="1" stroke-opacity="1" cx="483" cy="582" rx="59" ry="15" />
</g>
<g>
	<ellipse fill="#cbcbcb" stroke="none" cx="922" cy="562" rx="94" ry="23" />
	<ellipse fill="#ffffc0" stroke="black" stroke-width="1" stroke-opacity="1" cx="919" cy="559" rx="94" ry="23" />
</g>
<g>
	<text font-family="Helvetica" font-size="8" fill="#000000" xml:space="preserve" x="41" y="70">Odabir autora</text>
</g>
<g>
	<text font-family="Helvetica" font-size="8" fill="#000000" xml:space="preserve" x="74" y="153">Pretraga autora</text>
</g>
<g>
	<text font-family="Helvetica" font-size="8" fill="#000000" xml:space="preserve" x="480" y="425">Logovanje</text>
</g>
<g>
	<text font-family="Helvetica" font-size="8" fill="#000000" xml:space="preserve" x="20" y="257">pretragaZanra</text>
</g>
<g>
	<text font-family="Helvetica" font-size="8" fill="#000000" xml:space="preserve" x="751" y="318">Pretraga clanova</text>
</g>
<g>
	<text font-family="Helvetica" font-size="8" fill="#000000" xml:space="preserve" x="472" y="111">Prikaz detalja knjige</text>
</g>
<g>
	<text font-family="Helvetica" font-size="8" fill="#000000" xml:space="preserve" x="710" y="145">Izdavanje knjige</text>
</g>
<g>
	<text font-family="Helvetica" font-size="8" fill="#000000" xml:space="preserve" x="186" y="85">Izmena podataka</text>
</g>
<g>
	<text font-family="Helvetica" font-size="8" fill="#000000" xml:space="preserve" x="192" y="414">Prikaz izdatih knjiga</text>
</g>
<g>
	<text font-family="Helvetica" font-size="8" fill="#000000" xml:space="preserve" x="104" y="505">Odabir izdavanja</text>
</g>
<g>
	<text font-family="Helvetica" font-size="8" fill="#000000" xml:space="preserve" x="66" y="580">Produzavanje roka</text>
</g>
<g>
	<text font-family="Helvetica" font-size="8" fill="#000000" xml:space="preserve" x="609" y="240">Odabir clana</text>
</g>
<g>
	<text font-family="Helvetica" font-size="8" fill="#000000" xml:space="preserve" x="265" y="139">Brisanje knjige</text>
</g>
<g>
	<text font-family="Helvetica" font-size="8" fill="#000000" xml:space="preserve" x="674" y="386">Dodavanje clana</text>
</g>
<g>
	<text font-family="Helvetica" font-size="8" fill="#000000" xml:space="preserve" x="483" y="196">Pretraga knjiga</text>
</g>
<g>
	<text font-family="Helvetica" font-size="8" fill="#000000" xml:space="preserve" x="824" y="200">Brisanje clana</text>
</g>
<g>
	<text font-family="Helvetica" font-size="8" fill="#000000" xml:space="preserve" x="214" y="250">Dodavanje knjige</text>
</g>
<g>
	<text font-family="Helvetica" font-size="8" fill="#000000" xml:space="preserve" x="803" y="264">Produzavanje clanarine</text>
</g>
<g>
	<text font-family="Helvetica" font-size="8" fill="#000000" xml:space="preserve" x="41" y="429">Izdavanje opomene</text>
</g>
<g>
	<text font-family="Helvetica" font-size="8" fill="#000000" xml:space="preserve" x="631" y="536">Prikaz rezervisanih knjiga</text>
</g>
<g>
	<text font-family="Helvetica" font-size="8" fill="#000000" xml:space="preserve" x="249" y="598">dodavanje bibliotekara</text>
</g>
<g>
	<text font-family="Helvetica" font-size="8" fill="#000000" xml:space="preserve" x="213" y="328">dodavanjeZanra</text>
</g>
<g>
	<text font-family="Helvetica" font-size="8" fill="#000000" xml:space="preserve" x="296" y="199">Dodavanje autora</text>
</g>
<g>
	<text font-family="Helvetica" font-size="8" fill="#000000" xml:space="preserve" x="429" y="582">prikaz bibliotekara</text>
</g>
<g>
	<text font-family="Helvetica" font-size="8" fill="#000000" xml:space="preserve" x="252" y="687">pretraga bibliotekara</text>
</g>
<g>
	<text font-family="Helvetica" font-size="8" fill="#000000" xml:space="preserve" x="435" y="753">odabir bibliotekara</text>
</g>
<g>
	<text font-family="Helvetica" font-size="8" fill="#000000" xml:space="preserve" x="834" y="561">Izdavanje rezervisane knjige</text>
</g>
<g>
	<text font-family="Helvetica" font-size="8" fill="#000000" xml:space="preserve" x="469" y="681">brisanje bibliotekara</text>
</g>
<g>
	<text font-family="Helvetica" font-size="8" fill="#000000" xml:space="preserve" x="696" y="636">Odabir rezervacije</text>
</g>
<g>
	<line stroke="black" stroke-opacity="1" x1="460" y1="108" x2="454" y2="101" />
	<line stroke="black" stroke-opacity="1" x1="460" y1="108" x2="453" y2="113" />
	<line stroke-dasharray="4,4" stroke="black" stroke-opacity="1" x1="288" y1="89" x2="460" y2="108" />
</g>
<g>
	<line stroke="black" stroke-opacity="1" x1="592" y1="128" x2="597" y2="134" />
	<line stroke="black" stroke-opacity="1" x1="592" y1="128" x2="598" y2="122" />
	<line stroke-dasharray="4,4" stroke="black" stroke-opacity="1" x1="701" y1="139" x2="592" y2="128" />
</g>
<g>
	<line stroke="black" stroke-opacity="1" x1="144" y1="523" x2="135" y2="525" />
	<line stroke="black" stroke-opacity="1" x1="144" y1="523" x2="146" y2="531" />
	<line stroke-dasharray="4,4" stroke="black" stroke-opacity="1" x1="124" y1="563" x2="144" y2="523" />
</g>
<g>
	<line stroke="black" stroke-opacity="1" x1="431" y1="736" x2="426" y2="728" />
	<line stroke="black" stroke-opacity="1" x1="431" y1="736" x2="423" y2="740" />
	<line stroke-dasharray="4,4" stroke="black" stroke-opacity="1" x1="317" y1="703" x2="431" y2="736" />
</g>
<g>
	<line stroke="black" stroke-opacity="1" x1="142" y1="490" x2="143" y2="481" />
	<line stroke="black" stroke-opacity="1" x1="142" y1="490" x2="133" y2="488" />
	<line stroke-dasharray="4,4" stroke="black" stroke-opacity="1" x1="114" y1="447" x2="142" y2="490" />
</g>
<g>
	<line stroke="black" stroke-opacity="1" x1="771" y1="301" x2="768" y2="292" />
	<line stroke="black" stroke-opacity="1" x1="771" y1="301" x2="762" y2="303" />
	<line stroke-dasharray="4,4" stroke="black" stroke-opacity="1" x1="682" y1="256" x2="771" y2="301" />
</g>
<g>
	<line stroke="black" stroke-opacity="1" x1="692" y1="243" x2="697" y2="249" />
	<line stroke="black" stroke-opacity="1" x1="692" y1="243" x2="698" y2="237" />
	<line stroke-dasharray="4,4" stroke="black" stroke-opacity="1" x1="794" y1="255" x2="692" y2="243" />
</g>
<g>
	<line stroke="black" stroke-opacity="1" x1="528" y1="173" x2="533" y2="166" />
	<line stroke="black" stroke-opacity="1" x1="528" y1="173" x2="521" y2="167" />
	<line stroke-dasharray="4,4" stroke="black" stroke-opacity="1" x1="526" y1="130" x2="528" y2="173" />
</g>
<g>
	<line stroke="black" stroke-opacity="1" x1="452" y1="599" x2="443" y2="597" />
	<line stroke="black" stroke-opacity="1" x1="452" y1="599" x2="450" y2="607" />
	<line stroke-dasharray="4,4" stroke="black" stroke-opacity="1" x1="336" y1="670" x2="452" y2="599" />
</g>
<g>
	<line stroke="black" stroke-opacity="1" x1="232" y1="233" x2="230" y2="224" />
	<line stroke="black" stroke-opacity="1" x1="232" y1="233" x2="223" y2="234" />
	<line stroke-dasharray="4,4" stroke="black" stroke-opacity="1" x1="144" y1="168" x2="232" y2="233" />
</g>
<g>
	<line stroke="black" stroke-opacity="1" x1="104" y1="273" x2="107" y2="280" />
	<line stroke="black" stroke-opacity="1" x1="104" y1="273" x2="111" y2="269" />
	<line stroke-dasharray="4,4" stroke="black" stroke-opacity="1" x1="199" y1="308" x2="104" y2="273" />
</g>
<g>
	<line stroke="black" stroke-opacity="1" x1="664" y1="224" x2="672" y2="224" />
	<line stroke="black" stroke-opacity="1" x1="664" y1="224" x2="664" y2="215" />
	<line stroke-dasharray="4,4" stroke="black" stroke-opacity="1" x1="736" y1="165" x2="664" y2="224" />
</g>
<g>
	<line stroke="black" stroke-opacity="1" x1="113" y1="136" x2="115" y2="127" />
	<line stroke="black" stroke-opacity="1" x1="113" y1="136" x2="104" y2="133" />
	<line stroke-dasharray="4,4" stroke="black" stroke-opacity="1" x1="87" y1="87" x2="113" y2="136" />
</g>
<g>
	<line stroke="black" stroke-opacity="1" x1="719" y1="555" x2="717" y2="563" />
	<line stroke="black" stroke-opacity="1" x1="719" y1="555" x2="727" y2="556" />
	<line stroke-dasharray="4,4" stroke="black" stroke-opacity="1" x1="766" y1="619" x2="719" y2="555" />
</g>
<g>
	<line stroke="black" stroke-opacity="1" x1="528" y1="215" x2="521" y2="220" />
	<line stroke="black" stroke-opacity="1" x1="528" y1="215" x2="533" y2="221" />
	<line stroke-dasharray="4,4" stroke="black" stroke-opacity="1" x1="514" y1="410" x2="528" y2="215" />
</g>
<g>
	<line stroke="black" stroke-opacity="1" x1="489" y1="599" x2="485" y2="606" />
	<line stroke="black" stroke-opacity="1" x1="489" y1="599" x2="496" y2="602" />
	<line stroke-dasharray="4,4" stroke="black" stroke-opacity="1" x1="512" y1="664" x2="489" y2="599" />
</g>
<g>
	<line stroke="black" stroke-opacity="1" x1="177" y1="163" x2="181" y2="170" />
	<line stroke="black" stroke-opacity="1" x1="177" y1="163" x2="184" y2="158" />
	<line stroke-dasharray="4,4" stroke="black" stroke-opacity="1" x1="279" y1="184" x2="177" y2="163" />
</g>
<g>
	<line stroke="black" stroke-opacity="1" x1="233" y1="432" x2="224" y2="431" />
	<line stroke="black" stroke-opacity="1" x1="233" y1="432" x2="232" y2="440" />
	<line stroke-dasharray="4,4" stroke="black" stroke-opacity="1" x1="169" y1="490" x2="233" y2="432" />
</g>
<g>
	<line stroke="black" stroke-opacity="1" x1="665" y1="398" x2="657" y2="393" />
	<line stroke="black" stroke-opacity="1" x1="665" y1="398" x2="660" y2="405" />
	<line stroke-dasharray="4,4" stroke="black" stroke-opacity="1" x1="553" y1="419" x2="665" y2="398" />
</g>
<g>
	<line stroke="black" stroke-opacity="1" x1="192" y1="252" x2="185" y2="246" />
	<line stroke="black" stroke-opacity="1" x1="192" y1="252" x2="186" y2="258" />
	<line stroke-dasharray="4,4" stroke="black" stroke-opacity="1" x1="104" y1="256" x2="192" y2="252" />
</g>
<g>
	<line stroke="black" stroke-opacity="1" x1="676" y1="520" x2="673" y2="511" />
	<line stroke="black" stroke-opacity="1" x1="676" y1="520" x2="667" y2="522" />
	<line stroke-dasharray="4,4" stroke="black" stroke-opacity="1" x1="542" y1="443" x2="676" y2="520" />
</g>
<g>
	<line stroke="black" stroke-opacity="1" x1="476" y1="204" x2="468" y2="199" />
	<line stroke="black" stroke-opacity="1" x1="476" y1="204" x2="471" y2="211" />
	<line stroke-dasharray="4,4" stroke="black" stroke-opacity="1" x1="316" y1="236" x2="476" y2="204" />
</g>
<g>
	<line stroke="black" stroke-opacity="1" x1="320" y1="418" x2="325" y2="424" />
	<line stroke="black" stroke-opacity="1" x1="320" y1="418" x2="326" y2="412" />
	<line stroke-dasharray="4,4" stroke="black" stroke-opacity="1" x1="472" y1="424" x2="320" y2="418" />
</g>
<g>
	<line stroke="black" stroke-opacity="1" x1="460" y1="119" x2="453" y2="113" />
	<line stroke="black" stroke-opacity="1" x1="460" y1="119" x2="454" y2="125" />
	<line stroke-dasharray="4,4" stroke="black" stroke-opacity="1" x1="358" y1="133" x2="460" y2="119" />
</g>
<g>
	<line stroke="black" stroke-opacity="1" x1="692" y1="230" x2="698" y2="234" />
	<line stroke="black" stroke-opacity="1" x1="692" y1="230" x2="696" y2="223" />
	<line stroke-dasharray="4,4" stroke="black" stroke-opacity="1" x1="817" y1="207" x2="692" y2="230" />
</g>
<g>
	<line stroke="black" stroke-opacity="1" x1="785" y1="619" x2="792" y2="621" />
	<line stroke="black" stroke-opacity="1" x1="785" y1="619" x2="787" y2="611" />
	<line stroke-dasharray="4,4" stroke="black" stroke-opacity="1" x1="862" y1="584" x2="785" y2="619" />
</g>
<g>
	<line stroke="black" stroke-opacity="1" x1="523" y1="410" x2="531" y2="408" />
	<line stroke="black" stroke-opacity="1" x1="523" y1="410" x2="521" y2="401" />
	<line stroke-dasharray="4,4" stroke="black" stroke-opacity="1" x1="635" y1="256" x2="523" y2="410" />
</g>
<g>
	<line stroke="black" stroke-opacity="1" x1="491" y1="443" x2="482" y2="442" />
	<line stroke="black" stroke-opacity="1" x1="491" y1="443" x2="490" y2="451" />
	<line stroke-dasharray="4,4" stroke="black" stroke-opacity="1" x1="329" y1="580" x2="491" y2="443" />
</g>
<g>
	<line stroke="black" stroke-opacity="1" x1="302" y1="346" x2="305" y2="353" />
	<line stroke="black" stroke-opacity="1" x1="302" y1="346" x2="309" y2="342" />
	<line stroke-dasharray="4,4" stroke="black" stroke-opacity="1" x1="472" y1="411" x2="302" y2="346" />
</g>
<g>
	<line stroke="black" stroke-opacity="1" x1="278" y1="266" x2="279" y2="274" />
	<line stroke="black" stroke-opacity="1" x1="278" y1="266" x2="286" y2="264" />
	<line stroke-dasharray="4,4" stroke="black" stroke-opacity="1" x1="490" y1="410" x2="278" y2="266" />
</g>
<g>
	<line stroke="black" stroke-opacity="1" x1="312" y1="670" x2="318" y2="664" />
	<line stroke="black" stroke-opacity="1" x1="312" y1="670" x2="306" y2="663" />
	<line stroke-dasharray="4,4" stroke="black" stroke-opacity="1" x1="313" y1="612" x2="312" y2="670" />
</g>
<g>
	<line stroke="black" stroke-opacity="1" x1="352" y1="214" x2="350" y2="222" />
	<line stroke="black" stroke-opacity="1" x1="352" y1="214" x2="360" y2="215" />
	<line stroke-dasharray="4,4" stroke="black" stroke-opacity="1" x1="500" y1="410" x2="352" y2="214" />
</g>
<g>
	<line stroke="black" stroke-opacity="1" x1="509" y1="443" x2="501" y2="447" />
	<line stroke="black" stroke-opacity="1" x1="509" y1="443" x2="513" y2="450" />
	<line stroke-dasharray="4,4" stroke="black" stroke-opacity="1" x1="486" y1="566" x2="509" y2="443" />
</g>
<g>
	<line stroke="black" stroke-opacity="1" x1="497" y1="319" x2="688" y2="520" />
</g>
<g>
	<line stroke="black" stroke-opacity="1" x1="331" y1="533" x2="434" y2="566" />
</g>
<g>
	<line stroke="black" stroke-opacity="1" x1="440" y1="293" x2="302" y2="317" />
</g>
<g>
	<line stroke="black" stroke-opacity="1" x1="440" y1="268" x2="377" y2="214" />
</g>
<g>
	<line stroke="black" stroke-opacity="1" x1="311" y1="558" x2="312" y2="580" />
</g>
<g>
	<line stroke="black" stroke-opacity="1" x1="497" y1="279" x2="604" y2="250" />
</g>
<g>
	<line stroke="black" stroke-opacity="1" x1="488" y1="257" x2="514" y2="215" />
</g>
<g>
	<line stroke="black" stroke-opacity="1" x1="440" y1="304" x2="280" y2="399" />
</g>
<g>
	<line stroke="black" stroke-opacity="1" x1="497" y1="299" x2="685" y2="372" />
</g>
<g>
	<ellipse fill="#cbcbcb" stroke="none" cx="86" cy="337" rx="42" ry="17" />
	<ellipse fill="#ffffc0" stroke="black" stroke-width="1" stroke-opacity="1" cx="83" cy="334" rx="42" ry="17" />
</g>
<g>
	<line stroke="black" stroke-opacity="1" x1="440" y1="283" x2="316" y2="257" />
</g>
<g>
	<text font-family="Helvetica" font-size="8" fill="#000000" xml:space="preserve" x="55" y="335">odabirZanra</text>
</g>
<g>
	<line stroke="black" stroke-opacity="1" x1="63" y1="276" x2="59" y2="283" />
	<line stroke="black" stroke-opacity="1" x1="63" y1="276" x2="70" y2="279" />
	<line stroke-dasharray="4,4" stroke="black" stroke-opacity="1" x1="77" y1="316" x2="63" y2="276" />
</g>
</svg>
